<?xml version="1.0" encoding="utf-8"?>
<!-- Generator: Adobe Illustrator 15.0.0, SVG Export Plug-In . SVG Version: 6.00 Build 0)  -->
<!DOCTYPE svg PUBLIC "-//W3C//DTD SVG 1.1//EN" "http://www.w3.org/Graphics/SVG/1.1/DTD/svg11.dtd">
<svg version="1.1" id="Layer_1" xmlns="http://www.w3.org/2000/svg" xmlns:xlink="http://www.w3.org/1999/xlink" x="0px" y="0px"
	 width="120px" height="120px" viewBox="0 0 120 120" enable-background="new 0 0 120 120" xml:space="preserve">
<g>
	<defs>
		<rect id="SVGID_1_" width="120" height="120"/>
	</defs>
	<clipPath id="SVGID_2_">
		<use xlink:href="#SVGID_1_"  overflow="visible"/>
	</clipPath>
	<path clip-path="url(#SVGID_2_)" fill="#71C5E8" d="M120,108.001c0,6.627-5.373,11.999-12,11.999H12c-6.628,0-12-5.372-12-11.999
		v-96c0-6.628,5.372-12,12-12h96c6.627,0,12,5.372,12,12V108.001z"/>
</g>
<g display="none">
	<g display="inline">
		<g>
			<g>
				<defs>
					<rect id="SVGID_3_" width="120" height="120"/>
				</defs>
				<clipPath id="SVGID_4_">
					<use xlink:href="#SVGID_3_"  overflow="visible"/>
				</clipPath>
				<path clip-path="url(#SVGID_4_)" fill="#F8FAF6" d="M47.849,71.256h24.217c0.683-4.1,1.815-7.141,5.979-12.227
					c4.086-5.161,5.963-9.563,5.963-15.483c0-12.828-10.654-23.228-24.053-23.228c-13.396,0-23.969,10.4-23.969,23.228
					c0,5.92,1.717,10.322,5.881,15.483C46.032,64.115,47.167,67.156,47.849,71.256"/>
			</g>
		</g>
	</g>
</g>
<g display="none">
	<g display="inline">
		<g>
			<g>
				<defs>
					<rect id="SVGID_5_" width="120" height="120"/>
				</defs>
				<clipPath id="SVGID_6_">
					<use xlink:href="#SVGID_5_"  overflow="visible"/>
				</clipPath>
				<path clip-path="url(#SVGID_6_)" fill="#C9F2A0" d="M47.897,83.927h24.207c1.453,0,2.631,0.929,2.631,2.382
					s-1.178,2.631-2.631,2.631H47.897c-1.453,0-2.632-1.179-2.632-2.631C45.265,84.855,46.444,83.927,47.897,83.927"/>
			</g>
		</g>
	</g>
</g>
<g display="none">
	<g display="inline">
		<g>
			<g>
				<defs>
					<rect id="SVGID_7_" width="120" height="120"/>
				</defs>
				<clipPath id="SVGID_8_">
					<use xlink:href="#SVGID_7_"  overflow="visible"/>
				</clipPath>
				<path clip-path="url(#SVGID_8_)" fill="#C9F2A0" d="M47.897,74.923h24.207c1.453,0,2.631,1.095,2.631,2.548
					s-1.178,2.413-2.631,2.413H47.897c-1.453,0-2.632-0.96-2.632-2.413S46.444,74.923,47.897,74.923"/>
			</g>
		</g>
	</g>
</g>
<g display="none">
	<g display="inline">
		<g>
			<g>
				<defs>
					<rect id="SVGID_9_" width="120" height="120"/>
				</defs>
				<clipPath id="SVGID_10_">
					<use xlink:href="#SVGID_9_"  overflow="visible"/>
				</clipPath>
				<path clip-path="url(#SVGID_10_)" fill="#5D8838" d="M60.001,99.964c6.349,0,8.424-3.68,11.577-11.024H48.423
					C51.642,96.35,53.719,99.964,60.001,99.964"/>
			</g>
		</g>
	</g>
</g>
<path fill="#F5FAFC" d="M87.427,65.7l-7.3-10.8V54c0-13.2-10.8-24-24-24c-1.9,0-3.8,0.2-5.7,0.7c-10.6,2.4-18.3,12.2-18.3,23.3
	c0,4.9,1.2,9.3,3.6,12.7c4.2,6,7,10.8,5.3,17.3c-0.4,1.5-0.1,3,0.9,4.2c0.9,1.2,2.2,1.8,3.7,1.8h19.701c2.3,0,4.3-1.6,4.7-3.8
	c0.1-0.4,0.199-0.8,0.199-1.2c0.2-1.2,1.2-2,2.4-2h1.4c2.199,0,4.1-1.3,4.699-3.4c0.601-2.3,1.4-5.6,1.5-9.6h5.2
	c0.9,0,1.8-0.8,2.2-1.6C88.027,67.6,87.927,66.3,87.427,65.7z M71.527,52c-0.801,1.3-2.4,2-4.7,2c-12.301,0-13.201,9-13.201,13.3
	c0,2-1.6,3.7-3.6,3.7h-0.3c-1.7,0-3.1-1.2-3.5-2.9c-0.4-1.8-1.6-2.8-2.8-3.699c-0.8-0.601-1.6-1.2-2-2.101c-1.1-2.3-2.2-5-2.2-8.4
	c0-7.8,5.4-14.6,12.7-16.3c1.4-0.3,2.7-0.5,4.1-0.5c6.801,0,12.9,4.1,15.501,10.3C71.627,47.7,72.727,50.1,71.527,52z"/>
</svg>
