<?xml version="1.0" encoding="utf-8"?>
<!-- Generator: Adobe Illustrator 15.0.0, SVG Export Plug-In . SVG Version: 6.00 Build 0)  -->
<!DOCTYPE svg PUBLIC "-//W3C//DTD SVG 1.1//EN" "http://www.w3.org/Graphics/SVG/1.1/DTD/svg11.dtd">
<svg version="1.1" id="Layer_8" xmlns="http://www.w3.org/2000/svg" xmlns:xlink="http://www.w3.org/1999/xlink" x="0px" y="0px"
	 width="120px" height="120px" viewBox="0 0 120 120" enable-background="new 0 0 120 120" xml:space="preserve">
<path fill="#4AB471" d="M120,108c0,6.627-5.373,12-12,12H12c-6.627,0-12-5.373-12-12V12C0,5.373,5.374,0,12,0h96
	c6.627,0,12,5.373,12,12V108z"/>
<circle fill="#F1FCF5" cx="60" cy="60" r="40"/>
<g>
	<path fill="#4AB471" d="M59.517,61.891h4.076V50.815c0.61-3.262,3.872-3.873,3.872-3.873V34.713h-7.948h-7.951v12.229
		c0,0,3.262,0.611,3.874,3.873v11.076H59.517"/>
	<path fill="#4AB471" d="M60.008,72.761h23.17v-5.571c0,0-0.273-2.922-2.922-2.922c-2.65,0-20.248,0-20.248,0h-0.016
		c0,0-17.596,0-20.246,0c-2.651,0-2.923,2.922-2.923,2.922v5.571h23.168"/>
	<path fill="#4AB471" d="M59.839,79.333c0,0,16.068,0,17.902,0s2.038-2.038,2.038-2.038v-3.059H59.855h-0.034H39.898v3.059
		c0,0,0.204,2.038,2.038,2.038S59.839,79.333,59.839,79.333"/>
</g>
</svg>
