<?xml version="1.0" encoding="utf-8"?>
<!-- Generator: Adobe Illustrator 15.0.0, SVG Export Plug-In . SVG Version: 6.00 Build 0)  -->
<!DOCTYPE svg PUBLIC "-//W3C//DTD SVG 1.1//EN" "http://www.w3.org/Graphics/SVG/1.1/DTD/svg11.dtd">
<svg version="1.1" id="Layer_1" xmlns="http://www.w3.org/2000/svg" xmlns:xlink="http://www.w3.org/1999/xlink" x="0px" y="0px"
	 width="120px" height="120px" viewBox="0 0 120 120" enable-background="new 0 0 120 120" xml:space="preserve">
<g id="Blue">
	<circle fill="#2A94D6" cx="60" cy="60" r="60"/>
</g>
<g id="Chat">
	<path fill="#FFFFFF" d="M89,45.2c-0.734-4.867-6.201-9.533-11-10.065C72,34.533,66,34.2,60,34.2s-12,0.333-18,0.935
		c-4.8,0.531-10.267,5.197-11.066,10.065c-0.533,3.8-0.801,7.733-0.801,11.666c0,3.801,0.268,7.668,0.801,11.399
		C31.733,73.133,37.2,77.8,42,78.333c1.733,0.199,3.466,0.267,5.2,0.399v10.933c0,0.867,0.467,1.668,1.267,2
		C48.734,91.73,49,91.8,49.334,91.8c0.533,0,1.066-0.2,1.467-0.602l12.734-12.332c4.799-0.066,9.6-0.334,14.465-0.802
		c4.801-0.532,10.268-4.934,11-9.799c0.602-3.733,0.867-7.602,0.867-11.468C89.867,52.932,89.6,48.999,89,45.2z"/>
</g>
</svg>
