<svg id="Layer_1" data-name="Layer 1" xmlns="http://www.w3.org/2000/svg" xmlns:xlink="http://www.w3.org/1999/xlink" viewBox="0 0 130 100"><defs><style>.cls-1,.cls-4{fill:none;}.cls-2{clip-path:url(#clip-path);}.cls-3{fill:#f5f6fa;}.cls-4{stroke:#d1d1d4;}.cls-5{fill:#006ab9;}</style><clipPath id="clip-path"><rect class="cls-1" x="5" y="2.5" width="120.05" height="93"/></clipPath></defs><title>filters_icon</title><g class="cls-2"><path class="cls-3" d="M16.53,3S5.46,3,5.46,14V84S5.46,95,16.53,95h97S124.59,95,124.59,84V14S124.59,3,113.52,3h-97Z"/><path class="cls-4" d="M16.53,3S5.46,3,5.46,14V84S5.46,95,16.53,95h97S124.59,95,124.59,84V14S124.59,3,113.52,3h-97Z"/><path class="cls-5" d="M89.58,24.65H40.45A1.91,1.91,0,0,0,39,27.75L60.59,52.87a4.66,4.66,0,0,1,1.11,2.88V71.69a1.7,1.7,0,0,0,1.66,1.66h3.32a1.7,1.7,0,0,0,1.66-1.66V55.75a3.92,3.92,0,0,1,1.11-2.88L91,27.75a1.88,1.88,0,0,0-1.44-3.1"/></g></svg>