<svg id="Layer_1" data-name="Layer 1" xmlns="http://www.w3.org/2000/svg" xmlns:xlink="http://www.w3.org/1999/xlink" viewBox="0 0 130 100"><defs><style>.cls-1,.cls-4{fill:none;}.cls-2{clip-path:url(#clip-path);}.cls-3{fill:#fff;}.cls-4{stroke:#a7b7cf;stroke-width:1.56px;}.cls-5{fill:#54698c;}</style><clipPath id="clip-path"><rect class="cls-1" x="4.63" y="2.5" width="119.9" height="93"/></clipPath></defs><title>filters_icon</title><g class="cls-2"><path class="cls-3" d="M16.8,3.22S5.35,3.22,5.35,14.66V83.34s0,11.45,11.45,11.45h95.58s11.45,0,11.45-11.45V14.66s0-11.45-11.45-11.45H16.8Z"/><path class="cls-4" d="M16.8,3.22S5.35,3.22,5.35,14.66V83.34s0,11.45,11.45,11.45h95.58s11.45,0,11.45-11.45V14.66s0-11.45-11.45-11.45H16.8Z"/><path class="cls-5" d="M89,24.79H40.14a1.9,1.9,0,0,0-1.43,3.08l21.46,25a4.64,4.64,0,0,1,1.1,2.86V71.56a1.69,1.69,0,0,0,1.65,1.65h3.3a1.69,1.69,0,0,0,1.65-1.65V55.71A3.9,3.9,0,0,1,69,52.85l21.46-25A1.87,1.87,0,0,0,89,24.79"/></g></svg>