<svg id="Layer_1" data-name="Layer 1" xmlns="http://www.w3.org/2000/svg" xmlns:xlink="http://www.w3.org/1999/xlink" viewBox="0 0 130 100"><defs><style>.cls-1,.cls-4{fill:none;}.cls-2{clip-path:url(#clip-path);}.cls-3{fill:#fff;}.cls-4{stroke:#a7b7cf;stroke-width:2px;}.cls-5{fill:#006ab8;}</style><clipPath id="clip-path"><rect class="cls-1" x="5.52" y="2.5" width="119.5" height="92.78"/></clipPath></defs><title>filters_icon</title><g class="cls-2"><path class="cls-3" d="M17.8,3.41S6.43,3.41,6.43,14.78V83s0,11.37,11.37,11.37h94.94s11.37,0,11.37-11.37V14.78s0-11.37-11.37-11.37H17.8Z"/><path class="cls-4" d="M17.8,3.41S6.43,3.41,6.43,14.78V83s0,11.37,11.37,11.37h94.94s11.37,0,11.37-11.37V14.78s0-11.37-11.37-11.37H17.8Z"/><path class="cls-5" d="M89.52,24.84H41a1.88,1.88,0,0,0-1.42,3.06L60.88,52.72A4.61,4.61,0,0,1,62,55.56V71.3a1.68,1.68,0,0,0,1.64,1.64H66.9a1.68,1.68,0,0,0,1.64-1.64V55.56a3.87,3.87,0,0,1,1.09-2.84L90.95,27.9a1.86,1.86,0,0,0-1.42-3.06"/></g></svg>