<?xml version="1.0" encoding="utf-8"?>
<!-- Generator: Adobe Illustrator 15.0.0, SVG Export Plug-In . SVG Version: 6.00 Build 0)  -->
<!DOCTYPE svg PUBLIC "-//W3C//DTD SVG 1.1//EN" "http://www.w3.org/Graphics/SVG/1.1/DTD/svg11.dtd">
<svg version="1.1" id="Layer_1" xmlns="http://www.w3.org/2000/svg" xmlns:xlink="http://www.w3.org/1999/xlink" x="0px" y="0px"
	 width="120px" height="120px" viewBox="0 0 120 120" enable-background="new 0 0 120 120" xml:space="preserve">
<g id="Red">
	<circle fill="#CF5C60" cx="60" cy="60" r="60"/>
</g>
<g id="cross">
	<path fill="#FFFFFF" d="M69.869,59.998l12.6-12.601c1.135-1.133,1.333-2.8,0.469-3.8c-1.936-2.467-4.067-4.6-6.533-6.533
		c-1-0.866-2.668-0.666-3.801,0.467L60.003,49.598L47.336,37.531c-1.066-1.133-2.733-1.333-3.8-0.467
		c-2.4,1.934-4.533,4.066-6.467,6.533c-0.867,1-0.667,2.667,0.467,3.8l12.6,12.601L37.469,72.664c-1.066,1.064-1.267,2.732-0.4,3.8
		c1.934,2.4,4.067,4.533,6.467,6.468c1.066,0.865,2.733,0.668,3.8-0.399l12.667-12.667l12.601,12.666
		c1.133,1.066,2.801,1.267,3.801,0.4c2.466-1.936,4.6-4.066,6.533-6.533c0.864-1,0.666-2.668-0.469-3.733L69.869,59.998z"/>
</g>
</svg>
