<?xml version="1.0" encoding="utf-8"?>
<!-- Generator: Adobe Illustrator 15.0.0, SVG Export Plug-In . SVG Version: 6.00 Build 0)  -->
<!DOCTYPE svg PUBLIC "-//W3C//DTD SVG 1.1//EN" "http://www.w3.org/Graphics/SVG/1.1/DTD/svg11.dtd">
<svg version="1.1" id="warning_2_" xmlns="http://www.w3.org/2000/svg" xmlns:xlink="http://www.w3.org/1999/xlink" x="0px" y="0px"
	 width="36px" height="36px" viewBox="0 0 36 36" enable-background="new 0 0 36 36" xml:space="preserve">
<path fill="#44596C" d="M35.55,31.012L20.103,2.439c-0.412-0.75-1.236-1.237-2.099-1.237c-0.9,0-1.688,0.487-2.1,1.237L0.305,31.273
	c-0.412,0.75-0.412,1.648,0.038,2.361c0.45,0.713,1.2,1.162,2.062,1.162h31.195c1.312,0,2.398-1.051,2.398-2.398
	C36,31.873,35.813,31.385,35.55,31.012z M18.003,31.535c-1.5,0-2.7-1.199-2.7-2.699s1.2-2.699,2.7-2.699
	c1.5,0,2.699,1.199,2.699,2.699S19.502,31.535,18.003,31.535z M19.54,21.602c-0.112,0.748-0.787,1.424-1.5,1.424h-0.112
	c-0.675,0-1.35-0.676-1.462-1.424c-0.6-3.151-0.9-6.526-1.2-9.338c-0.038-0.637,0.488-1.35,1.163-1.5
	c1.237-0.224,1.949-0.224,3.187,0c0.713,0.15,1.162,0.862,1.125,1.5C20.44,15.076,20.14,18.451,19.54,21.602z"/>
</svg>
