<?xml version="1.0" encoding="utf-8"?>
<!-- Generator: Adobe Illustrator 16.0.0, SVG Export Plug-In . SVG Version: 6.00 Build 0)  -->
<!DOCTYPE svg PUBLIC "-//W3C//DTD SVG 1.1//EN" "http://www.w3.org/Graphics/SVG/1.1/DTD/svg11.dtd">
<svg version="1.1" xmlns="http://www.w3.org/2000/svg" xmlns:xlink="http://www.w3.org/1999/xlink" x="0px" y="0px" width="65px"
	 height="59px" viewBox="0 0 65 59" enable-background="new 0 0 65 59" xml:space="preserve">
<g id="Details">
	
		<rect x="-20.989" y="-19.271" fill="none" stroke="#999999" stroke-width="0.6442" stroke-miterlimit="10" width="110.61" height="110.017"/>
</g>
<g id="Icons">
	<path fill="#2C318A" d="M18.474,42.646c1.326,0,1.574,3.228,1.822,5.121c0.164,0.993,0.328,1.072,0.742,1.072c0.992,0,2.557-3.795,3.615-3.795
		c1.564,0,5.779,4.379,12.799,4.379c9.979,0,19.395-7.025,19.395-19.411c0-11.981-8.43-19.003-20.053-19.003
		c-5.535,0-9.584,2.724-11.729,2.724c-1.303,0.085-3.285-3.218-4.279-3.218c-0.41,0-0.822,0.818-0.822,2.23
		c0,0.908,0,3.799-0.996,3.799c-1.982,0-9.652-5.697-9.652-3.637c0,1.904,5.109,7.689,5.109,9.168c0,1.49-5.027,2.898-5.027,3.887
		c0,1.818,5.361,2.147,5.361,4.466c0,2.31-5.611,4.125-5.611,5.86c0,1.406,5.611,0.416,5.611,2.148c0,1.731-4.121,7.516-4.121,9.164
		c0,0.418,0.082,0.418,0.406,0.418C12.614,48.02,17.315,42.646,18.474,42.646 M20.872,29.102c0-0.91-3.227-2.639-3.227-3.631
		c0-0.166,0.162-0.251,0.418-0.251c0.904,0,2.479,0.333,3.717,0.333c1.07,0,1.24-4.627,2.045-4.627c0.578,0,1.566,4.379,2.48,4.379
		c1.074,0,3.053-1.244,3.883-1.244c0.164,0,0.324,0.082,0.324,0.252c0,0.578-2.066,2.809-2.066,3.469
		c0,0.743,4.629,1.654,4.629,2.317c0,0.825-4.705,0.744-4.705,1.482c0,0.575,1.732,2.894,1.732,3.636
		c0,0.17-0.086,0.249-0.246,0.249c-0.66,0-3.221-1.157-3.963-1.157c-0.908,0-2.377,3.387-3.121,3.387c-0.25,0-0.41-0.336-0.41-0.744
		l-0.174-3.308c0-0.325-0.158-0.659-0.576-0.659c-0.988,0-2.889-0.081-3.467-0.081c-0.418,0-0.584-0.083-0.584-0.248
		C17.562,31.994,20.872,29.68,20.872,29.102 M36.96,44.799c-5.783,0-9.58-2.893-9.58-4.379c0-0.746,0.488-1.236,1.158-1.236
		c1.814,0,5.777,2.803,7.098,2.803c0.332,0,0.58-0.162,0.58-0.654c0-1.492-1.402-3.973-1.402-5.204c0-0.333,0.248-0.581,0.744-0.581
		c2.227,0,5.531,0.914,7.266,0.914c0.576,0,0.74-0.333,0.74-0.666c0-1.816-5.365-5.366-5.365-6.445c0-0.988,6.67-2.479,6.67-4.045
		c0-1.655-9.066-0.5-9.066-2.068c0-1.16,1.736-3.135,1.736-4.047c0-0.412-0.334-0.581-0.908-0.581c-0.744,0-4.709,1.574-6.359,1.574
		c-0.826,0-1.824-0.163-1.824-1.322c0-1.906,3.223-3.964,8.268-3.964c8.154,0,13.029,5.618,13.029,15.033
		C49.743,41.824,41.417,44.799,36.96,44.799"/>
</g>
</svg>
