<svg id="Layer_1" data-name="Layer 1" xmlns="http://www.w3.org/2000/svg" xmlns:xlink="http://www.w3.org/1999/xlink" viewBox="0 0 100 100"><defs><style>.cls-1{fill:none;}.cls-2{clip-path:url(#clip-path);}.cls-3{fill:#6da1ea;}.cls-4{fill:#fff;}</style><clipPath id="clip-path"><rect class="cls-1" x="3" y="3" width="94" height="94"/></clipPath></defs><title>TEM_icon</title><g class="cls-2"><path class="cls-3" d="M50,97A47,47,0,1,0,3,50,47,47,0,0,0,50,97"/><path class="cls-4" d="M51.62,57.27A3.23,3.23,0,1,1,54.85,54a3.24,3.24,0,0,1-3.23,3.23m-9.69,0A3.23,3.23,0,1,1,45.15,54a3.24,3.24,0,0,1-3.23,3.23m-9.69,0A3.23,3.23,0,1,1,35.46,54a3.24,3.24,0,0,1-3.23,3.23m9.69-20.19c-9.77,0-17.77,7.59-17.77,17a16.48,16.48,0,0,0,2.26,8.32,1.39,1.39,0,0,1,.16,1l-1.7,5.41a1.2,1.2,0,0,0,1.54,1.53l5.17-1.86a1.31,1.31,0,0,1,1,.08A18.25,18.25,0,0,0,41.92,71c9.77,0,17.77-7.59,17.77-17s-8-17-17.77-17M73.5,55.25a1,1,0,0,1,.16-1A17.26,17.26,0,0,0,75.85,46c0-9.37-8-17-17.77-17a18.38,18.38,0,0,0-11.15,3.8A22,22,0,0,1,64.54,54a20.05,20.05,0,0,1-1.7,8.24,16.38,16.38,0,0,0,4.6-1.94,1,1,0,0,1,1-.08l5.17,1.86a1.24,1.24,0,0,0,1.53-1.54Z"/></g></svg>