<?xml version="1.0" standalone="no"?>
<!DOCTYPE svg PUBLIC "-//W3C//DTD SVG 1.1//EN" "http://www.w3.org/Graphics/SVG/1.1/DTD/svg11.dtd" >
<svg>
<metadata>
Created by FontForge 20090914 at Wed Oct 22 07:32:16 2014
 By www-data
2009 Albert-Jan Pool published by FSI FontShop International GmbH
</metadata>
<defs>
<font id="UnileverDINOffcPro" horiz-adv-x="530" >
  <font-face 
    font-family="Unilever DIN Offc Pro"
    font-weight="400"
    font-stretch="normal"
    units-per-em="1000"
    panose-1="2 11 5 4 2 1 1 2 1 2"
    ascent="764"
    descent="-236"
    x-height="492"
    cap-height="712"
    bbox="-107 -225.999 1172 1148"
    underline-thickness="51"
    underline-position="-89"
    unicode-range="U+0020-U+FEFF"
  />
<missing-glyph horiz-adv-x="562" 
d="M90 712h382v-712h-382v712zM421 51v610h-280v-610h280z" />
    <glyph glyph-name=".notdef" horiz-adv-x="562" 
d="M90 712h382v-712h-382v712zM421 51v610h-280v-610h280z" />
    <glyph glyph-name="space" unicode=" " horiz-adv-x="249" 
 />
    <glyph glyph-name="exclam" unicode="!" horiz-adv-x="316" 
d="M204 200h-62l-10 512h83zM130 0v84h86v-84h-86z" />
    <glyph glyph-name="quotedbl" unicode="&#x22;" horiz-adv-x="423" 
d="M256 542v170h79v-170h-79zM88 542v170h79v-170h-79z" />
    <glyph glyph-name="numbersign" unicode="#" horiz-adv-x="653" 
d="M506 432l-23 -141h89v-64h-99l-36 -227h-74l36 227h-160l-35 -227h-74l36 227h-89v64h100l23 141h-92v66h101l34 215h75l-35 -215h159l34 215h73l-34 -215h87v-66h-96zM273 432l-23 -141h159l23 141h-159z" />
    <glyph glyph-name="dollar" unicode="$" horiz-adv-x="596" 
d="M540 196c0 -29.333 -5.16797 -55.668 -15.501 -79.001s-25 -43.666 -44 -60.999s-42 -31.166 -69 -41.499s-56.833 -16.5 -89.5 -18.5v-110h-60v108c-47.333 2 -88 10.333 -122 25s-66.667 37.667 -98 69l52 52c26.667 -26.667 53.5 -45.834 80.5 -57.501
s57.5 -18.167 91.5 -19.5v265l-20 2c-27.333 2.66699 -52.333 9.33398 -75 20.001s-41 22 -55 34c-36.667 32.667 -55 77 -55 133c0 56.667 17.833 102.834 53.5 138.501s84.834 56.167 147.501 61.5v89h60v-89c38.667 -2 72.334 -9.16699 101.001 -21.5
s57 -30.833 85 -55.5l-49 -49c-19.333 17.333 -39.833 31.166 -61.5 41.499s-47.834 16.5 -78.501 18.5v-259l31 -5c16.667 -2.66699 31.334 -5.5 44.001 -8.5s24 -6.5 34 -10.5s19.167 -8.5 27.5 -13.5s16.166 -10.833 23.499 -17.5
c19.333 -16.667 34.333 -36.834 45 -60.501s16 -50.5 16 -80.5zM463.999 193.998c0 18.667 -2.99902 35.667 -8.99902 51s-14.667 28 -26 38c-16.667 14.667 -33.834 23.667 -51.501 27s-37.167 6.66602 -58.5 9.99902v-257c45.333 3.33301 80.833 16.333 106.5 39
s38.5 53.334 38.5 92.001zM266 650.998c-42 -3.33301 -74.167 -16.668 -96.5 -40.001s-33.5 -53.666 -33.5 -90.999c0 -36 10.667 -63.333 32 -82c14 -11.333 29.5 -20 46.5 -26s34.167 -10.333 51.5 -13v252z" />
    <glyph glyph-name="percent" unicode="%" horiz-adv-x="833" 
d="M277 582c0 27.333 -5.83301 48.666 -17.5 63.999s-31.5 23 -59.5 23s-48 -7.66699 -60 -23s-18 -36.666 -18 -63.999v-101c0 -27.333 6 -48.5 18 -63.5s32 -22.5 60 -22.5s47.833 7.5 59.5 22.5s17.5 36.167 17.5 63.5v101zM335 479c0 -42 -12.667 -74.833 -38 -98.5
s-57.666 -35.5 -96.999 -35.5s-71.666 11.833 -96.999 35.5s-38 56.5 -38 98.5v105c0 42 12.667 75 38 99s57.666 36 96.999 36s71.666 -12 96.999 -36s38 -57 38 -99v-105zM711 230c0 27.333 -5.83301 48.666 -17.5 63.999s-31.5 23 -59.5 23s-48 -7.66699 -60 -23
s-18 -36.666 -18 -63.999v-100c0 -28 6 -49.5 18 -64.5s32 -22.5 60 -22.5s47.833 7.5 59.5 22.5s17.5 36.5 17.5 64.5v100zM769 127c0 -41.333 -12.667 -74 -38 -98s-57.666 -36 -96.999 -36s-71.666 12 -96.999 36s-38 56.667 -38 98v105c0 42 12.667 75 38 99
s57.666 36 96.999 36s71.666 -12 96.999 -36s38 -57 38 -99v-105zM280 0h-60l334 712h60z" />
    <glyph glyph-name="ampersand" unicode="&#x26;" horiz-adv-x="739" 
d="M576 0l-63.9961 77.9971c-7.33301 -6.66699 -17 -14.834 -29 -24.501s-26.667 -18.834 -44 -27.501s-37.333 -16.167 -60 -22.5s-48.334 -9.5 -77.001 -9.5c-34.667 0 -65.834 5 -93.501 15s-51.334 24 -71.001 42s-34.667 39.667 -45 65s-15.5 53.666 -15.5 84.999
c0 26.667 4.33301 50.334 13 71.001s20.167 39.334 34.5 56.001s30.833 31.834 49.5 45.501l57 40.5l-26.5 33c-9 11.333 -17.333 23.333 -25 36s-13.834 26.167 -18.501 40.5s-7 29.5 -7 45.5c0 21.333 3.83301 41 11.5 59s18.5 33.667 32.5 47s30.667 23.833 50 31.5
s40.333 11.5 63 11.5c22 0 42.5 -3.83301 61.5 -11.5s35.5 -18.167 49.5 -31.5s24.833 -29.166 32.5 -47.499s11.5 -38.166 11.5 -59.499c0 -28.667 -7.5 -53.167 -22.5 -73.5s-33.833 -38.166 -56.5 -53.499l-53 -36l182 -219c7.33301 10.667 13.5 21.5 18.5 32.5
s9 22.833 12 35.5s5.33301 26.667 7 42s2.5 33 2.5 53h72c-0.666992 -45.333 -6 -86 -16 -122s-26.667 -68 -50 -96l109 -131h-95zM273.004 365.997l-44.998 -31.9971c-14.667 -10.667 -27.667 -22.334 -39 -35.001s-20.5 -26.834 -27.5 -42.501s-10.5 -33.5 -10.5 -53.5
c0 -21.333 3.66699 -40.666 11 -57.999s17.666 -32.333 30.999 -45s29.166 -22.334 47.499 -29.001s38.5 -10 60.5 -10c26.667 0 53.667 4.66699 81 14s56.333 27.666 87 54.999zM395.006 568c0 24 -8 44.166 -24 60.499s-36 24.5 -60 24.5
c-24.667 0 -44.5 -7.83301 -59.5 -23.5s-22.5 -35.5 -22.5 -59.5c0 -16.667 4.83301 -33.167 14.5 -49.5s26.167 -38.833 49.5 -67.5l38 26c16.667 11.333 31.5 23.833 44.5 37.5s19.5 30.834 19.5 51.501z" />
    <glyph glyph-name="quotesingle" unicode="'" horiz-adv-x="255" 
d="M88 542v170h79v-170h-79z" />
    <glyph glyph-name="parenleft" unicode="(" horiz-adv-x="298" 
d="M185 -94c-17.333 17.333 -31.5 32.1709 -42.5 44.5039s-20.833 26.166 -29.5 41.499c-9.33301 17.333 -15.166 34.166 -17.499 50.499s-3.5 33.833 -3.5 52.5v522c0 18 1.16699 35.5 3.5 52.5s8.16602 33.833 17.499 50.5c8.66699 15.333 18.5 29.166 29.5 41.499
s25.167 27.166 42.5 44.499l51 -51c-13.333 -12.667 -24.333 -23.667 -33 -33s-16 -20 -22 -32c-5.33301 -10 -9 -21.5 -11 -34.5s-3 -27.833 -3 -44.5v-510c0 -16.667 0.833008 -31 2.5 -43s5.5 -24 11.5 -36s13.333 -22.667 22 -32s19.667 -20.333 33 -33z" />
    <glyph glyph-name="parenright" unicode=")" horiz-adv-x="298" 
d="M61 -43c13.333 12.667 24.333 23.6621 33 32.9951s16 20 22 32s9.83301 24 11.5 36s2.5 26.333 2.5 43v510c0 16.667 -1 31.5 -3 44.5s-5.66699 24.5 -11 34.5c-6 12 -13.333 22.667 -22 32s-19.667 20.333 -33 33l51 51c17.333 -17.333 31.5 -32.166 42.5 -44.499
s20.833 -26.166 29.5 -41.499c9.33301 -16.667 15.166 -33.5 17.499 -50.5s3.5 -34.5 3.5 -52.5v-522c0 -18.667 -1.16699 -36.167 -3.5 -52.5s-8.16602 -33.166 -17.499 -50.499c-8.66699 -15.333 -18.5 -29.166 -29.5 -41.499s-25.167 -27.166 -42.5 -44.499z" />
    <glyph glyph-name="asterisk" unicode="*" horiz-adv-x="474" 
d="M379 423l-117 71l4 -137h-58l4 137l-116 -71l-29 49l120 65l-120 66l29 48l116 -71l-4 137h58l-4 -137l117 71l28 -48l-120 -66l120 -65z" />
    <glyph glyph-name="plus" unicode="+" horiz-adv-x="522" 
d="M295 234v-176h-67v176h-176v67h176v174h67v-174h175v-67h-175z" />
    <glyph glyph-name="comma" unicode="," horiz-adv-x="264" 
d="M88 -144v232h88v-153z" />
    <glyph glyph-name="hyphen" unicode="-" horiz-adv-x="426" 
d="M76 236v67h274v-67h-274z" />
    <glyph glyph-name="period" unicode="." horiz-adv-x="270" 
d="M88 0v94h94v-94h-94z" />
    <glyph glyph-name="slash" unicode="/" horiz-adv-x="355" 
d="M71 -74h-71l285 860h71z" />
    <glyph glyph-name="zero" unicode="0" horiz-adv-x="522" 
d="M456 190c0 -29.333 -5 -56.166 -15 -80.499s-23.667 -45 -41 -62s-37.833 -30.167 -61.5 -39.5s-49.5 -14 -77.5 -14s-53.833 4.66699 -77.5 14s-44.334 22.5 -62.001 39.5s-31.334 37.667 -41.001 62s-14.5 51.166 -14.5 80.499v332
c0 29.333 4.83301 56.166 14.5 80.499s23.334 45 41.001 62s38.334 30.167 62.001 39.5s49.5 14 77.5 14s53.833 -4.66699 77.5 -14s44.167 -22.5 61.5 -39.5s31 -37.667 41 -62s15 -51.166 15 -80.499v-332zM384 518c0 39.333 -10.5 71.833 -31.5 97.5
s-51.5 38.5 -91.5 38.5s-70.5 -12.833 -91.5 -38.5s-31.5 -58.167 -31.5 -97.5v-324c0 -39.333 10.5 -71.833 31.5 -97.5s51.5 -38.5 91.5 -38.5s70.5 12.833 91.5 38.5s31.5 58.167 31.5 97.5v324z" />
    <glyph glyph-name="one" unicode="1" horiz-adv-x="522" 
d="M258 0v632l-133 -117v82l133 115h72v-712h-72z" />
    <glyph glyph-name="two" unicode="2" horiz-adv-x="522" 
d="M68 0v64.002l281 357c13.333 17.333 23.333 34.333 30 51s10 34.667 10 54c0 38.667 -10.833 69.667 -32.5 93s-52.167 35 -91.5 35c-16.667 0 -32.5 -2.33301 -47.5 -7s-28.167 -12.334 -39.5 -23.001s-20.333 -24.167 -27 -40.5s-10 -35.833 -10 -58.5h-72
c0 28 4.66699 53.833 14 77.5s22.5 44 39.5 61s37.5 30.333 61.5 40s51 14.5 81 14.5c29.333 0 56 -4.5 80 -13.5s44.667 -21.833 62 -38.5s30.666 -36.834 39.999 -60.501s14 -50.167 14 -79.5c0 -28.667 -4.66699 -53.5 -14 -74.5s-23.666 -44.167 -42.999 -69.5
l-249 -318h306v-64h-393z" />
    <glyph glyph-name="three" unicode="3" horiz-adv-x="522" 
d="M460 194c0 -32.667 -5.49609 -61.501 -16.4961 -86.501s-25.833 -46 -44.5 -63s-40.834 -29.833 -66.501 -38.5s-52.834 -13 -81.501 -13c-28 0 -54.333 3.66699 -79 11s-46.334 18.833 -65.001 34.5s-33.834 35.334 -45.501 59.001s-18.167 51.5 -19.5 83.5h72
c1.33301 -22 6 -40.833 14 -56.5s18.333 -28.5 31 -38.5s26.834 -17.333 42.501 -22s32.167 -7 49.5 -7c38.667 0 71.167 12 97.5 36s39.5 58 39.5 102c0 43.333 -11.167 77.166 -33.5 101.499s-57.833 36.5 -106.5 36.5h-15v63h15c44 0 76.167 11.5 96.5 34.5
s30.5 54.5 30.5 94.5c0 42.667 -12 75 -36 97s-53.333 33 -88 33c-38 0 -68 -10.667 -90 -32s-34.667 -50.333 -38 -87h-72c2 28.667 8.5 54.334 19.5 77.001s25.333 41.834 43 57.501s38.167 27.667 61.5 36s48.666 12.5 75.999 12.5c28.667 0 55.167 -4.66699 79.5 -14
s45 -22.333 62 -39s30.333 -37 40 -61s14.5 -50.333 14.5 -79c0 -76.667 -32 -129.334 -96 -158.001c72.667 -27.333 109 -85.333 109 -174z" />
    <glyph glyph-name="four" unicode="4" horiz-adv-x="522" 
d="M395 113v-113h-71v113h-284v65l257 534h77l-257 -534h207v202h71v-202h87v-65h-87z" />
    <glyph glyph-name="five" unicode="5" horiz-adv-x="522" 
d="M462 235c0 -36 -3.16895 -70.166 -9.50195 -102.499s-22.166 -61.166 -47.499 -86.499c-16.667 -16.667 -36.5 -29.667 -59.5 -39s-50.5 -14 -82.5 -14c-31.333 0 -59.166 4.66699 -83.499 14s-44.166 21.666 -59.499 36.999c-15.333 16 -27 34.333 -35 55
s-13 43.667 -15 69h72c4.66699 -36 16.5 -63.5 35.5 -82.5s47.5 -28.5 85.5 -28.5c36.667 0 66 11 88 33c9.33301 9.33301 16.666 19.666 21.999 30.999s9.16602 23.333 11.499 36s3.83301 25.667 4.5 39s1 26.333 1 39c0 22 -1.5 43.333 -4.5 64s-8.66699 39 -17 55
s-20.333 29 -36 39s-36.5 15 -62.5 15c-31.333 0 -57 -6.33301 -77 -19s-33.667 -29.667 -41 -51h-65v374h360v-64h-295v-226c14 15.333 31.833 27.333 53.5 36s46.5 13 74.5 13c26.667 0 50.334 -4 71.001 -12s38 -19 52 -33c12.667 -13.333 23 -27.5 31 -42.5
s14 -30.833 18 -47.5s6.66699 -33.5 8 -50.5s2 -33.833 2 -50.5z" />
    <glyph glyph-name="six" unicode="6" horiz-adv-x="522" 
d="M460 205c0 -30 -4.66602 -57.999 -13.999 -83.999s-22.5 -48.333 -39.5 -67s-37.667 -33.334 -62 -44.001s-51.5 -16 -81.5 -16s-57.333 4.83301 -82 14.5s-45.5 23.5 -62.5 41.5s-30.167 39.667 -39.5 65s-14 53.333 -14 84c0 25.333 3.66699 50.833 11 76.5
s18.666 53.5 33.999 83.5l175 353h74l-159 -320c22 10 47 15 75 15s53.333 -5 76 -15s42 -24 58 -42s28.5 -39.333 37.5 -64s13.5 -51.667 13.5 -81zM388.001 202.001c0 20 -2.66504 38.667 -7.99805 56s-13.333 32.5 -24 45.5s-23.834 23.333 -39.501 31
s-33.834 11.5 -54.501 11.5c-38 0 -68.333 -13 -91 -39s-34 -61 -34 -105s11.333 -79 34 -105s53 -39 91 -39s68.5 13 91.5 39s34.5 61 34.5 105z" />
    <glyph glyph-name="seven" unicode="7" horiz-adv-x="522" 
d="M224 0h-76l247 648h-248v-112h-71v176h395v-64z" />
    <glyph glyph-name="eight" unicode="8" horiz-adv-x="522" 
d="M471 196c0 -30 -5.33496 -57.333 -16.002 -82s-25.5 -46 -44.5 -64s-41.333 -31.833 -67 -41.5s-53.167 -14.5 -82.5 -14.5s-56.833 4.83301 -82.5 14.5s-48 23.5 -67 41.5s-33.833 39.333 -44.5 64s-16 52 -16 82c0 42 10.333 77 31 105s46 50.667 76 68
c-28 16 -50.5 37 -67.5 63s-25.5 57.667 -25.5 95c0 28 4.83301 53.667 14.5 77s23.334 43.5 41.001 60.5s38.5 30.167 62.5 39.5s50 14 78 14s54 -4.66699 78 -14s44.833 -22.5 62.5 -39.5s31.334 -37.167 41.001 -60.5s14.5 -49 14.5 -77c0 -37.333 -8.33301 -69 -25 -95
s-39 -47 -67 -63c30 -17.333 55.167 -40 75.5 -68s30.5 -63 30.5 -105zM398.998 197c0 20 -3.5 38.333 -10.5 55s-16.667 31.334 -29 44.001s-27 22.5 -44 29.5s-35.167 10.5 -54.5 10.5s-37.5 -3.5 -54.5 -10.5s-31.667 -16.833 -44 -29.5s-22 -27.334 -29 -44.001
s-10.5 -35 -10.5 -55s3.5 -38.333 10.5 -55s16.667 -31.334 29 -44.001s27 -22.5 44 -29.5s35.167 -10.5 54.5 -10.5s37.5 3.5 54.5 10.5s31.667 16.833 44 29.5s22 27.334 29 44.001s10.5 35 10.5 55zM384.998 526c0 37.333 -11.5 68 -34.5 92s-52.833 36 -89.5 36
s-66.5 -12 -89.5 -36s-34.5 -54.667 -34.5 -92c0 -38 11.5 -68.667 34.5 -92s52.833 -35 89.5 -35s66.5 11.667 89.5 35s34.5 54 34.5 92z" />
    <glyph glyph-name="nine" unicode="9" horiz-adv-x="522" 
d="M457 513c0 -25.333 -3.66797 -50.834 -11.001 -76.501s-18.666 -53.5 -33.999 -83.5l-175 -353h-75l160 320c-22 -10 -47.333 -15 -76 -15c-28 0 -53.333 5 -76 15s-42 24 -58 42s-28.333 39.333 -37 64s-13 51.667 -13 81c0 30 4.66699 58 14 84s22.5 48.333 39.5 67
s37.667 33.334 62 44.001s51.5 16 81.5 16s57.333 -4.83301 82 -14.5s45.5 -23.5 62.5 -41.5s30.167 -39.667 39.5 -65s14 -53.333 14 -84zM384.999 509.999c0 44 -11.5 79 -34.5 105s-53.5 39 -91.5 39s-68.333 -13 -91 -39s-34 -61 -34 -105c0 -20 2.66699 -38.667 8 -56
s13.166 -32.5 23.499 -45.5s23.333 -23.333 39 -31s33.834 -11.5 54.501 -11.5c38 0 68.5 13 91.5 39s34.5 61 34.5 105z" />
    <glyph glyph-name="colon" unicode=":" horiz-adv-x="297" 
d="M115 301v94h94v-94h-94zM115 0v94h94v-94h-94z" />
    <glyph glyph-name="semicolon" unicode=";" horiz-adv-x="297" 
d="M117 -144v232h88v-153zM115 301v94h94v-94h-94z" />
    <glyph glyph-name="less" unicode="&#x3c;" horiz-adv-x="522" 
d="M95 236v66l331 168v-77l-250 -124l250 -124v-77z" />
    <glyph glyph-name="equal" unicode="=" horiz-adv-x="522" 
d="M52 320v67h418v-67h-418zM52 151v66h418v-66h-418z" />
    <glyph glyph-name="greater" unicode="&#x3e;" horiz-adv-x="522" 
d="M95 68v77l250 124l-250 124v77l331 -168v-66z" />
    <glyph glyph-name="question" unicode="?" horiz-adv-x="497" 
d="M451 536c0 -23.333 -4.16797 -44.498 -12.501 -63.498s-19.166 -38.167 -32.499 -57.5l-82 -118c-6 -9.33301 -10.5 -19.333 -13.5 -30s-4.5 -20 -4.5 -28v-39h-72v40c0 19.333 2.5 36 7.5 50s12.833 28.667 23.5 44l81 117c9.33301 14 17.166 27.333 23.499 40
s9.5 27.667 9.5 45c0 34 -10.667 62.167 -32 84.5s-49 33.5 -83 33.5c-18 0 -34.167 -3.16699 -48.5 -9.5s-26.5 -15 -36.5 -26s-17.667 -23.667 -23 -38s-8 -29.5 -8 -45.5h-72c0 25.333 4.66699 49.166 14 71.499s22.5 41.666 39.5 57.999s36.833 29.333 59.5 39
s47.667 14.5 75 14.5c26 0 50.5 -4.5 73.5 -13.5s42.833 -21.5 59.5 -37.5s29.834 -35.167 39.501 -57.5s14.5 -46.833 14.5 -73.5zM226.999 0.00195312v84h86v-84h-86z" />
    <glyph glyph-name="at" unicode="@" horiz-adv-x="713" 
d="M572 0l0.00390625 54.998c-16.667 -21.333 -35.5 -37 -56.5 -47s-46.833 -15 -77.5 -15c-28 0 -53.833 5.33301 -77.5 16s-43.167 25.667 -58.5 45c-17.333 20.667 -29 45.167 -35 73.5s-9 65.166 -9 110.499c0 44 3 80.333 9 109s16.667 53.334 32 74.001
c14.667 19.333 34 34.5 58 45.5s50.667 16.5 80 16.5s54.666 -5.16699 75.999 -15.5s40.666 -26.166 57.999 -47.499v78c0 26.667 -2.83301 48.5 -8.5 65.5s-15.834 33.167 -30.501 48.5c-14 14 -30.167 24.167 -48.5 30.5s-39.166 9.5 -62.499 9.5h-130
c-23.333 0 -43.666 -3 -60.999 -9s-33.333 -16.333 -48 -31c-15.333 -15.333 -25.833 -31.166 -31.5 -47.499s-8.5 -38.5 -8.5 -66.5v-337c0 -16 0.833008 -29.667 2.5 -41s4.66699 -21.5 9 -30.5s10.166 -17.333 17.499 -25s16.666 -15.834 27.999 -24.501l-49 -49
c-15.333 11.333 -28 22.333 -38 33s-18 22.334 -24 35.001s-10.167 27.167 -12.5 43.5s-3.5 35.5 -3.5 57.5v336c0 69.333 18.667 123 56 161c36.667 37.333 88 56 154 56h148c65.333 0 116.666 -18.667 153.999 -56c38 -38 57 -91.667 57 -161v-496h-69zM571.004 237.998
c0 23.333 -1.33301 46 -4 68s-8.33398 41.5 -17.001 58.5s-21 30.667 -37 41s-37 15.5 -63 15.5s-47 -5.16699 -63 -15.5s-28.333 -24 -37 -41s-14.334 -36.5 -17.001 -58.5s-4 -44.667 -4 -68s1.33301 -46 4 -68s8.33398 -41.5 17.001 -58.5s21 -30.667 37 -41
s37 -15.5 63 -15.5s47 5.16699 63 15.5s28.333 24 37 41s14.334 36.5 17.001 58.5s4 44.667 4 68z" />
    <glyph glyph-name="A" unicode="A" horiz-adv-x="611" 
d="M518 0l-57 161h-311l-57 -161h-81l262 712h64l261 -712h-81zM307 603l-134 -376h266z" />
    <glyph glyph-name="B" unicode="B" horiz-adv-x="668" 
d="M592 197c0 -32 -5.16602 -60.332 -15.499 -84.999s-24.833 -45.334 -43.5 -62.001s-41 -29.167 -67 -37.5s-54.667 -12.5 -86 -12.5h-277v712h268c30.667 0 59 -4.33301 85 -13s48.167 -21.167 66.5 -37.5s32.666 -36.166 42.999 -59.499s15.5 -50 15.5 -80
c0 -38 -10 -70.667 -30 -98s-45 -46.666 -75 -57.999c34 -12.667 61.833 -33.334 83.5 -62.001s32.5 -64.334 32.5 -107.001zM516.001 199.001c0 40 -12.833 71.667 -38.5 95s-60.5 35 -104.5 35h-194v-261h194c44 0 78.833 11.833 104.5 35.5s38.5 55.5 38.5 95.5z
M505.001 521.001c0 21.333 -3.66699 39.667 -11 55s-17.166 28 -29.499 38s-27 17.5 -44 22.5s-35.5 7.5 -55.5 7.5h-186v-247h186c20 0 38.5 2.5 55.5 7.5s31.667 12.5 44 22.5s22.166 22.833 29.499 38.5s11 34.167 11 55.5z" />
    <glyph glyph-name="C" unicode="C" horiz-adv-x="637" 
d="M572 206c-12.667 -66.667 -40.835 -118.669 -84.502 -156.002s-97.834 -56 -162.501 -56c-37.333 0 -70.833 6.16699 -100.5 18.5s-55.5 29.5 -77.5 51.5c-16.667 16.667 -29.834 33.667 -39.501 51s-16.834 37 -21.501 59s-7.5 47.667 -8.5 77s-1.5 64.333 -1.5 105
s0.5 75.667 1.5 105s3.83301 55 8.5 77s11.834 41.667 21.501 59s22.834 34.333 39.501 51c22 22 47.833 39.167 77.5 51.5s63.167 18.5 100.5 18.5c64.667 0 118.834 -18.667 162.501 -56s71.834 -89.333 84.501 -156h-78c-9.33301 44 -28.666 79 -57.999 105
s-66.333 39 -111 39c-48.667 0 -89.667 -16.667 -123 -50c-11.333 -11.333 -20.333 -23.666 -27 -36.999s-11.667 -29.166 -15 -47.499s-5.5 -40.333 -6.5 -66s-1.5 -56.834 -1.5 -93.501s0.5 -67.834 1.5 -93.501s3.16699 -47.667 6.5 -66s8.33301 -34.166 15 -47.499
s15.667 -25.666 27 -36.999c33.333 -33.333 74.333 -50 123 -50c44.667 0 82 13 112 39s49.667 61 59 105h76z" />
    <glyph glyph-name="D" unicode="D" horiz-adv-x="673" 
d="M597 356c0 -27.333 -0.333008 -54.168 -1 -80.501s-3 -51.5 -7 -75.5s-10.167 -46.667 -18.5 -68s-20.5 -40.333 -36.5 -57c-24 -26 -51.167 -45 -81.5 -57s-65.5 -18 -105.5 -18h-244v712h244c40 0 75.167 -6 105.5 -18s57.5 -31 81.5 -57
c16 -17.333 28.167 -36.5 36.5 -57.5s14.5 -43.5 18.5 -67.5s6.33301 -49.167 7 -75.5s1 -53.166 1 -80.499zM521 355.998c0 24.667 -0.333008 48.5 -1 71.5s-2.5 44.667 -5.5 65s-7.66699 39 -14 56s-15.166 31.5 -26.499 43.5c-18 20 -39 33.667 -63 41s-49.667 11 -77 11
h-155v-576h155c27.333 0 53 3.66699 77 11s45 21 63 41c11.333 12 20.166 26.5 26.499 43.5s11 35.667 14 56s4.83301 42 5.5 65s1 46.833 1 71.5z" />
    <glyph glyph-name="E" unicode="E" horiz-adv-x="600" 
d="M103 0v712h442v-68h-366v-251h312v-68h-312v-257h366v-68h-442z" />
    <glyph glyph-name="F" unicode="F" horiz-adv-x="580" 
d="M179 644v-262h312v-68h-312v-314h-76v712h442v-68h-366z" />
    <glyph glyph-name="G" unicode="G" horiz-adv-x="650" 
d="M576 259c0 -20.667 -1 -39.333 -3 -56s-5.33301 -32.334 -10 -47.001s-11 -28.5 -19 -41.5s-17.667 -25.833 -29 -38.5c-25.333 -28 -54.166 -48.667 -86.499 -62s-66.833 -20 -103.5 -20c-37.333 0 -70.833 6.16699 -100.5 18.5s-55.5 29.5 -77.5 51.5
c-16.667 16.667 -29.834 33.667 -39.501 51s-16.834 37 -21.501 59s-7.5 47.667 -8.5 77s-1.5 64.333 -1.5 105s0.5 75.667 1.5 105s3.83301 55 8.5 77s11.834 41.667 21.501 59s22.834 34.333 39.501 51c22 22 47.833 39.167 77.5 51.5s63.167 18.5 100.5 18.5
c33.333 0 64.166 -5.33301 92.499 -16s53.166 -25.5 74.499 -44.5s39 -41.5 53 -67.5s23.667 -54.333 29 -85h-76c-10 46 -30.167 81.667 -60.5 107s-67.833 38 -112.5 38c-50 0 -91 -16.667 -123 -50c-11.333 -11.333 -20.333 -23.666 -27 -36.999
s-11.667 -29.166 -15 -47.499s-5.5 -40.333 -6.5 -66s-1.5 -56.834 -1.5 -93.501s0.5 -67.834 1.5 -93.501s3.16699 -47.667 6.5 -66s8.33301 -34.166 15 -47.499s15.667 -25.666 27 -36.999c32 -33.333 73 -50 123 -50c26 0 50.833 5.16699 74.5 15.5
s43.834 25.5 60.501 45.5c14.667 18 25 37.167 31 57.5s9 44.166 9 71.499v55h-175v65h251v-113z" />
    <glyph glyph-name="H" unicode="H" horiz-adv-x="696" 
d="M517 0v325h-338v-325h-76v712h76v-319h338v319h76v-712h-76z" />
    <glyph glyph-name="I" unicode="I" horiz-adv-x="282" 
d="M103 0v712h76v-712h-76z" />
    <glyph glyph-name="J" unicode="J" horiz-adv-x="501" 
d="M408 216c0 -34 -5.49902 -64.833 -16.499 -92.5s-26.333 -51 -46 -70s-43 -33.667 -70 -44s-56.833 -15.5 -89.5 -15.5c-34 0 -64.167 5.16699 -90.5 15.5s-50.5 26.5 -72.5 48.5l51 51c12.667 -13.333 27.167 -24.5 43.5 -33.5s39.166 -13.5 68.499 -13.5
c46.667 0 82.667 14.167 108 42.5s38 68.833 38 121.5v486h76v-496z" />
    <glyph glyph-name="K" unicode="K" horiz-adv-x="650" 
d="M546 0l-217 379l-150 -180v-199h-76v712h76v-409l332 409h93l-224 -275l256 -437h-90z" />
    <glyph glyph-name="L" unicode="L" horiz-adv-x="573" 
d="M103 0v712h76v-644h364v-68h-440z" />
    <glyph glyph-name="M" unicode="M" horiz-adv-x="816" 
d="M637 0v541l-195 -429h-65l-198 429v-541h-76v712h76l232 -505l226 505h76v-712h-76z" />
    <glyph glyph-name="N" unicode="N" horiz-adv-x="732" 
d="M557 0l-378 571v-571h-76v712h72l378 -569v569h76v-712h-72z" />
    <glyph glyph-name="O" unicode="O" horiz-adv-x="650" 
d="M574 356c0 -40.667 -0.666992 -75.667 -2 -105s-4.33301 -55 -9 -77s-11.834 -41.667 -21.501 -59s-22.834 -34.333 -39.501 -51c-22 -22 -47.667 -39.167 -77 -51.5s-62.666 -18.5 -99.999 -18.5s-70.833 6.16699 -100.5 18.5s-55.5 29.5 -77.5 51.5
c-16.667 16.667 -29.834 33.667 -39.501 51s-16.834 37 -21.501 59s-7.5 47.667 -8.5 77s-1.5 64.333 -1.5 105s0.5 75.667 1.5 105s3.83301 55 8.5 77s11.834 41.667 21.501 59s22.834 34.333 39.501 51c22 22 47.833 39.167 77.5 51.5s63.167 18.5 100.5 18.5
s70.666 -6.16699 99.999 -18.5s55 -29.5 77 -51.5c16.667 -16.667 29.834 -33.667 39.501 -51s16.834 -37 21.501 -59s7.66699 -47.667 9 -77s2 -64.333 2 -105zM498 356c0 36.667 -0.5 67.834 -1.5 93.501s-3.16699 47.667 -6.5 66s-8.33301 34.166 -15 47.499
s-15.667 25.666 -27 36.999c-33.333 33.333 -74.333 50 -123 50s-89.667 -16.667 -123 -50c-11.333 -11.333 -20.333 -23.666 -27 -36.999s-11.667 -29.166 -15 -47.499s-5.5 -40.333 -6.5 -66s-1.5 -56.834 -1.5 -93.501s0.5 -67.834 1.5 -93.501s3.16699 -47.667 6.5 -66
s8.33301 -34.166 15 -47.499s15.667 -25.666 27 -36.999c33.333 -33.333 74.333 -50 123 -50s89.667 16.667 123 50c11.333 11.333 20.333 23.666 27 36.999s11.667 29.166 15 47.499s5.5 40.333 6.5 66s1.5 56.834 1.5 93.501z" />
    <glyph glyph-name="P" unicode="P" horiz-adv-x="630" 
d="M588 503c0 -32 -5.33301 -60.833 -16 -86.5s-25.834 -47.667 -45.501 -66s-43 -32.5 -70 -42.5s-56.5 -15 -88.5 -15h-189v-293h-76v712h265c32 0 61.5 -5 88.5 -15s50.333 -24 70 -42s34.834 -39.833 45.501 -65.5s16 -54.5 16 -86.5zM512 503
c0 47.333 -13.833 82.667 -41.5 106s-63.834 35 -108.501 35h-183v-283h183c44.667 0 80.834 11.833 108.501 35.5s41.5 59.167 41.5 106.5z" />
    <glyph glyph-name="Q" unicode="Q" horiz-adv-x="649" 
d="M574 356c0 -36 -0.333984 -67.332 -1.00098 -93.999s-2.66699 -50.334 -6 -71.001s-8.33301 -39.167 -15 -55.5s-15.667 -31.833 -27 -46.5l78 -78l-46 -46l-79 78c-19.333 -15.333 -42 -27.333 -68 -36s-54.333 -13 -85 -13c-37.333 0 -70.833 6.16699 -100.5 18.5
s-55.5 29.5 -77.5 51.5c-16.667 16.667 -29.834 33.667 -39.501 51s-16.834 37 -21.501 59s-7.5 47.667 -8.5 77s-1.5 64.333 -1.5 105s0.5 75.667 1.5 105s3.83301 55 8.5 77s11.834 41.667 21.501 59s22.834 34.333 39.501 51c22 22 47.833 39.167 77.5 51.5
s63.167 18.5 100.5 18.5s70.666 -6.16699 99.999 -18.5s55 -29.5 77 -51.5c16.667 -16.667 29.834 -33.667 39.501 -51s16.834 -37 21.501 -59s7.66699 -47.667 9 -77s2 -64.333 2 -105zM497.999 356.001c0 36.667 -0.500977 67.8301 -1.50098 93.4971
s-3.16699 47.667 -6.5 66s-8.33301 34.166 -15 47.499s-15.667 25.666 -27 36.999c-16 16.667 -34.5 29.167 -55.5 37.5s-43.5 12.5 -67.5 12.5s-46.5 -4.16699 -67.5 -12.5s-39.5 -20.833 -55.5 -37.5c-11.333 -11.333 -20.333 -23.666 -27 -36.999
s-11.667 -29.166 -15 -47.499s-5.5 -40.333 -6.5 -66s-1.5 -56.834 -1.5 -93.501s0.5 -67.834 1.5 -93.501s3.16699 -47.667 6.5 -66s8.33301 -34.166 15 -47.499s15.667 -25.666 27 -36.999c16 -16.667 34.5 -29.167 55.5 -37.5s43.5 -12.5 67.5 -12.5
c19.333 0 37.333 2.66699 54 8s32.334 14 47.001 26l-90 90l46 46l86 -87c6.66699 10.667 12 22.334 16 35.001s7 27.334 9 44.001s3.33301 35.834 4 57.501s1 46.5 1 74.5z" />
    <glyph glyph-name="R" unicode="R" horiz-adv-x="656" 
d="M512 0l-162 316.001h-171v-316h-76v712h273c30.667 0 59 -4.5 85 -13.5s48.333 -22 67 -39s33.167 -37.833 43.5 -62.5s15.5 -52.334 15.5 -83.001c0 -52 -14.333 -94.5 -43 -127.5s-66 -54.167 -112 -63.5l169 -323h-89zM511 513.001c0 44 -13.167 76.833 -39.5 98.5
s-60.5 32.5 -102.5 32.5h-190v-261h190c42 0 76.167 10.667 102.5 32s39.5 54 39.5 98z" />
    <glyph glyph-name="S" unicode="S" horiz-adv-x="588" 
d="M532 196c0 -31.333 -5.83691 -59.5039 -17.5039 -84.5039s-28.167 -46.167 -49.5 -63.5s-47.166 -30.666 -77.499 -39.999s-64.166 -14 -101.499 -14c-26.667 0 -51.167 1.83301 -73.5 5.5s-43.333 9.16699 -63 16.5s-38.167 17 -55.5 29s-34.333 26.333 -51 43l51 51
c29.333 -29.333 59 -49.5 89 -60.5s65 -16.5 105 -16.5c52.667 0 94 11.5 124 34.5s45 55.5 45 97.5c0 38.667 -11.667 68.334 -35 89.001c-5.33301 4.66699 -10.833 8.83398 -16.5 12.501s-12 6.83398 -19 9.50098s-15.167 5 -24.5 7s-20.333 4 -33 6l-83 12
c-56 8.66699 -99.333 26.667 -130 54c-36.667 32.667 -55 77.334 -55 134.001c0 30 5.33301 57.333 16 82s25.834 45.834 45.501 63.501s43.5 31.167 71.5 40.5s59.667 14 95 14c45.333 0 84.333 -6.33301 117 -19s64.334 -32.334 95.001 -59.001l-49 -49
c-21.333 20.667 -45 36.167 -71 46.5s-57.667 15.5 -95 15.5c-48 0 -85.167 -12.167 -111.5 -36.5s-39.5 -56.5 -39.5 -96.5c0 -36.667 10.667 -64.334 32 -83.001c11.333 -9.33301 25 -17 41 -23s33.333 -10.667 52 -14l83 -13c32.667 -5.33301 58.334 -11.5 77.001 -18.5
s36 -17.833 52 -32.5c19.333 -16.667 34.166 -36.667 44.499 -60s15.5 -50 15.5 -80z" />
    <glyph glyph-name="T" unicode="T" horiz-adv-x="548" 
d="M312 644v-644h-76v644h-206v68h488v-68h-206z" />
    <glyph glyph-name="U" unicode="U" horiz-adv-x="683" 
d="M590 235c0 -35.333 -6.16895 -67.833 -18.502 -97.5s-29.666 -55.167 -51.999 -76.5s-48.666 -37.833 -78.999 -49.5s-63.5 -17.5 -99.5 -17.5s-69.167 5.83301 -99.5 17.5s-56.5 28.167 -78.5 49.5s-39.167 46.833 -51.5 76.5s-18.5 62.167 -18.5 97.5v477h76v-471
c0 -27.333 4 -52 12 -74s19.5 -40.667 34.5 -56s33.167 -27.333 54.5 -36s45 -13 71 -13s49.667 4.33301 71 13s39.5 20.667 54.5 36s26.667 34 35 56s12.5 46.667 12.5 74v471h76v-477z" />
    <glyph glyph-name="V" unicode="V" horiz-adv-x="546" 
d="M304 0h-62l-234 712h80l185 -576l185 576h80z" />
    <glyph glyph-name="W" unicode="W" horiz-adv-x="854" 
d="M656 0h-71l-158 570l-158 -570h-71l-182 712h81l139 -574l157 574h68l157 -574l139 574h81z" />
    <glyph glyph-name="X" unicode="X" horiz-adv-x="551" 
d="M448 0l-173 299l-174 -299h-86l218 365l-204 347h88l158 -281l158 281h88l-205 -347l220 -365h-88z" />
    <glyph glyph-name="Y" unicode="Y" horiz-adv-x="514" 
d="M296 294v-294h-76v294l-212 418h82l168 -341l166 341h82z" />
    <glyph glyph-name="Z" unicode="Z" horiz-adv-x="556" 
d="M57 0v72l356 572h-342v68h428v-64l-359 -580h359v-68h-442z" />
    <glyph glyph-name="bracketleft" unicode="[" horiz-adv-x="313" 
d="M92 -74v860h177v-64h-105v-732h105v-64h-177z" />
    <glyph glyph-name="backslash" unicode="\" horiz-adv-x="355" 
d="M284 -74l-284 857h71l284 -857h-71z" />
    <glyph glyph-name="bracketright" unicode="]" horiz-adv-x="313" 
d="M44 -74v62h108v736h-108v62h177v-860h-177z" />
    <glyph glyph-name="asciicircum" unicode="^" horiz-adv-x="537" 
d="M391 413l-122 228l-123 -228h-74l164 305h66l163 -305h-74z" />
    <glyph glyph-name="underscore" unicode="_" horiz-adv-x="537" 
d="M0 -165v51h537v-51h-537z" />
    <glyph glyph-name="grave" unicode="`" horiz-adv-x="500" 
d="M230 594l-105 153h83l91 -153h-69z" />
    <glyph glyph-name="a" unicode="a" horiz-adv-x="526" 
d="M369 0v47c-19.333 -19.333 -39.666 -33 -60.999 -41s-48.333 -12 -81 -12c-34 0 -61.333 3.33301 -82 10s-39.667 18.334 -57 35.001c-12.667 12 -22 26.833 -28 44.5s-9 36.167 -9 55.5c0 44 14.667 78.667 44 104s71.666 38 126.999 38h147v47c0 36 -9.5 63 -28.5 81
s-51.5 27 -97.5 27c-31.333 0 -56 -4.33301 -74 -13s-34.667 -23.334 -50 -44.001l-49 45c21.333 28.667 45.5 48.167 72.5 58.5s60.833 15.5 101.5 15.5c66.667 0 116.167 -14 148.5 -42s48.5 -68.667 48.5 -122v-334h-72zM369 227h-137c-74 0 -111 -29 -111 -87
c0 -28.667 9 -49.834 27 -63.501s47 -20.5 87 -20.5c20.667 0 40 1.83301 58 5.5s35 12.834 51 27.501c16.667 16 25 44.333 25 85v53z" />
    <glyph glyph-name="b" unicode="b" horiz-adv-x="545" 
d="M481 246c0 -40 -3.83105 -78.499 -11.498 -115.499s-23.834 -68.167 -48.501 -93.5c-13.333 -13.333 -30.333 -23.833 -51 -31.5s-43.667 -11.5 -69 -11.5c-28 0 -53 4.33301 -75 13s-43.333 26 -64 52v-59h-72v712h72v-277c20.667 25.333 42.167 42.166 64.5 50.499
s47.166 12.5 74.499 12.5c25.333 0 48.333 -3.83301 69 -11.5s37.667 -18.167 51 -31.5c12 -12 22 -26 30 -42s14.167 -33 18.5 -51s7.33301 -36.833 9 -56.5s2.5 -39.5 2.5 -59.5zM409.002 246.001c0 24 -1.33301 47.333 -4 70s-8.33398 42.667 -17.001 60
s-21.167 31.333 -37.5 42s-37.833 16 -64.5 16c-27.333 0 -49 -5.33301 -65 -16s-28.5 -24.667 -37.5 -42s-14.833 -37.333 -17.5 -60s-4 -46 -4 -70s1.33301 -47.333 4 -70s8.5 -42.667 17.5 -60s21.5 -31.333 37.5 -42s37.667 -16 65 -16c26.667 0 48.167 5.33301 64.5 16
s28.833 24.667 37.5 42s14.334 37.333 17.001 60s4 46 4 70z" />
    <glyph glyph-name="c" unicode="c" horiz-adv-x="490" 
d="M443 67c-25.333 -27.333 -50.166 -46.335 -74.499 -57.002s-53.5 -16 -87.5 -16c-31.333 0 -60.166 5.16699 -86.499 15.5s-49.333 26 -69 47s-35 47.333 -46 79s-16.5 68.5 -16.5 110.5s5.5 78.667 16.5 110s26.333 57.5 46 78.5s42.667 36.833 69 47.5
s55.166 16 86.499 16c34 0 63.167 -5.33301 87.5 -16s49.166 -29.667 74.499 -57l-49 -46c-18.667 20.667 -36.334 35 -53.001 43s-36.667 12 -60 12c-24 0 -45.667 -4.66699 -65 -14s-35.666 -23.333 -48.999 -42c-11.333 -16 -19.5 -34.167 -24.5 -54.5
s-7.5 -46.166 -7.5 -77.499s2.5 -57.166 7.5 -77.499s13.167 -38.5 24.5 -54.5c13.333 -18.667 29.666 -32.667 48.999 -42s41 -14 65 -14c23.333 0 43.333 4.16699 60 12.5s34.334 22.833 53.001 43.5z" />
    <glyph glyph-name="d" unicode="d" horiz-adv-x="545" 
d="M384 0l0.000976562 58.999c-20.667 -26 -42.167 -43.333 -64.5 -52s-47.5 -13 -75.5 -13c-25.333 0 -48.333 3.83301 -69 11.5s-37.667 18.167 -51 31.5c-24.667 25.333 -40.834 56.5 -48.501 93.5s-11.5 75.5 -11.5 115.5c0 20 0.833008 39.833 2.5 59.5
s4.66699 38.5 9 56.5s10.5 35 18.5 51s18 30 30 42c13.333 13.333 30.333 23.833 51 31.5s43.667 11.5 69 11.5c28 0 53 -4.16699 75 -12.5s43.333 -25.166 64 -50.499v277h72v-712h-71zM383.001 245.999c0 24 -1.33301 47.333 -4 70s-8.33398 42.667 -17.001 60
s-21.167 31.333 -37.5 42s-37.833 16 -64.5 16c-27.333 0 -49 -5.33301 -65 -16s-28.5 -24.667 -37.5 -42s-14.833 -37.333 -17.5 -60s-4 -46 -4 -70s1.33301 -47.333 4 -70s8.5 -42.667 17.5 -60s21.5 -31.333 37.5 -42s37.667 -16 65 -16c26.667 0 48.167 5.33301 64.5 16
s28.833 24.667 37.5 42s14.334 37.333 17.001 60s4 46 4 70z" />
    <glyph glyph-name="e" unicode="e" 
d="M135 227c0 -54 12.1689 -95.8369 36.502 -125.504s60.5 -44.5 108.5 -44.5c28.667 0 52.5 4.5 71.5 13.5s38.167 23.167 57.5 42.5l49 -43c-12.667 -12.667 -25.167 -23.667 -37.5 -33s-25.666 -17.166 -39.999 -23.499s-29.833 -11.166 -46.5 -14.499
s-35.334 -5 -56.001 -5c-32.667 0 -62.334 5 -89.001 15s-49.334 25.333 -68.001 46s-33 46.834 -43 78.501s-15 69.167 -15 112.5c0 80.667 18 142.834 54 186.501s85.333 65.5 148 65.5c64.667 0 114.5 -21.167 149.5 -63.5s52.5 -100.833 52.5 -175.5v-32h-332z
M396.002 280.996c-0.666992 10 -1.3291 18.667 -1.99609 26s-1.5 14 -2.5 20s-2.5 11.833 -4.5 17.5s-4.33301 11.834 -7 18.501c-10.667 22.667 -25.834 40.667 -45.501 54s-42.834 20 -69.501 20s-49.834 -6.66699 -69.501 -20s-34.834 -31.333 -45.501 -54
c-3.33301 -6.66699 -5.83301 -12.834 -7.5 -18.501s-3 -11.5 -4 -17.5s-1.66699 -12.667 -2 -20s-0.833008 -16 -1.5 -26h261z" />
    <glyph glyph-name="f" unicode="f" horiz-adv-x="314" 
d="M178 437v-436.999h-72v437h-63v55h63v90c0 18 2.5 35 7.5 51s12.833 30 23.5 42s23.667 21.5 39 28.5s33.666 10.5 54.999 10.5h52v-62h-39c-23.333 0 -40.166 -6.33301 -50.499 -19s-15.5 -30.334 -15.5 -53.001v-88h105v-55h-105z" />
    <glyph glyph-name="g" unicode="g" horiz-adv-x="543" 
d="M453 -15c0 -30.667 -4.66699 -58.8271 -14 -84.4941s-22.666 -47.834 -39.999 -66.501s-38.833 -33.334 -64.5 -44.001s-54.5 -16 -86.5 -16c-18.667 0 -35.334 1.16699 -50.001 3.5s-28.5 6.16602 -41.5 11.499s-25.667 12.166 -38 20.499s-24.833 18.5 -37.5 30.5
l47 46c8.66699 -8 17.167 -15 25.5 -21s17 -11.167 26 -15.5s18.833 -7.5 29.5 -9.5s23 -3 37 -3c24 0 44.5 4 61.5 12s31 18.667 42 32s19 29.166 24 47.499s7.5 38.166 7.5 59.499v77c-20 -25.333 -41.333 -42.333 -64 -51s-47.334 -13 -74.001 -13
c-25.333 0 -48.166 4 -68.499 12s-37.166 18.667 -50.499 32c-24.667 24.667 -40.834 55 -48.501 91s-11.5 74 -11.5 114s3.83301 78 11.5 114s23.834 66.333 48.501 91c13.333 13.333 30.333 23.833 51 31.5s43.667 11.5 69 11.5c27.333 0 52.166 -4.16699 74.499 -12.5
s43.5 -25.5 63.5 -51.5v58h71v-507zM381 250.007c0 22.667 -1.33301 45.167 -4 67.5s-8.33398 42 -17.001 59s-21 30.833 -37 41.5s-37.333 16 -64 16s-48.167 -5.33301 -64.5 -16s-28.833 -24.5 -37.5 -41.5s-14.334 -36.667 -17.001 -59s-4 -44.833 -4 -67.5
c0 -23.333 1.33301 -46 4 -68s8.33398 -41.5 17.001 -58.5s21.167 -30.833 37.5 -41.5s37.833 -16 64.5 -16s48 5.33301 64 16s28.333 24.5 37 41.5s14.334 36.5 17.001 58.5s4 44.667 4 68z" />
    <glyph glyph-name="h" unicode="h" horiz-adv-x="562" 
d="M405 0l-0.000976562 304c0 44 -10.5 76.667 -31.5 98s-50.5 32 -88.5 32s-68 -10.667 -90 -32s-33 -54 -33 -98v-304h-72v712h72v-274c36 40 82 60 138 60c56.667 0 100.334 -16.333 131.001 -49s46 -77 46 -133v-316h-72z" />
    <glyph glyph-name="i" unicode="i" horiz-adv-x="252" 
d="M90 0v492h72v-492h-72zM86 632v81h81v-81h-81z" />
    <glyph glyph-name="j" unicode="j" horiz-adv-x="253" 
d="M162 -89c0 -18.667 -2.49902 -36 -7.49902 -52s-12.667 -30 -23 -42s-23.333 -21.333 -39 -28s-34.167 -10 -55.5 -10h-52v63h39c25.333 0 42.666 6 51.999 18s14 30 14 54v578h72v-581zM86.001 632v81h81v-81h-81z" />
    <glyph glyph-name="k" unicode="k" horiz-adv-x="536" 
d="M414 0l-156 252l-96 -110v-142h-72v712h72v-476l222 256h90l-167 -188l196 -304h-89z" />
    <glyph glyph-name="l" unicode="l" horiz-adv-x="294" 
d="M213 0c-43.333 0 -74.999 12.5 -94.999 37.5s-30 56.167 -30 93.5v581h72v-578c0 -24 4.66699 -42 14 -54s26.666 -18 51.999 -18h39v-62h-52z" />
    <glyph glyph-name="m" unicode="m" horiz-adv-x="879" 
d="M722 0v302.999c0 44 -10.833 76.833 -32.5 98.5s-51.167 32.5 -88.5 32.5c-36 0 -65.5 -10.667 -88.5 -32s-34.5 -51.666 -34.5 -90.999v-311h-72v303c0 44 -10.833 76.833 -32.5 98.5s-51.167 32.5 -88.5 32.5s-67.166 -11 -89.499 -33s-33.5 -54.667 -33.5 -98v-303
h-72v492h72v-54c17.333 20 37.833 35 61.5 45s49.5 15 77.5 15c34 0 63.833 -6.83301 89.5 -20.5s46.167 -34.167 61.5 -61.5c38.667 54.667 92.667 82 162 82c26.667 0 50.667 -4 72 -12s39.666 -19.333 54.999 -34c35.333 -34 53 -79.667 53 -137v-315h-72z" />
    <glyph glyph-name="n" unicode="n" horiz-adv-x="562" 
d="M405 0l0.000976562 303c0 44 -10.833 76.833 -32.5 98.5s-51.167 32.5 -88.5 32.5s-67 -11 -89 -33s-33 -54.667 -33 -98v-303h-72v492h72v-54c17.333 20 37.666 35 60.999 45s49 15 77 15c53.333 0 95.333 -15.333 126 -46c34 -33.333 51 -79 51 -137v-315h-72z" />
    <glyph glyph-name="o" unicode="o" 
d="M466 246c0 -38 -3.8291 -73.833 -11.4961 -107.5s-23.834 -63.167 -48.501 -88.5c-17.333 -17.333 -37.666 -31 -60.999 -41s-50 -15 -80 -15s-56.667 5 -80 15s-43.666 23.667 -60.999 41c-12.667 12.667 -22.834 26.5 -30.501 41.5s-13.667 30.667 -18 47
s-7.33301 33.5 -9 51.5s-2.5 36.667 -2.5 56c0 38 3.66699 73.833 11 107.5s23.666 63.167 48.999 88.5c17.333 17.333 37.666 31 60.999 41s50 15 80 15s56.667 -5 80 -15s43.666 -23.667 60.999 -41c25.333 -25.333 41.666 -54.833 48.999 -88.5s11 -69.5 11 -107.5z
M394.004 246c0 28 -2 55.833 -6 83.5s-15 50.5 -33 68.5c-24 24 -54 36 -90 36c-35.333 0 -65 -12 -89 -36c-18 -18 -29.167 -40.833 -33.5 -68.5s-6.5 -55.5 -6.5 -83.5c0 -14 0.333008 -28 1 -42s2.33398 -27.667 5.00098 -41s6.66699 -25.833 12 -37.5
s12.666 -22.167 21.999 -31.5c24 -24 53.667 -36 89 -36c36 0 66 12 90 36c18 18.667 29 41.667 33 69s6 55 6 83z" />
    <glyph glyph-name="p" unicode="p" horiz-adv-x="545" 
d="M481 246c0 -40 -3.83301 -78.5 -11.5 -115.5s-23.834 -68.167 -48.501 -93.5c-13.333 -13.333 -30.333 -23.833 -51 -31.5s-43.667 -11.5 -69 -11.5c-27.333 0 -52.166 4.33301 -74.499 13s-43.833 25.667 -64.5 51v-278h-72v712h72v-58c20.667 25.333 42 42.333 64 51
s47 13 75 13c25.333 0 48.333 -3.83301 69 -11.5s37.667 -18.167 51 -31.5c12 -12 22 -26 30 -42s14.167 -33 18.5 -51s7.33301 -36.833 9 -56.5s2.5 -39.5 2.5 -59.5zM409 246c0 24 -1.33301 47.333 -4 70s-8.33398 42.667 -17.001 60s-21.167 31.333 -37.5 42
s-37.833 16 -64.5 16c-27.333 0 -49 -5.33301 -65 -16s-28.5 -24.667 -37.5 -42s-14.833 -37.333 -17.5 -60s-4 -46 -4 -70s1.33301 -47.333 4 -70s8.5 -42.667 17.5 -60s21.5 -31.333 37.5 -42s37.667 -16 65 -16c26.667 0 48.167 5.33301 64.5 16s28.833 24.667 37.5 42
s14.334 37.333 17.001 60s4 46 4 70z" />
    <glyph glyph-name="q" unicode="q" horiz-adv-x="545" 
d="M383 -220l0.000976562 278c-20.667 -25.333 -42 -42.333 -64 -51s-47 -13 -75 -13c-25.333 0 -48.333 3.83301 -69 11.5s-37.667 18.167 -51 31.5c-24.667 25.333 -40.834 56.5 -48.501 93.5s-11.5 75.5 -11.5 115.5c0 20 0.833008 39.833 2.5 59.5s4.66699 38.5 9 56.5
s10.5 35 18.5 51s18 30 30 42c13.333 13.333 30.333 23.833 51 31.5s43.667 11.5 69 11.5c28 0 53.167 -4.33301 75.5 -13s43.833 -25.667 64.5 -51v58h71v-712h-72zM383.001 246c0 24 -1.33301 47.333 -4 70s-8.33398 42.667 -17.001 60s-21.167 31.333 -37.5 42
s-37.833 16 -64.5 16c-27.333 0 -49 -5.33301 -65 -16s-28.5 -24.667 -37.5 -42s-14.833 -37.333 -17.5 -60s-4 -46 -4 -70s1.33301 -47.333 4 -70s8.5 -42.667 17.5 -60s21.5 -31.333 37.5 -42s37.667 -16 65 -16c26.667 0 48.167 5.33301 64.5 16s28.833 24.667 37.5 42
s14.334 37.333 17.001 60s4 46 4 70z" />
    <glyph glyph-name="r" unicode="r" horiz-adv-x="421" 
d="M365 398c-13.333 13.333 -26 22.666 -38 27.999s-27.667 8 -47 8c-18 0 -34.333 -3.33301 -49 -10s-27 -16 -37 -28s-17.833 -26 -23.5 -42s-8.5 -33.333 -8.5 -52v-302h-72v492h72v-60c13.333 20.667 32.5 36.834 57.5 48.501s51.833 17.5 80.5 17.5
c23.333 0 44.5 -3.33301 63.5 -10s37.167 -18.667 54.5 -36z" />
    <glyph glyph-name="s" unicode="s" horiz-adv-x="496" 
d="M445 144c0 -47.333 -18.3359 -84.1689 -55.0029 -110.502s-85 -39.5 -145 -39.5c-42 0 -79.5 5.33301 -112.5 16s-62.833 29 -89.5 55l48 48c19.333 -20 42 -34.5 68 -43.5s54.333 -13.5 85 -13.5c41.333 0 73.5 7.16699 96.5 21.5s34.5 36.166 34.5 65.499
c0 22 -6.33301 38.833 -19 50.5s-33.667 18.834 -63 21.501l-81 7c-48 4 -84.5 16.667 -109.5 38s-37.5 52.666 -37.5 93.999c0 22.667 4.5 42.834 13.5 60.501s21.5 32.667 37.5 45s35 21.833 57 28.5s46.333 10 73 10c36 0 68.833 -4.33301 98.5 -13
s55.834 -22 78.501 -40l-47 -47c-17.333 13.333 -37.166 23.166 -59.499 29.499s-46.166 9.5 -71.499 9.5c-36 0 -63.333 -7.16699 -82 -21.5s-28 -34.166 -28 -59.499c0 -22 7 -38.667 21 -50s36.333 -18.666 67 -21.999l77 -7c21.333 -2 41 -5.66699 59 -11
s33.333 -13.166 46 -23.499s22.5 -23.5 29.5 -39.5s10.5 -35.667 10.5 -59z" />
    <glyph glyph-name="t" unicode="t" horiz-adv-x="332" 
d="M228 0c-21.333 0 -39.834 3.50098 -55.501 10.501s-28.667 16.5 -39 28.5s-18.166 26 -23.499 42s-8 33 -8 51v305h-62v55h62v151h72v-151h105v-55h-105v-303c0 -22.667 5.33301 -40.334 16 -53.001s27.667 -19 51 -19h38v-62h-51z" />
    <glyph glyph-name="u" unicode="u" horiz-adv-x="562" 
d="M401 0l0.00195312 55c-17.333 -20 -37.833 -35.167 -61.5 -45.5s-49.5 -15.5 -77.5 -15.5c-54 0 -96.333 15.333 -127 46c-17.333 17.333 -30 37.5 -38 60.5s-12 48.833 -12 77.5v314h72v-303c0 -44 10.667 -76.833 32 -98.5s50.666 -32.5 87.999 -32.5
s67.166 11 89.499 33s33.5 54.667 33.5 98v303h72v-492h-71z" />
    <glyph glyph-name="v" unicode="v" horiz-adv-x="447" 
d="M255 0h-64l-180 492h78l134 -395l135 395h78z" />
    <glyph glyph-name="w" unicode="w" horiz-adv-x="724" 
d="M558 0h-67l-129 382l-128 -382h-67l-156 492h78l113 -395l129 395h62l130 -395l112 395h78z" />
    <glyph glyph-name="x" unicode="x" horiz-adv-x="478" 
d="M358 0l-118 191l-120 -191h-87l167 251l-160 241h87l113 -182l111 182h87l-160 -241l167 -251h-87z" />
    <glyph glyph-name="y" unicode="y" horiz-adv-x="447" 
d="M212 -119c-9.33301 -26 -21.001 -45.333 -35.001 -58c-13.333 -12.667 -28.333 -21.5 -45 -26.5s-33.667 -7.5 -51 -7.5h-31v64h22c24.667 0 42.334 4.5 53.001 13.5s20 24.833 28 47.5l35 96l-177 482h78l135 -395l134 395h78z" />
    <glyph glyph-name="z" unicode="z" horiz-adv-x="459" 
d="M50 0v62l274 366h-259v64h342v-61l-275 -367h275v-64h-357z" />
    <glyph glyph-name="braceleft" unicode="{" horiz-adv-x="354" 
d="M268 -74c-25.333 0 -45.833 2.33301 -61.5 7s-28.834 12.334 -39.501 23.001c-11.333 11.333 -19.166 24.166 -23.499 38.499s-6.5 34.5 -6.5 60.5v191c0 28 -6 48 -18 60c-5.33301 5.33301 -11.833 9.66602 -19.5 12.999s-16.167 5 -25.5 5h-26v64h26
c9.33301 0 17.833 1.66699 25.5 5s14.167 7.66602 19.5 12.999c12 12 18 32 18 60v191c0 26 2.16699 46.167 6.5 60.5s12.166 27.166 23.499 38.499c10.667 10.667 23.834 18.334 39.501 23.001s36.167 7 61.5 7h37v-64h-23c-17.333 0 -30.166 -0.833008 -38.499 -2.5
s-15.166 -5.16699 -20.499 -10.5s-9 -13 -11 -23s-3 -24 -3 -42v-188c0 -28.667 -5.66699 -50.167 -17 -64.5s-26.666 -26.166 -45.999 -35.499c19.333 -9.33301 34.666 -21.166 45.999 -35.499s17 -35.833 17 -64.5v-188c0 -18 1 -32 3 -42s5.66699 -17.667 11 -23
s12.166 -8.83301 20.499 -10.5s21.166 -2.5 38.499 -2.5h23v-64h-37z" />
    <glyph glyph-name="bar" unicode="|" horiz-adv-x="326" 
d="M127 -74v860h72v-860h-72z" />
    <glyph glyph-name="braceright" unicode="}" horiz-adv-x="354" 
d="M280 324c-9.33301 0 -17.833 -1.66699 -25.5 -5s-14.167 -7.66602 -19.5 -12.999c-12 -12 -18 -32 -18 -60v-191c0 -26 -2.16699 -46.167 -6.5 -60.5s-12.166 -27.166 -23.499 -38.499c-10.667 -10.667 -23.834 -18.334 -39.501 -23.001s-36.167 -7 -61.5 -7h-38v64h24
c17.333 0 30 0.833008 38 2.5s14.667 5.16699 20 10.5s9.16602 13 11.499 23s3.5 24 3.5 42v188c0 28.667 5.66699 50.167 17 64.5s26.666 26.166 45.999 35.499c-19.333 9.33301 -34.666 21.166 -45.999 35.499s-17 35.833 -17 64.5v188c0 18 -1.16699 32 -3.5 42
s-6.16602 17.667 -11.499 23s-12 8.83301 -20 10.5s-20.667 2.5 -38 2.5h-24v64h38c25.333 0 45.833 -2.33301 61.5 -7s28.834 -12.334 39.501 -23.001c11.333 -11.333 19.166 -24.166 23.499 -38.499s6.5 -34.5 6.5 -60.5v-191c0 -28 6 -48 18 -60
c5.33301 -5.33301 11.833 -9.66602 19.5 -12.999s16.167 -5 25.5 -5h25v-64h-25z" />
    <glyph glyph-name="asciitilde" unicode="~" horiz-adv-x="539" 
d="M490 278c-14 -14 -26.5 -25.5 -37.5 -34.5s-21.333 -16 -31 -21s-19.334 -8.33301 -29.001 -10s-20.167 -2.5 -31.5 -2.5c-17.333 0 -34.5 3 -51.5 9s-35.167 13.333 -54.5 22c-14 6.66699 -27.167 12.334 -39.5 17.001s-25.166 7 -38.499 7
c-7.33301 0 -13.833 -0.5 -19.5 -1.5s-11.667 -3.16699 -18 -6.5s-13.166 -7.83301 -20.499 -13.5s-16 -13.5 -26 -23.5l-44 45c14 14 26.5 25.333 37.5 34s21.333 15.5 31 20.5s19.334 8.5 29.001 10.5s20.167 3 31.5 3c17.333 0 34.333 -3 51 -9s34.667 -13.333 54 -22
c14 -6.66699 27.167 -12.334 39.5 -17.001s25.166 -7 38.499 -7c6.66699 0 13 0.5 19 1.5s12.167 3.16699 18.5 6.5s13.166 7.83301 20.499 13.5s16 13.5 26 23.5z" />
    <glyph glyph-name="uni00A0" unicode="&#xa0;" horiz-adv-x="249" 
 />
    <glyph glyph-name="exclamdown" unicode="&#xa1;" horiz-adv-x="316" 
d="M101 -220l10 512h62l11 -512h-83zM99 408v84h86v-84h-86z" />
    <glyph glyph-name="cent" unicode="&#xa2;" horiz-adv-x="498" 
d="M448 189c-23.333 -25.333 -45.833 -43.5 -67.5 -54.5s-47.5 -17.5 -77.5 -19.5v-115h-59v117c-55.333 8 -99.333 33.333 -132 76s-49 100.334 -49 173.001s16.333 130.334 49 173.001s76.667 68 132 76v97h59v-95c30 -2 55.833 -8.5 77.5 -19.5
s44.167 -29.167 67.5 -54.5l-49 -46c-16.667 18.667 -32.5 32.167 -47.5 40.5s-32.5 13.166 -52.5 14.499v-372c20 1.33301 37.5 6.16602 52.5 14.499s30.833 21.833 47.5 40.5zM248 550c-32.667 -6 -59.334 -23.335 -80.001 -52.002
c-11.333 -16 -19.666 -34.167 -24.999 -54.5s-8 -46.166 -8 -77.499s2.66699 -57.166 8 -77.499s13.666 -38.5 24.999 -54.5c20.667 -28.667 47.334 -46 80.001 -52v368z" />
    <glyph glyph-name="sterling" unicode="&#xa3;" horiz-adv-x="548" 
d="M110 0l0.00195312 330h-63v54h63v112c0 34 5.5 64.833 16.5 92.5s26.333 51 46 70s43.167 33.667 70.5 44s57.333 15.5 90 15.5c34 0 64.167 -5.16699 90.5 -15.5s50.5 -26.5 72.5 -48.5l-52 -51c-6.66699 6.66699 -13.334 12.834 -20.001 18.501
s-14.334 10.667 -23.001 15s-18.5 7.66602 -29.5 9.99902s-23.833 3.5 -38.5 3.5c-46.667 0 -82.667 -14.167 -108 -42.5s-38 -68.833 -38 -121.5v-102h146v-54h-146v-262h309v-68h-386z" />
    <glyph glyph-name="currency" unicode="&#xa4;" horiz-adv-x="660" 
d="M536 19l-75 74c-18 -13.333 -38 -24 -60 -32s-45.667 -12 -71 -12s-49.166 4 -71.499 12s-42.5 18.667 -60.5 32l-74 -74l-46 46l74 74c-13.333 18 -24 38.167 -32 60.5s-12 46.166 -12 71.499s4 49.166 12 71.499s18.667 42.5 32 60.5l-74 73l46 46l74 -73
c18 13.333 38.167 23.833 60.5 31.5s46.166 11.5 71.499 11.5s49 -3.83301 71 -11.5s42 -18.167 60 -31.5l75 73l46 -46l-74 -73c13.333 -18 24 -38.167 32 -60.5s12 -46.166 12 -71.499s-4 -49.166 -12 -71.499s-18.667 -42.5 -32 -60.5l74 -74zM485 271
c0 21.333 -4 41.5 -12 60.5s-19 35.5 -33 49.5s-30.5 25 -49.5 33s-39.167 12 -60.5 12s-41.5 -4 -60.5 -12s-35.5 -19 -49.5 -33s-25.167 -30.5 -33.5 -49.5s-12.5 -39.167 -12.5 -60.5s4.16699 -41.5 12.5 -60.5s19.5 -35.5 33.5 -49.5s30.5 -25.167 49.5 -33.5
s39.167 -12.5 60.5 -12.5s41.5 4.16699 60.5 12.5s35.5 19.5 49.5 33.5s25 30.5 33 49.5s12 39.167 12 60.5z" />
    <glyph glyph-name="yen" unicode="&#xa5;" horiz-adv-x="514" 
d="M349 401h100v-54h-127l-26 -53v-52h153v-55h-153v-187h-77v187h-154v55h154v52l-26 53h-128v54h100l-157 311h82l168 -341l167 341h81z" />
    <glyph glyph-name="brokenbar" unicode="&#xa6;" horiz-adv-x="335" 
d="M127 436v350h72v-350h-72zM127 -74v350h72v-350h-72z" />
    <glyph glyph-name="section" unicode="&#xa7;" horiz-adv-x="557" 
d="M470 254c0 -20.667 -3 -39.499 -9 -56.499s-13.833 -32.5 -23.5 -46.5s-20.667 -26 -33 -36s-25.166 -18.333 -38.499 -25c28.667 -10.667 52 -28.167 70 -52.5s27 -54.833 27 -91.5c0 -26 -4.83301 -49.667 -14.5 -71s-22.667 -39.5 -39 -54.5
s-35.666 -26.5 -57.999 -34.5s-46.5 -12 -72.5 -12c-24.667 0 -48.167 3.33301 -70.5 10s-42 16.834 -59 30.501s-30.833 30.5 -41.5 50.5s-16.667 43.333 -18 70h73c3.33301 -31.333 15 -55 35 -71s47 -24 81 -24s61 9 81 27s30 44 30 78
c0 23.333 -7.66699 44.166 -23 62.499s-37 31.5 -65 39.5l-78 22c-44 12.667 -77.833 34.834 -101.5 66.501s-35.5 70.5 -35.5 116.5c0 20.667 3 39.5 9 56.5s13.833 32.5 23.5 46.5s20.834 26 33.501 36s25.667 18.333 39 25c-28.667 13.333 -51.334 30.5 -68.001 51.5
s-25 49.833 -25 86.5c0 24 4.5 46.167 13.5 66.5s21.5 37.666 37.5 51.999s35 25.5 57 33.5s46 12 72 12s49.833 -3.66699 71.5 -11s40.5 -17.666 56.5 -30.999s28.667 -29.833 38 -49.5s14.666 -41.5 15.999 -65.5h-72c-2.66699 33.333 -13.667 57.166 -33 71.499
s-45 21.5 -77 21.5c-34 0 -60.5 -8.33301 -79.5 -25s-28.5 -41.334 -28.5 -74.001c0 -26.667 7.66699 -47.5 23 -62.5s35.666 -26.167 60.999 -33.5l78 -22c44 -12.667 77.833 -35 101.5 -67s35.5 -70.667 35.5 -116zM397 253.001c0 19.333 -2.16699 36.335 -6.5 51.002
s-12.833 28.334 -25.5 41.001c-24 24 -52.667 36 -86 36c-35.333 0 -64 -12 -86 -36c-11.333 -12.667 -19.666 -26 -24.999 -40s-8 -31.333 -8 -52c0 -21.333 3.16699 -39.333 9.5 -54s14.166 -27.334 23.499 -38.001c22 -24 50.667 -36 86 -36s64 12 86 36
c10 11.333 17.833 24.166 23.5 38.499s8.5 32.166 8.5 53.499z" />
    <glyph glyph-name="dieresis" unicode="&#xa8;" horiz-adv-x="500" 
d="M320 602v89h72v-89h-72zM108 602v89h72v-89h-72z" />
    <glyph glyph-name="copyright" unicode="&#xa9;" horiz-adv-x="881" 
d="M802 356c0 -50 -9.5 -97 -28.5 -141s-44.833 -82.333 -77.5 -115s-71 -58.5 -115 -77.5s-91 -28.5 -141 -28.5s-97 9.5 -141 28.5s-82.333 44.833 -115 77.5s-58.5 71 -77.5 115s-28.5 91 -28.5 141s9.5 97 28.5 141s44.833 82.333 77.5 115s71 58.5 115 77.5
s91 28.5 141 28.5s97 -9.5 141 -28.5s82.333 -44.833 115 -77.5s58.5 -71 77.5 -115s28.5 -91 28.5 -141zM744 356c0 42 -8 81.667 -24 119s-37.667 70 -65 98s-59.5 50.167 -96.5 66.5s-76.5 24.5 -118.5 24.5s-81.333 -8.16699 -118 -24.5s-68.834 -38.5 -96.501 -66.5
s-49.334 -60.667 -65.001 -98s-23.5 -77 -23.5 -119s7.83301 -81.667 23.5 -119s37.334 -70 65.001 -98s59.834 -50.167 96.501 -66.5s76 -24.5 118 -24.5s81.5 8.16699 118.5 24.5s69.167 38.5 96.5 66.5s49 60.667 65 98s24 77 24 119zM576 205
c-19.333 -17.333 -39 -30.334 -59 -39.001s-44 -13 -72 -13c-29.333 0 -55 5.16699 -77 15.5s-40.5 24.5 -55.5 42.5s-26.333 39.333 -34 64s-11.5 51.667 -11.5 81s3.83301 56.5 11.5 81.5s19 46.5 34 64.5s33.5 32.167 55.5 42.5s47.667 15.5 77 15.5
c28 0 51.667 -4.33301 71 -13s39.333 -22 60 -40l-36 -36c-16.667 14.667 -32 24.834 -46 30.501s-30.333 8.5 -49 8.5c-22.667 0 -41.834 -4.16699 -57.501 -12.5s-28.167 -19.5 -37.5 -33.5s-16.166 -30.333 -20.499 -49s-6.5 -38.334 -6.5 -59.001
c0 -21.333 2.16699 -41.166 6.5 -59.499s11.166 -34.5 20.499 -48.5s21.833 -25 37.5 -33s34.834 -12 57.501 -12c18.667 0 35 2.66699 49 8s29.333 15.333 46 30z" />
    <glyph glyph-name="ordfeminine" unicode="&#xaa;" horiz-adv-x="449" 
d="M307 319l0.000976562 36.001c-15.333 -15.333 -31.333 -26 -48 -32s-37.667 -9 -63 -9c-27.333 0 -49.333 2.83301 -66 8.5s-31.334 14.834 -44.001 27.501c-20 21.333 -30 47.666 -30 78.999c0 34.667 11.5 62.334 34.5 83.001s56.5 31 100.5 31h115v36
c0 28 -7.16699 49 -21.5 63s-39.5 21 -75.5 21c-24.667 0 -44.167 -3.16699 -58.5 -9.5s-27.5 -17.833 -39.5 -34.5l-41 37c18 23.333 37.833 39.166 59.5 47.499s48.5 12.5 80.5 12.5c52.667 0 91.667 -11.333 117 -34s38 -55.334 38 -98.001v-265h-58zM306.001 498.001
h-107c-56 0 -84 -22.333 -84 -67c0 -22 6.83301 -38.333 20.5 -49s35.5 -16 65.5 -16c16.667 0 32.167 1.33301 46.5 4s27.5 9.66699 39.5 21c12.667 12 19 34.333 19 67v40z" />
    <glyph glyph-name="guillemotleft" unicode="&#xab;" horiz-adv-x="554" 
d="M40 268l210 210v-90l-120 -120l120 -121v-89zM266 268l210 210v-90l-121 -120l121 -121v-89z" />
    <glyph glyph-name="logicalnot" unicode="&#xac;" horiz-adv-x="522" 
d="M404 103v137h-353v67h420v-204h-67z" />
    <glyph glyph-name="uni00AD" unicode="&#xad;" horiz-adv-x="426" 
d="M76 236v67h274v-67h-274z" />
    <glyph glyph-name="registered" unicode="&#xae;" horiz-adv-x="881" 
d="M802 356c0 -50 -9.5 -97 -28.5 -141s-44.833 -82.333 -77.5 -115s-71 -58.5 -115 -77.5s-91 -28.5 -141 -28.5s-97 9.5 -141 28.5s-82.333 44.833 -115 77.5s-58.5 71 -77.5 115s-28.5 91 -28.5 141s9.5 97 28.5 141s44.833 82.333 77.5 115s71 58.5 115 77.5
s91 28.5 141 28.5s97 -9.5 141 -28.5s82.333 -44.833 115 -77.5s58.5 -71 77.5 -115s28.5 -91 28.5 -141zM745 356c0 42.667 -8 82.667 -24 120s-37.833 70 -65.5 98s-60 50.167 -97 66.5s-76.5 24.5 -118.5 24.5s-81.5 -8.16699 -118.5 -24.5s-69.167 -38.5 -96.5 -66.5
s-49 -60.667 -65 -98s-24 -77.333 -24 -120s8 -82.667 24 -120s37.667 -70 65 -98s59.5 -50.167 96.5 -66.5s76.5 -24.5 118.5 -24.5s81.5 8.16699 118.5 24.5s69.333 38.5 97 66.5s49.5 60.667 65.5 98s24 77.333 24 120zM528 158l-91 162.002h-60v-162h-55v397h135
c17.333 0 33.5 -3 48.5 -9s28.167 -14.333 39.5 -25s20.333 -23.334 27 -38.001s10 -30.334 10 -47.001c0 -29.333 -8 -53 -24 -71s-36.333 -30.667 -61 -38l95 -169h-64zM526 436.002c0 20 -7 36.667 -21 50s-32 20 -54 20h-74v-139h74c22 0 40 6.5 54 19.5
s21 29.5 21 49.5z" />
    <glyph glyph-name="macron" unicode="&#xaf;" horiz-adv-x="500" 
d="M99 614v56h301v-56h-301z" />
    <glyph glyph-name="degree" unicode="&#xb0;" horiz-adv-x="463" 
d="M396 557c0 -22.667 -4.33301 -44 -13 -64s-20.334 -37.333 -35.001 -52s-32 -26.334 -52 -35.001s-41.333 -13 -64 -13s-44 4.33301 -64 13s-37.5 20.334 -52.5 35.001s-26.833 32 -35.5 52s-13 41.333 -13 64s4.33301 44 13 64s20.5 37.333 35.5 52
s32.5 26.334 52.5 35.001s41.333 13 64 13s44 -4.33301 64 -13s37.333 -20.334 52 -35.001s26.334 -32 35.001 -52s13 -41.333 13 -64zM335 557c0 14.667 -2.66699 28.5 -8 41.5s-12.666 24.333 -21.999 34s-20.333 17.167 -33 22.5s-26.334 8 -41.001 8
s-28.334 -2.66699 -41.001 -8s-23.5 -12.833 -32.5 -22.5s-16.167 -21 -21.5 -34s-8 -26.833 -8 -41.5c0 -15.333 2.66699 -29.333 8 -42s12.666 -23.834 21.999 -33.501s20.333 -17.167 33 -22.5s26.334 -8 41.001 -8s28.334 2.66699 41.001 8s23.5 12.833 32.5 22.5
s16.167 20.834 21.5 33.501s8 26.667 8 42z" />
    <glyph glyph-name="plusminus" unicode="&#xb1;" horiz-adv-x="522" 
d="M295 289v-177h-67v177h-176v67h176v175h67v-175h175v-67h-175zM52 0v67h418v-67h-418z" />
    <glyph glyph-name="twosuperior" unicode="&#xb2;" horiz-adv-x="318" 
d="M41 285l-0.000976562 52l165 202c8 10 13.833 19.333 17.5 28s5.5 18.667 5.5 30c0 20 -5.66699 36.167 -17 48.5s-27.333 18.5 -48 18.5c-17.333 0 -32.5 -5 -45.5 -15s-19.5 -27.333 -19.5 -52h-58c0 36 11.5 64.833 34.5 86.5s52.5 32.5 88.5 32.5
s65.5 -10.667 88.5 -32s34.5 -50.333 34.5 -87c0 -18.667 -3.16699 -34.667 -9.5 -48s-16.166 -28 -29.499 -44l-138 -168h177v-52h-246z" />
    <glyph glyph-name="threesuperior" unicode="&#xb3;" horiz-adv-x="318" 
d="M293 405c0 -20 -3.33496 -37.8359 -10.002 -53.5029s-15.834 -28.667 -27.501 -39s-25.334 -18.166 -41.001 -23.499s-32.5 -8 -50.5 -8c-17.333 0 -33.666 2.33301 -48.999 7s-29 11.834 -41 21.501s-21.667 22 -29 37s-11.333 32.833 -12 53.5h58
c1.33301 -24 9.16602 -41.167 23.499 -51.5s30.833 -15.5 49.5 -15.5c20 0 37 6.33301 51 19s21 30.667 21 54c0 22 -6.16699 39.5 -18.5 52.5s-31.166 19.5 -56.499 19.5h-9v51h9c22.667 0 39.667 6.16699 51 18.5s17 28.5 17 48.5c0 22 -6.66699 38.833 -20 50.5
s-28.666 17.5 -45.999 17.5c-19.333 0 -35 -5.66699 -47 -17s-18.667 -26.666 -20 -45.999h-57c2 36 14.667 64.167 38 84.5s52 30.5 86 30.5c36.667 0 66.334 -10.833 89.001 -32.5s34 -50.5 34 -86.5c0 -23.333 -4.66699 -42.333 -14 -57s-22.666 -26 -39.999 -34
c19.333 -8 34.333 -20.167 45 -36.5s16 -37.833 16 -64.5z" />
    <glyph glyph-name="acute" unicode="&#xb4;" horiz-adv-x="500" 
d="M270 594h-69l91 153h83z" />
    <glyph glyph-name="mu" unicode="&#xb5;" horiz-adv-x="561" 
d="M399 0l0.000976562 55c-35.333 -40.667 -81.333 -61 -138 -61c-44 0 -79.333 12.333 -106 37v-251h-72v712h72v-303c0 -44 10.833 -76.833 32.5 -98.5s51.167 -32.5 88.5 -32.5s67.166 11 89.499 33s33.5 54.667 33.5 98v303h72v-492h-72z" />
    <glyph glyph-name="paragraph" unicode="&#xb6;" horiz-adv-x="603" 
d="M428 -220l-0.000976562 864h-117v-864h-72v546c-30 0 -57.167 5.33301 -81.5 16s-45 25 -62 43s-30.167 38.5 -39.5 61.5s-14 46.833 -14 71.5c0 26.667 4.83301 51.834 14.5 75.501s23.834 44.167 42.501 61.5s41.5 31.166 68.5 41.499s57.5 15.5 91.5 15.5h241v-932
h-72z" />
    <glyph glyph-name="periodcentered" unicode="&#xb7;" horiz-adv-x="270" 
d="M88 223v94h94v-94h-94z" />
    <glyph glyph-name="cedilla" unicode="&#xb8;" horiz-adv-x="500" 
d="M254 -216h-79l71 149h67z" />
    <glyph glyph-name="onesuperior" unicode="&#xb9;" horiz-adv-x="318" 
d="M150 285v363l-83 -73v66l83 71h57v-427h-57z" />
    <glyph glyph-name="ordmasculine" unicode="&#xba;" horiz-adv-x="455" 
d="M387 515c0 -30.667 -3 -59.167 -9 -85.5s-19 -49.833 -39 -70.5c-13.333 -13.333 -29.333 -24 -48 -32s-40 -12 -64 -12s-45.333 4 -64 12s-34.667 18.667 -48 32c-20 20.667 -33 44.167 -39 70.5s-9 54.833 -9 85.5c0 30 3 58.333 9 85s19 50.334 39 71.001
c13.333 13.333 29.333 24.166 48 32.499s40 12.5 64 12.5s45.333 -4.16699 64 -12.5s34.667 -19.166 48 -32.499c20 -20.667 33 -44.334 39 -71.001s9 -55 9 -85zM328 515c0 21.333 -1.66699 43 -5 65s-12 40 -26 54c-18.667 18.667 -42 28 -70 28s-51.333 -9.33301 -70 -28
c-14 -14 -22.5 -32 -25.5 -54s-4.5 -43.667 -4.5 -65s1.5 -42.833 4.5 -64.5s11.5 -39.5 25.5 -53.5c9.33301 -9.33301 20 -16.5 32 -21.5s24.667 -7.5 38 -7.5s26 2.5 38 7.5s22.667 12.167 32 21.5c14 14 22.667 31.833 26 53.5s5 43.167 5 64.5z" />
    <glyph glyph-name="guillemotright" unicode="&#xbb;" horiz-adv-x="554" 
d="M304 58v89l120 121l-120 120v90l210 -210zM78 58v89l121 121l-121 120v90l210 -210z" />
    <glyph glyph-name="onequarter" unicode="&#xbc;" horiz-adv-x="821" 
d="M150 285v363l-83 -73v66l83 71h57v-427h-57zM274 0h-60l333 712h60zM754 65v-65h-57v65h-172v52l151 310h62l-151 -310h110v105h57v-105h47v-52h-47z" />
    <glyph glyph-name="onehalf" unicode="&#xbd;" horiz-adv-x="821" 
d="M150 285v363l-83 -73v66l83 71h57v-427h-57zM274 0h-60l333 712h60zM544 0l-0.000976562 52l165 202c8 10 13.833 19.333 17.5 28s5.5 18.667 5.5 30c0 20 -5.66699 36.167 -17 48.5s-27.333 18.5 -48 18.5c-17.333 0 -32.5 -5 -45.5 -15s-19.5 -27.333 -19.5 -52h-58
c0 36 11.5 64.833 34.5 86.5s52.5 32.5 88.5 32.5s65.5 -10.667 88.5 -32s34.5 -50.333 34.5 -87c0 -18.667 -3.16699 -34.667 -9.5 -48s-16.166 -28 -29.499 -44l-138 -168h177v-52h-246z" />
    <glyph glyph-name="threequarters" unicode="&#xbe;" horiz-adv-x="821" 
d="M293 405c0 -20 -3.33496 -37.8359 -10.002 -53.5029s-15.834 -28.667 -27.501 -39s-25.334 -18.166 -41.001 -23.499s-32.5 -8 -50.5 -8c-17.333 0 -33.666 2.33301 -48.999 7s-29 11.834 -41 21.501s-21.667 22 -29 37s-11.333 32.833 -12 53.5h58
c1.33301 -24 9.16602 -41.167 23.499 -51.5s30.833 -15.5 49.5 -15.5c20 0 37 6.33301 51 19s21 30.667 21 54c0 22 -6.16699 39.5 -18.5 52.5s-31.166 19.5 -56.499 19.5h-9v51h9c22.667 0 39.667 6.16699 51 18.5s17 28.5 17 48.5c0 22 -6.66699 38.833 -20 50.5
s-28.666 17.5 -45.999 17.5c-19.333 0 -35 -5.66699 -47 -17s-18.667 -26.666 -20 -45.999h-57c2 36 14.667 64.167 38 84.5s52 30.5 86 30.5c36.667 0 66.334 -10.833 89.001 -32.5s34 -50.5 34 -86.5c0 -23.333 -4.66699 -42.333 -14 -57s-22.666 -26 -39.999 -34
c19.333 -8 34.333 -20.167 45 -36.5s16 -37.833 16 -64.5zM273.998 -0.00292969h-60l333 712h60zM753.998 64.9971v-65h-57v65h-172v52l151 310h62l-151 -310h110v105h57v-105h47v-52h-47z" />
    <glyph glyph-name="questiondown" unicode="&#xbf;" horiz-adv-x="497" 
d="M421 -43c0 -25.333 -4.66797 -49.166 -14.001 -71.499s-22.333 -41.833 -39 -58.5s-36.5 -29.667 -59.5 -39s-47.833 -14 -74.5 -14c-26 0 -50.5 4.5 -73.5 13.5s-43 21.667 -60 38s-30.333 35.666 -40 57.999s-14.5 46.833 -14.5 73.5c0 23.333 4.33301 44.333 13 63
s19.667 37.667 33 57l82 118c6 9.33301 10.5 19.333 13.5 30s4.5 20 4.5 28v40h72v-41c0 -19.333 -2.66699 -36 -8 -50s-13.333 -28.667 -24 -44l-81 -116c-9.33301 -14 -17.166 -27.333 -23.499 -40s-9.5 -27.667 -9.5 -45c0 -34 10.833 -62.167 32.5 -84.5
s49.5 -33.5 83.5 -33.5c18 0 34 3.16699 48 9.5s26 15 36 26s17.667 23.5 23 37.5s8 29 8 45h72zM184.999 408v84h85v-84h-85z" />
    <glyph glyph-name="Agrave" unicode="&#xc0;" horiz-adv-x="611" 
d="M518 0l-57 161h-311l-57 -161h-81l262 712h64l261 -712h-81zM307 603l-134 -376h266zM285 780l-105 154h83l91 -154h-69z" />
    <glyph glyph-name="Aacute" unicode="&#xc1;" horiz-adv-x="611" 
d="M518 0l-57 161h-311l-57 -161h-81l262 712h64l261 -712h-81zM307 603l-134 -376h266zM321 780h-69l91 154h83z" />
    <glyph glyph-name="Acircumflex" unicode="&#xc2;" horiz-adv-x="611" 
d="M518 0l-57 161h-311l-57 -161h-81l262 712h64l261 -712h-81zM307 603l-134 -376h266zM393 780l-90 105l-91 -105h-69l126 153h68l125 -153h-69z" />
    <glyph glyph-name="Atilde" unicode="&#xc3;" horiz-adv-x="611" 
d="M518 0l-57 161h-311l-57 -161h-81l262 712h64l261 -712h-81zM307 603l-134 -376h266zM460 844c-11.333 -11.333 -21.6709 -20.332 -31.0039 -26.999s-17.666 -11.667 -24.999 -15s-14.166 -5.5 -20.499 -6.5s-12.5 -1.5 -18.5 -1.5c-14.667 0 -27.167 2 -37.5 6
s-21.5 9.66699 -33.5 17c-9.33301 5.33301 -18.5 10.166 -27.5 14.499s-18.5 6.5 -28.5 6.5c-8.66699 0 -17 -1.66699 -25 -5s-19.333 -12.333 -34 -27l-37 36c11.333 11.333 21.5 20.333 30.5 27s17.333 11.834 25 15.501s14.667 6 21 7s12.5 1.5 18.5 1.5
c14.667 0 27 -2 37 -6s21.333 -10 34 -18c10.667 -6.66699 20.167 -11.667 28.5 -15s17.5 -5 27.5 -5c4 0 7.83301 0.333008 11.5 1s7.83398 2 12.501 4s9.83398 5.16699 15.501 9.5s12.167 10.166 19.5 17.499l37 -37v0z" />
    <glyph glyph-name="Adieresis" unicode="&#xc4;" horiz-adv-x="611" 
d="M518 0l-57 161h-311l-57 -161h-81l262 712h64l261 -712h-81zM307 603l-134 -376h266zM377 789v89h72v-89h-72zM165 789v89h72v-89h-72z" />
    <glyph glyph-name="Aring" unicode="&#xc5;" horiz-adv-x="611" 
d="M518 0l-57 161h-311l-57 -161h-81l262 712h64l261 -712h-81zM307 603l-134 -376h266zM420 867c0 -16 -3.16699 -31.333 -9.5 -46s-14.833 -27.334 -25.5 -38.001s-23.167 -19.167 -37.5 -25.5s-29.5 -9.5 -45.5 -9.5s-31.167 3.16699 -45.5 9.5
s-26.833 14.833 -37.5 25.5s-19.167 23.334 -25.5 38.001s-9.5 30 -9.5 46s3.16699 31.167 9.5 45.5s14.833 26.833 25.5 37.5s23.167 19.167 37.5 25.5s29.5 9.5 45.5 9.5s31.167 -3 45.5 -9s26.833 -14.333 37.5 -25s19.167 -23.167 25.5 -37.5s9.5 -29.833 9.5 -46.5z
M371 867c0 19.333 -6.66699 35.5 -20 48.5s-29.666 19.5 -48.999 19.5s-35.666 -6.5 -48.999 -19.5s-20 -29.167 -20 -48.5s6.66699 -35.666 20 -48.999s29.666 -20 48.999 -20s35.666 6.66699 48.999 20s20 29.666 20 48.999z" />
    <glyph glyph-name="AE" unicode="&#xc6;" horiz-adv-x="922" 
d="M426 0v169h-247l-88 -169h-83l376 712h483v-68h-366v-253h312v-68h-312v-255h366v-68h-441zM426 644l-214 -409h214v409z" />
    <glyph glyph-name="Ccedilla" unicode="&#xc7;" horiz-adv-x="637" 
d="M572 206c-12.667 -66.667 -40.835 -118.669 -84.502 -156.002s-97.834 -56 -162.501 -56c-37.333 0 -70.833 6.16699 -100.5 18.5s-55.5 29.5 -77.5 51.5c-16.667 16.667 -29.834 33.667 -39.501 51s-16.834 37 -21.501 59s-7.5 47.667 -8.5 77s-1.5 64.333 -1.5 105
s0.5 75.667 1.5 105s3.83301 55 8.5 77s11.834 41.667 21.501 59s22.834 34.333 39.501 51c22 22 47.833 39.167 77.5 51.5s63.167 18.5 100.5 18.5c64.667 0 118.834 -18.667 162.501 -56s71.834 -89.333 84.501 -156h-78c-9.33301 44 -28.666 79 -57.999 105
s-66.333 39 -111 39c-48.667 0 -89.667 -16.667 -123 -50c-11.333 -11.333 -20.333 -23.666 -27 -36.999s-11.667 -29.166 -15 -47.499s-5.5 -40.333 -6.5 -66s-1.5 -56.834 -1.5 -93.501s0.5 -67.834 1.5 -93.501s3.16699 -47.667 6.5 -66s8.33301 -34.166 15 -47.499
s15.667 -25.666 27 -36.999c33.333 -33.333 74.333 -50 123 -50c44.667 0 82 13 112 39s49.667 61 59 105h76zM310.999 -216.002h-79l71 149h67z" />
    <glyph glyph-name="Egrave" unicode="&#xc8;" horiz-adv-x="600" 
d="M103 0v712h442v-68h-366v-251h312v-68h-312v-257h366v-68h-442zM296 780l-105 154h83l91 -154h-69z" />
    <glyph glyph-name="Eacute" unicode="&#xc9;" horiz-adv-x="600" 
d="M103 0v712h442v-68h-366v-251h312v-68h-312v-257h366v-68h-442zM332 780h-69l91 154h83z" />
    <glyph glyph-name="Ecircumflex" unicode="&#xca;" horiz-adv-x="600" 
d="M103 0v712h442v-68h-366v-251h312v-68h-312v-257h366v-68h-442zM404 780l-90 105l-91 -105h-69l126 153h68l125 -153h-69z" />
    <glyph glyph-name="Edieresis" unicode="&#xcb;" horiz-adv-x="600" 
d="M103 0v712h442v-68h-366v-251h312v-68h-312v-257h366v-68h-442zM384 789v89h72v-89h-72zM172 789v89h72v-89h-72z" />
    <glyph glyph-name="Igrave" unicode="&#xcc;" horiz-adv-x="282" 
d="M103 0v712h76v-712h-76zM113 780l-105 154h83l91 -154h-69z" />
    <glyph glyph-name="Iacute" unicode="&#xcd;" horiz-adv-x="282" 
d="M103 0v712h76v-712h-76zM171 780h-69l91 154h83z" />
    <glyph glyph-name="Icircumflex" unicode="&#xce;" horiz-adv-x="282" 
d="M103 0v712h76v-712h-76zM231 780l-90 105l-91 -105h-69l126 153h68l125 -153h-69z" />
    <glyph glyph-name="Idieresis" unicode="&#xcf;" horiz-adv-x="282" 
d="M103 0v712h76v-712h-76zM212 789v89h72v-89h-72zM0 789v89h72v-89h-72z" />
    <glyph glyph-name="Eth" unicode="&#xd0;" horiz-adv-x="687" 
d="M611 356c0 -27.333 -0.500977 -54.168 -1.50098 -80.501s-3.5 -51.5 -7.5 -75.5s-10.167 -46.667 -18.5 -68s-20.166 -40.333 -35.499 -57c-24 -26 -51.167 -45 -81.5 -57s-65.5 -18 -105.5 -18h-244v330h-78v59h78v323h244c40 0 75.167 -6 105.5 -18s57.5 -31 81.5 -57
c16 -17.333 28.167 -36.5 36.5 -57.5s14.5 -43.5 18.5 -67.5s6.33301 -49.167 7 -75.5s1 -53.166 1 -80.499zM534.999 355.998c0 24.667 -0.333008 48.5 -1 71.5s-2.5 44.667 -5.5 65s-7.66699 39 -14 56s-15.166 31.5 -26.499 43.5c-18 20 -39 33.667 -63 41
s-49.667 11 -77 11h-155v-255h162v-59h-162v-262h155c27.333 0 53 3.66699 77 11s45 21 63 41c11.333 12 20.166 26.5 26.499 43.5s11 35.667 14 56s4.83301 42 5.5 65s1 46.833 1 71.5z" />
    <glyph glyph-name="Ntilde" unicode="&#xd1;" horiz-adv-x="732" 
d="M557 0l-378 571v-571h-76v712h72l378 -569v569h76v-712h-72zM523 844c-11.333 -11.333 -21.6709 -20.332 -31.0039 -26.999s-17.666 -11.667 -24.999 -15s-14.166 -5.5 -20.499 -6.5s-12.5 -1.5 -18.5 -1.5c-14.667 0 -27.167 2 -37.5 6s-21.5 9.66699 -33.5 17
c-9.33301 5.33301 -18.5 10.166 -27.5 14.499s-18.5 6.5 -28.5 6.5c-8.66699 0 -17 -1.66699 -25 -5s-19.333 -12.333 -34 -27l-37 36c11.333 11.333 21.5 20.333 30.5 27s17.333 11.834 25 15.501s14.667 6 21 7s12.5 1.5 18.5 1.5c14.667 0 27 -2 37 -6s21.333 -10 34 -18
c10.667 -6.66699 20.167 -11.667 28.5 -15s17.5 -5 27.5 -5c4 0 7.83301 0.333008 11.5 1s7.83398 2 12.501 4s9.83398 5.16699 15.501 9.5s12.167 10.166 19.5 17.499l37 -37v0z" />
    <glyph glyph-name="Ograve" unicode="&#xd2;" horiz-adv-x="650" 
d="M574 356c0 -40.667 -0.666992 -75.667 -2 -105s-4.33301 -55 -9 -77s-11.834 -41.667 -21.501 -59s-22.834 -34.333 -39.501 -51c-22 -22 -47.667 -39.167 -77 -51.5s-62.666 -18.5 -99.999 -18.5s-70.833 6.16699 -100.5 18.5s-55.5 29.5 -77.5 51.5
c-16.667 16.667 -29.834 33.667 -39.501 51s-16.834 37 -21.501 59s-7.5 47.667 -8.5 77s-1.5 64.333 -1.5 105s0.5 75.667 1.5 105s3.83301 55 8.5 77s11.834 41.667 21.501 59s22.834 34.333 39.501 51c22 22 47.833 39.167 77.5 51.5s63.167 18.5 100.5 18.5
s70.666 -6.16699 99.999 -18.5s55 -29.5 77 -51.5c16.667 -16.667 29.834 -33.667 39.501 -51s16.834 -37 21.501 -59s7.66699 -47.667 9 -77s2 -64.333 2 -105zM498 356c0 36.667 -0.5 67.834 -1.5 93.501s-3.16699 47.667 -6.5 66s-8.33301 34.166 -15 47.499
s-15.667 25.666 -27 36.999c-33.333 33.333 -74.333 50 -123 50s-89.667 -16.667 -123 -50c-11.333 -11.333 -20.333 -23.666 -27 -36.999s-11.667 -29.166 -15 -47.499s-5.5 -40.333 -6.5 -66s-1.5 -56.834 -1.5 -93.501s0.5 -67.834 1.5 -93.501s3.16699 -47.667 6.5 -66
s8.33301 -34.166 15 -47.499s15.667 -25.666 27 -36.999c33.333 -33.333 74.333 -50 123 -50s89.667 16.667 123 50c11.333 11.333 20.333 23.666 27 36.999s11.667 29.166 15 47.499s5.5 40.333 6.5 66s1.5 56.834 1.5 93.501zM307 780l-105 154h83l91 -154h-69z" />
    <glyph glyph-name="Oacute" unicode="&#xd3;" horiz-adv-x="650" 
d="M574 356c0 -40.667 -0.666992 -75.667 -2 -105s-4.33301 -55 -9 -77s-11.834 -41.667 -21.501 -59s-22.834 -34.333 -39.501 -51c-22 -22 -47.667 -39.167 -77 -51.5s-62.666 -18.5 -99.999 -18.5s-70.833 6.16699 -100.5 18.5s-55.5 29.5 -77.5 51.5
c-16.667 16.667 -29.834 33.667 -39.501 51s-16.834 37 -21.501 59s-7.5 47.667 -8.5 77s-1.5 64.333 -1.5 105s0.5 75.667 1.5 105s3.83301 55 8.5 77s11.834 41.667 21.501 59s22.834 34.333 39.501 51c22 22 47.833 39.167 77.5 51.5s63.167 18.5 100.5 18.5
s70.666 -6.16699 99.999 -18.5s55 -29.5 77 -51.5c16.667 -16.667 29.834 -33.667 39.501 -51s16.834 -37 21.501 -59s7.66699 -47.667 9 -77s2 -64.333 2 -105zM498 356c0 36.667 -0.5 67.834 -1.5 93.501s-3.16699 47.667 -6.5 66s-8.33301 34.166 -15 47.499
s-15.667 25.666 -27 36.999c-33.333 33.333 -74.333 50 -123 50s-89.667 -16.667 -123 -50c-11.333 -11.333 -20.333 -23.666 -27 -36.999s-11.667 -29.166 -15 -47.499s-5.5 -40.333 -6.5 -66s-1.5 -56.834 -1.5 -93.501s0.5 -67.834 1.5 -93.501s3.16699 -47.667 6.5 -66
s8.33301 -34.166 15 -47.499s15.667 -25.666 27 -36.999c33.333 -33.333 74.333 -50 123 -50s89.667 16.667 123 50c11.333 11.333 20.333 23.666 27 36.999s11.667 29.166 15 47.499s5.5 40.333 6.5 66s1.5 56.834 1.5 93.501zM343 780h-69l91 154h83z" />
    <glyph glyph-name="Ocircumflex" unicode="&#xd4;" horiz-adv-x="650" 
d="M574 356c0 -40.667 -0.666992 -75.667 -2 -105s-4.33301 -55 -9 -77s-11.834 -41.667 -21.501 -59s-22.834 -34.333 -39.501 -51c-22 -22 -47.667 -39.167 -77 -51.5s-62.666 -18.5 -99.999 -18.5s-70.833 6.16699 -100.5 18.5s-55.5 29.5 -77.5 51.5
c-16.667 16.667 -29.834 33.667 -39.501 51s-16.834 37 -21.501 59s-7.5 47.667 -8.5 77s-1.5 64.333 -1.5 105s0.5 75.667 1.5 105s3.83301 55 8.5 77s11.834 41.667 21.501 59s22.834 34.333 39.501 51c22 22 47.833 39.167 77.5 51.5s63.167 18.5 100.5 18.5
s70.666 -6.16699 99.999 -18.5s55 -29.5 77 -51.5c16.667 -16.667 29.834 -33.667 39.501 -51s16.834 -37 21.501 -59s7.66699 -47.667 9 -77s2 -64.333 2 -105zM498 356c0 36.667 -0.5 67.834 -1.5 93.501s-3.16699 47.667 -6.5 66s-8.33301 34.166 -15 47.499
s-15.667 25.666 -27 36.999c-33.333 33.333 -74.333 50 -123 50s-89.667 -16.667 -123 -50c-11.333 -11.333 -20.333 -23.666 -27 -36.999s-11.667 -29.166 -15 -47.499s-5.5 -40.333 -6.5 -66s-1.5 -56.834 -1.5 -93.501s0.5 -67.834 1.5 -93.501s3.16699 -47.667 6.5 -66
s8.33301 -34.166 15 -47.499s15.667 -25.666 27 -36.999c33.333 -33.333 74.333 -50 123 -50s89.667 16.667 123 50c11.333 11.333 20.333 23.666 27 36.999s11.667 29.166 15 47.499s5.5 40.333 6.5 66s1.5 56.834 1.5 93.501zM415 780l-90 105l-91 -105h-69l126 153h68
l125 -153h-69z" />
    <glyph glyph-name="Otilde" unicode="&#xd5;" horiz-adv-x="650" 
d="M574 356c0 -40.667 -0.666992 -75.667 -2 -105s-4.33301 -55 -9 -77s-11.834 -41.667 -21.501 -59s-22.834 -34.333 -39.501 -51c-22 -22 -47.667 -39.167 -77 -51.5s-62.666 -18.5 -99.999 -18.5s-70.833 6.16699 -100.5 18.5s-55.5 29.5 -77.5 51.5
c-16.667 16.667 -29.834 33.667 -39.501 51s-16.834 37 -21.501 59s-7.5 47.667 -8.5 77s-1.5 64.333 -1.5 105s0.5 75.667 1.5 105s3.83301 55 8.5 77s11.834 41.667 21.501 59s22.834 34.333 39.501 51c22 22 47.833 39.167 77.5 51.5s63.167 18.5 100.5 18.5
s70.666 -6.16699 99.999 -18.5s55 -29.5 77 -51.5c16.667 -16.667 29.834 -33.667 39.501 -51s16.834 -37 21.501 -59s7.66699 -47.667 9 -77s2 -64.333 2 -105zM498 356c0 36.667 -0.5 67.834 -1.5 93.501s-3.16699 47.667 -6.5 66s-8.33301 34.166 -15 47.499
s-15.667 25.666 -27 36.999c-33.333 33.333 -74.333 50 -123 50s-89.667 -16.667 -123 -50c-11.333 -11.333 -20.333 -23.666 -27 -36.999s-11.667 -29.166 -15 -47.499s-5.5 -40.333 -6.5 -66s-1.5 -56.834 -1.5 -93.501s0.5 -67.834 1.5 -93.501s3.16699 -47.667 6.5 -66
s8.33301 -34.166 15 -47.499s15.667 -25.666 27 -36.999c33.333 -33.333 74.333 -50 123 -50s89.667 16.667 123 50c11.333 11.333 20.333 23.666 27 36.999s11.667 29.166 15 47.499s5.5 40.333 6.5 66s1.5 56.834 1.5 93.501zM482 844
c-11.333 -11.333 -21.6709 -20.332 -31.0039 -26.999s-17.666 -11.667 -24.999 -15s-14.166 -5.5 -20.499 -6.5s-12.5 -1.5 -18.5 -1.5c-14.667 0 -27.167 2 -37.5 6s-21.5 9.66699 -33.5 17c-9.33301 5.33301 -18.5 10.166 -27.5 14.499s-18.5 6.5 -28.5 6.5
c-8.66699 0 -17 -1.66699 -25 -5s-19.333 -12.333 -34 -27l-37 36c11.333 11.333 21.5 20.333 30.5 27s17.333 11.834 25 15.501s14.667 6 21 7s12.5 1.5 18.5 1.5c14.667 0 27 -2 37 -6s21.333 -10 34 -18c10.667 -6.66699 20.167 -11.667 28.5 -15s17.5 -5 27.5 -5
c4 0 7.83301 0.333008 11.5 1s7.83398 2 12.501 4s9.83398 5.16699 15.501 9.5s12.167 10.166 19.5 17.499l37 -37v0z" />
    <glyph glyph-name="Odieresis" unicode="&#xd6;" horiz-adv-x="650" 
d="M574 356c0 -40.667 -0.666992 -75.667 -2 -105s-4.33301 -55 -9 -77s-11.834 -41.667 -21.501 -59s-22.834 -34.333 -39.501 -51c-22 -22 -47.667 -39.167 -77 -51.5s-62.666 -18.5 -99.999 -18.5s-70.833 6.16699 -100.5 18.5s-55.5 29.5 -77.5 51.5
c-16.667 16.667 -29.834 33.667 -39.501 51s-16.834 37 -21.501 59s-7.5 47.667 -8.5 77s-1.5 64.333 -1.5 105s0.5 75.667 1.5 105s3.83301 55 8.5 77s11.834 41.667 21.501 59s22.834 34.333 39.501 51c22 22 47.833 39.167 77.5 51.5s63.167 18.5 100.5 18.5
s70.666 -6.16699 99.999 -18.5s55 -29.5 77 -51.5c16.667 -16.667 29.834 -33.667 39.501 -51s16.834 -37 21.501 -59s7.66699 -47.667 9 -77s2 -64.333 2 -105zM498 356c0 36.667 -0.5 67.834 -1.5 93.501s-3.16699 47.667 -6.5 66s-8.33301 34.166 -15 47.499
s-15.667 25.666 -27 36.999c-33.333 33.333 -74.333 50 -123 50s-89.667 -16.667 -123 -50c-11.333 -11.333 -20.333 -23.666 -27 -36.999s-11.667 -29.166 -15 -47.499s-5.5 -40.333 -6.5 -66s-1.5 -56.834 -1.5 -93.501s0.5 -67.834 1.5 -93.501s3.16699 -47.667 6.5 -66
s8.33301 -34.166 15 -47.499s15.667 -25.666 27 -36.999c33.333 -33.333 74.333 -50 123 -50s89.667 16.667 123 50c11.333 11.333 20.333 23.666 27 36.999s11.667 29.166 15 47.499s5.5 40.333 6.5 66s1.5 56.834 1.5 93.501zM395 789v89h72v-89h-72zM183 789v89h72v-89
h-72z" />
    <glyph glyph-name="multiply" unicode="&#xd7;" horiz-adv-x="522" 
d="M412 74l-151 151l-151 -151l-45 45l151 151l-151 151l45 45l151 -152l151 152l45 -45l-152 -151l152 -151z" />
    <glyph glyph-name="Oslash" unicode="&#xd8;" horiz-adv-x="650" 
d="M574 356c0 -40.667 -0.500977 -75.5 -1.50098 -104.5s-3.83301 -54.5 -8.5 -76.5s-11.834 -41.667 -21.501 -59s-23.167 -34.666 -40.5 -51.999c-22 -22 -47.667 -39.167 -77 -51.5s-62.666 -18.5 -99.999 -18.5c-24.667 0 -47.334 2.66699 -68.001 8s-40 13 -58 23
l-33 -69h-65l50 104c-18 17.333 -32 34.666 -42 51.999s-17.5 37.166 -22.5 59.499s-8 48.333 -9 78s-1.5 65.167 -1.5 106.5c0 40.667 0.5 75.667 1.5 105s3.83301 55 8.5 77s11.834 41.667 21.501 59s22.834 34.333 39.501 51c22 22 47.833 39.167 77.5 51.5
s63.167 18.5 100.5 18.5c49.333 0 91 -10.333 125 -31l34 69h65l-50 -105c18 -17.333 32 -34.833 42 -52.5s17.5 -37.667 22.5 -60s8 -48.166 9 -77.499s1.5 -64.333 1.5 -105zM151.999 356c0 -32 0.332031 -59.668 0.999023 -83.001s2.33398 -43.833 5.00098 -61.5
s6.16699 -33 10.5 -46s10.5 -24.833 18.5 -35.5l234 492c-26.667 18.667 -58.667 28 -96 28c-24 0 -46.5 -4.16699 -67.5 -12.5s-39.5 -20.833 -55.5 -37.5c-11.333 -11.333 -20.333 -23.666 -27 -36.999s-11.667 -29.166 -15 -47.499s-5.5 -40.333 -6.5 -66
s-1.5 -56.834 -1.5 -93.501zM497.998 355.999c0 32 -0.332031 59.668 -0.999023 83.001s-2.33398 43.833 -5.00098 61.5s-6.16699 33 -10.5 46s-10.5 24.833 -18.5 35.5l-234 -492c28 -18.667 60 -28 96 -28c48.667 0 89.667 16.667 123 50
c11.333 11.333 20.333 23.666 27 36.999s11.667 29.166 15 47.499s5.5 40.333 6.5 66s1.5 56.834 1.5 93.501z" />
    <glyph glyph-name="Ugrave" unicode="&#xd9;" horiz-adv-x="683" 
d="M590 235c0 -35.333 -6.16895 -67.833 -18.502 -97.5s-29.666 -55.167 -51.999 -76.5s-48.666 -37.833 -78.999 -49.5s-63.5 -17.5 -99.5 -17.5s-69.167 5.83301 -99.5 17.5s-56.5 28.167 -78.5 49.5s-39.167 46.833 -51.5 76.5s-18.5 62.167 -18.5 97.5v477h76v-471
c0 -27.333 4 -52 12 -74s19.5 -40.667 34.5 -56s33.167 -27.333 54.5 -36s45 -13 71 -13s49.667 4.33301 71 13s39.5 20.667 54.5 36s26.667 34 35 56s12.5 46.667 12.5 74v471h76v-477zM322.998 780l-105 154h83l91 -154h-69z" />
    <glyph glyph-name="Uacute" unicode="&#xda;" horiz-adv-x="683" 
d="M590 235c0 -35.333 -6.16895 -67.833 -18.502 -97.5s-29.666 -55.167 -51.999 -76.5s-48.666 -37.833 -78.999 -49.5s-63.5 -17.5 -99.5 -17.5s-69.167 5.83301 -99.5 17.5s-56.5 28.167 -78.5 49.5s-39.167 46.833 -51.5 76.5s-18.5 62.167 -18.5 97.5v477h76v-471
c0 -27.333 4 -52 12 -74s19.5 -40.667 34.5 -56s33.167 -27.333 54.5 -36s45 -13 71 -13s49.667 4.33301 71 13s39.5 20.667 54.5 36s26.667 34 35 56s12.5 46.667 12.5 74v471h76v-477zM358.998 780h-69l91 154h83z" />
    <glyph glyph-name="Ucircumflex" unicode="&#xdb;" horiz-adv-x="683" 
d="M590 235c0 -35.333 -6.16895 -67.833 -18.502 -97.5s-29.666 -55.167 -51.999 -76.5s-48.666 -37.833 -78.999 -49.5s-63.5 -17.5 -99.5 -17.5s-69.167 5.83301 -99.5 17.5s-56.5 28.167 -78.5 49.5s-39.167 46.833 -51.5 76.5s-18.5 62.167 -18.5 97.5v477h76v-471
c0 -27.333 4 -52 12 -74s19.5 -40.667 34.5 -56s33.167 -27.333 54.5 -36s45 -13 71 -13s49.667 4.33301 71 13s39.5 20.667 54.5 36s26.667 34 35 56s12.5 46.667 12.5 74v471h76v-477zM430.998 780l-90 105l-91 -105h-69l126 153h68l125 -153h-69z" />
    <glyph glyph-name="Udieresis" unicode="&#xdc;" horiz-adv-x="683" 
d="M590 235c0 -35.333 -6.16895 -67.833 -18.502 -97.5s-29.666 -55.167 -51.999 -76.5s-48.666 -37.833 -78.999 -49.5s-63.5 -17.5 -99.5 -17.5s-69.167 5.83301 -99.5 17.5s-56.5 28.167 -78.5 49.5s-39.167 46.833 -51.5 76.5s-18.5 62.167 -18.5 97.5v477h76v-471
c0 -27.333 4 -52 12 -74s19.5 -40.667 34.5 -56s33.167 -27.333 54.5 -36s45 -13 71 -13s49.667 4.33301 71 13s39.5 20.667 54.5 36s26.667 34 35 56s12.5 46.667 12.5 74v471h76v-477zM410.998 789v89h72v-89h-72zM198.998 789v89h72v-89h-72z" />
    <glyph glyph-name="Yacute" unicode="&#xdd;" horiz-adv-x="514" 
d="M296 294v-294h-76v294l-212 418h82l168 -341l166 341h82zM276 780h-69l91 154h83z" />
    <glyph glyph-name="Thorn" unicode="&#xde;" horiz-adv-x="642" 
d="M588 359c0 -32 -5.33301 -60.833 -16 -86.5s-25.667 -47.667 -45 -66s-42.5 -32.333 -69.5 -42s-56.833 -14.5 -89.5 -14.5h-189v-150h-76v712h76v-143h189c32.667 0 62.5 -5 89.5 -15s50.167 -24 69.5 -42s34.333 -40 45 -66s16 -55 16 -87zM512 359
c0 47.333 -14 82.668 -42 106.001s-64.333 35 -109 35h-182v-282h182c44.667 0 81 11.667 109 35s42 58.666 42 105.999z" />
    <glyph glyph-name="germandbls" unicode="&#xdf;" horiz-adv-x="556" 
d="M484 141c0 -45.333 -13 -80.3301 -39 -104.997c-14 -12.667 -28.833 -21.834 -44.5 -27.501s-35.167 -8.5 -58.5 -8.5h-54v62h40c14 0 25.167 1.66699 33.5 5s16.833 8.33301 25.5 15c16.667 14 25 36.333 25 67v169c0 14.667 -1.5 26.834 -4.5 36.501
s-8.5 18.167 -16.5 25.5c-14 14 -33.667 21 -59 21h-44v60h36c26.667 0 48 8.16699 64 24.5s24 38.5 24 66.5c0 14.667 -2.5 28.5 -7.5 41.5s-12.833 24.167 -23.5 33.5c-20.667 19.333 -52 29 -94 29c-22.667 0 -41.834 -3.33301 -57.501 -10s-28.5 -15.834 -38.5 -27.501
s-17.167 -25.834 -21.5 -42.501s-6.5 -35 -6.5 -55v-521h-73v524c0 63.333 18 111.666 54 144.999s85 50 147 50c26.667 0 51.667 -3.33301 75 -10s43.833 -16.667 61.5 -30s31.5 -30.5 41.5 -51.5s15 -45.833 15 -74.5c0 -28 -5.66699 -51.667 -17 -71
s-26.666 -35.333 -45.999 -48c24 -12 40.5 -27 49.5 -45s13.5 -43 13.5 -75v-173z" />
    <glyph glyph-name="agrave" unicode="&#xe0;" horiz-adv-x="526" 
d="M369 0v47c-19.333 -19.333 -39.666 -33 -60.999 -41s-48.333 -12 -81 -12c-34 0 -61.333 3.33301 -82 10s-39.667 18.334 -57 35.001c-12.667 12 -22 26.833 -28 44.5s-9 36.167 -9 55.5c0 44 14.667 78.667 44 104s71.666 38 126.999 38h147v47c0 36 -9.5 63 -28.5 81
s-51.5 27 -97.5 27c-31.333 0 -56 -4.33301 -74 -13s-34.667 -23.334 -50 -44.001l-49 45c21.333 28.667 45.5 48.167 72.5 58.5s60.833 15.5 101.5 15.5c66.667 0 116.167 -14 148.5 -42s48.5 -68.667 48.5 -122v-334h-72zM369 227h-137c-74 0 -111 -29 -111 -87
c0 -28.667 9 -49.834 27 -63.501s47 -20.5 87 -20.5c20.667 0 40 1.83301 58 5.5s35 12.834 51 27.501c16.667 16 25 44.333 25 85v53zM234 594l-105 153h83l91 -153h-69z" />
    <glyph glyph-name="aacute" unicode="&#xe1;" horiz-adv-x="526" 
d="M369 0v47c-19.333 -19.333 -39.666 -33 -60.999 -41s-48.333 -12 -81 -12c-34 0 -61.333 3.33301 -82 10s-39.667 18.334 -57 35.001c-12.667 12 -22 26.833 -28 44.5s-9 36.167 -9 55.5c0 44 14.667 78.667 44 104s71.666 38 126.999 38h147v47c0 36 -9.5 63 -28.5 81
s-51.5 27 -97.5 27c-31.333 0 -56 -4.33301 -74 -13s-34.667 -23.334 -50 -44.001l-49 45c21.333 28.667 45.5 48.167 72.5 58.5s60.833 15.5 101.5 15.5c66.667 0 116.167 -14 148.5 -42s48.5 -68.667 48.5 -122v-334h-72zM369 227h-137c-74 0 -111 -29 -111 -87
c0 -28.667 9 -49.834 27 -63.501s47 -20.5 87 -20.5c20.667 0 40 1.83301 58 5.5s35 12.834 51 27.501c16.667 16 25 44.333 25 85v53zM272 594h-69l91 153h83z" />
    <glyph glyph-name="acircumflex" unicode="&#xe2;" horiz-adv-x="526" 
d="M369 0v47c-19.333 -19.333 -39.666 -33 -60.999 -41s-48.333 -12 -81 -12c-34 0 -61.333 3.33301 -82 10s-39.667 18.334 -57 35.001c-12.667 12 -22 26.833 -28 44.5s-9 36.167 -9 55.5c0 44 14.667 78.667 44 104s71.666 38 126.999 38h147v47c0 36 -9.5 63 -28.5 81
s-51.5 27 -97.5 27c-31.333 0 -56 -4.33301 -74 -13s-34.667 -23.334 -50 -44.001l-49 45c21.333 28.667 45.5 48.167 72.5 58.5s60.833 15.5 101.5 15.5c66.667 0 116.167 -14 148.5 -42s48.5 -68.667 48.5 -122v-334h-72zM369 227h-137c-74 0 -111 -29 -111 -87
c0 -28.667 9 -49.834 27 -63.501s47 -20.5 87 -20.5c20.667 0 40 1.83301 58 5.5s35 12.834 51 27.501c16.667 16 25 44.333 25 85v53zM344 594l-91 104l-90 -104h-69l125 153h68l126 -153h-69z" />
    <glyph glyph-name="atilde" unicode="&#xe3;" horiz-adv-x="526" 
d="M369 0v47c-19.333 -19.333 -39.666 -33 -60.999 -41s-48.333 -12 -81 -12c-34 0 -61.333 3.33301 -82 10s-39.667 18.334 -57 35.001c-12.667 12 -22 26.833 -28 44.5s-9 36.167 -9 55.5c0 44 14.667 78.667 44 104s71.666 38 126.999 38h147v47c0 36 -9.5 63 -28.5 81
s-51.5 27 -97.5 27c-31.333 0 -56 -4.33301 -74 -13s-34.667 -23.334 -50 -44.001l-49 45c21.333 28.667 45.5 48.167 72.5 58.5s60.833 15.5 101.5 15.5c66.667 0 116.167 -14 148.5 -42s48.5 -68.667 48.5 -122v-334h-72zM369 227h-137c-74 0 -111 -29 -111 -87
c0 -28.667 9 -49.834 27 -63.501s47 -20.5 87 -20.5c20.667 0 40 1.83301 58 5.5s35 12.834 51 27.501c16.667 16 25 44.333 25 85v53zM410 658c-11.333 -11.333 -21.502 -20.499 -30.502 -27.499s-17.333 -12.167 -25 -15.5s-14.667 -5.5 -21 -6.5s-12.5 -1.5 -18.5 -1.5
c-14 0 -26.333 2.16699 -37 6.5s-22 10.166 -34 17.499c-9.33301 5.33301 -18.5 10 -27.5 14s-18.5 6 -28.5 6c-8.66699 0 -17 -1.66699 -25 -5s-19.333 -12.333 -34 -27l-37 36c11.333 11.333 21.5 20.333 30.5 27s17.333 11.834 25 15.501s14.667 6 21 7
s12.5 1.5 18.5 1.5c14.667 0 27 -2 37 -6s21.333 -10 34 -18c10.667 -6 20.167 -10.833 28.5 -14.5s17.5 -5.5 27.5 -5.5c4 0 7.83301 0.333008 11.5 1s7.83398 2 12.501 4s9.83398 5.16699 15.501 9.5s12.167 10.166 19.5 17.499l37 -36v0z" />
    <glyph glyph-name="adieresis" unicode="&#xe4;" horiz-adv-x="526" 
d="M369 0v47c-19.333 -19.333 -39.666 -33 -60.999 -41s-48.333 -12 -81 -12c-34 0 -61.333 3.33301 -82 10s-39.667 18.334 -57 35.001c-12.667 12 -22 26.833 -28 44.5s-9 36.167 -9 55.5c0 44 14.667 78.667 44 104s71.666 38 126.999 38h147v47c0 36 -9.5 63 -28.5 81
s-51.5 27 -97.5 27c-31.333 0 -56 -4.33301 -74 -13s-34.667 -23.334 -50 -44.001l-49 45c21.333 28.667 45.5 48.167 72.5 58.5s60.833 15.5 101.5 15.5c66.667 0 116.167 -14 148.5 -42s48.5 -68.667 48.5 -122v-334h-72zM369 227h-137c-74 0 -111 -29 -111 -87
c0 -28.667 9 -49.834 27 -63.501s47 -20.5 87 -20.5c20.667 0 40 1.83301 58 5.5s35 12.834 51 27.501c16.667 16 25 44.333 25 85v53zM323 602v89h72v-89h-72zM111 602v89h72v-89h-72z" />
    <glyph glyph-name="aring" unicode="&#xe5;" horiz-adv-x="526" 
d="M369 0v47c-19.333 -19.333 -39.666 -33 -60.999 -41s-48.333 -12 -81 -12c-34 0 -61.333 3.33301 -82 10s-39.667 18.334 -57 35.001c-12.667 12 -22 26.833 -28 44.5s-9 36.167 -9 55.5c0 44 14.667 78.667 44 104s71.666 38 126.999 38h147v47c0 36 -9.5 63 -28.5 81
s-51.5 27 -97.5 27c-31.333 0 -56 -4.33301 -74 -13s-34.667 -23.334 -50 -44.001l-49 45c21.333 28.667 45.5 48.167 72.5 58.5s60.833 15.5 101.5 15.5c66.667 0 116.167 -14 148.5 -42s48.5 -68.667 48.5 -122v-334h-72zM369 227h-137c-74 0 -111 -29 -111 -87
c0 -28.667 9 -49.834 27 -63.501s47 -20.5 87 -20.5c20.667 0 40 1.83301 58 5.5s35 12.834 51 27.501c16.667 16 25 44.333 25 85v53zM370 687c0 -16 -3.16699 -31.333 -9.5 -46s-14.833 -27.334 -25.5 -38.001s-23.167 -19.167 -37.5 -25.5s-29.5 -9.5 -45.5 -9.5
s-31.167 3.16699 -45.5 9.5s-26.833 14.833 -37.5 25.5s-19.167 23.334 -25.5 38.001s-9.5 30 -9.5 46s3.16699 31.167 9.5 45.5s14.833 26.833 25.5 37.5s23.167 19.167 37.5 25.5s29.5 9.5 45.5 9.5s31.167 -3 45.5 -9s26.833 -14.333 37.5 -25s19.167 -23.167 25.5 -37.5
s9.5 -29.833 9.5 -46.5zM321 687c0 19.333 -6.66699 35.5 -20 48.5s-29.666 19.5 -48.999 19.5s-35.666 -6.5 -48.999 -19.5s-20 -29.167 -20 -48.5s6.66699 -35.666 20 -48.999s29.666 -20 48.999 -20s35.666 6.66699 48.999 20s20 29.666 20 48.999z" />
    <glyph glyph-name="ae" unicode="&#xe6;" horiz-adv-x="835" 
d="M440 227c0 -54 12.333 -95.833 37 -125.5s61 -44.5 109 -44.5c28.667 0 52.334 4.5 71.001 13.5s37.667 23.167 57 42.5l50 -43c-12.667 -12.667 -25.334 -23.667 -38.001 -33s-26.167 -17.166 -40.5 -23.499s-30 -11.166 -47 -14.499s-35.833 -5 -56.5 -5
c-39.333 0 -73.666 6.83301 -102.999 20.5s-53.333 35.167 -72 64.5c-22 -32 -46.833 -54.167 -74.5 -66.5s-62.834 -18.5 -105.501 -18.5c-32.667 0 -59.667 3.16699 -81 9.5s-40.666 18.166 -57.999 35.499c-12.667 12 -22 26.833 -28 44.5s-9 36.167 -9 55.5
c0 44 14.667 78.667 44 104s71.666 38 126.999 38h147v47c0 36 -9.5 63 -28.5 81s-51.5 27 -97.5 27c-31.333 0 -56 -4.33301 -74 -13s-34.667 -23.334 -50 -44.001l-49 45c21.333 28.667 45.5 48.167 72.5 58.5s60.833 15.5 101.5 15.5c88 0 145.667 -25.667 173 -77
c34 51.333 85.333 77 154 77c64 0 113.667 -21.167 149 -63.5s53 -100.833 53 -175.5v-32h-333zM232 227c-74 0 -111 -29 -111 -87c0 -28.667 9 -49.834 27 -63.501s47 -20.5 87 -20.5c20.667 0 40 1.83301 58 5.5s35 12.834 51 27.501c16.667 16 25 44.333 25 85v53h-137z
M701 281c-0.666992 10 -1.33105 18.665 -1.99805 25.998s-1.5 14 -2.5 20s-2.33301 11.833 -4 17.5s-3.83398 11.834 -6.50098 18.501c-9.33301 23.333 -24.333 41.5 -45 54.5s-44 19.5 -70 19.5c-26.667 0 -50.167 -6.5 -70.5 -19.5s-35.166 -31.167 -44.499 -54.5
c-2.66699 -7.33301 -4.83398 -13.666 -6.50098 -18.999s-3.16699 -11 -4.5 -17s-2.33301 -12.667 -3 -20s-1.33398 -16 -2.00098 -26h261z" />
    <glyph glyph-name="ccedilla" unicode="&#xe7;" horiz-adv-x="490" 
d="M443 67c-25.333 -27.333 -50.166 -46.335 -74.499 -57.002s-53.5 -16 -87.5 -16c-31.333 0 -60.166 5.16699 -86.499 15.5s-49.333 26 -69 47s-35 47.333 -46 79s-16.5 68.5 -16.5 110.5s5.5 78.667 16.5 110s26.333 57.5 46 78.5s42.667 36.833 69 47.5
s55.166 16 86.499 16c34 0 63.167 -5.33301 87.5 -16s49.166 -29.667 74.499 -57l-49 -46c-18.667 20.667 -36.334 35 -53.001 43s-36.667 12 -60 12c-24 0 -45.667 -4.66699 -65 -14s-35.666 -23.333 -48.999 -42c-11.333 -16 -19.5 -34.167 -24.5 -54.5
s-7.5 -46.166 -7.5 -77.499s2.5 -57.166 7.5 -77.499s13.167 -38.5 24.5 -54.5c13.333 -18.667 29.666 -32.667 48.999 -42s41 -14 65 -14c23.333 0 43.333 4.16699 60 12.5s34.334 22.833 53.001 43.5zM254 -216.002h-79l71 149h67z" />
    <glyph glyph-name="egrave" unicode="&#xe8;" 
d="M135 227c0 -54 12.1689 -95.8369 36.502 -125.504s60.5 -44.5 108.5 -44.5c28.667 0 52.5 4.5 71.5 13.5s38.167 23.167 57.5 42.5l49 -43c-12.667 -12.667 -25.167 -23.667 -37.5 -33s-25.666 -17.166 -39.999 -23.499s-29.833 -11.166 -46.5 -14.499
s-35.334 -5 -56.001 -5c-32.667 0 -62.334 5 -89.001 15s-49.334 25.333 -68.001 46s-33 46.834 -43 78.501s-15 69.167 -15 112.5c0 80.667 18 142.834 54 186.501s85.333 65.5 148 65.5c64.667 0 114.5 -21.167 149.5 -63.5s52.5 -100.833 52.5 -175.5v-32h-332z
M396.002 280.996c-0.666992 10 -1.3291 18.667 -1.99609 26s-1.5 14 -2.5 20s-2.5 11.833 -4.5 17.5s-4.33301 11.834 -7 18.501c-10.667 22.667 -25.834 40.667 -45.501 54s-42.834 20 -69.501 20s-49.834 -6.66699 -69.501 -20s-34.834 -31.333 -45.501 -54
c-3.33301 -6.66699 -5.83301 -12.834 -7.5 -18.501s-3 -11.5 -4 -17.5s-1.66699 -12.667 -2 -20s-0.833008 -16 -1.5 -26h261zM249.007 593.996l-105 153h83l91 -153h-69z" />
    <glyph glyph-name="eacute" unicode="&#xe9;" 
d="M135 227c0 -54 12.1689 -95.8369 36.502 -125.504s60.5 -44.5 108.5 -44.5c28.667 0 52.5 4.5 71.5 13.5s38.167 23.167 57.5 42.5l49 -43c-12.667 -12.667 -25.167 -23.667 -37.5 -33s-25.666 -17.166 -39.999 -23.499s-29.833 -11.166 -46.5 -14.499
s-35.334 -5 -56.001 -5c-32.667 0 -62.334 5 -89.001 15s-49.334 25.333 -68.001 46s-33 46.834 -43 78.501s-15 69.167 -15 112.5c0 80.667 18 142.834 54 186.501s85.333 65.5 148 65.5c64.667 0 114.5 -21.167 149.5 -63.5s52.5 -100.833 52.5 -175.5v-32h-332z
M396.002 280.996c-0.666992 10 -1.3291 18.667 -1.99609 26s-1.5 14 -2.5 20s-2.5 11.833 -4.5 17.5s-4.33301 11.834 -7 18.501c-10.667 22.667 -25.834 40.667 -45.501 54s-42.834 20 -69.501 20s-49.834 -6.66699 -69.501 -20s-34.834 -31.333 -45.501 -54
c-3.33301 -6.66699 -5.83301 -12.834 -7.5 -18.501s-3 -11.5 -4 -17.5s-1.66699 -12.667 -2 -20s-0.833008 -16 -1.5 -26h261zM287.007 593.996h-69l91 153h83z" />
    <glyph glyph-name="ecircumflex" unicode="&#xea;" 
d="M135 227c0 -54 12.1689 -95.8369 36.502 -125.504s60.5 -44.5 108.5 -44.5c28.667 0 52.5 4.5 71.5 13.5s38.167 23.167 57.5 42.5l49 -43c-12.667 -12.667 -25.167 -23.667 -37.5 -33s-25.666 -17.166 -39.999 -23.499s-29.833 -11.166 -46.5 -14.499
s-35.334 -5 -56.001 -5c-32.667 0 -62.334 5 -89.001 15s-49.334 25.333 -68.001 46s-33 46.834 -43 78.501s-15 69.167 -15 112.5c0 80.667 18 142.834 54 186.501s85.333 65.5 148 65.5c64.667 0 114.5 -21.167 149.5 -63.5s52.5 -100.833 52.5 -175.5v-32h-332z
M396.002 280.996c-0.666992 10 -1.3291 18.667 -1.99609 26s-1.5 14 -2.5 20s-2.5 11.833 -4.5 17.5s-4.33301 11.834 -7 18.501c-10.667 22.667 -25.834 40.667 -45.501 54s-42.834 20 -69.501 20s-49.834 -6.66699 -69.501 -20s-34.834 -31.333 -45.501 -54
c-3.33301 -6.66699 -5.83301 -12.834 -7.5 -18.501s-3 -11.5 -4 -17.5s-1.66699 -12.667 -2 -20s-0.833008 -16 -1.5 -26h261zM359.007 593.996l-91 104l-90 -104h-69l125 153h68l126 -153h-69z" />
    <glyph glyph-name="edieresis" unicode="&#xeb;" 
d="M135 227c0 -54 12.1689 -95.8369 36.502 -125.504s60.5 -44.5 108.5 -44.5c28.667 0 52.5 4.5 71.5 13.5s38.167 23.167 57.5 42.5l49 -43c-12.667 -12.667 -25.167 -23.667 -37.5 -33s-25.666 -17.166 -39.999 -23.499s-29.833 -11.166 -46.5 -14.499
s-35.334 -5 -56.001 -5c-32.667 0 -62.334 5 -89.001 15s-49.334 25.333 -68.001 46s-33 46.834 -43 78.501s-15 69.167 -15 112.5c0 80.667 18 142.834 54 186.501s85.333 65.5 148 65.5c64.667 0 114.5 -21.167 149.5 -63.5s52.5 -100.833 52.5 -175.5v-32h-332z
M396.002 280.996c-0.666992 10 -1.3291 18.667 -1.99609 26s-1.5 14 -2.5 20s-2.5 11.833 -4.5 17.5s-4.33301 11.834 -7 18.501c-10.667 22.667 -25.834 40.667 -45.501 54s-42.834 20 -69.501 20s-49.834 -6.66699 -69.501 -20s-34.834 -31.333 -45.501 -54
c-3.33301 -6.66699 -5.83301 -12.834 -7.5 -18.501s-3 -11.5 -4 -17.5s-1.66699 -12.667 -2 -20s-0.833008 -16 -1.5 -26h261zM337.007 601.996v89h72v-89h-72zM125.007 601.996v89h72v-89h-72z" />
    <glyph glyph-name="igrave" unicode="&#xec;" horiz-adv-x="252" 
d="M90 0v492h72v-492h-72zM96 594l-105 153h83l91 -153h-69z" />
    <glyph glyph-name="iacute" unicode="&#xed;" horiz-adv-x="252" 
d="M90 0v492h72v-492h-72zM159 594h-69l91 153h83z" />
    <glyph glyph-name="icircumflex" unicode="&#xee;" horiz-adv-x="252" 
d="M90 0v492h72v-492h-72zM221 594l-91 104l-90 -104h-69l125 153h68l126 -153h-69z" />
    <glyph glyph-name="idieresis" unicode="&#xef;" horiz-adv-x="252" 
d="M90 0v492h72v-492h-72zM198 602v89h72v-89h-72zM-14 602v89h72v-89h-72z" />
    <glyph glyph-name="eth" unicode="&#xf0;" 
d="M465 244c0 -38 -3.66602 -73.666 -10.999 -106.999s-23.666 -62.666 -48.999 -87.999c-16.667 -17.333 -36.667 -30.833 -60 -40.5s-50 -14.5 -80 -14.5s-56.667 4.83301 -80 14.5s-43.333 23.167 -60 40.5c-25.333 25.333 -41.5 54.666 -48.5 87.999s-10.5 69 -10.5 107
s3.5 73.667 10.5 107s23.167 62.666 48.5 87.999c15.333 16 34.333 28.667 57 38s49 14 79 14c12 0 22.833 -0.666992 32.5 -2s19.167 -4 28.5 -8l-58 99h-116v52h88l-47 82h75l47 -82h82v-52h-54l63 -111c13.333 -23.333 24.166 -44 32.499 -62s14.666 -35.5 18.999 -52.5
s7.33301 -34.167 9 -51.5s2.5 -37 2.5 -59zM393.001 244.001c0 14 -0.331055 28 -0.998047 42s-2.33398 27.5 -5.00098 40.5s-6.66699 25.333 -12 37s-12.333 22.167 -21 31.5c-24 24 -53.667 36 -89 36c-34.667 0 -64 -12 -88 -36
c-9.33301 -9.33301 -16.5 -19.833 -21.5 -31.5s-8.83301 -24 -11.5 -37s-4.33398 -26.5 -5.00098 -40.5s-1 -28 -1 -42c0 -28 2 -55.5 6 -82.5s15 -49.5 33 -67.5c24 -24 53.333 -36 88 -36c35.333 0 65 12 89 36c18 18 29 40.5 33 67.5s6 54.5 6 82.5z" />
    <glyph glyph-name="ntilde" unicode="&#xf1;" horiz-adv-x="562" 
d="M405 0l0.000976562 303c0 44 -10.833 76.833 -32.5 98.5s-51.167 32.5 -88.5 32.5s-67 -11 -89 -33s-33 -54.667 -33 -98v-303h-72v492h72v-54c17.333 20 37.666 35 60.999 45s49 15 77 15c53.333 0 95.333 -15.333 126 -46c34 -33.333 51 -79 51 -137v-315h-72z
M442.001 658c-11.333 -11.333 -21.502 -20.499 -30.502 -27.499s-17.333 -12.167 -25 -15.5s-14.667 -5.5 -21 -6.5s-12.5 -1.5 -18.5 -1.5c-14 0 -26.333 2.16699 -37 6.5s-22 10.166 -34 17.499c-9.33301 5.33301 -18.5 10 -27.5 14s-18.5 6 -28.5 6
c-8.66699 0 -17 -1.66699 -25 -5s-19.333 -12.333 -34 -27l-37 36c11.333 11.333 21.5 20.333 30.5 27s17.333 11.834 25 15.501s14.667 6 21 7s12.5 1.5 18.5 1.5c14.667 0 27 -2 37 -6s21.333 -10 34 -18c10.667 -6 20.167 -10.833 28.5 -14.5s17.5 -5.5 27.5 -5.5
c4 0 7.83301 0.333008 11.5 1s7.83398 2 12.501 4s9.83398 5.16699 15.501 9.5s12.167 10.166 19.5 17.499l37 -36v0z" />
    <glyph glyph-name="ograve" unicode="&#xf2;" 
d="M466 246c0 -38 -3.8291 -73.833 -11.4961 -107.5s-23.834 -63.167 -48.501 -88.5c-17.333 -17.333 -37.666 -31 -60.999 -41s-50 -15 -80 -15s-56.667 5 -80 15s-43.666 23.667 -60.999 41c-12.667 12.667 -22.834 26.5 -30.501 41.5s-13.667 30.667 -18 47
s-7.33301 33.5 -9 51.5s-2.5 36.667 -2.5 56c0 38 3.66699 73.833 11 107.5s23.666 63.167 48.999 88.5c17.333 17.333 37.666 31 60.999 41s50 15 80 15s56.667 -5 80 -15s43.666 -23.667 60.999 -41c25.333 -25.333 41.666 -54.833 48.999 -88.5s11 -69.5 11 -107.5z
M394.004 246c0 28 -2 55.833 -6 83.5s-15 50.5 -33 68.5c-24 24 -54 36 -90 36c-35.333 0 -65 -12 -89 -36c-18 -18 -29.167 -40.833 -33.5 -68.5s-6.5 -55.5 -6.5 -83.5c0 -14 0.333008 -28 1 -42s2.33398 -27.667 5.00098 -41s6.66699 -25.833 12 -37.5
s12.666 -22.167 21.999 -31.5c24 -24 53.667 -36 89 -36c36 0 66 12 90 36c18 18.667 29 41.667 33 69s6 55 6 83zM236.004 594l-105 153h83l91 -153h-69z" />
    <glyph glyph-name="oacute" unicode="&#xf3;" 
d="M466 246c0 -38 -3.8291 -73.833 -11.4961 -107.5s-23.834 -63.167 -48.501 -88.5c-17.333 -17.333 -37.666 -31 -60.999 -41s-50 -15 -80 -15s-56.667 5 -80 15s-43.666 23.667 -60.999 41c-12.667 12.667 -22.834 26.5 -30.501 41.5s-13.667 30.667 -18 47
s-7.33301 33.5 -9 51.5s-2.5 36.667 -2.5 56c0 38 3.66699 73.833 11 107.5s23.666 63.167 48.999 88.5c17.333 17.333 37.666 31 60.999 41s50 15 80 15s56.667 -5 80 -15s43.666 -23.667 60.999 -41c25.333 -25.333 41.666 -54.833 48.999 -88.5s11 -69.5 11 -107.5z
M394.004 246c0 28 -2 55.833 -6 83.5s-15 50.5 -33 68.5c-24 24 -54 36 -90 36c-35.333 0 -65 -12 -89 -36c-18 -18 -29.167 -40.833 -33.5 -68.5s-6.5 -55.5 -6.5 -83.5c0 -14 0.333008 -28 1 -42s2.33398 -27.667 5.00098 -41s6.66699 -25.833 12 -37.5
s12.666 -22.167 21.999 -31.5c24 -24 53.667 -36 89 -36c36 0 66 12 90 36c18 18.667 29 41.667 33 69s6 55 6 83zM284.004 594h-69l91 153h83z" />
    <glyph glyph-name="ocircumflex" unicode="&#xf4;" 
d="M466 246c0 -38 -3.8291 -73.833 -11.4961 -107.5s-23.834 -63.167 -48.501 -88.5c-17.333 -17.333 -37.666 -31 -60.999 -41s-50 -15 -80 -15s-56.667 5 -80 15s-43.666 23.667 -60.999 41c-12.667 12.667 -22.834 26.5 -30.501 41.5s-13.667 30.667 -18 47
s-7.33301 33.5 -9 51.5s-2.5 36.667 -2.5 56c0 38 3.66699 73.833 11 107.5s23.666 63.167 48.999 88.5c17.333 17.333 37.666 31 60.999 41s50 15 80 15s56.667 -5 80 -15s43.666 -23.667 60.999 -41c25.333 -25.333 41.666 -54.833 48.999 -88.5s11 -69.5 11 -107.5z
M394.004 246c0 28 -2 55.833 -6 83.5s-15 50.5 -33 68.5c-24 24 -54 36 -90 36c-35.333 0 -65 -12 -89 -36c-18 -18 -29.167 -40.833 -33.5 -68.5s-6.5 -55.5 -6.5 -83.5c0 -14 0.333008 -28 1 -42s2.33398 -27.667 5.00098 -41s6.66699 -25.833 12 -37.5
s12.666 -22.167 21.999 -31.5c24 -24 53.667 -36 89 -36c36 0 66 12 90 36c18 18.667 29 41.667 33 69s6 55 6 83zM356.004 594l-91 104l-90 -104h-69l125 153h68l126 -153h-69z" />
    <glyph glyph-name="otilde" unicode="&#xf5;" 
d="M466 246c0 -38 -3.8291 -73.833 -11.4961 -107.5s-23.834 -63.167 -48.501 -88.5c-17.333 -17.333 -37.666 -31 -60.999 -41s-50 -15 -80 -15s-56.667 5 -80 15s-43.666 23.667 -60.999 41c-12.667 12.667 -22.834 26.5 -30.501 41.5s-13.667 30.667 -18 47
s-7.33301 33.5 -9 51.5s-2.5 36.667 -2.5 56c0 38 3.66699 73.833 11 107.5s23.666 63.167 48.999 88.5c17.333 17.333 37.666 31 60.999 41s50 15 80 15s56.667 -5 80 -15s43.666 -23.667 60.999 -41c25.333 -25.333 41.666 -54.833 48.999 -88.5s11 -69.5 11 -107.5z
M394.004 246c0 28 -2 55.833 -6 83.5s-15 50.5 -33 68.5c-24 24 -54 36 -90 36c-35.333 0 -65 -12 -89 -36c-18 -18 -29.167 -40.833 -33.5 -68.5s-6.5 -55.5 -6.5 -83.5c0 -14 0.333008 -28 1 -42s2.33398 -27.667 5.00098 -41s6.66699 -25.833 12 -37.5
s12.666 -22.167 21.999 -31.5c24 -24 53.667 -36 89 -36c36 0 66 12 90 36c18 18.667 29 41.667 33 69s6 55 6 83zM422.004 658c-11.333 -11.333 -21.502 -20.499 -30.502 -27.499s-17.333 -12.167 -25 -15.5s-14.667 -5.5 -21 -6.5s-12.5 -1.5 -18.5 -1.5
c-14 0 -26.333 2.16699 -37 6.5s-22 10.166 -34 17.499c-9.33301 5.33301 -18.5 10 -27.5 14s-18.5 6 -28.5 6c-8.66699 0 -17 -1.66699 -25 -5s-19.333 -12.333 -34 -27l-37 36c11.333 11.333 21.5 20.333 30.5 27s17.333 11.834 25 15.501s14.667 6 21 7
s12.5 1.5 18.5 1.5c14.667 0 27 -2 37 -6s21.333 -10 34 -18c10.667 -6 20.167 -10.833 28.5 -14.5s17.5 -5.5 27.5 -5.5c4 0 7.83301 0.333008 11.5 1s7.83398 2 12.501 4s9.83398 5.16699 15.501 9.5s12.167 10.166 19.5 17.499l37 -36v0z" />
    <glyph glyph-name="odieresis" unicode="&#xf6;" 
d="M466 246c0 -38 -3.8291 -73.833 -11.4961 -107.5s-23.834 -63.167 -48.501 -88.5c-17.333 -17.333 -37.666 -31 -60.999 -41s-50 -15 -80 -15s-56.667 5 -80 15s-43.666 23.667 -60.999 41c-12.667 12.667 -22.834 26.5 -30.501 41.5s-13.667 30.667 -18 47
s-7.33301 33.5 -9 51.5s-2.5 36.667 -2.5 56c0 38 3.66699 73.833 11 107.5s23.666 63.167 48.999 88.5c17.333 17.333 37.666 31 60.999 41s50 15 80 15s56.667 -5 80 -15s43.666 -23.667 60.999 -41c25.333 -25.333 41.666 -54.833 48.999 -88.5s11 -69.5 11 -107.5z
M394.004 246c0 28 -2 55.833 -6 83.5s-15 50.5 -33 68.5c-24 24 -54 36 -90 36c-35.333 0 -65 -12 -89 -36c-18 -18 -29.167 -40.833 -33.5 -68.5s-6.5 -55.5 -6.5 -83.5c0 -14 0.333008 -28 1 -42s2.33398 -27.667 5.00098 -41s6.66699 -25.833 12 -37.5
s12.666 -22.167 21.999 -31.5c24 -24 53.667 -36 89 -36c36 0 66 12 90 36c18 18.667 29 41.667 33 69s6 55 6 83zM335.004 602v89h72v-89h-72zM123.004 602v89h72v-89h-72z" />
    <glyph glyph-name="divide" unicode="&#xf7;" horiz-adv-x="522" 
d="M51 236v67h420v-67h-420zM218 49v86h86v-86h-86zM218 404v86h86v-86h-86z" />
    <glyph glyph-name="oslash" unicode="&#xf8;" 
d="M466 246c0 -38 -3.83301 -73.832 -11.5 -107.499s-23.834 -63.167 -48.501 -88.5c-17.333 -17.333 -37.666 -31 -60.999 -41s-50 -15 -80 -15c-20.667 0 -39.667 2.33301 -57 7s-33.333 11.334 -48 20.001l-38 -65h-57l57 96c-24 25.333 -39.667 54.5 -47 87.5
s-11 68.5 -11 106.5c0 18.667 0.833008 37.167 2.5 55.5s4.66699 35.666 9 51.999s10.333 32 18 47s17.834 28.833 30.501 41.5c17.333 17.333 37.666 31 60.999 41s50 15 80 15c20.667 0 39.667 -2.33301 57 -7s33.333 -11.334 48 -20.001l39 65h56l-57 -96
c24 -25.333 39.667 -54.5 47 -87.5s11 -68.5 11 -106.5zM394 246.001c0 23.333 -1.16895 46.833 -3.50195 70.5s-9.16602 44.5 -20.499 62.5l-177 -299c20.667 -14.667 44.667 -22 72 -22c36 0 66 12 90 36c8.66699 8.66699 15.667 19 21 31s9.33301 24.667 12 38
s4.33398 27 5.00098 41s1 28 1 42zM336.998 413.001c-20 14 -44 21 -72 21c-35.333 0 -65 -12 -89 -36c-9.33301 -9.33301 -16.5 -19.833 -21.5 -31.5s-9 -24.167 -12 -37.5s-4.83301 -27 -5.5 -41s-1 -28 -1 -42c0 -23.333 1.33301 -46.833 4 -70.5s9.66699 -44.5 21 -62.5
z" />
    <glyph glyph-name="ugrave" unicode="&#xf9;" horiz-adv-x="562" 
d="M401 0l0.00195312 55c-17.333 -20 -37.833 -35.167 -61.5 -45.5s-49.5 -15.5 -77.5 -15.5c-54 0 -96.333 15.333 -127 46c-17.333 17.333 -30 37.5 -38 60.5s-12 48.833 -12 77.5v314h72v-303c0 -44 10.667 -76.833 32 -98.5s50.666 -32.5 87.999 -32.5
s67.166 11 89.499 33s33.5 54.667 33.5 98v303h72v-492h-71zM259.002 594l-105 153h83l91 -153h-69z" />
    <glyph glyph-name="uacute" unicode="&#xfa;" horiz-adv-x="562" 
d="M401 0l0.00195312 55c-17.333 -20 -37.833 -35.167 -61.5 -45.5s-49.5 -15.5 -77.5 -15.5c-54 0 -96.333 15.333 -127 46c-17.333 17.333 -30 37.5 -38 60.5s-12 48.833 -12 77.5v314h72v-303c0 -44 10.667 -76.833 32 -98.5s50.666 -32.5 87.999 -32.5
s67.166 11 89.499 33s33.5 54.667 33.5 98v303h72v-492h-71zM297.002 594h-69l91 153h83z" />
    <glyph glyph-name="ucircumflex" unicode="&#xfb;" horiz-adv-x="562" 
d="M401 0l0.00195312 55c-17.333 -20 -37.833 -35.167 -61.5 -45.5s-49.5 -15.5 -77.5 -15.5c-54 0 -96.333 15.333 -127 46c-17.333 17.333 -30 37.5 -38 60.5s-12 48.833 -12 77.5v314h72v-303c0 -44 10.667 -76.833 32 -98.5s50.666 -32.5 87.999 -32.5
s67.166 11 89.499 33s33.5 54.667 33.5 98v303h72v-492h-71zM369.002 594l-91 104l-90 -104h-69l125 153h68l126 -153h-69z" />
    <glyph glyph-name="udieresis" unicode="&#xfc;" horiz-adv-x="562" 
d="M401 0l0.00195312 55c-17.333 -20 -37.833 -35.167 -61.5 -45.5s-49.5 -15.5 -77.5 -15.5c-54 0 -96.333 15.333 -127 46c-17.333 17.333 -30 37.5 -38 60.5s-12 48.833 -12 77.5v314h72v-303c0 -44 10.667 -76.833 32 -98.5s50.666 -32.5 87.999 -32.5
s67.166 11 89.499 33s33.5 54.667 33.5 98v303h72v-492h-71zM347.002 602v89h72v-89h-72zM135.002 602v89h72v-89h-72z" />
    <glyph glyph-name="yacute" unicode="&#xfd;" horiz-adv-x="447" 
d="M212 -119c-9.33301 -26 -21.001 -45.333 -35.001 -58c-13.333 -12.667 -28.333 -21.5 -45 -26.5s-33.667 -7.5 -51 -7.5h-31v64h22c24.667 0 42.334 4.5 53.001 13.5s20 24.833 28 47.5l35 96l-177 482h78l135 -395l134 395h78zM243.999 594h-69l91 153h83z" />
    <glyph glyph-name="thorn" unicode="&#xfe;" horiz-adv-x="546" 
d="M481 246c0 -40 -3.83203 -78.499 -11.499 -115.499s-23.834 -68.167 -48.501 -93.5c-13.333 -13.333 -30.333 -23.833 -51 -31.5s-43.667 -11.5 -69 -11.5c-27.333 0 -52.166 4.33301 -74.499 13s-43.833 25.667 -64.5 51v-278h-72v932h72v-277
c20.667 25.333 42.167 42.166 64.5 50.499s47.166 12.5 74.499 12.5c25.333 0 48.333 -3.83301 69 -11.5s37.667 -18.167 51 -31.5c12 -12 22 -26 30 -42s14.167 -33 18.5 -51s7.33301 -36.833 9 -56.5s2.5 -39.5 2.5 -59.5zM409.001 246.001c0 24 -1.33301 47.333 -4 70
s-8.33398 42.667 -17.001 60s-21.167 31.333 -37.5 42s-37.833 16 -64.5 16c-27.333 0 -49 -5.33301 -65 -16s-28.5 -24.667 -37.5 -42s-14.833 -37.333 -17.5 -60s-4 -46 -4 -70s1.33301 -47.333 4 -70s8.5 -42.667 17.5 -60s21.5 -31.333 37.5 -42s37.667 -16 65 -16
c26.667 0 48.167 5.33301 64.5 16s28.833 24.667 37.5 42s14.334 37.333 17.001 60s4 46 4 70z" />
    <glyph glyph-name="ydieresis" unicode="&#xff;" horiz-adv-x="447" 
d="M212 -119c-9.33301 -26 -21.001 -45.333 -35.001 -58c-13.333 -12.667 -28.333 -21.5 -45 -26.5s-33.667 -7.5 -51 -7.5h-31v64h22c24.667 0 42.334 4.5 53.001 13.5s20 24.833 28 47.5l35 96l-177 482h78l135 -395l134 395h78zM294.999 602v89h72v-89h-72zM82.999 602
v89h72v-89h-72z" />
    <glyph glyph-name="Amacron" unicode="&#x100;" horiz-adv-x="611" 
d="M518 0l-57 161h-311l-57 -161h-81l262 712h64l261 -712h-81zM307 603l-134 -376h266zM154 855h301v-57h-301v57z" />
    <glyph glyph-name="amacron" unicode="&#x101;" horiz-adv-x="526" 
d="M369 0v47c-19.333 -19.333 -39.666 -33 -60.999 -41s-48.333 -12 -81 -12c-34 0 -61.333 3.33301 -82 10s-39.667 18.334 -57 35.001c-12.667 12 -22 26.833 -28 44.5s-9 36.167 -9 55.5c0 44 14.667 78.667 44 104s71.666 38 126.999 38h147v47c0 36 -9.5 63 -28.5 81
s-51.5 27 -97.5 27c-31.333 0 -56 -4.33301 -74 -13s-34.667 -23.334 -50 -44.001l-49 45c21.333 28.667 45.5 48.167 72.5 58.5s60.833 15.5 101.5 15.5c66.667 0 116.167 -14 148.5 -42s48.5 -68.667 48.5 -122v-334h-72zM369 227h-137c-74 0 -111 -29 -111 -87
c0 -28.667 9 -49.834 27 -63.501s47 -20.5 87 -20.5c20.667 0 40 1.83301 58 5.5s35 12.834 51 27.501c16.667 16 25 44.333 25 85v53zM113 602v56h301v-56h-301z" />
    <glyph glyph-name="Abreve" unicode="&#x102;" horiz-adv-x="611" 
d="M518 0l-57 161h-311l-57 -161h-81l262 712h64l261 -712h-81zM307 603l-134 -376h266zM472 933c-8 -92.667 -62.998 -139 -164.998 -139s-157 46.333 -165 139h56c3.33301 -26.667 14.666 -47.167 33.999 -61.5s44.333 -21.5 75 -21.5s55.667 7.16699 75 21.5
s30.666 34.833 33.999 61.5h56v0z" />
    <glyph glyph-name="abreve" unicode="&#x103;" horiz-adv-x="526" 
d="M369 0v47c-19.333 -19.333 -39.666 -33 -60.999 -41s-48.333 -12 -81 -12c-34 0 -61.333 3.33301 -82 10s-39.667 18.334 -57 35.001c-12.667 12 -22 26.833 -28 44.5s-9 36.167 -9 55.5c0 44 14.667 78.667 44 104s71.666 38 126.999 38h147v47c0 36 -9.5 63 -28.5 81
s-51.5 27 -97.5 27c-31.333 0 -56 -4.33301 -74 -13s-34.667 -23.334 -50 -44.001l-49 45c21.333 28.667 45.5 48.167 72.5 58.5s60.833 15.5 101.5 15.5c66.667 0 116.167 -14 148.5 -42s48.5 -68.667 48.5 -122v-334h-72zM369 227h-137c-74 0 -111 -29 -111 -87
c0 -28.667 9 -49.834 27 -63.501s47 -20.5 87 -20.5c20.667 0 40 1.83301 58 5.5s35 12.834 51 27.501c16.667 16 25 44.333 25 85v53zM410 710c-8 -92.667 -62.998 -139 -164.998 -139s-157 46.333 -165 139h56c3.33301 -26.667 14.666 -47.167 33.999 -61.5
s44.333 -21.5 75 -21.5s55.667 7.16699 75 21.5s30.666 34.833 33.999 61.5h56v0z" />
    <glyph glyph-name="Aogonek" unicode="&#x104;" horiz-adv-x="611" 
d="M518 0l-57 161h-311l-57 -161h-81l262 712h64l261 -712h-81zM307 603l-134 -376h266zM526 -216h-79l71 149h67z" />
    <glyph glyph-name="aogonek" unicode="&#x105;" horiz-adv-x="526" 
d="M369 0v47c-19.333 -19.333 -39.666 -33 -60.999 -41s-48.333 -12 -81 -12c-34 0 -61.333 3.33301 -82 10s-39.667 18.334 -57 35.001c-12.667 12 -22 26.833 -28 44.5s-9 36.167 -9 55.5c0 44 14.667 78.667 44 104s71.666 38 126.999 38h147v47c0 36 -9.5 63 -28.5 81
s-51.5 27 -97.5 27c-31.333 0 -56 -4.33301 -74 -13s-34.667 -23.334 -50 -44.001l-49 45c21.333 28.667 45.5 48.167 72.5 58.5s60.833 15.5 101.5 15.5c66.667 0 116.167 -14 148.5 -42s48.5 -68.667 48.5 -122v-334h-72zM369 227h-137c-74 0 -111 -29 -111 -87
c0 -28.667 9 -49.834 27 -63.501s47 -20.5 87 -20.5c20.667 0 40 1.83301 58 5.5s35 12.834 51 27.501c16.667 16 25 44.333 25 85v53zM377 -216h-79l71 149h67z" />
    <glyph glyph-name="Cacute" unicode="&#x106;" horiz-adv-x="637" 
d="M572 206c-12.667 -66.667 -40.835 -118.669 -84.502 -156.002s-97.834 -56 -162.501 -56c-37.333 0 -70.833 6.16699 -100.5 18.5s-55.5 29.5 -77.5 51.5c-16.667 16.667 -29.834 33.667 -39.501 51s-16.834 37 -21.501 59s-7.5 47.667 -8.5 77s-1.5 64.333 -1.5 105
s0.5 75.667 1.5 105s3.83301 55 8.5 77s11.834 41.667 21.501 59s22.834 34.333 39.501 51c22 22 47.833 39.167 77.5 51.5s63.167 18.5 100.5 18.5c64.667 0 118.834 -18.667 162.501 -56s71.834 -89.333 84.501 -156h-78c-9.33301 44 -28.666 79 -57.999 105
s-66.333 39 -111 39c-48.667 0 -89.667 -16.667 -123 -50c-11.333 -11.333 -20.333 -23.666 -27 -36.999s-11.667 -29.166 -15 -47.499s-5.5 -40.333 -6.5 -66s-1.5 -56.834 -1.5 -93.501s0.5 -67.834 1.5 -93.501s3.16699 -47.667 6.5 -66s8.33301 -34.166 15 -47.499
s15.667 -25.666 27 -36.999c33.333 -33.333 74.333 -50 123 -50c44.667 0 82 13 112 39s49.667 61 59 105h76zM336.999 779.998h-69l91 154h83z" />
    <glyph glyph-name="cacute" unicode="&#x107;" horiz-adv-x="490" 
d="M443 67c-25.333 -27.333 -50.166 -46.335 -74.499 -57.002s-53.5 -16 -87.5 -16c-31.333 0 -60.166 5.16699 -86.499 15.5s-49.333 26 -69 47s-35 47.333 -46 79s-16.5 68.5 -16.5 110.5s5.5 78.667 16.5 110s26.333 57.5 46 78.5s42.667 36.833 69 47.5
s55.166 16 86.499 16c34 0 63.167 -5.33301 87.5 -16s49.166 -29.667 74.499 -57l-49 -46c-18.667 20.667 -36.334 35 -53.001 43s-36.667 12 -60 12c-24 0 -45.667 -4.66699 -65 -14s-35.666 -23.333 -48.999 -42c-11.333 -16 -19.5 -34.167 -24.5 -54.5
s-7.5 -46.166 -7.5 -77.499s2.5 -57.166 7.5 -77.499s13.167 -38.5 24.5 -54.5c13.333 -18.667 29.666 -32.667 48.999 -42s41 -14 65 -14c23.333 0 43.333 4.16699 60 12.5s34.334 22.833 53.001 43.5zM285 593.998h-69l91 153h83z" />
    <glyph glyph-name="Ccircumflex" unicode="&#x108;" horiz-adv-x="637" 
d="M572 206c-12.667 -66.667 -40.835 -118.669 -84.502 -156.002s-97.834 -56 -162.501 -56c-37.333 0 -70.833 6.16699 -100.5 18.5s-55.5 29.5 -77.5 51.5c-16.667 16.667 -29.834 33.667 -39.501 51s-16.834 37 -21.501 59s-7.5 47.667 -8.5 77s-1.5 64.333 -1.5 105
s0.5 75.667 1.5 105s3.83301 55 8.5 77s11.834 41.667 21.501 59s22.834 34.333 39.501 51c22 22 47.833 39.167 77.5 51.5s63.167 18.5 100.5 18.5c64.667 0 118.834 -18.667 162.501 -56s71.834 -89.333 84.501 -156h-78c-9.33301 44 -28.666 79 -57.999 105
s-66.333 39 -111 39c-48.667 0 -89.667 -16.667 -123 -50c-11.333 -11.333 -20.333 -23.666 -27 -36.999s-11.667 -29.166 -15 -47.499s-5.5 -40.333 -6.5 -66s-1.5 -56.834 -1.5 -93.501s0.5 -67.834 1.5 -93.501s3.16699 -47.667 6.5 -66s8.33301 -34.166 15 -47.499
s15.667 -25.666 27 -36.999c33.333 -33.333 74.333 -50 123 -50c44.667 0 82 13 112 39s49.667 61 59 105h76zM414.999 779.998l-90 105l-91 -105h-69l126 153h68l125 -153h-69z" />
    <glyph glyph-name="ccircumflex" unicode="&#x109;" horiz-adv-x="490" 
d="M443 67c-25.333 -27.333 -50.166 -46.335 -74.499 -57.002s-53.5 -16 -87.5 -16c-31.333 0 -60.166 5.16699 -86.499 15.5s-49.333 26 -69 47s-35 47.333 -46 79s-16.5 68.5 -16.5 110.5s5.5 78.667 16.5 110s26.333 57.5 46 78.5s42.667 36.833 69 47.5
s55.166 16 86.499 16c34 0 63.167 -5.33301 87.5 -16s49.166 -29.667 74.499 -57l-49 -46c-18.667 20.667 -36.334 35 -53.001 43s-36.667 12 -60 12c-24 0 -45.667 -4.66699 -65 -14s-35.666 -23.333 -48.999 -42c-11.333 -16 -19.5 -34.167 -24.5 -54.5
s-7.5 -46.166 -7.5 -77.499s2.5 -57.166 7.5 -77.499s13.167 -38.5 24.5 -54.5c13.333 -18.667 29.666 -32.667 48.999 -42s41 -14 65 -14c23.333 0 43.333 4.16699 60 12.5s34.334 22.833 53.001 43.5zM371 593.998l-91 104l-90 -104h-69l125 153h68l126 -153h-69z" />
    <glyph glyph-name="Cdotaccent" unicode="&#x10a;" horiz-adv-x="637" 
d="M572 206c-12.667 -66.667 -40.835 -118.669 -84.502 -156.002s-97.834 -56 -162.501 -56c-37.333 0 -70.833 6.16699 -100.5 18.5s-55.5 29.5 -77.5 51.5c-16.667 16.667 -29.834 33.667 -39.501 51s-16.834 37 -21.501 59s-7.5 47.667 -8.5 77s-1.5 64.333 -1.5 105
s0.5 75.667 1.5 105s3.83301 55 8.5 77s11.834 41.667 21.501 59s22.834 34.333 39.501 51c22 22 47.833 39.167 77.5 51.5s63.167 18.5 100.5 18.5c64.667 0 118.834 -18.667 162.501 -56s71.834 -89.333 84.501 -156h-78c-9.33301 44 -28.666 79 -57.999 105
s-66.333 39 -111 39c-48.667 0 -89.667 -16.667 -123 -50c-11.333 -11.333 -20.333 -23.666 -27 -36.999s-11.667 -29.166 -15 -47.499s-5.5 -40.333 -6.5 -66s-1.5 -56.834 -1.5 -93.501s0.5 -67.834 1.5 -93.501s3.16699 -47.667 6.5 -66s8.33301 -34.166 15 -47.499
s15.667 -25.666 27 -36.999c33.333 -33.333 74.333 -50 123 -50c44.667 0 82 13 112 39s49.667 61 59 105h76zM285.999 872.998h75v-76h-75v76z" />
    <glyph glyph-name="cdotaccent" unicode="&#x10b;" horiz-adv-x="490" 
d="M443 67c-25.333 -27.333 -50.166 -46.335 -74.499 -57.002s-53.5 -16 -87.5 -16c-31.333 0 -60.166 5.16699 -86.499 15.5s-49.333 26 -69 47s-35 47.333 -46 79s-16.5 68.5 -16.5 110.5s5.5 78.667 16.5 110s26.333 57.5 46 78.5s42.667 36.833 69 47.5
s55.166 16 86.499 16c34 0 63.167 -5.33301 87.5 -16s49.166 -29.667 74.499 -57l-49 -46c-18.667 20.667 -36.334 35 -53.001 43s-36.667 12 -60 12c-24 0 -45.667 -4.66699 -65 -14s-35.666 -23.333 -48.999 -42c-11.333 -16 -19.5 -34.167 -24.5 -54.5
s-7.5 -46.166 -7.5 -77.499s2.5 -57.166 7.5 -77.499s13.167 -38.5 24.5 -54.5c13.333 -18.667 29.666 -32.667 48.999 -42s41 -14 65 -14c23.333 0 43.333 4.16699 60 12.5s34.334 22.833 53.001 43.5zM242 686.998h75v-77h-75v77z" />
    <glyph glyph-name="Ccaron" unicode="&#x10c;" horiz-adv-x="637" 
d="M572 206c-12.667 -66.667 -40.835 -118.669 -84.502 -156.002s-97.834 -56 -162.501 -56c-37.333 0 -70.833 6.16699 -100.5 18.5s-55.5 29.5 -77.5 51.5c-16.667 16.667 -29.834 33.667 -39.501 51s-16.834 37 -21.501 59s-7.5 47.667 -8.5 77s-1.5 64.333 -1.5 105
s0.5 75.667 1.5 105s3.83301 55 8.5 77s11.834 41.667 21.501 59s22.834 34.333 39.501 51c22 22 47.833 39.167 77.5 51.5s63.167 18.5 100.5 18.5c64.667 0 118.834 -18.667 162.501 -56s71.834 -89.333 84.501 -156h-78c-9.33301 44 -28.666 79 -57.999 105
s-66.333 39 -111 39c-48.667 0 -89.667 -16.667 -123 -50c-11.333 -11.333 -20.333 -23.666 -27 -36.999s-11.667 -29.166 -15 -47.499s-5.5 -40.333 -6.5 -66s-1.5 -56.834 -1.5 -93.501s0.5 -67.834 1.5 -93.501s3.16699 -47.667 6.5 -66s8.33301 -34.166 15 -47.499
s15.667 -25.666 27 -36.999c33.333 -33.333 74.333 -50 123 -50c44.667 0 82 13 112 39s49.667 61 59 105h76zM351.999 779.998h-68l-125 153h69l90 -104l91 104h69z" />
    <glyph glyph-name="ccaron" unicode="&#x10d;" horiz-adv-x="490" 
d="M443 67c-25.333 -27.333 -50.166 -46.335 -74.499 -57.002s-53.5 -16 -87.5 -16c-31.333 0 -60.166 5.16699 -86.499 15.5s-49.333 26 -69 47s-35 47.333 -46 79s-16.5 68.5 -16.5 110.5s5.5 78.667 16.5 110s26.333 57.5 46 78.5s42.667 36.833 69 47.5
s55.166 16 86.499 16c34 0 63.167 -5.33301 87.5 -16s49.166 -29.667 74.499 -57l-49 -46c-18.667 20.667 -36.334 35 -53.001 43s-36.667 12 -60 12c-24 0 -45.667 -4.66699 -65 -14s-35.666 -23.333 -48.999 -42c-11.333 -16 -19.5 -34.167 -24.5 -54.5
s-7.5 -46.166 -7.5 -77.499s2.5 -57.166 7.5 -77.499s13.167 -38.5 24.5 -54.5c13.333 -18.667 29.666 -32.667 48.999 -42s41 -14 65 -14c23.333 0 43.333 4.16699 60 12.5s34.334 22.833 53.001 43.5zM315 593.998h-68l-126 153h69l91 -105l90 105h69z" />
    <glyph glyph-name="Dcaron" unicode="&#x10e;" horiz-adv-x="673" 
d="M597 356c0 -27.333 -0.333008 -54.168 -1 -80.501s-3 -51.5 -7 -75.5s-10.167 -46.667 -18.5 -68s-20.5 -40.333 -36.5 -57c-24 -26 -51.167 -45 -81.5 -57s-65.5 -18 -105.5 -18h-244v712h244c40 0 75.167 -6 105.5 -18s57.5 -31 81.5 -57
c16 -17.333 28.167 -36.5 36.5 -57.5s14.5 -43.5 18.5 -67.5s6.33301 -49.167 7 -75.5s1 -53.166 1 -80.499zM521 355.998c0 24.667 -0.333008 48.5 -1 71.5s-2.5 44.667 -5.5 65s-7.66699 39 -14 56s-15.166 31.5 -26.499 43.5c-18 20 -39 33.667 -63 41s-49.667 11 -77 11
h-155v-576h155c27.333 0 53 3.66699 77 11s45 21 63 41c11.333 12 20.166 26.5 26.499 43.5s11 35.667 14 56s4.83301 42 5.5 65s1 46.833 1 71.5zM370 779.998h-68l-125 153h69l90 -104l91 104h69z" />
    <glyph glyph-name="dcaron" unicode="&#x10f;" horiz-adv-x="545" 
d="M384 0l0.000976562 58.999c-20.667 -26 -42.167 -43.333 -64.5 -52s-47.5 -13 -75.5 -13c-25.333 0 -48.333 3.83301 -69 11.5s-37.667 18.167 -51 31.5c-24.667 25.333 -40.834 56.5 -48.501 93.5s-11.5 75.5 -11.5 115.5c0 20 0.833008 39.833 2.5 59.5
s4.66699 38.5 9 56.5s10.5 35 18.5 51s18 30 30 42c13.333 13.333 30.333 23.833 51 31.5s43.667 11.5 69 11.5c28 0 53 -4.16699 75 -12.5s43.333 -25.166 64 -50.499v277h72v-712h-71zM383.001 245.999c0 24 -1.33301 47.333 -4 70s-8.33398 42.667 -17.001 60
s-21.167 31.333 -37.5 42s-37.833 16 -64.5 16c-27.333 0 -49 -5.33301 -65 -16s-28.5 -24.667 -37.5 -42s-14.833 -37.333 -17.5 -60s-4 -46 -4 -70s1.33301 -47.333 4 -70s8.5 -42.667 17.5 -60s21.5 -31.333 37.5 -42s37.667 -16 65 -16c26.667 0 48.167 5.33301 64.5 16
s28.833 24.667 37.5 42s14.334 37.333 17.001 60s4 46 4 70zM575.001 566.999h-58l39 152h70z" />
    <glyph glyph-name="Dcroat" unicode="&#x110;" horiz-adv-x="687" 
d="M611 356c0 -27.333 -0.500977 -54.168 -1.50098 -80.501s-3.5 -51.5 -7.5 -75.5s-10.167 -46.667 -18.5 -68s-20.166 -40.333 -35.499 -57c-24 -26 -51.167 -45 -81.5 -57s-65.5 -18 -105.5 -18h-244v330h-78v59h78v323h244c40 0 75.167 -6 105.5 -18s57.5 -31 81.5 -57
c16 -17.333 28.167 -36.5 36.5 -57.5s14.5 -43.5 18.5 -67.5s6.33301 -49.167 7 -75.5s1 -53.166 1 -80.499zM534.999 355.998c0 24.667 -0.333008 48.5 -1 71.5s-2.5 44.667 -5.5 65s-7.66699 39 -14 56s-15.166 31.5 -26.499 43.5c-18 20 -39 33.667 -63 41
s-49.667 11 -77 11h-155v-255h162v-59h-162v-262h155c27.333 0 53 3.66699 77 11s45 21 63 41c11.333 12 20.166 26.5 26.499 43.5s11 35.667 14 56s4.83301 42 5.5 65s1 46.833 1 71.5z" />
    <glyph glyph-name="dcroat" unicode="&#x111;" horiz-adv-x="545" 
d="M384 0l0.000976562 58.999c-20.667 -26 -42.167 -43.333 -64.5 -52s-47.5 -13 -75.5 -13c-25.333 0 -48.333 3.83301 -69 11.5s-37.667 18.167 -51 31.5c-24.667 25.333 -40.834 56.5 -48.501 93.5s-11.5 75.5 -11.5 115.5c0 20 0.833008 39.833 2.5 59.5
s4.66699 38.5 9 56.5s10.5 35 18.5 51s18 30 30 42c13.333 13.333 30.333 23.833 51 31.5s43.667 11.5 69 11.5c28 0 53 -4.16699 75 -12.5s43.333 -25.166 64 -50.499v137h-82v48h82v92h72v-92h68v-48h-68v-572h-71zM383.001 245.999c0 24 -1.33301 47.333 -4 70
s-8.33398 42.667 -17.001 60s-21.167 31.333 -37.5 42s-37.833 16 -64.5 16c-27.333 0 -49 -5.33301 -65 -16s-28.5 -24.667 -37.5 -42s-14.833 -37.333 -17.5 -60s-4 -46 -4 -70s1.33301 -47.333 4 -70s8.5 -42.667 17.5 -60s21.5 -31.333 37.5 -42s37.667 -16 65 -16
c26.667 0 48.167 5.33301 64.5 16s28.833 24.667 37.5 42s14.334 37.333 17.001 60s4 46 4 70z" />
    <glyph glyph-name="Emacron" unicode="&#x112;" horiz-adv-x="600" 
d="M103 0v712h442v-68h-366v-251h312v-68h-312v-257h366v-68h-442zM161 855h301v-57h-301v57z" />
    <glyph glyph-name="emacron" unicode="&#x113;" 
d="M135 227c0 -54 12.1689 -95.8369 36.502 -125.504s60.5 -44.5 108.5 -44.5c28.667 0 52.5 4.5 71.5 13.5s38.167 23.167 57.5 42.5l49 -43c-12.667 -12.667 -25.167 -23.667 -37.5 -33s-25.666 -17.166 -39.999 -23.499s-29.833 -11.166 -46.5 -14.499
s-35.334 -5 -56.001 -5c-32.667 0 -62.334 5 -89.001 15s-49.334 25.333 -68.001 46s-33 46.834 -43 78.501s-15 69.167 -15 112.5c0 80.667 18 142.834 54 186.501s85.333 65.5 148 65.5c64.667 0 114.5 -21.167 149.5 -63.5s52.5 -100.833 52.5 -175.5v-32h-332z
M396.002 280.996c-0.666992 10 -1.3291 18.667 -1.99609 26s-1.5 14 -2.5 20s-2.5 11.833 -4.5 17.5s-4.33301 11.834 -7 18.501c-10.667 22.667 -25.834 40.667 -45.501 54s-42.834 20 -69.501 20s-49.834 -6.66699 -69.501 -20s-34.834 -31.333 -45.501 -54
c-3.33301 -6.66699 -5.83301 -12.834 -7.5 -18.501s-3 -11.5 -4 -17.5s-1.66699 -12.667 -2 -20s-0.833008 -16 -1.5 -26h261zM114.007 601.996v56h301v-56h-301z" />
    <glyph glyph-name="Ebreve" unicode="&#x114;" horiz-adv-x="600" 
d="M103 0v712h442v-68h-366v-251h312v-68h-312v-257h366v-68h-442zM478 933c-8 -92.667 -62.998 -139 -164.998 -139s-157 46.333 -165 139h56c3.33301 -26.667 14.666 -47.167 33.999 -61.5s44.333 -21.5 75 -21.5s55.667 7.16699 75 21.5s30.666 34.833 33.999 61.5h56v0z
" />
    <glyph glyph-name="ebreve" unicode="&#x115;" 
d="M135 227c0 -54 12.1689 -95.8369 36.502 -125.504s60.5 -44.5 108.5 -44.5c28.667 0 52.5 4.5 71.5 13.5s38.167 23.167 57.5 42.5l49 -43c-12.667 -12.667 -25.167 -23.667 -37.5 -33s-25.666 -17.166 -39.999 -23.499s-29.833 -11.166 -46.5 -14.499
s-35.334 -5 -56.001 -5c-32.667 0 -62.334 5 -89.001 15s-49.334 25.333 -68.001 46s-33 46.834 -43 78.501s-15 69.167 -15 112.5c0 80.667 18 142.834 54 186.501s85.333 65.5 148 65.5c64.667 0 114.5 -21.167 149.5 -63.5s52.5 -100.833 52.5 -175.5v-32h-332z
M396.002 280.996c-0.666992 10 -1.3291 18.667 -1.99609 26s-1.5 14 -2.5 20s-2.5 11.833 -4.5 17.5s-4.33301 11.834 -7 18.501c-10.667 22.667 -25.834 40.667 -45.501 54s-42.834 20 -69.501 20s-49.834 -6.66699 -69.501 -20s-34.834 -31.333 -45.501 -54
c-3.33301 -6.66699 -5.83301 -12.834 -7.5 -18.501s-3 -11.5 -4 -17.5s-1.66699 -12.667 -2 -20s-0.833008 -16 -1.5 -26h261zM432.007 728.996c-8 -92.667 -62.998 -139 -164.998 -139s-157 46.333 -165 139h56c3.33301 -26.667 14.666 -47.167 33.999 -61.5
s44.333 -21.5 75 -21.5s55.667 7.16699 75 21.5s30.666 34.833 33.999 61.5h56v0z" />
    <glyph glyph-name="Edotaccent" unicode="&#x116;" horiz-adv-x="600" 
d="M103 0v712h442v-68h-366v-251h312v-68h-312v-257h366v-68h-442zM274 873h75v-76h-75v76z" />
    <glyph glyph-name="edotaccent" unicode="&#x117;" 
d="M135 227c0 -54 12.1689 -95.8369 36.502 -125.504s60.5 -44.5 108.5 -44.5c28.667 0 52.5 4.5 71.5 13.5s38.167 23.167 57.5 42.5l49 -43c-12.667 -12.667 -25.167 -23.667 -37.5 -33s-25.666 -17.166 -39.999 -23.499s-29.833 -11.166 -46.5 -14.499
s-35.334 -5 -56.001 -5c-32.667 0 -62.334 5 -89.001 15s-49.334 25.333 -68.001 46s-33 46.834 -43 78.501s-15 69.167 -15 112.5c0 80.667 18 142.834 54 186.501s85.333 65.5 148 65.5c64.667 0 114.5 -21.167 149.5 -63.5s52.5 -100.833 52.5 -175.5v-32h-332z
M396.002 280.996c-0.666992 10 -1.3291 18.667 -1.99609 26s-1.5 14 -2.5 20s-2.5 11.833 -4.5 17.5s-4.33301 11.834 -7 18.501c-10.667 22.667 -25.834 40.667 -45.501 54s-42.834 20 -69.501 20s-49.834 -6.66699 -69.501 -20s-34.834 -31.333 -45.501 -54
c-3.33301 -6.66699 -5.83301 -12.834 -7.5 -18.501s-3 -11.5 -4 -17.5s-1.66699 -12.667 -2 -20s-0.833008 -16 -1.5 -26h261zM226.007 686.996h75v-77h-75v77z" />
    <glyph glyph-name="Eogonek" unicode="&#x118;" horiz-adv-x="600" 
d="M103 0v712h442v-68h-366v-251h312v-68h-312v-257h366v-68h-442zM486 -216h-79l71 149h67z" />
    <glyph glyph-name="eogonek" unicode="&#x119;" 
d="M135 227c0 -54 12.1689 -95.8369 36.502 -125.504s60.5 -44.5 108.5 -44.5c28.667 0 52.5 4.5 71.5 13.5s38.167 23.167 57.5 42.5l49 -43c-12.667 -12.667 -25.167 -23.667 -37.5 -33s-25.666 -17.166 -39.999 -23.499s-29.833 -11.166 -46.5 -14.499
s-35.334 -5 -56.001 -5c-32.667 0 -62.334 5 -89.001 15s-49.334 25.333 -68.001 46s-33 46.834 -43 78.501s-15 69.167 -15 112.5c0 80.667 18 142.834 54 186.501s85.333 65.5 148 65.5c64.667 0 114.5 -21.167 149.5 -63.5s52.5 -100.833 52.5 -175.5v-32h-332z
M396.002 280.996c-0.666992 10 -1.3291 18.667 -1.99609 26s-1.5 14 -2.5 20s-2.5 11.833 -4.5 17.5s-4.33301 11.834 -7 18.501c-10.667 22.667 -25.834 40.667 -45.501 54s-42.834 20 -69.501 20s-49.834 -6.66699 -69.501 -20s-34.834 -31.333 -45.501 -54
c-3.33301 -6.66699 -5.83301 -12.834 -7.5 -18.501s-3 -11.5 -4 -17.5s-1.66699 -12.667 -2 -20s-0.833008 -16 -1.5 -26h261zM310.007 -216.004h-79l71 149h67z" />
    <glyph glyph-name="Ecaron" unicode="&#x11a;" horiz-adv-x="600" 
d="M103 0v712h442v-68h-366v-251h312v-68h-312v-257h366v-68h-442zM345 780h-68l-125 153h69l90 -104l91 104h69z" />
    <glyph glyph-name="ecaron" unicode="&#x11b;" 
d="M135 227c0 -54 12.1689 -95.8369 36.502 -125.504s60.5 -44.5 108.5 -44.5c28.667 0 52.5 4.5 71.5 13.5s38.167 23.167 57.5 42.5l49 -43c-12.667 -12.667 -25.167 -23.667 -37.5 -33s-25.666 -17.166 -39.999 -23.499s-29.833 -11.166 -46.5 -14.499
s-35.334 -5 -56.001 -5c-32.667 0 -62.334 5 -89.001 15s-49.334 25.333 -68.001 46s-33 46.834 -43 78.501s-15 69.167 -15 112.5c0 80.667 18 142.834 54 186.501s85.333 65.5 148 65.5c64.667 0 114.5 -21.167 149.5 -63.5s52.5 -100.833 52.5 -175.5v-32h-332z
M396.002 280.996c-0.666992 10 -1.3291 18.667 -1.99609 26s-1.5 14 -2.5 20s-2.5 11.833 -4.5 17.5s-4.33301 11.834 -7 18.501c-10.667 22.667 -25.834 40.667 -45.501 54s-42.834 20 -69.501 20s-49.834 -6.66699 -69.501 -20s-34.834 -31.333 -45.501 -54
c-3.33301 -6.66699 -5.83301 -12.834 -7.5 -18.501s-3 -11.5 -4 -17.5s-1.66699 -12.667 -2 -20s-0.833008 -16 -1.5 -26h261zM299.007 593.996h-68l-126 153h69l91 -105l90 105h69z" />
    <glyph glyph-name="Gcircumflex" unicode="&#x11c;" horiz-adv-x="650" 
d="M576 259c0 -20.667 -1 -39.333 -3 -56s-5.33301 -32.334 -10 -47.001s-11 -28.5 -19 -41.5s-17.667 -25.833 -29 -38.5c-25.333 -28 -54.166 -48.667 -86.499 -62s-66.833 -20 -103.5 -20c-37.333 0 -70.833 6.16699 -100.5 18.5s-55.5 29.5 -77.5 51.5
c-16.667 16.667 -29.834 33.667 -39.501 51s-16.834 37 -21.501 59s-7.5 47.667 -8.5 77s-1.5 64.333 -1.5 105s0.5 75.667 1.5 105s3.83301 55 8.5 77s11.834 41.667 21.501 59s22.834 34.333 39.501 51c22 22 47.833 39.167 77.5 51.5s63.167 18.5 100.5 18.5
c33.333 0 64.166 -5.33301 92.499 -16s53.166 -25.5 74.499 -44.5s39 -41.5 53 -67.5s23.667 -54.333 29 -85h-76c-10 46 -30.167 81.667 -60.5 107s-67.833 38 -112.5 38c-50 0 -91 -16.667 -123 -50c-11.333 -11.333 -20.333 -23.666 -27 -36.999
s-11.667 -29.166 -15 -47.499s-5.5 -40.333 -6.5 -66s-1.5 -56.834 -1.5 -93.501s0.5 -67.834 1.5 -93.501s3.16699 -47.667 6.5 -66s8.33301 -34.166 15 -47.499s15.667 -25.666 27 -36.999c32 -33.333 73 -50 123 -50c26 0 50.833 5.16699 74.5 15.5
s43.834 25.5 60.501 45.5c14.667 18 25 37.167 31 57.5s9 44.166 9 71.499v55h-175v65h251v-113zM415 780.001l-90 105l-91 -105h-69l126 153h68l125 -153h-69z" />
    <glyph glyph-name="gcircumflex" unicode="&#x11d;" horiz-adv-x="543" 
d="M453 -15c0 -30.667 -4.66699 -58.8271 -14 -84.4941s-22.666 -47.834 -39.999 -66.501s-38.833 -33.334 -64.5 -44.001s-54.5 -16 -86.5 -16c-18.667 0 -35.334 1.16699 -50.001 3.5s-28.5 6.16602 -41.5 11.499s-25.667 12.166 -38 20.499s-24.833 18.5 -37.5 30.5
l47 46c8.66699 -8 17.167 -15 25.5 -21s17 -11.167 26 -15.5s18.833 -7.5 29.5 -9.5s23 -3 37 -3c24 0 44.5 4 61.5 12s31 18.667 42 32s19 29.166 24 47.499s7.5 38.166 7.5 59.499v77c-20 -25.333 -41.333 -42.333 -64 -51s-47.334 -13 -74.001 -13
c-25.333 0 -48.166 4 -68.499 12s-37.166 18.667 -50.499 32c-24.667 24.667 -40.834 55 -48.501 91s-11.5 74 -11.5 114s3.83301 78 11.5 114s23.834 66.333 48.501 91c13.333 13.333 30.333 23.833 51 31.5s43.667 11.5 69 11.5c27.333 0 52.166 -4.16699 74.499 -12.5
s43.5 -25.5 63.5 -51.5v58h71v-507zM381 250.007c0 22.667 -1.33301 45.167 -4 67.5s-8.33398 42 -17.001 59s-21 30.833 -37 41.5s-37.333 16 -64 16s-48.167 -5.33301 -64.5 -16s-28.833 -24.5 -37.5 -41.5s-14.334 -36.667 -17.001 -59s-4 -44.833 -4 -67.5
c0 -23.333 1.33301 -46 4 -68s8.33398 -41.5 17.001 -58.5s21.167 -30.833 37.5 -41.5s37.833 -16 64.5 -16s48 5.33301 64 16s28.333 24.5 37 41.5s14.334 36.5 17.001 58.5s4 44.667 4 68zM351 594.007l-91 104l-90 -104h-69l125 153h68l126 -153h-69z" />
    <glyph glyph-name="Gbreve" unicode="&#x11e;" horiz-adv-x="650" 
d="M576 259c0 -20.667 -1 -39.333 -3 -56s-5.33301 -32.334 -10 -47.001s-11 -28.5 -19 -41.5s-17.667 -25.833 -29 -38.5c-25.333 -28 -54.166 -48.667 -86.499 -62s-66.833 -20 -103.5 -20c-37.333 0 -70.833 6.16699 -100.5 18.5s-55.5 29.5 -77.5 51.5
c-16.667 16.667 -29.834 33.667 -39.501 51s-16.834 37 -21.501 59s-7.5 47.667 -8.5 77s-1.5 64.333 -1.5 105s0.5 75.667 1.5 105s3.83301 55 8.5 77s11.834 41.667 21.501 59s22.834 34.333 39.501 51c22 22 47.833 39.167 77.5 51.5s63.167 18.5 100.5 18.5
c33.333 0 64.166 -5.33301 92.499 -16s53.166 -25.5 74.499 -44.5s39 -41.5 53 -67.5s23.667 -54.333 29 -85h-76c-10 46 -30.167 81.667 -60.5 107s-67.833 38 -112.5 38c-50 0 -91 -16.667 -123 -50c-11.333 -11.333 -20.333 -23.666 -27 -36.999
s-11.667 -29.166 -15 -47.499s-5.5 -40.333 -6.5 -66s-1.5 -56.834 -1.5 -93.501s0.5 -67.834 1.5 -93.501s3.16699 -47.667 6.5 -66s8.33301 -34.166 15 -47.499s15.667 -25.666 27 -36.999c32 -33.333 73 -50 123 -50c26 0 50.833 5.16699 74.5 15.5
s43.834 25.5 60.501 45.5c14.667 18 25 37.167 31 57.5s9 44.166 9 71.499v55h-175v65h251v-113zM490 933.001c-8 -92.667 -62.998 -139 -164.998 -139s-157 46.333 -165 139h56c3.33301 -26.667 14.666 -47.167 33.999 -61.5s44.333 -21.5 75 -21.5s55.667 7.16699 75 21.5
s30.666 34.833 33.999 61.5h56v0z" />
    <glyph glyph-name="gbreve" unicode="&#x11f;" horiz-adv-x="543" 
d="M453 -15c0 -30.667 -4.66699 -58.8271 -14 -84.4941s-22.666 -47.834 -39.999 -66.501s-38.833 -33.334 -64.5 -44.001s-54.5 -16 -86.5 -16c-18.667 0 -35.334 1.16699 -50.001 3.5s-28.5 6.16602 -41.5 11.499s-25.667 12.166 -38 20.499s-24.833 18.5 -37.5 30.5
l47 46c8.66699 -8 17.167 -15 25.5 -21s17 -11.167 26 -15.5s18.833 -7.5 29.5 -9.5s23 -3 37 -3c24 0 44.5 4 61.5 12s31 18.667 42 32s19 29.166 24 47.499s7.5 38.166 7.5 59.499v77c-20 -25.333 -41.333 -42.333 -64 -51s-47.334 -13 -74.001 -13
c-25.333 0 -48.166 4 -68.499 12s-37.166 18.667 -50.499 32c-24.667 24.667 -40.834 55 -48.501 91s-11.5 74 -11.5 114s3.83301 78 11.5 114s23.834 66.333 48.501 91c13.333 13.333 30.333 23.833 51 31.5s43.667 11.5 69 11.5c27.333 0 52.166 -4.16699 74.499 -12.5
s43.5 -25.5 63.5 -51.5v58h71v-507zM381 250.007c0 22.667 -1.33301 45.167 -4 67.5s-8.33398 42 -17.001 59s-21 30.833 -37 41.5s-37.333 16 -64 16s-48.167 -5.33301 -64.5 -16s-28.833 -24.5 -37.5 -41.5s-14.334 -36.667 -17.001 -59s-4 -44.833 -4 -67.5
c0 -23.333 1.33301 -46 4 -68s8.33398 -41.5 17.001 -58.5s21.167 -30.833 37.5 -41.5s37.833 -16 64.5 -16s48 5.33301 64 16s28.333 24.5 37 41.5s14.334 36.5 17.001 58.5s4 44.667 4 68zM424 710.007c-8 -92.667 -62.998 -139 -164.998 -139s-157 46.333 -165 139h56
c3.33301 -26.667 14.666 -47.167 33.999 -61.5s44.333 -21.5 75 -21.5s55.667 7.16699 75 21.5s30.666 34.833 33.999 61.5h56v0z" />
    <glyph glyph-name="Gdotaccent" unicode="&#x120;" horiz-adv-x="650" 
d="M576 259c0 -20.667 -1 -39.333 -3 -56s-5.33301 -32.334 -10 -47.001s-11 -28.5 -19 -41.5s-17.667 -25.833 -29 -38.5c-25.333 -28 -54.166 -48.667 -86.499 -62s-66.833 -20 -103.5 -20c-37.333 0 -70.833 6.16699 -100.5 18.5s-55.5 29.5 -77.5 51.5
c-16.667 16.667 -29.834 33.667 -39.501 51s-16.834 37 -21.501 59s-7.5 47.667 -8.5 77s-1.5 64.333 -1.5 105s0.5 75.667 1.5 105s3.83301 55 8.5 77s11.834 41.667 21.501 59s22.834 34.333 39.501 51c22 22 47.833 39.167 77.5 51.5s63.167 18.5 100.5 18.5
c33.333 0 64.166 -5.33301 92.499 -16s53.166 -25.5 74.499 -44.5s39 -41.5 53 -67.5s23.667 -54.333 29 -85h-76c-10 46 -30.167 81.667 -60.5 107s-67.833 38 -112.5 38c-50 0 -91 -16.667 -123 -50c-11.333 -11.333 -20.333 -23.666 -27 -36.999
s-11.667 -29.166 -15 -47.499s-5.5 -40.333 -6.5 -66s-1.5 -56.834 -1.5 -93.501s0.5 -67.834 1.5 -93.501s3.16699 -47.667 6.5 -66s8.33301 -34.166 15 -47.499s15.667 -25.666 27 -36.999c32 -33.333 73 -50 123 -50c26 0 50.833 5.16699 74.5 15.5
s43.834 25.5 60.501 45.5c14.667 18 25 37.167 31 57.5s9 44.166 9 71.499v55h-175v65h251v-113zM286 873.001h75v-76h-75v76z" />
    <glyph glyph-name="gdotaccent" unicode="&#x121;" horiz-adv-x="543" 
d="M453 -15c0 -30.667 -4.66699 -58.8271 -14 -84.4941s-22.666 -47.834 -39.999 -66.501s-38.833 -33.334 -64.5 -44.001s-54.5 -16 -86.5 -16c-18.667 0 -35.334 1.16699 -50.001 3.5s-28.5 6.16602 -41.5 11.499s-25.667 12.166 -38 20.499s-24.833 18.5 -37.5 30.5
l47 46c8.66699 -8 17.167 -15 25.5 -21s17 -11.167 26 -15.5s18.833 -7.5 29.5 -9.5s23 -3 37 -3c24 0 44.5 4 61.5 12s31 18.667 42 32s19 29.166 24 47.499s7.5 38.166 7.5 59.499v77c-20 -25.333 -41.333 -42.333 -64 -51s-47.334 -13 -74.001 -13
c-25.333 0 -48.166 4 -68.499 12s-37.166 18.667 -50.499 32c-24.667 24.667 -40.834 55 -48.501 91s-11.5 74 -11.5 114s3.83301 78 11.5 114s23.834 66.333 48.501 91c13.333 13.333 30.333 23.833 51 31.5s43.667 11.5 69 11.5c27.333 0 52.166 -4.16699 74.499 -12.5
s43.5 -25.5 63.5 -51.5v58h71v-507zM381 250.007c0 22.667 -1.33301 45.167 -4 67.5s-8.33398 42 -17.001 59s-21 30.833 -37 41.5s-37.333 16 -64 16s-48.167 -5.33301 -64.5 -16s-28.833 -24.5 -37.5 -41.5s-14.334 -36.667 -17.001 -59s-4 -44.833 -4 -67.5
c0 -23.333 1.33301 -46 4 -68s8.33398 -41.5 17.001 -58.5s21.167 -30.833 37.5 -41.5s37.833 -16 64.5 -16s48 5.33301 64 16s28.333 24.5 37 41.5s14.334 36.5 17.001 58.5s4 44.667 4 68zM220 687.007h75v-77h-75v77z" />
    <glyph glyph-name="Gcommaaccent" unicode="&#x122;" horiz-adv-x="650" 
d="M576 259c0 -20.667 -1 -39.333 -3 -56s-5.33301 -32.334 -10 -47.001s-11 -28.5 -19 -41.5s-17.667 -25.833 -29 -38.5c-25.333 -28 -54.166 -48.667 -86.499 -62s-66.833 -20 -103.5 -20c-37.333 0 -70.833 6.16699 -100.5 18.5s-55.5 29.5 -77.5 51.5
c-16.667 16.667 -29.834 33.667 -39.501 51s-16.834 37 -21.501 59s-7.5 47.667 -8.5 77s-1.5 64.333 -1.5 105s0.5 75.667 1.5 105s3.83301 55 8.5 77s11.834 41.667 21.501 59s22.834 34.333 39.501 51c22 22 47.833 39.167 77.5 51.5s63.167 18.5 100.5 18.5
c33.333 0 64.166 -5.33301 92.499 -16s53.166 -25.5 74.499 -44.5s39 -41.5 53 -67.5s23.667 -54.333 29 -85h-76c-10 46 -30.167 81.667 -60.5 107s-67.833 38 -112.5 38c-50 0 -91 -16.667 -123 -50c-11.333 -11.333 -20.333 -23.666 -27 -36.999
s-11.667 -29.166 -15 -47.499s-5.5 -40.333 -6.5 -66s-1.5 -56.834 -1.5 -93.501s0.5 -67.834 1.5 -93.501s3.16699 -47.667 6.5 -66s8.33301 -34.166 15 -47.499s15.667 -25.666 27 -36.999c32 -33.333 73 -50 123 -50c26 0 50.833 5.16699 74.5 15.5
s43.834 25.5 60.501 45.5c14.667 18 25 37.167 31 57.5s9 44.166 9 71.499v55h-175v65h251v-113zM251 -215.999l71 149h66l-59 -149h-78z" />
    <glyph glyph-name="gcommaaccent" unicode="&#x123;" horiz-adv-x="543" 
d="M453 -15c0 -30.667 -4.66699 -58.8271 -14 -84.4941s-22.666 -47.834 -39.999 -66.501s-38.833 -33.334 -64.5 -44.001s-54.5 -16 -86.5 -16c-18.667 0 -35.334 1.16699 -50.001 3.5s-28.5 6.16602 -41.5 11.499s-25.667 12.166 -38 20.499s-24.833 18.5 -37.5 30.5
l47 46c8.66699 -8 17.167 -15 25.5 -21s17 -11.167 26 -15.5s18.833 -7.5 29.5 -9.5s23 -3 37 -3c24 0 44.5 4 61.5 12s31 18.667 42 32s19 29.166 24 47.499s7.5 38.166 7.5 59.499v77c-20 -25.333 -41.333 -42.333 -64 -51s-47.334 -13 -74.001 -13
c-25.333 0 -48.166 4 -68.499 12s-37.166 18.667 -50.499 32c-24.667 24.667 -40.834 55 -48.501 91s-11.5 74 -11.5 114s3.83301 78 11.5 114s23.834 66.333 48.501 91c13.333 13.333 30.333 23.833 51 31.5s43.667 11.5 69 11.5c27.333 0 52.166 -4.16699 74.499 -12.5
s43.5 -25.5 63.5 -51.5v58h71v-507zM381 250.007c0 22.667 -1.33301 45.167 -4 67.5s-8.33398 42 -17.001 59s-21 30.833 -37 41.5s-37.333 16 -64 16s-48.167 -5.33301 -64.5 -16s-28.833 -24.5 -37.5 -41.5s-14.334 -36.667 -17.001 -59s-4 -44.833 -4 -67.5
c0 -23.333 1.33301 -46 4 -68s8.33398 -41.5 17.001 -58.5s21.167 -30.833 37.5 -41.5s37.833 -16 64.5 -16s48 5.33301 64 16s28.333 24.5 37 41.5s14.334 36.5 17.001 58.5s4 44.667 4 68zM288 594.007h-66l88 153h86z" />
    <glyph glyph-name="Hcircumflex" unicode="&#x124;" horiz-adv-x="696" 
d="M517 0v325h-338v-325h-76v712h76v-319h338v319h76v-712h-76zM438 780l-90 105l-91 -105h-69l126 153h68l125 -153h-69z" />
    <glyph glyph-name="hcircumflex" unicode="&#x125;" horiz-adv-x="562" 
d="M405 0l-0.000976562 304c0 44 -10.5 76.667 -31.5 98s-50.5 32 -88.5 32s-68 -10.667 -90 -32s-33 -54 -33 -98v-304h-72v712h72v-274c36 40 82 60 138 60c56.667 0 100.334 -16.333 131.001 -49s46 -77 46 -133v-316h-72zM218.999 780l-91 104l-90 -104h-69l125 153h68
l126 -153h-69z" />
    <glyph glyph-name="Hbar" unicode="&#x126;" horiz-adv-x="718" 
d="M604 515v-515h-76v325h-338v-325h-76v515h-74v58h74v139h76v-139h338v139h76v-139h74v-58h-74zM528 515h-338v-122h338v122z" />
    <glyph glyph-name="hbar" unicode="&#x127;" horiz-adv-x="562" 
d="M405 0l-0.00195312 304c0 43.333 -10.667 75.833 -32 97.5s-50.666 32.5 -87.999 32.5s-67.166 -11 -89.499 -33s-33.5 -54.333 -33.5 -97v-304h-72v572h-60v48h60v92h72v-92h124v-48h-124v-134c35.333 40 81.333 60 138 60c56 0 99.5 -16.333 130.5 -49
s46.5 -77 46.5 -133v-316h-72z" />
    <glyph glyph-name="Itilde" unicode="&#x128;" horiz-adv-x="282" 
d="M103 0v712h76v-712h-76zM299 844c-11.333 -11.333 -21.6709 -20.332 -31.0039 -26.999s-17.666 -11.667 -24.999 -15s-14.166 -5.5 -20.499 -6.5s-12.5 -1.5 -18.5 -1.5c-14.667 0 -27.167 2 -37.5 6s-21.5 9.66699 -33.5 17c-9.33301 5.33301 -18.5 10.166 -27.5 14.499
s-18.5 6.5 -28.5 6.5c-8.66699 0 -17 -1.66699 -25 -5s-19.333 -12.333 -34 -27l-37 36c11.333 11.333 21.5 20.333 30.5 27s17.333 11.834 25 15.501s14.667 6 21 7s12.5 1.5 18.5 1.5c14.667 0 27 -2 37 -6s21.333 -10 34 -18c10.667 -6.66699 20.167 -11.667 28.5 -15
s17.5 -5 27.5 -5c4 0 7.83301 0.333008 11.5 1s7.83398 2 12.501 4s9.83398 5.16699 15.501 9.5s12.167 10.166 19.5 17.499l37 -37v0z" />
    <glyph glyph-name="itilde" unicode="&#x129;" horiz-adv-x="252" 
d="M90 0v492h72v-492h-72zM286 658c-11.333 -11.333 -21.502 -20.499 -30.502 -27.499s-17.333 -12.167 -25 -15.5s-14.667 -5.5 -21 -6.5s-12.5 -1.5 -18.5 -1.5c-14 0 -26.333 2.16699 -37 6.5s-22 10.166 -34 17.499c-9.33301 5.33301 -18.5 10 -27.5 14s-18.5 6 -28.5 6
c-8.66699 0 -17 -1.66699 -25 -5s-19.333 -12.333 -34 -27l-37 36c11.333 11.333 21.5 20.333 30.5 27s17.333 11.834 25 15.501s14.667 6 21 7s12.5 1.5 18.5 1.5c14.667 0 27 -2 37 -6s21.333 -10 34 -18c10.667 -6 20.167 -10.833 28.5 -14.5s17.5 -5.5 27.5 -5.5
c4 0 7.83301 0.333008 11.5 1s7.83398 2 12.501 4s9.83398 5.16699 15.501 9.5s12.167 10.166 19.5 17.499l37 -36v0z" />
    <glyph glyph-name="Imacron" unicode="&#x12a;" horiz-adv-x="282" 
d="M103 0v712h76v-712h-76zM-8 855h301v-57h-301v57z" />
    <glyph glyph-name="imacron" unicode="&#x12b;" horiz-adv-x="252" 
d="M90 0v492h72v-492h-72zM-22 602v56h301v-56h-301z" />
    <glyph glyph-name="Ibreve" unicode="&#x12c;" horiz-adv-x="282" 
d="M103 0v712h76v-712h-76zM306 933c-8 -92.667 -62.998 -139 -164.998 -139s-157 46.333 -165 139h56c3.33301 -26.667 14.666 -47.167 33.999 -61.5s44.333 -21.5 75 -21.5s55.667 7.16699 75 21.5s30.666 34.833 33.999 61.5h56v0z" />
    <glyph glyph-name="ibreve" unicode="&#x12d;" horiz-adv-x="252" 
d="M90 0v492h72v-492h-72zM292 729c-8 -92.667 -62.998 -139 -164.998 -139s-157 46.333 -165 139h56c3.33301 -26.667 14.666 -47.167 33.999 -61.5s44.333 -21.5 75 -21.5s55.667 7.16699 75 21.5s30.666 34.833 33.999 61.5h56v0z" />
    <glyph glyph-name="Iogonek" unicode="&#x12e;" horiz-adv-x="282" 
d="M103 0v712h76v-712h-76zM112 -216h-79l71 149h67z" />
    <glyph glyph-name="iogonek" unicode="&#x12f;" horiz-adv-x="252" 
d="M90 0v492h72v-492h-72zM86 632v81h81v-81h-81zM100 -216h-79l71 149h67z" />
    <glyph glyph-name="Idotaccent" unicode="&#x130;" horiz-adv-x="282" 
d="M103 0v712h76v-712h-76zM104 873h75v-76h-75v76z" />
    <glyph glyph-name="dotlessi" unicode="&#x131;" horiz-adv-x="252" 
d="M90 0v492h72v-492h-72z" />
    <glyph glyph-name="IJ" unicode="&#x132;" horiz-adv-x="783" 
d="M103 0v712h76v-712h-76zM690 216c0 -34 -5.49902 -64.833 -16.499 -92.5s-26.333 -51 -46 -70s-43 -33.667 -70 -44s-56.833 -15.5 -89.5 -15.5c-34 0 -64.167 5.16699 -90.5 15.5s-50.5 26.5 -72.5 48.5l51 51c12.667 -13.333 27.167 -24.5 43.5 -33.5
s39.166 -13.5 68.499 -13.5c46.667 0 82.667 14.167 108 42.5s38 68.833 38 121.5v486h76v-496z" />
    <glyph glyph-name="ij" unicode="&#x133;" horiz-adv-x="506" 
d="M90 0v492h72v-492h-72zM86 632v81h81v-81h-81zM415 -89c0 -18.667 -2.49902 -36 -7.49902 -52s-12.667 -30 -23 -42s-23.333 -21.333 -39 -28s-34.167 -10 -55.5 -10h-52v63h39c25.333 0 42.666 6 51.999 18s14 30 14 54v578h72v-581zM339.001 632v81h81v-81h-81z" />
    <glyph glyph-name="Jcircumflex" unicode="&#x134;" horiz-adv-x="501" 
d="M408 216c0 -34 -5.49902 -64.833 -16.499 -92.5s-26.333 -51 -46 -70s-43 -33.667 -70 -44s-56.833 -15.5 -89.5 -15.5c-34 0 -64.167 5.16699 -90.5 15.5s-50.5 26.5 -72.5 48.5l51 51c12.667 -13.333 27.167 -24.5 43.5 -33.5s39.166 -13.5 68.499 -13.5
c46.667 0 82.667 14.167 108 42.5s38 68.833 38 121.5v486h76v-496zM460.001 780l-90 105l-91 -105h-69l126 153h68l125 -153h-69z" />
    <glyph glyph-name="jcircumflex" unicode="&#x135;" horiz-adv-x="253" 
d="M162 -89c0 -18.667 -2.49902 -36 -7.49902 -52s-12.667 -30 -23 -42s-23.333 -21.333 -39 -28s-34.167 -10 -55.5 -10h-52v63h39c25.333 0 42.666 6 51.999 18s14 30 14 54v578h72v-581zM218.001 594l-91 104l-90 -104h-69l125 153h68l126 -153h-69z" />
    <glyph glyph-name="Kcommaaccent" unicode="&#x136;" horiz-adv-x="650" 
d="M546 0l-217 379l-150 -180v-199h-76v712h76v-409l332 409h93l-224 -275l256 -437h-90zM250 -216l71 149h66l-59 -149h-78z" />
    <glyph glyph-name="kcommaaccent" unicode="&#x137;" horiz-adv-x="536" 
d="M414 0l-156 252l-96 -110v-142h-72v712h72v-476l222 256h90l-167 -188l196 -304h-89zM193 -216l71 149h66l-59 -149h-78z" />
    <glyph glyph-name="kgreenlandic" unicode="&#x138;" horiz-adv-x="536" 
d="M414 0l-156 252l-96 -110v-142h-72v492h72v-256l222 256h90l-167 -188l196 -304h-89z" />
    <glyph glyph-name="Lacute" unicode="&#x139;" horiz-adv-x="573" 
d="M103 0v712h76v-644h364v-68h-440zM171 780h-69l91 154h83z" />
    <glyph glyph-name="lacute" unicode="&#x13a;" horiz-adv-x="294" 
d="M213 0c-43.333 0 -74.999 12.5 -94.999 37.5s-30 56.167 -30 93.5v581h72v-578c0 -24 4.66699 -42 14 -54s26.666 -18 51.999 -18h39v-62h-52zM157.001 780h-69l91 154h83z" />
    <glyph glyph-name="Lcommaaccent" unicode="&#x13b;" horiz-adv-x="573" 
d="M103 0v712h76v-644h364v-68h-440zM211 -216l71 149h66l-59 -149h-78z" />
    <glyph glyph-name="lcommaaccent" unicode="&#x13c;" horiz-adv-x="294" 
d="M213 0c-43.333 0 -74.999 12.5 -94.999 37.5s-30 56.167 -30 93.5v581h72v-578c0 -24 4.66699 -42 14 -54s26.666 -18 51.999 -18h39v-62h-52zM74.001 -216l71 149h66l-59 -149h-78z" />
    <glyph glyph-name="Lcaron" unicode="&#x13d;" horiz-adv-x="573" 
d="M103 0v712h76v-644h364v-68h-440zM355 561h-58l39 152h70z" />
    <glyph glyph-name="lcaron" unicode="&#x13e;" horiz-adv-x="294" 
d="M213 0c-43.333 0 -74.999 12.5 -94.999 37.5s-30 56.167 -30 93.5v581h72v-578c0 -24 4.66699 -42 14 -54s26.666 -18 51.999 -18h39v-62h-52zM281.001 567h-58l39 152h70z" />
    <glyph glyph-name="Ldot" unicode="&#x13f;" horiz-adv-x="573" 
d="M103 0v712h76v-644h364v-68h-440zM389 397h75v-76h-75v76z" />
    <glyph glyph-name="ldot" unicode="&#x140;" horiz-adv-x="294" 
d="M213 0c-43.333 0 -74.999 12.5 -94.999 37.5s-30 56.167 -30 93.5v581h72v-578c0 -24 4.66699 -42 14 -54s26.666 -18 51.999 -18h39v-62h-52zM233.001 309h75v-77h-75v77z" />
    <glyph glyph-name="Lslash" unicode="&#x141;" horiz-adv-x="582" 
d="M112 0v289l-73 -46v67l73 46v356h77v-308l154 98v-66l-154 -98v-270h363v-68h-440z" />
    <glyph glyph-name="lslash" unicode="&#x142;" horiz-adv-x="315" 
d="M226 0c-43.333 0 -75.166 12.5 -95.499 37.5s-30.5 56.167 -30.5 93.5v211l-63 -39v62l63 39v308h72v-264l81 50v-62l-81 -50v-252c0 -24 4.66699 -42 14 -54s26.666 -18 51.999 -18h40v-62h-52z" />
    <glyph glyph-name="Nacute" unicode="&#x143;" horiz-adv-x="732" 
d="M557 0l-378 571v-571h-76v712h72l378 -569v569h76v-712h-72zM384 780h-69l91 154h83z" />
    <glyph glyph-name="nacute" unicode="&#x144;" horiz-adv-x="562" 
d="M405 0l0.000976562 303c0 44 -10.833 76.833 -32.5 98.5s-51.167 32.5 -88.5 32.5s-67 -11 -89 -33s-33 -54.667 -33 -98v-303h-72v492h72v-54c17.333 20 37.666 35 60.999 45s49 15 77 15c53.333 0 95.333 -15.333 126 -46c34 -33.333 51 -79 51 -137v-315h-72z
M300.001 594h-69l91 153h83z" />
    <glyph glyph-name="Ncommaaccent" unicode="&#x145;" horiz-adv-x="732" 
d="M557 0l-378 571v-571h-76v712h72l378 -569v569h76v-712h-72zM281 -216l71 149h66l-59 -149h-78z" />
    <glyph glyph-name="ncommaaccent" unicode="&#x146;" horiz-adv-x="562" 
d="M405 0l0.000976562 303c0 44 -10.833 76.833 -32.5 98.5s-51.167 32.5 -88.5 32.5s-67 -11 -89 -33s-33 -54.667 -33 -98v-303h-72v492h72v-54c17.333 20 37.666 35 60.999 45s49 15 77 15c53.333 0 95.333 -15.333 126 -46c34 -33.333 51 -79 51 -137v-315h-72z
M206.001 -216l71 149h66l-59 -149h-78z" />
    <glyph glyph-name="Ncaron" unicode="&#x147;" horiz-adv-x="732" 
d="M557 0l-378 571v-571h-76v712h72l378 -569v569h76v-712h-72zM400 780h-68l-125 153h69l90 -104l91 104h69z" />
    <glyph glyph-name="ncaron" unicode="&#x148;" horiz-adv-x="562" 
d="M405 0l0.000976562 303c0 44 -10.833 76.833 -32.5 98.5s-51.167 32.5 -88.5 32.5s-67 -11 -89 -33s-33 -54.667 -33 -98v-303h-72v492h72v-54c17.333 20 37.666 35 60.999 45s49 15 77 15c53.333 0 95.333 -15.333 126 -46c34 -33.333 51 -79 51 -137v-315h-72z
M315.001 594h-68l-126 153h69l91 -105l90 105h69z" />
    <glyph glyph-name="napostrophe" unicode="&#x149;" horiz-adv-x="562" 
d="M405 0l0.000976562 303c0 44 -10.833 76.833 -32.5 98.5s-51.167 32.5 -88.5 32.5s-67 -11 -89 -33s-33 -54.667 -33 -98v-303h-72v492h72v-54c17.333 20 37.666 35 60.999 45s49 15 77 15c53.333 0 95.333 -15.333 126 -46c34 -33.333 51 -79 51 -137v-315h-72z
M23.001 530v190h68v-125z" />
    <glyph glyph-name="Eng" unicode="&#x14a;" horiz-adv-x="732" 
d="M629 -84c0 -18.667 -2.5 -36.001 -7.5 -52.001s-12.667 -30 -23 -42s-23.333 -21.333 -39 -28s-34.167 -10 -55.5 -10h-52v63h37c23.333 0 39.833 5.83301 49.5 17.5s14.5 29.834 14.5 54.501v87l-374 565v-571h-76v712h72l378 -569v569h76v-796z" />
    <glyph glyph-name="eng" unicode="&#x14b;" horiz-adv-x="562" 
d="M477 -84c0 -18.667 -2.49805 -36 -7.49805 -52s-12.667 -30 -23 -42s-23.333 -21.333 -39 -28s-34.167 -10 -55.5 -10h-52v63h39c25.333 0 42.666 6 51.999 18s14 30 14 54v384c0 44 -10.833 76.833 -32.5 98.5s-51.167 32.5 -88.5 32.5s-67 -11 -89 -33
s-33 -54.667 -33 -98v-303h-72v492h72v-54c17.333 20 37.666 35 60.999 45s49 15 77 15c53.333 0 95.333 -15.333 126 -46c34 -33.333 51 -79 51 -137v-399z" />
    <glyph glyph-name="Omacron" unicode="&#x14c;" horiz-adv-x="650" 
d="M574 356c0 -40.667 -0.666992 -75.667 -2 -105s-4.33301 -55 -9 -77s-11.834 -41.667 -21.501 -59s-22.834 -34.333 -39.501 -51c-22 -22 -47.667 -39.167 -77 -51.5s-62.666 -18.5 -99.999 -18.5s-70.833 6.16699 -100.5 18.5s-55.5 29.5 -77.5 51.5
c-16.667 16.667 -29.834 33.667 -39.501 51s-16.834 37 -21.501 59s-7.5 47.667 -8.5 77s-1.5 64.333 -1.5 105s0.5 75.667 1.5 105s3.83301 55 8.5 77s11.834 41.667 21.501 59s22.834 34.333 39.501 51c22 22 47.833 39.167 77.5 51.5s63.167 18.5 100.5 18.5
s70.666 -6.16699 99.999 -18.5s55 -29.5 77 -51.5c16.667 -16.667 29.834 -33.667 39.501 -51s16.834 -37 21.501 -59s7.66699 -47.667 9 -77s2 -64.333 2 -105zM498 356c0 36.667 -0.5 67.834 -1.5 93.501s-3.16699 47.667 -6.5 66s-8.33301 34.166 -15 47.499
s-15.667 25.666 -27 36.999c-33.333 33.333 -74.333 50 -123 50s-89.667 -16.667 -123 -50c-11.333 -11.333 -20.333 -23.666 -27 -36.999s-11.667 -29.166 -15 -47.499s-5.5 -40.333 -6.5 -66s-1.5 -56.834 -1.5 -93.501s0.5 -67.834 1.5 -93.501s3.16699 -47.667 6.5 -66
s8.33301 -34.166 15 -47.499s15.667 -25.666 27 -36.999c33.333 -33.333 74.333 -50 123 -50s89.667 16.667 123 50c11.333 11.333 20.333 23.666 27 36.999s11.667 29.166 15 47.499s5.5 40.333 6.5 66s1.5 56.834 1.5 93.501zM173 855h301v-57h-301v57z" />
    <glyph glyph-name="omacron" unicode="&#x14d;" 
d="M466 246c0 -38 -3.8291 -73.833 -11.4961 -107.5s-23.834 -63.167 -48.501 -88.5c-17.333 -17.333 -37.666 -31 -60.999 -41s-50 -15 -80 -15s-56.667 5 -80 15s-43.666 23.667 -60.999 41c-12.667 12.667 -22.834 26.5 -30.501 41.5s-13.667 30.667 -18 47
s-7.33301 33.5 -9 51.5s-2.5 36.667 -2.5 56c0 38 3.66699 73.833 11 107.5s23.666 63.167 48.999 88.5c17.333 17.333 37.666 31 60.999 41s50 15 80 15s56.667 -5 80 -15s43.666 -23.667 60.999 -41c25.333 -25.333 41.666 -54.833 48.999 -88.5s11 -69.5 11 -107.5z
M394.004 246c0 28 -2 55.833 -6 83.5s-15 50.5 -33 68.5c-24 24 -54 36 -90 36c-35.333 0 -65 -12 -89 -36c-18 -18 -29.167 -40.833 -33.5 -68.5s-6.5 -55.5 -6.5 -83.5c0 -14 0.333008 -28 1 -42s2.33398 -27.667 5.00098 -41s6.66699 -25.833 12 -37.5
s12.666 -22.167 21.999 -31.5c24 -24 53.667 -36 89 -36c36 0 66 12 90 36c18 18.667 29 41.667 33 69s6 55 6 83zM115.004 602v56h301v-56h-301z" />
    <glyph glyph-name="Obreve" unicode="&#x14e;" horiz-adv-x="650" 
d="M574 356c0 -40.667 -0.666992 -75.667 -2 -105s-4.33301 -55 -9 -77s-11.834 -41.667 -21.501 -59s-22.834 -34.333 -39.501 -51c-22 -22 -47.667 -39.167 -77 -51.5s-62.666 -18.5 -99.999 -18.5s-70.833 6.16699 -100.5 18.5s-55.5 29.5 -77.5 51.5
c-16.667 16.667 -29.834 33.667 -39.501 51s-16.834 37 -21.501 59s-7.5 47.667 -8.5 77s-1.5 64.333 -1.5 105s0.5 75.667 1.5 105s3.83301 55 8.5 77s11.834 41.667 21.501 59s22.834 34.333 39.501 51c22 22 47.833 39.167 77.5 51.5s63.167 18.5 100.5 18.5
s70.666 -6.16699 99.999 -18.5s55 -29.5 77 -51.5c16.667 -16.667 29.834 -33.667 39.501 -51s16.834 -37 21.501 -59s7.66699 -47.667 9 -77s2 -64.333 2 -105zM498 356c0 36.667 -0.5 67.834 -1.5 93.501s-3.16699 47.667 -6.5 66s-8.33301 34.166 -15 47.499
s-15.667 25.666 -27 36.999c-33.333 33.333 -74.333 50 -123 50s-89.667 -16.667 -123 -50c-11.333 -11.333 -20.333 -23.666 -27 -36.999s-11.667 -29.166 -15 -47.499s-5.5 -40.333 -6.5 -66s-1.5 -56.834 -1.5 -93.501s0.5 -67.834 1.5 -93.501s3.16699 -47.667 6.5 -66
s8.33301 -34.166 15 -47.499s15.667 -25.666 27 -36.999c33.333 -33.333 74.333 -50 123 -50s89.667 16.667 123 50c11.333 11.333 20.333 23.666 27 36.999s11.667 29.166 15 47.499s5.5 40.333 6.5 66s1.5 56.834 1.5 93.501zM490 933
c-8 -92.667 -62.998 -139 -164.998 -139s-157 46.333 -165 139h56c3.33301 -26.667 14.666 -47.167 33.999 -61.5s44.333 -21.5 75 -21.5s55.667 7.16699 75 21.5s30.666 34.833 33.999 61.5h56v0z" />
    <glyph glyph-name="obreve" unicode="&#x14f;" 
d="M466 246c0 -38 -3.8291 -73.833 -11.4961 -107.5s-23.834 -63.167 -48.501 -88.5c-17.333 -17.333 -37.666 -31 -60.999 -41s-50 -15 -80 -15s-56.667 5 -80 15s-43.666 23.667 -60.999 41c-12.667 12.667 -22.834 26.5 -30.501 41.5s-13.667 30.667 -18 47
s-7.33301 33.5 -9 51.5s-2.5 36.667 -2.5 56c0 38 3.66699 73.833 11 107.5s23.666 63.167 48.999 88.5c17.333 17.333 37.666 31 60.999 41s50 15 80 15s56.667 -5 80 -15s43.666 -23.667 60.999 -41c25.333 -25.333 41.666 -54.833 48.999 -88.5s11 -69.5 11 -107.5z
M394.004 246c0 28 -2 55.833 -6 83.5s-15 50.5 -33 68.5c-24 24 -54 36 -90 36c-35.333 0 -65 -12 -89 -36c-18 -18 -29.167 -40.833 -33.5 -68.5s-6.5 -55.5 -6.5 -83.5c0 -14 0.333008 -28 1 -42s2.33398 -27.667 5.00098 -41s6.66699 -25.833 12 -37.5
s12.666 -22.167 21.999 -31.5c24 -24 53.667 -36 89 -36c36 0 66 12 90 36c18 18.667 29 41.667 33 69s6 55 6 83zM430.004 729c-8 -92.667 -62.998 -139 -164.998 -139s-157 46.333 -165 139h56c3.33301 -26.667 14.666 -47.167 33.999 -61.5s44.333 -21.5 75 -21.5
s55.667 7.16699 75 21.5s30.666 34.833 33.999 61.5h56v0z" />
    <glyph glyph-name="Ohungarumlaut" unicode="&#x150;" horiz-adv-x="650" 
d="M574 356c0 -40.667 -0.666992 -75.667 -2 -105s-4.33301 -55 -9 -77s-11.834 -41.667 -21.501 -59s-22.834 -34.333 -39.501 -51c-22 -22 -47.667 -39.167 -77 -51.5s-62.666 -18.5 -99.999 -18.5s-70.833 6.16699 -100.5 18.5s-55.5 29.5 -77.5 51.5
c-16.667 16.667 -29.834 33.667 -39.501 51s-16.834 37 -21.501 59s-7.5 47.667 -8.5 77s-1.5 64.333 -1.5 105s0.5 75.667 1.5 105s3.83301 55 8.5 77s11.834 41.667 21.501 59s22.834 34.333 39.501 51c22 22 47.833 39.167 77.5 51.5s63.167 18.5 100.5 18.5
s70.666 -6.16699 99.999 -18.5s55 -29.5 77 -51.5c16.667 -16.667 29.834 -33.667 39.501 -51s16.834 -37 21.501 -59s7.66699 -47.667 9 -77s2 -64.333 2 -105zM498 356c0 36.667 -0.5 67.834 -1.5 93.501s-3.16699 47.667 -6.5 66s-8.33301 34.166 -15 47.499
s-15.667 25.666 -27 36.999c-33.333 33.333 -74.333 50 -123 50s-89.667 -16.667 -123 -50c-11.333 -11.333 -20.333 -23.666 -27 -36.999s-11.667 -29.166 -15 -47.499s-5.5 -40.333 -6.5 -66s-1.5 -56.834 -1.5 -93.501s0.5 -67.834 1.5 -93.501s3.16699 -47.667 6.5 -66
s8.33301 -34.166 15 -47.499s15.667 -25.666 27 -36.999c33.333 -33.333 74.333 -50 123 -50s89.667 16.667 123 50c11.333 11.333 20.333 23.666 27 36.999s11.667 29.166 15 47.499s5.5 40.333 6.5 66s1.5 56.834 1.5 93.501zM271 781h-66l89 153h85zM433 781h-65l89 153
h85z" />
    <glyph glyph-name="ohungarumlaut" unicode="&#x151;" 
d="M466 246c0 -38 -3.8291 -73.833 -11.4961 -107.5s-23.834 -63.167 -48.501 -88.5c-17.333 -17.333 -37.666 -31 -60.999 -41s-50 -15 -80 -15s-56.667 5 -80 15s-43.666 23.667 -60.999 41c-12.667 12.667 -22.834 26.5 -30.501 41.5s-13.667 30.667 -18 47
s-7.33301 33.5 -9 51.5s-2.5 36.667 -2.5 56c0 38 3.66699 73.833 11 107.5s23.666 63.167 48.999 88.5c17.333 17.333 37.666 31 60.999 41s50 15 80 15s56.667 -5 80 -15s43.666 -23.667 60.999 -41c25.333 -25.333 41.666 -54.833 48.999 -88.5s11 -69.5 11 -107.5z
M394.004 246c0 28 -2 55.833 -6 83.5s-15 50.5 -33 68.5c-24 24 -54 36 -90 36c-35.333 0 -65 -12 -89 -36c-18 -18 -29.167 -40.833 -33.5 -68.5s-6.5 -55.5 -6.5 -83.5c0 -14 0.333008 -28 1 -42s2.33398 -27.667 5.00098 -41s6.66699 -25.833 12 -37.5
s12.666 -22.167 21.999 -31.5c24 -24 53.667 -36 89 -36c36 0 66 12 90 36c18 18.667 29 41.667 33 69s6 55 6 83zM211.004 594h-66l89 153h85zM373.004 594h-65l89 153h85z" />
    <glyph glyph-name="OE" unicode="&#x152;" horiz-adv-x="989" 
d="M324 -6c-37.333 0 -70.666 6.16699 -99.999 18.5s-55 29.5 -77 51.5c-16.667 16.667 -29.834 33.667 -39.501 51s-16.834 37 -21.501 59s-7.5 47.667 -8.5 77s-1.5 64.333 -1.5 105s0.5 75.667 1.5 105s3.83301 55 8.5 77s11.834 41.667 21.501 59
s22.834 34.333 39.501 51c22 22 47.667 39.167 77 51.5s62.666 18.5 99.999 18.5c35.333 0 67.5 -6.5 96.5 -19.5s54.5 -33.167 76.5 -60.5v74h434v-67h-358v-254h305v-64h-305v-260h358v-67h-434v74c-22 -27.333 -48.167 -47.5 -78.5 -60.5s-61.833 -19.5 -94.5 -19.5z
M325 62c23.333 0 45.833 4.49805 67.5 13.498s40.167 21.5 55.5 37.5c11.333 11.333 20.166 23.5 26.499 36.5s11.166 28.5 14.499 46.5s5.5 39.833 6.5 65.5s1.5 57.167 1.5 94.5s-0.5 68.833 -1.5 94.5s-3.16699 47.5 -6.5 65.5s-8.16602 33.5 -14.499 46.5
s-15.166 25.167 -26.499 36.5c-15.333 16 -33.833 28.5 -55.5 37.5s-44.167 13.5 -67.5 13.5c-24 0 -46.5 -4.16699 -67.5 -12.5s-39.5 -20.833 -55.5 -37.5c-11.333 -11.333 -20.333 -23.666 -27 -36.999s-11.667 -29.166 -15 -47.499s-5.5 -40.333 -6.5 -66
s-1.5 -56.834 -1.5 -93.501s0.5 -67.834 1.5 -93.501s3.16699 -47.667 6.5 -66s8.33301 -34.166 15 -47.499s15.667 -25.666 27 -36.999c16 -16.667 34.5 -29.167 55.5 -37.5s43.5 -12.5 67.5 -12.5z" />
    <glyph glyph-name="oe" unicode="&#x153;" horiz-adv-x="861" 
d="M466 227c0 -54 12.167 -95.835 36.5 -125.502s60.5 -44.5 108.5 -44.5c28.667 0 52.5 4.5 71.5 13.5s38.167 23.167 57.5 42.5l49 -43c-12.667 -12.667 -25.167 -23.667 -37.5 -33s-25.666 -17.166 -39.999 -23.499s-29.833 -11.166 -46.5 -14.499s-35.334 -5 -56.001 -5
c-82.667 0 -141.667 31.667 -177 95c-15.333 -30.667 -37.666 -54.167 -66.999 -70.5s-62.666 -24.5 -99.999 -24.5c-30 0 -56.667 5 -80 15s-43.666 23.667 -60.999 41c-12.667 12.667 -22.834 26.5 -30.501 41.5s-13.667 30.667 -18 47s-7.33301 33.5 -9 51.5
s-2.5 36.667 -2.5 56c0 38 3.66699 73.833 11 107.5s23.666 63.167 48.999 88.5c17.333 17.333 37.666 31 60.999 41s50 15 80 15c38 0 71.5 -8.16699 100.5 -24.5s51.5 -39.833 67.5 -70.5c16 31.333 37.833 55 65.5 71s60.167 24 97.5 24
c64.667 0 114.5 -21.333 149.5 -64s52.5 -100.667 52.5 -174v-33h-332zM727 280.998c-0.666992 10 -1.3291 18.667 -1.99609 26s-1.5 14 -2.5 20s-2.5 11.833 -4.5 17.5s-4.33301 11.834 -7 18.501c-10.667 22.667 -25.834 40.667 -45.501 54s-42.834 20 -69.501 20
s-49.834 -6.66699 -69.501 -20s-34.834 -31.333 -45.501 -54c-3.33301 -6.66699 -5.83301 -12.834 -7.5 -18.501s-3 -11.5 -4 -17.5s-1.66699 -12.667 -2 -20s-0.833008 -16 -1.5 -26h261zM394.005 245.998c0 28 -2 55.833 -6 83.5s-15 50.5 -33 68.5c-24 24 -54 36 -90 36
c-35.333 0 -65 -12 -89 -36c-18 -18 -29.167 -40.833 -33.5 -68.5s-6.5 -55.5 -6.5 -83.5c0 -14 0.333008 -28 1 -42s2.33398 -27.667 5.00098 -41s6.66699 -25.833 12 -37.5s12.666 -22.167 21.999 -31.5c24 -24 53.667 -36 89 -36c36 0 66 12 90 36
c18 18.667 29 41.667 33 69s6 55 6 83z" />
    <glyph glyph-name="Racute" unicode="&#x154;" horiz-adv-x="656" 
d="M512 0l-162 316.001h-171v-316h-76v712h273c30.667 0 59 -4.5 85 -13.5s48.333 -22 67 -39s33.167 -37.833 43.5 -62.5s15.5 -52.334 15.5 -83.001c0 -52 -14.333 -94.5 -43 -127.5s-66 -54.167 -112 -63.5l169 -323h-89zM511 513.001c0 44 -13.167 76.833 -39.5 98.5
s-60.5 32.5 -102.5 32.5h-190v-261h190c42 0 76.167 10.667 102.5 32s39.5 54 39.5 98zM346 780.001h-69l91 154h83z" />
    <glyph glyph-name="racute" unicode="&#x155;" horiz-adv-x="421" 
d="M365 398c-13.333 13.333 -26 22.666 -38 27.999s-27.667 8 -47 8c-18 0 -34.333 -3.33301 -49 -10s-27 -16 -37 -28s-17.833 -26 -23.5 -42s-8.5 -33.333 -8.5 -52v-302h-72v492h72v-60c13.333 20.667 32.5 36.834 57.5 48.501s51.833 17.5 80.5 17.5
c23.333 0 44.5 -3.33301 63.5 -10s37.167 -18.667 54.5 -36zM231 594h-69l91 153h83z" />
    <glyph glyph-name="Rcommaaccent" unicode="&#x156;" horiz-adv-x="656" 
d="M512 0l-162 316.001h-171v-316h-76v712h273c30.667 0 59 -4.5 85 -13.5s48.333 -22 67 -39s33.167 -37.833 43.5 -62.5s15.5 -52.334 15.5 -83.001c0 -52 -14.333 -94.5 -43 -127.5s-66 -54.167 -112 -63.5l169 -323h-89zM511 513.001c0 44 -13.167 76.833 -39.5 98.5
s-60.5 32.5 -102.5 32.5h-190v-261h190c42 0 76.167 10.667 102.5 32s39.5 54 39.5 98zM253 -215.999l71 149h66l-59 -149h-78z" />
    <glyph glyph-name="rcommaaccent" unicode="&#x157;" horiz-adv-x="421" 
d="M365 398c-13.333 13.333 -26 22.666 -38 27.999s-27.667 8 -47 8c-18 0 -34.333 -3.33301 -49 -10s-27 -16 -37 -28s-17.833 -26 -23.5 -42s-8.5 -33.333 -8.5 -52v-302h-72v492h72v-60c13.333 20.667 32.5 36.834 57.5 48.501s51.833 17.5 80.5 17.5
c23.333 0 44.5 -3.33301 63.5 -10s37.167 -18.667 54.5 -36zM24 -216l71 149h66l-59 -149h-78z" />
    <glyph glyph-name="Rcaron" unicode="&#x158;" horiz-adv-x="656" 
d="M512 0l-162 316.001h-171v-316h-76v712h273c30.667 0 59 -4.5 85 -13.5s48.333 -22 67 -39s33.167 -37.833 43.5 -62.5s15.5 -52.334 15.5 -83.001c0 -52 -14.333 -94.5 -43 -127.5s-66 -54.167 -112 -63.5l169 -323h-89zM511 513.001c0 44 -13.167 76.833 -39.5 98.5
s-60.5 32.5 -102.5 32.5h-190v-261h190c42 0 76.167 10.667 102.5 32s39.5 54 39.5 98zM362 780.001h-68l-125 153h69l90 -104l91 104h69z" />
    <glyph glyph-name="rcaron" unicode="&#x159;" horiz-adv-x="421" 
d="M365 398c-13.333 13.333 -26 22.666 -38 27.999s-27.667 8 -47 8c-18 0 -34.333 -3.33301 -49 -10s-27 -16 -37 -28s-17.833 -26 -23.5 -42s-8.5 -33.333 -8.5 -52v-302h-72v492h72v-60c13.333 20.667 32.5 36.834 57.5 48.501s51.833 17.5 80.5 17.5
c23.333 0 44.5 -3.33301 63.5 -10s37.167 -18.667 54.5 -36zM266 594h-68l-126 153h69l91 -105l90 105h69z" />
    <glyph glyph-name="Sacute" unicode="&#x15a;" horiz-adv-x="588" 
d="M532 196c0 -31.333 -5.83691 -59.5039 -17.5039 -84.5039s-28.167 -46.167 -49.5 -63.5s-47.166 -30.666 -77.499 -39.999s-64.166 -14 -101.499 -14c-26.667 0 -51.167 1.83301 -73.5 5.5s-43.333 9.16699 -63 16.5s-38.167 17 -55.5 29s-34.333 26.333 -51 43l51 51
c29.333 -29.333 59 -49.5 89 -60.5s65 -16.5 105 -16.5c52.667 0 94 11.5 124 34.5s45 55.5 45 97.5c0 38.667 -11.667 68.334 -35 89.001c-5.33301 4.66699 -10.833 8.83398 -16.5 12.501s-12 6.83398 -19 9.50098s-15.167 5 -24.5 7s-20.333 4 -33 6l-83 12
c-56 8.66699 -99.333 26.667 -130 54c-36.667 32.667 -55 77.334 -55 134.001c0 30 5.33301 57.333 16 82s25.834 45.834 45.501 63.501s43.5 31.167 71.5 40.5s59.667 14 95 14c45.333 0 84.333 -6.33301 117 -19s64.334 -32.334 95.001 -59.001l-49 -49
c-21.333 20.667 -45 36.167 -71 46.5s-57.667 15.5 -95 15.5c-48 0 -85.167 -12.167 -111.5 -36.5s-39.5 -56.5 -39.5 -96.5c0 -36.667 10.667 -64.334 32 -83.001c11.333 -9.33301 25 -17 41 -23s33.333 -10.667 52 -14l83 -13c32.667 -5.33301 58.334 -11.5 77.001 -18.5
s36 -17.833 52 -32.5c19.333 -16.667 34.166 -36.667 44.499 -60s15.5 -50 15.5 -80zM312.996 779.996h-69l91 154h83z" />
    <glyph glyph-name="sacute" unicode="&#x15b;" horiz-adv-x="496" 
d="M445 144c0 -47.333 -18.3359 -84.1689 -55.0029 -110.502s-85 -39.5 -145 -39.5c-42 0 -79.5 5.33301 -112.5 16s-62.833 29 -89.5 55l48 48c19.333 -20 42 -34.5 68 -43.5s54.333 -13.5 85 -13.5c41.333 0 73.5 7.16699 96.5 21.5s34.5 36.166 34.5 65.499
c0 22 -6.33301 38.833 -19 50.5s-33.667 18.834 -63 21.501l-81 7c-48 4 -84.5 16.667 -109.5 38s-37.5 52.666 -37.5 93.999c0 22.667 4.5 42.834 13.5 60.501s21.5 32.667 37.5 45s35 21.833 57 28.5s46.333 10 73 10c36 0 68.833 -4.33301 98.5 -13
s55.834 -22 78.501 -40l-47 -47c-17.333 13.333 -37.166 23.166 -59.499 29.499s-46.166 9.5 -71.499 9.5c-36 0 -63.333 -7.16699 -82 -21.5s-28 -34.166 -28 -59.499c0 -22 7 -38.667 21 -50s36.333 -18.666 67 -21.999l77 -7c21.333 -2 41 -5.66699 59 -11
s33.333 -13.166 46 -23.499s22.5 -23.5 29.5 -39.5s10.5 -35.667 10.5 -59zM267.997 593.997h-69l91 153h83z" />
    <glyph glyph-name="Scircumflex" unicode="&#x15c;" horiz-adv-x="588" 
d="M532 196c0 -31.333 -5.83691 -59.5039 -17.5039 -84.5039s-28.167 -46.167 -49.5 -63.5s-47.166 -30.666 -77.499 -39.999s-64.166 -14 -101.499 -14c-26.667 0 -51.167 1.83301 -73.5 5.5s-43.333 9.16699 -63 16.5s-38.167 17 -55.5 29s-34.333 26.333 -51 43l51 51
c29.333 -29.333 59 -49.5 89 -60.5s65 -16.5 105 -16.5c52.667 0 94 11.5 124 34.5s45 55.5 45 97.5c0 38.667 -11.667 68.334 -35 89.001c-5.33301 4.66699 -10.833 8.83398 -16.5 12.501s-12 6.83398 -19 9.50098s-15.167 5 -24.5 7s-20.333 4 -33 6l-83 12
c-56 8.66699 -99.333 26.667 -130 54c-36.667 32.667 -55 77.334 -55 134.001c0 30 5.33301 57.333 16 82s25.834 45.834 45.501 63.501s43.5 31.167 71.5 40.5s59.667 14 95 14c45.333 0 84.333 -6.33301 117 -19s64.334 -32.334 95.001 -59.001l-49 -49
c-21.333 20.667 -45 36.167 -71 46.5s-57.667 15.5 -95 15.5c-48 0 -85.167 -12.167 -111.5 -36.5s-39.5 -56.5 -39.5 -96.5c0 -36.667 10.667 -64.334 32 -83.001c11.333 -9.33301 25 -17 41 -23s33.333 -10.667 52 -14l83 -13c32.667 -5.33301 58.334 -11.5 77.001 -18.5
s36 -17.833 52 -32.5c19.333 -16.667 34.166 -36.667 44.499 -60s15.5 -50 15.5 -80zM379.996 779.996l-90 105l-91 -105h-69l126 153h68l125 -153h-69z" />
    <glyph glyph-name="scircumflex" unicode="&#x15d;" horiz-adv-x="496" 
d="M445 144c0 -47.333 -18.3359 -84.1689 -55.0029 -110.502s-85 -39.5 -145 -39.5c-42 0 -79.5 5.33301 -112.5 16s-62.833 29 -89.5 55l48 48c19.333 -20 42 -34.5 68 -43.5s54.333 -13.5 85 -13.5c41.333 0 73.5 7.16699 96.5 21.5s34.5 36.166 34.5 65.499
c0 22 -6.33301 38.833 -19 50.5s-33.667 18.834 -63 21.501l-81 7c-48 4 -84.5 16.667 -109.5 38s-37.5 52.666 -37.5 93.999c0 22.667 4.5 42.834 13.5 60.501s21.5 32.667 37.5 45s35 21.833 57 28.5s46.333 10 73 10c36 0 68.833 -4.33301 98.5 -13
s55.834 -22 78.501 -40l-47 -47c-17.333 13.333 -37.166 23.166 -59.499 29.499s-46.166 9.5 -71.499 9.5c-36 0 -63.333 -7.16699 -82 -21.5s-28 -34.166 -28 -59.499c0 -22 7 -38.667 21 -50s36.333 -18.666 67 -21.999l77 -7c21.333 -2 41 -5.66699 59 -11
s33.333 -13.166 46 -23.499s22.5 -23.5 29.5 -39.5s10.5 -35.667 10.5 -59zM337.997 593.997l-91 104l-90 -104h-69l125 153h68l126 -153h-69z" />
    <glyph glyph-name="Scedilla" unicode="&#x15e;" horiz-adv-x="588" 
d="M532 196c0 -31.333 -5.83691 -59.5039 -17.5039 -84.5039s-28.167 -46.167 -49.5 -63.5s-47.166 -30.666 -77.499 -39.999s-64.166 -14 -101.499 -14c-26.667 0 -51.167 1.83301 -73.5 5.5s-43.333 9.16699 -63 16.5s-38.167 17 -55.5 29s-34.333 26.333 -51 43l51 51
c29.333 -29.333 59 -49.5 89 -60.5s65 -16.5 105 -16.5c52.667 0 94 11.5 124 34.5s45 55.5 45 97.5c0 38.667 -11.667 68.334 -35 89.001c-5.33301 4.66699 -10.833 8.83398 -16.5 12.501s-12 6.83398 -19 9.50098s-15.167 5 -24.5 7s-20.333 4 -33 6l-83 12
c-56 8.66699 -99.333 26.667 -130 54c-36.667 32.667 -55 77.334 -55 134.001c0 30 5.33301 57.333 16 82s25.834 45.834 45.501 63.501s43.5 31.167 71.5 40.5s59.667 14 95 14c45.333 0 84.333 -6.33301 117 -19s64.334 -32.334 95.001 -59.001l-49 -49
c-21.333 20.667 -45 36.167 -71 46.5s-57.667 15.5 -95 15.5c-48 0 -85.167 -12.167 -111.5 -36.5s-39.5 -56.5 -39.5 -96.5c0 -36.667 10.667 -64.334 32 -83.001c11.333 -9.33301 25 -17 41 -23s33.333 -10.667 52 -14l83 -13c32.667 -5.33301 58.334 -11.5 77.001 -18.5
s36 -17.833 52 -32.5c19.333 -16.667 34.166 -36.667 44.499 -60s15.5 -50 15.5 -80zM297.996 -216.004h-79l71 149h67z" />
    <glyph glyph-name="scedilla" unicode="&#x15f;" horiz-adv-x="496" 
d="M445 144c0 -47.333 -18.3359 -84.1689 -55.0029 -110.502s-85 -39.5 -145 -39.5c-42 0 -79.5 5.33301 -112.5 16s-62.833 29 -89.5 55l48 48c19.333 -20 42 -34.5 68 -43.5s54.333 -13.5 85 -13.5c41.333 0 73.5 7.16699 96.5 21.5s34.5 36.166 34.5 65.499
c0 22 -6.33301 38.833 -19 50.5s-33.667 18.834 -63 21.501l-81 7c-48 4 -84.5 16.667 -109.5 38s-37.5 52.666 -37.5 93.999c0 22.667 4.5 42.834 13.5 60.501s21.5 32.667 37.5 45s35 21.833 57 28.5s46.333 10 73 10c36 0 68.833 -4.33301 98.5 -13
s55.834 -22 78.501 -40l-47 -47c-17.333 13.333 -37.166 23.166 -59.499 29.499s-46.166 9.5 -71.499 9.5c-36 0 -63.333 -7.16699 -82 -21.5s-28 -34.166 -28 -59.499c0 -22 7 -38.667 21 -50s36.333 -18.666 67 -21.999l77 -7c21.333 -2 41 -5.66699 59 -11
s33.333 -13.166 46 -23.499s22.5 -23.5 29.5 -39.5s10.5 -35.667 10.5 -59zM252.997 -216.003h-79l71 149h67z" />
    <glyph glyph-name="Scaron" unicode="&#x160;" horiz-adv-x="588" 
d="M532 196c0 -31.333 -5.83691 -59.5039 -17.5039 -84.5039s-28.167 -46.167 -49.5 -63.5s-47.166 -30.666 -77.499 -39.999s-64.166 -14 -101.499 -14c-26.667 0 -51.167 1.83301 -73.5 5.5s-43.333 9.16699 -63 16.5s-38.167 17 -55.5 29s-34.333 26.333 -51 43l51 51
c29.333 -29.333 59 -49.5 89 -60.5s65 -16.5 105 -16.5c52.667 0 94 11.5 124 34.5s45 55.5 45 97.5c0 38.667 -11.667 68.334 -35 89.001c-5.33301 4.66699 -10.833 8.83398 -16.5 12.501s-12 6.83398 -19 9.50098s-15.167 5 -24.5 7s-20.333 4 -33 6l-83 12
c-56 8.66699 -99.333 26.667 -130 54c-36.667 32.667 -55 77.334 -55 134.001c0 30 5.33301 57.333 16 82s25.834 45.834 45.501 63.501s43.5 31.167 71.5 40.5s59.667 14 95 14c45.333 0 84.333 -6.33301 117 -19s64.334 -32.334 95.001 -59.001l-49 -49
c-21.333 20.667 -45 36.167 -71 46.5s-57.667 15.5 -95 15.5c-48 0 -85.167 -12.167 -111.5 -36.5s-39.5 -56.5 -39.5 -96.5c0 -36.667 10.667 -64.334 32 -83.001c11.333 -9.33301 25 -17 41 -23s33.333 -10.667 52 -14l83 -13c32.667 -5.33301 58.334 -11.5 77.001 -18.5
s36 -17.833 52 -32.5c19.333 -16.667 34.166 -36.667 44.499 -60s15.5 -50 15.5 -80zM322.996 779.996h-68l-125 153h69l90 -104l91 104h69z" />
    <glyph glyph-name="scaron" unicode="&#x161;" horiz-adv-x="496" 
d="M445 144c0 -47.333 -18.3359 -84.1689 -55.0029 -110.502s-85 -39.5 -145 -39.5c-42 0 -79.5 5.33301 -112.5 16s-62.833 29 -89.5 55l48 48c19.333 -20 42 -34.5 68 -43.5s54.333 -13.5 85 -13.5c41.333 0 73.5 7.16699 96.5 21.5s34.5 36.166 34.5 65.499
c0 22 -6.33301 38.833 -19 50.5s-33.667 18.834 -63 21.501l-81 7c-48 4 -84.5 16.667 -109.5 38s-37.5 52.666 -37.5 93.999c0 22.667 4.5 42.834 13.5 60.501s21.5 32.667 37.5 45s35 21.833 57 28.5s46.333 10 73 10c36 0 68.833 -4.33301 98.5 -13
s55.834 -22 78.501 -40l-47 -47c-17.333 13.333 -37.166 23.166 -59.499 29.499s-46.166 9.5 -71.499 9.5c-36 0 -63.333 -7.16699 -82 -21.5s-28 -34.166 -28 -59.499c0 -22 7 -38.667 21 -50s36.333 -18.666 67 -21.999l77 -7c21.333 -2 41 -5.66699 59 -11
s33.333 -13.166 46 -23.499s22.5 -23.5 29.5 -39.5s10.5 -35.667 10.5 -59zM279.997 593.997h-68l-126 153h69l91 -105l90 105h69z" />
    <glyph glyph-name="Tcommaaccent" unicode="&#x162;" horiz-adv-x="548" 
d="M312 644v-644h-76v644h-206v68h488v-68h-206zM250 -216h-79l71 149h67z" />
    <glyph glyph-name="tcommaaccent" unicode="&#x163;" horiz-adv-x="332" 
d="M228 0c-21.333 0 -39.834 3.50098 -55.501 10.501s-28.667 16.5 -39 28.5s-18.166 26 -23.499 42s-8 33 -8 51v305h-62v55h62v151h72v-151h105v-55h-105v-303c0 -22.667 5.33301 -40.334 16 -53.001s27.667 -19 51 -19h38v-62h-51zM170.999 -215.999h-79l71 149h67z" />
    <glyph glyph-name="Tcaron" unicode="&#x164;" horiz-adv-x="548" 
d="M312 644v-644h-76v644h-206v68h488v-68h-206zM309 780h-68l-125 153h69l90 -104l91 104h69z" />
    <glyph glyph-name="tcaron" unicode="&#x165;" horiz-adv-x="332" 
d="M228 0c-21.333 0 -39.834 3.50098 -55.501 10.501s-28.667 16.5 -39 28.5s-18.166 26 -23.499 42s-8 33 -8 51v305h-62v55h62v151h72v-151h105v-55h-105v-303c0 -22.667 5.33301 -40.334 16 -53.001s27.667 -19 51 -19h38v-62h-51zM294.999 567.001h-58l39 152h70z" />
    <glyph glyph-name="Tbar" unicode="&#x166;" horiz-adv-x="548" 
d="M312 644v-255h120v-59h-120v-330h-76v330h-120v59h120v255h-206v68h488v-68h-206z" />
    <glyph glyph-name="tbar" unicode="&#x167;" horiz-adv-x="332" 
d="M228 0c-21.333 0 -39.834 3.50098 -55.501 10.501s-28.667 16.5 -39 28.5s-18.166 26 -23.499 42s-8 33 -8 51v111h-62v55h62v139h-62v55h62v151h72v-151h105v-55h-105v-139h105v-55h-105v-109c0 -22.667 5.33301 -40.334 16 -53.001s27.667 -19 51 -19h38v-62h-51z" />
    <glyph glyph-name="Utilde" unicode="&#x168;" horiz-adv-x="683" 
d="M590 235c0 -35.333 -6.16895 -67.833 -18.502 -97.5s-29.666 -55.167 -51.999 -76.5s-48.666 -37.833 -78.999 -49.5s-63.5 -17.5 -99.5 -17.5s-69.167 5.83301 -99.5 17.5s-56.5 28.167 -78.5 49.5s-39.167 46.833 -51.5 76.5s-18.5 62.167 -18.5 97.5v477h76v-471
c0 -27.333 4 -52 12 -74s19.5 -40.667 34.5 -56s33.167 -27.333 54.5 -36s45 -13 71 -13s49.667 4.33301 71 13s39.5 20.667 54.5 36s26.667 34 35 56s12.5 46.667 12.5 74v471h76v-477zM499.998 844c-11.333 -11.333 -21.6709 -20.332 -31.0039 -26.999
s-17.666 -11.667 -24.999 -15s-14.166 -5.5 -20.499 -6.5s-12.5 -1.5 -18.5 -1.5c-14.667 0 -27.167 2 -37.5 6s-21.5 9.66699 -33.5 17c-9.33301 5.33301 -18.5 10.166 -27.5 14.499s-18.5 6.5 -28.5 6.5c-8.66699 0 -17 -1.66699 -25 -5s-19.333 -12.333 -34 -27l-37 36
c11.333 11.333 21.5 20.333 30.5 27s17.333 11.834 25 15.501s14.667 6 21 7s12.5 1.5 18.5 1.5c14.667 0 27 -2 37 -6s21.333 -10 34 -18c10.667 -6.66699 20.167 -11.667 28.5 -15s17.5 -5 27.5 -5c4 0 7.83301 0.333008 11.5 1s7.83398 2 12.501 4
s9.83398 5.16699 15.501 9.5s12.167 10.166 19.5 17.499l37 -37v0z" />
    <glyph glyph-name="utilde" unicode="&#x169;" horiz-adv-x="562" 
d="M401 0l0.00195312 55c-17.333 -20 -37.833 -35.167 -61.5 -45.5s-49.5 -15.5 -77.5 -15.5c-54 0 -96.333 15.333 -127 46c-17.333 17.333 -30 37.5 -38 60.5s-12 48.833 -12 77.5v314h72v-303c0 -44 10.667 -76.833 32 -98.5s50.666 -32.5 87.999 -32.5
s67.166 11 89.499 33s33.5 54.667 33.5 98v303h72v-492h-71zM436.002 658c-11.333 -11.333 -21.502 -20.499 -30.502 -27.499s-17.333 -12.167 -25 -15.5s-14.667 -5.5 -21 -6.5s-12.5 -1.5 -18.5 -1.5c-14 0 -26.333 2.16699 -37 6.5s-22 10.166 -34 17.499
c-9.33301 5.33301 -18.5 10 -27.5 14s-18.5 6 -28.5 6c-8.66699 0 -17 -1.66699 -25 -5s-19.333 -12.333 -34 -27l-37 36c11.333 11.333 21.5 20.333 30.5 27s17.333 11.834 25 15.501s14.667 6 21 7s12.5 1.5 18.5 1.5c14.667 0 27 -2 37 -6s21.333 -10 34 -18
c10.667 -6 20.167 -10.833 28.5 -14.5s17.5 -5.5 27.5 -5.5c4 0 7.83301 0.333008 11.5 1s7.83398 2 12.501 4s9.83398 5.16699 15.501 9.5s12.167 10.166 19.5 17.499l37 -36v0z" />
    <glyph glyph-name="Umacron" unicode="&#x16a;" horiz-adv-x="683" 
d="M590 235c0 -35.333 -6.16895 -67.833 -18.502 -97.5s-29.666 -55.167 -51.999 -76.5s-48.666 -37.833 -78.999 -49.5s-63.5 -17.5 -99.5 -17.5s-69.167 5.83301 -99.5 17.5s-56.5 28.167 -78.5 49.5s-39.167 46.833 -51.5 76.5s-18.5 62.167 -18.5 97.5v477h76v-471
c0 -27.333 4 -52 12 -74s19.5 -40.667 34.5 -56s33.167 -27.333 54.5 -36s45 -13 71 -13s49.667 4.33301 71 13s39.5 20.667 54.5 36s26.667 34 35 56s12.5 46.667 12.5 74v471h76v-477zM189.998 855h301v-57h-301v57z" />
    <glyph glyph-name="umacron" unicode="&#x16b;" horiz-adv-x="562" 
d="M401 0l0.00195312 55c-17.333 -20 -37.833 -35.167 -61.5 -45.5s-49.5 -15.5 -77.5 -15.5c-54 0 -96.333 15.333 -127 46c-17.333 17.333 -30 37.5 -38 60.5s-12 48.833 -12 77.5v314h72v-303c0 -44 10.667 -76.833 32 -98.5s50.666 -32.5 87.999 -32.5
s67.166 11 89.499 33s33.5 54.667 33.5 98v303h72v-492h-71zM130.002 602v56h301v-56h-301z" />
    <glyph glyph-name="Ubreve" unicode="&#x16c;" horiz-adv-x="683" 
d="M590 235c0 -35.333 -6.16895 -67.833 -18.502 -97.5s-29.666 -55.167 -51.999 -76.5s-48.666 -37.833 -78.999 -49.5s-63.5 -17.5 -99.5 -17.5s-69.167 5.83301 -99.5 17.5s-56.5 28.167 -78.5 49.5s-39.167 46.833 -51.5 76.5s-18.5 62.167 -18.5 97.5v477h76v-471
c0 -27.333 4 -52 12 -74s19.5 -40.667 34.5 -56s33.167 -27.333 54.5 -36s45 -13 71 -13s49.667 4.33301 71 13s39.5 20.667 54.5 36s26.667 34 35 56s12.5 46.667 12.5 74v471h76v-477zM505.998 933c-8 -92.667 -62.998 -139 -164.998 -139s-157 46.333 -165 139h56
c3.33301 -26.667 14.666 -47.167 33.999 -61.5s44.333 -21.5 75 -21.5s55.667 7.16699 75 21.5s30.666 34.833 33.999 61.5h56v0z" />
    <glyph glyph-name="ubreve" unicode="&#x16d;" horiz-adv-x="562" 
d="M401 0l0.00195312 55c-17.333 -20 -37.833 -35.167 -61.5 -45.5s-49.5 -15.5 -77.5 -15.5c-54 0 -96.333 15.333 -127 46c-17.333 17.333 -30 37.5 -38 60.5s-12 48.833 -12 77.5v314h72v-303c0 -44 10.667 -76.833 32 -98.5s50.666 -32.5 87.999 -32.5
s67.166 11 89.499 33s33.5 54.667 33.5 98v303h72v-492h-71zM442.002 729c-8 -92.667 -62.998 -139 -164.998 -139s-157 46.333 -165 139h56c3.33301 -26.667 14.666 -47.167 33.999 -61.5s44.333 -21.5 75 -21.5s55.667 7.16699 75 21.5s30.666 34.833 33.999 61.5h56v0z
" />
    <glyph glyph-name="Uring" unicode="&#x16e;" horiz-adv-x="683" 
d="M590 235c0 -35.333 -6.16895 -67.833 -18.502 -97.5s-29.666 -55.167 -51.999 -76.5s-48.666 -37.833 -78.999 -49.5s-63.5 -17.5 -99.5 -17.5s-69.167 5.83301 -99.5 17.5s-56.5 28.167 -78.5 49.5s-39.167 46.833 -51.5 76.5s-18.5 62.167 -18.5 97.5v477h76v-471
c0 -27.333 4 -52 12 -74s19.5 -40.667 34.5 -56s33.167 -27.333 54.5 -36s45 -13 71 -13s49.667 4.33301 71 13s39.5 20.667 54.5 36s26.667 34 35 56s12.5 46.667 12.5 74v471h76v-477zM458.998 874c0 -16 -3.16699 -31.333 -9.5 -46s-14.833 -27.334 -25.5 -38.001
s-23.167 -19.167 -37.5 -25.5s-29.5 -9.5 -45.5 -9.5s-31.167 3.16699 -45.5 9.5s-26.833 14.833 -37.5 25.5s-19.167 23.334 -25.5 38.001s-9.5 30 -9.5 46s3.16699 31.167 9.5 45.5s14.833 26.833 25.5 37.5s23.167 19.167 37.5 25.5s29.5 9.5 45.5 9.5s31.167 -3 45.5 -9
s26.833 -14.333 37.5 -25s19.167 -23.167 25.5 -37.5s9.5 -29.833 9.5 -46.5zM409.998 874c0 19.333 -6.66699 35.5 -20 48.5s-29.666 19.5 -48.999 19.5s-35.666 -6.5 -48.999 -19.5s-20 -29.167 -20 -48.5s6.66699 -35.666 20 -48.999s29.666 -20 48.999 -20
s35.666 6.66699 48.999 20s20 29.666 20 48.999z" />
    <glyph glyph-name="uring" unicode="&#x16f;" horiz-adv-x="562" 
d="M401 0l0.00195312 55c-17.333 -20 -37.833 -35.167 -61.5 -45.5s-49.5 -15.5 -77.5 -15.5c-54 0 -96.333 15.333 -127 46c-17.333 17.333 -30 37.5 -38 60.5s-12 48.833 -12 77.5v314h72v-303c0 -44 10.667 -76.833 32 -98.5s50.666 -32.5 87.999 -32.5
s67.166 11 89.499 33s33.5 54.667 33.5 98v303h72v-492h-71zM399.002 687c0 -16 -3.16699 -31.333 -9.5 -46s-14.833 -27.334 -25.5 -38.001s-23.167 -19.167 -37.5 -25.5s-29.5 -9.5 -45.5 -9.5s-31.167 3.16699 -45.5 9.5s-26.833 14.833 -37.5 25.5
s-19.167 23.334 -25.5 38.001s-9.5 30 -9.5 46s3.16699 31.167 9.5 45.5s14.833 26.833 25.5 37.5s23.167 19.167 37.5 25.5s29.5 9.5 45.5 9.5s31.167 -3 45.5 -9s26.833 -14.333 37.5 -25s19.167 -23.167 25.5 -37.5s9.5 -29.833 9.5 -46.5zM350.002 687
c0 19.333 -6.66699 35.5 -20 48.5s-29.666 19.5 -48.999 19.5s-35.666 -6.5 -48.999 -19.5s-20 -29.167 -20 -48.5s6.66699 -35.666 20 -48.999s29.666 -20 48.999 -20s35.666 6.66699 48.999 20s20 29.666 20 48.999z" />
    <glyph glyph-name="Uhungarumlaut" unicode="&#x170;" horiz-adv-x="683" 
d="M590 235c0 -35.333 -6.16895 -67.833 -18.502 -97.5s-29.666 -55.167 -51.999 -76.5s-48.666 -37.833 -78.999 -49.5s-63.5 -17.5 -99.5 -17.5s-69.167 5.83301 -99.5 17.5s-56.5 28.167 -78.5 49.5s-39.167 46.833 -51.5 76.5s-18.5 62.167 -18.5 97.5v477h76v-471
c0 -27.333 4 -52 12 -74s19.5 -40.667 34.5 -56s33.167 -27.333 54.5 -36s45 -13 71 -13s49.667 4.33301 71 13s39.5 20.667 54.5 36s26.667 34 35 56s12.5 46.667 12.5 74v471h76v-477zM286.998 781h-66l89 153h85zM448.998 781h-65l89 153h85z" />
    <glyph glyph-name="uhungarumlaut" unicode="&#x171;" horiz-adv-x="562" 
d="M401 0l0.00195312 55c-17.333 -20 -37.833 -35.167 -61.5 -45.5s-49.5 -15.5 -77.5 -15.5c-54 0 -96.333 15.333 -127 46c-17.333 17.333 -30 37.5 -38 60.5s-12 48.833 -12 77.5v314h72v-303c0 -44 10.667 -76.833 32 -98.5s50.666 -32.5 87.999 -32.5
s67.166 11 89.499 33s33.5 54.667 33.5 98v303h72v-492h-71zM227.002 594h-66l89 153h85zM389.002 594h-65l89 153h85z" />
    <glyph glyph-name="Uogonek" unicode="&#x172;" horiz-adv-x="683" 
d="M590 235c0 -35.333 -6.16895 -67.833 -18.502 -97.5s-29.666 -55.167 -51.999 -76.5s-48.666 -37.833 -78.999 -49.5s-63.5 -17.5 -99.5 -17.5s-69.167 5.83301 -99.5 17.5s-56.5 28.167 -78.5 49.5s-39.167 46.833 -51.5 76.5s-18.5 62.167 -18.5 97.5v477h76v-471
c0 -27.333 4 -52 12 -74s19.5 -40.667 34.5 -56s33.167 -27.333 54.5 -36s45 -13 71 -13s49.667 4.33301 71 13s39.5 20.667 54.5 36s26.667 34 35 56s12.5 46.667 12.5 74v471h76v-477zM418.998 -216h-79l71 149h67z" />
    <glyph glyph-name="uogonek" unicode="&#x173;" horiz-adv-x="562" 
d="M401 0l0.00195312 55c-17.333 -20 -37.833 -35.167 -61.5 -45.5s-49.5 -15.5 -77.5 -15.5c-54 0 -96.333 15.333 -127 46c-17.333 17.333 -30 37.5 -38 60.5s-12 48.833 -12 77.5v314h72v-303c0 -44 10.667 -76.833 32 -98.5s50.666 -32.5 87.999 -32.5
s67.166 11 89.499 33s33.5 54.667 33.5 98v303h72v-492h-71zM409.002 -216h-79l71 149h67z" />
    <glyph glyph-name="Wcircumflex" unicode="&#x174;" horiz-adv-x="854" 
d="M656 0h-71l-158 570l-158 -570h-71l-182 712h81l139 -574l157 574h68l157 -574l139 574h81zM517 780l-90 105l-91 -105h-69l126 153h68l125 -153h-69z" />
    <glyph glyph-name="wcircumflex" unicode="&#x175;" horiz-adv-x="724" 
d="M558 0h-67l-129 382l-128 -382h-67l-156 492h78l113 -395l129 395h62l130 -395l112 395h78zM453 594l-91 104l-90 -104h-69l125 153h68l126 -153h-69z" />
    <glyph glyph-name="Ycircumflex" unicode="&#x176;" horiz-adv-x="514" 
d="M296 294v-294h-76v294l-212 418h82l168 -341l166 341h82zM348 780l-90 105l-91 -105h-69l126 153h68l125 -153h-69z" />
    <glyph glyph-name="ycircumflex" unicode="&#x177;" horiz-adv-x="447" 
d="M212 -119c-9.33301 -26 -21.001 -45.333 -35.001 -58c-13.333 -12.667 -28.333 -21.5 -45 -26.5s-33.667 -7.5 -51 -7.5h-31v64h22c24.667 0 42.334 4.5 53.001 13.5s20 24.833 28 47.5l35 96l-177 482h78l135 -395l134 395h78zM314.999 594l-91 104l-90 -104h-69
l125 153h68l126 -153h-69z" />
    <glyph glyph-name="Ydieresis" unicode="&#x178;" horiz-adv-x="514" 
d="M296 294v-294h-76v294l-212 418h82l168 -341l166 341h82zM328 789v89h72v-89h-72zM116 789v89h72v-89h-72z" />
    <glyph glyph-name="Zacute" unicode="&#x179;" horiz-adv-x="556" 
d="M57 0v72l356 572h-342v68h428v-64l-359 -580h359v-68h-442zM297 780h-69l91 154h83z" />
    <glyph glyph-name="zacute" unicode="&#x17a;" horiz-adv-x="459" 
d="M50 0v62l274 366h-259v64h342v-61l-275 -367h275v-64h-357zM250 594h-69l91 153h83z" />
    <glyph glyph-name="Zdotaccent" unicode="&#x17b;" horiz-adv-x="556" 
d="M57 0v72l356 572h-342v68h428v-64l-359 -580h359v-68h-442zM239 873h75v-76h-75v76z" />
    <glyph glyph-name="zdotaccent" unicode="&#x17c;" horiz-adv-x="459" 
d="M50 0v62l274 366h-259v64h342v-61l-275 -367h275v-64h-357zM193 687h75v-77h-75v77z" />
    <glyph glyph-name="Zcaron" unicode="&#x17d;" horiz-adv-x="556" 
d="M57 0v72l356 572h-342v68h428v-64l-359 -580h359v-68h-442zM318 780h-68l-125 153h69l90 -104l91 104h69z" />
    <glyph glyph-name="zcaron" unicode="&#x17e;" horiz-adv-x="459" 
d="M50 0v62l274 366h-259v64h342v-61l-275 -367h275v-64h-357zM270 594h-68l-126 153h69l91 -105l90 105h69z" />
    <glyph glyph-name="longs" unicode="&#x17f;" horiz-adv-x="252" 
d="M267 712l-0.000976562 -62h-39c-25.333 0 -42.666 -6 -51.999 -18s-14 -30 -14 -54v-578h-72v581c0 37.333 10 68.5 30 93.5s51.667 37.5 95 37.5h52z" />
    <glyph glyph-name="uni018F" unicode="&#x18f;" horiz-adv-x="650" 
d="M74 373l424 -0.00195312c0 34 -0.666992 62.833 -2 86.5s-3.83301 44 -7.5 61s-8.66699 31.5 -15 43.5s-14.833 23.667 -25.5 35c-15.333 16 -33.833 28.5 -55.5 37.5s-44.167 13.5 -67.5 13.5c-44.667 0 -82.167 -12.833 -112.5 -38.5s-50.5 -61.167 -60.5 -106.5h-76
c5.33301 31.333 14.833 60 28.5 86s31.167 48.5 52.5 67.5s46.166 33.667 74.499 44s59.5 15.5 93.5 15.5c72 0 132.667 -24.667 182 -74c16.667 -16.667 29.5 -34 38.5 -52s15.667 -38.167 20 -60.5s6.83301 -47.666 7.5 -75.999s1 -61.5 1 -99.5
s-0.333008 -71.167 -1 -99.5s-3.16699 -53.666 -7.5 -75.999s-11 -42.5 -20 -60.5s-21.833 -35.333 -38.5 -52c-24 -24 -51.5 -42.333 -82.5 -55s-64.167 -19 -99.5 -19c-36.667 0 -71.167 6.83301 -103.5 20.5s-61.166 34.167 -86.499 61.5
c-22 23.333 -37.667 49.5 -47 78.5s-14 64.167 -14 105.5v113zM150 251.998c0 -28 2.99707 -52.168 8.99707 -72.501s16.333 -39.166 31 -56.499c16.667 -20 36.834 -35.167 60.501 -45.5s48.5 -15.5 74.5 -15.5c23.333 0 45.833 4.33301 67.5 13s40.167 21 55.5 37
c10 10 18 20.5 24 31.5s10.833 24 14.5 39s6.33398 32.333 8.00098 52s2.83398 43.5 3.50098 71.5h-348v-54z" />
    <glyph glyph-name="florin" unicode="&#x192;" horiz-adv-x="403" 
d="M323 652c-23.333 0 -41.334 -6.33203 -54.001 -18.999s-21 -30.334 -25 -53.001l-34 -196h105v-54h-115l-97 -550h-72l97 550h-98v54h108l34 198c3.33301 18 9 35 17 51s18.333 30 31 42s27.334 21.5 44.001 28.5s35.667 10.5 57 10.5h52v-62h-50z" />
    <glyph glyph-name="uni01B5" unicode="&#x1b5;" horiz-adv-x="556" 
d="M57 0v72l160 258h-97v59h134l159 255h-342v68h428v-64l-161 -259h98v-59h-134l-162 -262h359v-68h-442z" />
    <glyph glyph-name="uni01B6" unicode="&#x1b6;" horiz-adv-x="459" 
d="M50 0v62l120 160h-52v48h88l118 158h-259v64h342v-61l-121 -161h53v-48h-89l-118 -158h275v-64h-357z" />
    <glyph glyph-name="uni01C4" unicode="&#x1c4;" horiz-adv-x="1229" 
d="M597 356c0 -27.333 -0.333008 -54.168 -1 -80.501s-3 -51.5 -7 -75.5s-10.167 -46.667 -18.5 -68s-20.5 -40.333 -36.5 -57c-24 -26 -51.167 -45 -81.5 -57s-65.5 -18 -105.5 -18h-244v712h244c40 0 75.167 -6 105.5 -18s57.5 -31 81.5 -57
c16 -17.333 28.167 -36.5 36.5 -57.5s14.5 -43.5 18.5 -67.5s6.33301 -49.167 7 -75.5s1 -53.166 1 -80.499zM521 355.998c0 24.667 -0.333008 48.5 -1 71.5s-2.5 44.667 -5.5 65s-7.66699 39 -14 56s-15.166 31.5 -26.499 43.5c-18 20 -39 33.667 -63 41s-49.667 11 -77 11
h-155v-576h155c27.333 0 53 3.66699 77 11s45 21 63 41c11.333 12 20.166 26.5 26.499 43.5s11 35.667 14 56s4.83301 42 5.5 65s1 46.833 1 71.5zM730 -0.00195312v72l356 572h-342v68h428v-64l-359 -580h359v-68h-442zM991 779.998h-68l-125 153h69l90 -104l91 104h69z
" />
    <glyph glyph-name="uni01C5" unicode="&#x1c5;" horiz-adv-x="1132" 
d="M597 356c0 -27.333 -0.333008 -54.168 -1 -80.501s-3 -51.5 -7 -75.5s-10.167 -46.667 -18.5 -68s-20.5 -40.333 -36.5 -57c-24 -26 -51.167 -45 -81.5 -57s-65.5 -18 -105.5 -18h-244v712h244c40 0 75.167 -6 105.5 -18s57.5 -31 81.5 -57
c16 -17.333 28.167 -36.5 36.5 -57.5s14.5 -43.5 18.5 -67.5s6.33301 -49.167 7 -75.5s1 -53.166 1 -80.499zM521 355.998c0 24.667 -0.333008 48.5 -1 71.5s-2.5 44.667 -5.5 65s-7.66699 39 -14 56s-15.166 31.5 -26.499 43.5c-18 20 -39 33.667 -63 41s-49.667 11 -77 11
h-155v-576h155c27.333 0 53 3.66699 77 11s45 21 63 41c11.333 12 20.166 26.5 26.499 43.5s11 35.667 14 56s4.83301 42 5.5 65s1 46.833 1 71.5zM723 -0.00195312v62l274 366h-259v64h342v-61l-275 -367h275v-64h-357zM943 593.998h-68l-126 153h69l91 -105l90 105h69z
" />
    <glyph glyph-name="uni01C6" unicode="&#x1c6;" horiz-adv-x="1004" 
d="M384 0l0.000976562 58.999c-20.667 -26 -42.167 -43.333 -64.5 -52s-47.5 -13 -75.5 -13c-25.333 0 -48.333 3.83301 -69 11.5s-37.667 18.167 -51 31.5c-24.667 25.333 -40.834 56.5 -48.501 93.5s-11.5 75.5 -11.5 115.5c0 20 0.833008 39.833 2.5 59.5
s4.66699 38.5 9 56.5s10.5 35 18.5 51s18 30 30 42c13.333 13.333 30.333 23.833 51 31.5s43.667 11.5 69 11.5c28 0 53 -4.16699 75 -12.5s43.333 -25.166 64 -50.499v277h72v-712h-71zM383.001 245.999c0 24 -1.33301 47.333 -4 70s-8.33398 42.667 -17.001 60
s-21.167 31.333 -37.5 42s-37.833 16 -64.5 16c-27.333 0 -49 -5.33301 -65 -16s-28.5 -24.667 -37.5 -42s-14.833 -37.333 -17.5 -60s-4 -46 -4 -70s1.33301 -47.333 4 -70s8.5 -42.667 17.5 -60s21.5 -31.333 37.5 -42s37.667 -16 65 -16c26.667 0 48.167 5.33301 64.5 16
s28.833 24.667 37.5 42s14.334 37.333 17.001 60s4 46 4 70zM595.001 -0.000976562v62l274 366h-259v64h342v-61l-275 -367h275v-64h-357zM815.001 593.999h-68l-126 153h69l91 -105l90 105h69z" />
    <glyph glyph-name="uni01C7" unicode="&#x1c7;" horiz-adv-x="1074" 
d="M103 0v712h76v-644h364v-68h-440zM981 216c0 -34 -5.49902 -64.833 -16.499 -92.5s-26.333 -51 -46 -70s-43 -33.667 -70 -44s-56.833 -15.5 -89.5 -15.5c-34 0 -64.167 5.16699 -90.5 15.5s-50.5 26.5 -72.5 48.5l51 51c12.667 -13.333 27.167 -24.5 43.5 -33.5
s39.166 -13.5 68.499 -13.5c46.667 0 82.667 14.167 108 42.5s38 68.833 38 121.5v486h76v-496z" />
    <glyph glyph-name="uni01C8" unicode="&#x1c8;" horiz-adv-x="826" 
d="M103 0v712h76v-644h364v-68h-440zM735 -89c0 -18.667 -2.49902 -36 -7.49902 -52s-12.667 -30 -23 -42s-23.333 -21.333 -39 -28s-34.167 -10 -55.5 -10h-52v63h39c25.333 0 42.666 6 51.999 18s14 30 14 54v578h72v-581zM659.001 632v81h81v-81h-81z" />
    <glyph glyph-name="uni01C9" unicode="&#x1c9;" horiz-adv-x="550" 
d="M213 0c-43.333 0 -74.999 12.5 -94.999 37.5s-30 56.167 -30 93.5v581h72v-578c0 -24 4.66699 -42 14 -54s26.666 -18 51.999 -18h39v-62h-52zM459.001 -89c0 -18.667 -2.49902 -36 -7.49902 -52s-12.667 -30 -23 -42s-23.333 -21.333 -39 -28s-34.167 -10 -55.5 -10h-52
v63h39c25.333 0 42.666 6 51.999 18s14 30 14 54v578h72v-581zM383.002 632v81h81v-81h-81z" />
    <glyph glyph-name="uni01CA" unicode="&#x1ca;" horiz-adv-x="1233" 
d="M557 0l-378 571v-571h-76v712h72l378 -569v569h76v-712h-72zM1140 216c0 -34 -5.49902 -64.833 -16.499 -92.5s-26.333 -51 -46 -70s-43 -33.667 -70 -44s-56.833 -15.5 -89.5 -15.5c-34 0 -64.167 5.16699 -90.5 15.5s-50.5 26.5 -72.5 48.5l51 51
c12.667 -13.333 27.167 -24.5 43.5 -33.5s39.166 -13.5 68.499 -13.5c46.667 0 82.667 14.167 108 42.5s38 68.833 38 121.5v486h76v-496z" />
    <glyph glyph-name="uni01CB" unicode="&#x1cb;" horiz-adv-x="985" 
d="M557 0l-378 571v-571h-76v712h72l378 -569v569h76v-712h-72zM894 -89c0 -18.667 -2.49902 -36 -7.49902 -52s-12.667 -30 -23 -42s-23.333 -21.333 -39 -28s-34.167 -10 -55.5 -10h-52v63h39c25.333 0 42.666 6 51.999 18s14 30 14 54v578h72v-581zM818.001 632v81h81
v-81h-81z" />
    <glyph glyph-name="uni01CC" unicode="&#x1cc;" horiz-adv-x="815" 
d="M405 0l0.000976562 303c0 44 -10.833 76.833 -32.5 98.5s-51.167 32.5 -88.5 32.5s-67 -11 -89 -33s-33 -54.667 -33 -98v-303h-72v492h72v-54c17.333 20 37.666 35 60.999 45s49 15 77 15c53.333 0 95.333 -15.333 126 -46c34 -33.333 51 -79 51 -137v-315h-72z
M724.001 -89c0 -18.667 -2.49902 -36 -7.49902 -52s-12.667 -30 -23 -42s-23.333 -21.333 -39 -28s-34.167 -10 -55.5 -10h-52v63h39c25.333 0 42.666 6 51.999 18s14 30 14 54v578h72v-581zM648.002 632v81h81v-81h-81z" />
    <glyph glyph-name="uni01F1" unicode="&#x1f1;" horiz-adv-x="1229" 
d="M597 356c0 -27.333 -0.333008 -54.168 -1 -80.501s-3 -51.5 -7 -75.5s-10.167 -46.667 -18.5 -68s-20.5 -40.333 -36.5 -57c-24 -26 -51.167 -45 -81.5 -57s-65.5 -18 -105.5 -18h-244v712h244c40 0 75.167 -6 105.5 -18s57.5 -31 81.5 -57
c16 -17.333 28.167 -36.5 36.5 -57.5s14.5 -43.5 18.5 -67.5s6.33301 -49.167 7 -75.5s1 -53.166 1 -80.499zM521 355.998c0 24.667 -0.333008 48.5 -1 71.5s-2.5 44.667 -5.5 65s-7.66699 39 -14 56s-15.166 31.5 -26.499 43.5c-18 20 -39 33.667 -63 41s-49.667 11 -77 11
h-155v-576h155c27.333 0 53 3.66699 77 11s45 21 63 41c11.333 12 20.166 26.5 26.499 43.5s11 35.667 14 56s4.83301 42 5.5 65s1 46.833 1 71.5zM730 -0.00195312v72l356 572h-342v68h428v-64l-359 -580h359v-68h-442z" />
    <glyph glyph-name="uni01F2" unicode="&#x1f2;" horiz-adv-x="1132" 
d="M597 356c0 -27.333 -0.333008 -54.168 -1 -80.501s-3 -51.5 -7 -75.5s-10.167 -46.667 -18.5 -68s-20.5 -40.333 -36.5 -57c-24 -26 -51.167 -45 -81.5 -57s-65.5 -18 -105.5 -18h-244v712h244c40 0 75.167 -6 105.5 -18s57.5 -31 81.5 -57
c16 -17.333 28.167 -36.5 36.5 -57.5s14.5 -43.5 18.5 -67.5s6.33301 -49.167 7 -75.5s1 -53.166 1 -80.499zM521 355.998c0 24.667 -0.333008 48.5 -1 71.5s-2.5 44.667 -5.5 65s-7.66699 39 -14 56s-15.166 31.5 -26.499 43.5c-18 20 -39 33.667 -63 41s-49.667 11 -77 11
h-155v-576h155c27.333 0 53 3.66699 77 11s45 21 63 41c11.333 12 20.166 26.5 26.499 43.5s11 35.667 14 56s4.83301 42 5.5 65s1 46.833 1 71.5zM723 -0.00195312v62l274 366h-259v64h342v-61l-275 -367h275v-64h-357z" />
    <glyph glyph-name="uni01F3" unicode="&#x1f3;" horiz-adv-x="1004" 
d="M384 0l0.000976562 58.999c-20.667 -26 -42.167 -43.333 -64.5 -52s-47.5 -13 -75.5 -13c-25.333 0 -48.333 3.83301 -69 11.5s-37.667 18.167 -51 31.5c-24.667 25.333 -40.834 56.5 -48.501 93.5s-11.5 75.5 -11.5 115.5c0 20 0.833008 39.833 2.5 59.5
s4.66699 38.5 9 56.5s10.5 35 18.5 51s18 30 30 42c13.333 13.333 30.333 23.833 51 31.5s43.667 11.5 69 11.5c28 0 53 -4.16699 75 -12.5s43.333 -25.166 64 -50.499v277h72v-712h-71zM383.001 245.999c0 24 -1.33301 47.333 -4 70s-8.33398 42.667 -17.001 60
s-21.167 31.333 -37.5 42s-37.833 16 -64.5 16c-27.333 0 -49 -5.33301 -65 -16s-28.5 -24.667 -37.5 -42s-14.833 -37.333 -17.5 -60s-4 -46 -4 -70s1.33301 -47.333 4 -70s8.5 -42.667 17.5 -60s21.5 -31.333 37.5 -42s37.667 -16 65 -16c26.667 0 48.167 5.33301 64.5 16
s28.833 24.667 37.5 42s14.334 37.333 17.001 60s4 46 4 70zM595.001 -0.000976562v62l274 366h-259v64h342v-61l-275 -367h275v-64h-357z" />
    <glyph glyph-name="Aringacute" unicode="&#x1fa;" horiz-adv-x="611" 
d="M518 0l-57 161h-311l-57 -161h-81l262 712h64l261 -712h-81zM307 603l-134 -376h266zM420 867c0 -16 -3.16699 -31.333 -9.5 -46s-14.833 -27.334 -25.5 -38.001s-23.167 -19.167 -37.5 -25.5s-29.5 -9.5 -45.5 -9.5s-31.167 3.16699 -45.5 9.5
s-26.833 14.833 -37.5 25.5s-19.167 23.334 -25.5 38.001s-9.5 30 -9.5 46s3.16699 31.167 9.5 45.5s14.833 26.833 25.5 37.5s23.167 19.167 37.5 25.5s29.5 9.5 45.5 9.5s31.167 -3 45.5 -9s26.833 -14.333 37.5 -25s19.167 -23.167 25.5 -37.5s9.5 -29.833 9.5 -46.5z
M371 867c0 19.333 -6.66699 35.5 -20 48.5s-29.666 19.5 -48.999 19.5s-35.666 -6.5 -48.999 -19.5s-20 -29.167 -20 -48.5s6.66699 -35.666 20 -48.999s29.666 -20 48.999 -20s35.666 6.66699 48.999 20s20 29.666 20 48.999zM321 994h-69l91 154h83z" />
    <glyph glyph-name="aringacute" unicode="&#x1fb;" horiz-adv-x="526" 
d="M369 0v47c-19.333 -19.333 -39.666 -33 -60.999 -41s-48.333 -12 -81 -12c-34 0 -61.333 3.33301 -82 10s-39.667 18.334 -57 35.001c-12.667 12 -22 26.833 -28 44.5s-9 36.167 -9 55.5c0 44 14.667 78.667 44 104s71.666 38 126.999 38h147v47c0 36 -9.5 63 -28.5 81
s-51.5 27 -97.5 27c-31.333 0 -56 -4.33301 -74 -13s-34.667 -23.334 -50 -44.001l-49 45c21.333 28.667 45.5 48.167 72.5 58.5s60.833 15.5 101.5 15.5c66.667 0 116.167 -14 148.5 -42s48.5 -68.667 48.5 -122v-334h-72zM369 227h-137c-74 0 -111 -29 -111 -87
c0 -28.667 9 -49.834 27 -63.501s47 -20.5 87 -20.5c20.667 0 40 1.83301 58 5.5s35 12.834 51 27.501c16.667 16 25 44.333 25 85v53zM370 687c0 -16 -3.16699 -31.333 -9.5 -46s-14.833 -27.334 -25.5 -38.001s-23.167 -19.167 -37.5 -25.5s-29.5 -9.5 -45.5 -9.5
s-31.167 3.16699 -45.5 9.5s-26.833 14.833 -37.5 25.5s-19.167 23.334 -25.5 38.001s-9.5 30 -9.5 46s3.16699 31.167 9.5 45.5s14.833 26.833 25.5 37.5s23.167 19.167 37.5 25.5s29.5 9.5 45.5 9.5s31.167 -3 45.5 -9s26.833 -14.333 37.5 -25s19.167 -23.167 25.5 -37.5
s9.5 -29.833 9.5 -46.5zM321 687c0 19.333 -6.66699 35.5 -20 48.5s-29.666 19.5 -48.999 19.5s-35.666 -6.5 -48.999 -19.5s-20 -29.167 -20 -48.5s6.66699 -35.666 20 -48.999s29.666 -20 48.999 -20s35.666 6.66699 48.999 20s20 29.666 20 48.999zM272 815h-69l91 153
h83z" />
    <glyph glyph-name="AEacute" unicode="&#x1fc;" horiz-adv-x="922" 
d="M426 0v169h-247l-88 -169h-83l376 712h483v-68h-366v-253h312v-68h-312v-255h366v-68h-441zM426 644l-214 -409h214v409zM493 780h-69l91 154h83z" />
    <glyph glyph-name="aeacute" unicode="&#x1fd;" horiz-adv-x="835" 
d="M440 227c0 -54 12.333 -95.833 37 -125.5s61 -44.5 109 -44.5c28.667 0 52.334 4.5 71.001 13.5s37.667 23.167 57 42.5l50 -43c-12.667 -12.667 -25.334 -23.667 -38.001 -33s-26.167 -17.166 -40.5 -23.499s-30 -11.166 -47 -14.499s-35.833 -5 -56.5 -5
c-39.333 0 -73.666 6.83301 -102.999 20.5s-53.333 35.167 -72 64.5c-22 -32 -46.833 -54.167 -74.5 -66.5s-62.834 -18.5 -105.501 -18.5c-32.667 0 -59.667 3.16699 -81 9.5s-40.666 18.166 -57.999 35.499c-12.667 12 -22 26.833 -28 44.5s-9 36.167 -9 55.5
c0 44 14.667 78.667 44 104s71.666 38 126.999 38h147v47c0 36 -9.5 63 -28.5 81s-51.5 27 -97.5 27c-31.333 0 -56 -4.33301 -74 -13s-34.667 -23.334 -50 -44.001l-49 45c21.333 28.667 45.5 48.167 72.5 58.5s60.833 15.5 101.5 15.5c88 0 145.667 -25.667 173 -77
c34 51.333 85.333 77 154 77c64 0 113.667 -21.167 149 -63.5s53 -100.833 53 -175.5v-32h-333zM232 227c-74 0 -111 -29 -111 -87c0 -28.667 9 -49.834 27 -63.501s47 -20.5 87 -20.5c20.667 0 40 1.83301 58 5.5s35 12.834 51 27.501c16.667 16 25 44.333 25 85v53h-137z
M701 281c-0.666992 10 -1.33105 18.665 -1.99805 25.998s-1.5 14 -2.5 20s-2.33301 11.833 -4 17.5s-3.83398 11.834 -6.50098 18.501c-9.33301 23.333 -24.333 41.5 -45 54.5s-44 19.5 -70 19.5c-26.667 0 -50.167 -6.5 -70.5 -19.5s-35.166 -31.167 -44.499 -54.5
c-2.66699 -7.33301 -4.83398 -13.666 -6.50098 -18.999s-3.16699 -11 -4.5 -17s-2.33301 -12.667 -3 -20s-1.33398 -16 -2.00098 -26h261zM437.003 593.998h-69l91 153h83z" />
    <glyph glyph-name="Oslashacute" unicode="&#x1fe;" horiz-adv-x="650" 
d="M574 356c0 -40.667 -0.500977 -75.5 -1.50098 -104.5s-3.83301 -54.5 -8.5 -76.5s-11.834 -41.667 -21.501 -59s-23.167 -34.666 -40.5 -51.999c-22 -22 -47.667 -39.167 -77 -51.5s-62.666 -18.5 -99.999 -18.5c-24.667 0 -47.334 2.66699 -68.001 8s-40 13 -58 23
l-33 -69h-65l50 104c-18 17.333 -32 34.666 -42 51.999s-17.5 37.166 -22.5 59.499s-8 48.333 -9 78s-1.5 65.167 -1.5 106.5c0 40.667 0.5 75.667 1.5 105s3.83301 55 8.5 77s11.834 41.667 21.501 59s22.834 34.333 39.501 51c22 22 47.833 39.167 77.5 51.5
s63.167 18.5 100.5 18.5c49.333 0 91 -10.333 125 -31l34 69h65l-50 -105c18 -17.333 32 -34.833 42 -52.5s17.5 -37.667 22.5 -60s8 -48.166 9 -77.499s1.5 -64.333 1.5 -105zM151.999 356c0 -32 0.332031 -59.668 0.999023 -83.001s2.33398 -43.833 5.00098 -61.5
s6.16699 -33 10.5 -46s10.5 -24.833 18.5 -35.5l234 492c-26.667 18.667 -58.667 28 -96 28c-24 0 -46.5 -4.16699 -67.5 -12.5s-39.5 -20.833 -55.5 -37.5c-11.333 -11.333 -20.333 -23.666 -27 -36.999s-11.667 -29.166 -15 -47.499s-5.5 -40.333 -6.5 -66
s-1.5 -56.834 -1.5 -93.501zM497.998 355.999c0 32 -0.332031 59.668 -0.999023 83.001s-2.33398 43.833 -5.00098 61.5s-6.16699 33 -10.5 46s-10.5 24.833 -18.5 35.5l-234 -492c28 -18.667 60 -28 96 -28c48.667 0 89.667 16.667 123 50
c11.333 11.333 20.333 23.666 27 36.999s11.667 29.166 15 47.499s5.5 40.333 6.5 66s1.5 56.834 1.5 93.501zM342.999 780h-69l91 154h83z" />
    <glyph glyph-name="oslashacute" unicode="&#x1ff;" 
d="M466 246c0 -38 -3.83301 -73.832 -11.5 -107.499s-23.834 -63.167 -48.501 -88.5c-17.333 -17.333 -37.666 -31 -60.999 -41s-50 -15 -80 -15c-20.667 0 -39.667 2.33301 -57 7s-33.333 11.334 -48 20.001l-38 -65h-57l57 96c-24 25.333 -39.667 54.5 -47 87.5
s-11 68.5 -11 106.5c0 18.667 0.833008 37.167 2.5 55.5s4.66699 35.666 9 51.999s10.333 32 18 47s17.834 28.833 30.501 41.5c17.333 17.333 37.666 31 60.999 41s50 15 80 15c20.667 0 39.667 -2.33301 57 -7s33.333 -11.334 48 -20.001l39 65h56l-57 -96
c24 -25.333 39.667 -54.5 47 -87.5s11 -68.5 11 -106.5zM394 246.001c0 23.333 -1.16895 46.833 -3.50195 70.5s-9.16602 44.5 -20.499 62.5l-177 -299c20.667 -14.667 44.667 -22 72 -22c36 0 66 12 90 36c8.66699 8.66699 15.667 19 21 31s9.33301 24.667 12 38
s4.33398 27 5.00098 41s1 28 1 42zM336.998 413.001c-20 14 -44 21 -72 21c-35.333 0 -65 -12 -89 -36c-9.33301 -9.33301 -16.5 -19.833 -21.5 -31.5s-9 -24.167 -12 -37.5s-4.83301 -27 -5.5 -41s-1 -28 -1 -42c0 -23.333 1.33301 -46.833 4 -70.5s9.66699 -44.5 21 -62.5
zM283.998 594.001h-69l91 153h83z" />
    <glyph glyph-name="Scommaaccent" unicode="&#x218;" horiz-adv-x="588" 
d="M532 196c0 -31.333 -5.83691 -59.5039 -17.5039 -84.5039s-28.167 -46.167 -49.5 -63.5s-47.166 -30.666 -77.499 -39.999s-64.166 -14 -101.499 -14c-26.667 0 -51.167 1.83301 -73.5 5.5s-43.333 9.16699 -63 16.5s-38.167 17 -55.5 29s-34.333 26.333 -51 43l51 51
c29.333 -29.333 59 -49.5 89 -60.5s65 -16.5 105 -16.5c52.667 0 94 11.5 124 34.5s45 55.5 45 97.5c0 38.667 -11.667 68.334 -35 89.001c-5.33301 4.66699 -10.833 8.83398 -16.5 12.501s-12 6.83398 -19 9.50098s-15.167 5 -24.5 7s-20.333 4 -33 6l-83 12
c-56 8.66699 -99.333 26.667 -130 54c-36.667 32.667 -55 77.334 -55 134.001c0 30 5.33301 57.333 16 82s25.834 45.834 45.501 63.501s43.5 31.167 71.5 40.5s59.667 14 95 14c45.333 0 84.333 -6.33301 117 -19s64.334 -32.334 95.001 -59.001l-49 -49
c-21.333 20.667 -45 36.167 -71 46.5s-57.667 15.5 -95 15.5c-48 0 -85.167 -12.167 -111.5 -36.5s-39.5 -56.5 -39.5 -96.5c0 -36.667 10.667 -64.334 32 -83.001c11.333 -9.33301 25 -17 41 -23s33.333 -10.667 52 -14l83 -13c32.667 -5.33301 58.334 -11.5 77.001 -18.5
s36 -17.833 52 -32.5c19.333 -16.667 34.166 -36.667 44.499 -60s15.5 -50 15.5 -80zM204.996 -216.004l71 149h66l-59 -149h-78z" />
    <glyph glyph-name="scommaaccent" unicode="&#x219;" horiz-adv-x="496" 
d="M445 144c0 -47.333 -18.3359 -84.1689 -55.0029 -110.502s-85 -39.5 -145 -39.5c-42 0 -79.5 5.33301 -112.5 16s-62.833 29 -89.5 55l48 48c19.333 -20 42 -34.5 68 -43.5s54.333 -13.5 85 -13.5c41.333 0 73.5 7.16699 96.5 21.5s34.5 36.166 34.5 65.499
c0 22 -6.33301 38.833 -19 50.5s-33.667 18.834 -63 21.501l-81 7c-48 4 -84.5 16.667 -109.5 38s-37.5 52.666 -37.5 93.999c0 22.667 4.5 42.834 13.5 60.501s21.5 32.667 37.5 45s35 21.833 57 28.5s46.333 10 73 10c36 0 68.833 -4.33301 98.5 -13
s55.834 -22 78.501 -40l-47 -47c-17.333 13.333 -37.166 23.166 -59.499 29.499s-46.166 9.5 -71.499 9.5c-36 0 -63.333 -7.16699 -82 -21.5s-28 -34.166 -28 -59.499c0 -22 7 -38.667 21 -50s36.333 -18.666 67 -21.999l77 -7c21.333 -2 41 -5.66699 59 -11
s33.333 -13.166 46 -23.499s22.5 -23.5 29.5 -39.5s10.5 -35.667 10.5 -59zM160.997 -216.003l71 149h66l-59 -149h-78z" />
    <glyph glyph-name="uni021A" unicode="&#x21a;" horiz-adv-x="548" 
d="M312 644v-644h-76v644h-206v68h488v-68h-206zM171 -216l71 149h66l-59 -149h-78z" />
    <glyph glyph-name="uni021B" unicode="&#x21b;" horiz-adv-x="332" 
d="M228 0c-21.333 0 -39.834 3.50098 -55.501 10.501s-28.667 16.5 -39 28.5s-18.166 26 -23.499 42s-8 33 -8 51v305h-62v55h62v151h72v-151h105v-55h-105v-303c0 -22.667 5.33301 -40.334 16 -53.001s27.667 -19 51 -19h38v-62h-51zM90.999 -215.999l71 149h66l-59 -149
h-78z" />
    <glyph glyph-name="uni0237" unicode="&#x237;" horiz-adv-x="253" 
d="M162 -89c0 -18.667 -2.49902 -36 -7.49902 -52s-12.667 -30 -23 -42s-23.333 -21.333 -39 -28s-34.167 -10 -55.5 -10h-52v63h39c25.333 0 42.666 6 51.999 18s14 30 14 54v578h72v-581z" />
    <glyph glyph-name="uni0259" unicode="&#x259;" 
d="M395 265c0 54 -12.1689 95.835 -36.502 125.502s-60.5 44.5 -108.5 44.5c-28.667 0 -52.5 -4.5 -71.5 -13.5s-38.167 -23.167 -57.5 -42.5l-49 43c24.667 24.667 50.5 43.5 77.5 56.5s61.167 19.5 102.5 19.5c32.667 0 62.334 -5 89.001 -15s49.334 -25.333 68.001 -46
s33 -46.834 43 -78.501s15 -69.167 15 -112.5c0 -80.667 -18 -142.834 -54 -186.501s-85.333 -65.5 -148 -65.5c-64.667 0 -114.5 21.167 -149.5 63.5s-52.5 100.833 -52.5 175.5v32h332zM133.998 211.002c1.33301 -20 2.83008 -35.5 4.49707 -46.5s5.5 -22.833 11.5 -35.5
c10.667 -22.667 25.834 -40.667 45.501 -54s42.834 -20 69.501 -20s49.834 6.66699 69.501 20s34.834 31.333 45.501 54c6 12.667 9.66699 24.5 11 35.5s2.66602 26.5 3.99902 46.5h-261z" />
    <glyph glyph-name="uni02BB" unicode="&#x2bb;" horiz-adv-x="263" 
d="M88 628v84l87 79v-163h-87z" />
    <glyph glyph-name="afii57929" unicode="&#x2bc;" horiz-adv-x="263" 
d="M88 549v163h87v-84z" />
    <glyph glyph-name="circumflex" unicode="&#x2c6;" horiz-adv-x="500" 
d="M342 594l-91 104l-90 -104h-69l125 153h68l126 -153h-69z" />
    <glyph glyph-name="caron" unicode="&#x2c7;" horiz-adv-x="500" 
d="M285 594h-68l-126 153h69l91 -105l90 105h69z" />
    <glyph glyph-name="breve" unicode="&#x2d8;" horiz-adv-x="500" 
d="M415 729c-8 -92.667 -62.998 -139 -164.998 -139s-157 46.333 -165 139h56c3.33301 -26.667 14.666 -47.167 33.999 -61.5s44.333 -21.5 75 -21.5s55.667 7.16699 75 21.5s30.666 34.833 33.999 61.5h56v0z" />
    <glyph glyph-name="dotaccent" unicode="&#x2d9;" horiz-adv-x="500" 
d="M212 687h75v-77h-75v77z" />
    <glyph glyph-name="ring" unicode="&#x2da;" horiz-adv-x="500" 
d="M368 687c0 -16 -3.16699 -31.333 -9.5 -46s-14.833 -27.334 -25.5 -38.001s-23.167 -19.167 -37.5 -25.5s-29.5 -9.5 -45.5 -9.5s-31.167 3.16699 -45.5 9.5s-26.833 14.833 -37.5 25.5s-19.167 23.334 -25.5 38.001s-9.5 30 -9.5 46s3.16699 31.167 9.5 45.5
s14.833 26.833 25.5 37.5s23.167 19.167 37.5 25.5s29.5 9.5 45.5 9.5s31.167 -3 45.5 -9s26.833 -14.333 37.5 -25s19.167 -23.167 25.5 -37.5s9.5 -29.833 9.5 -46.5zM319 687c0 19.333 -6.66699 35.5 -20 48.5s-29.666 19.5 -48.999 19.5s-35.666 -6.5 -48.999 -19.5
s-20 -29.167 -20 -48.5s6.66699 -35.666 20 -48.999s29.666 -20 48.999 -20s35.666 6.66699 48.999 20s20 29.666 20 48.999z" />
    <glyph glyph-name="ogonek" unicode="&#x2db;" horiz-adv-x="500" 
d="M310 -216h-79l71 149h67z" />
    <glyph glyph-name="tilde" unicode="&#x2dc;" 
d="M422 658c-11.333 -11.333 -21.502 -20.499 -30.502 -27.499s-17.333 -12.167 -25 -15.5s-14.667 -5.5 -21 -6.5s-12.5 -1.5 -18.5 -1.5c-14 0 -26.333 2.16699 -37 6.5s-22 10.166 -34 17.499c-9.33301 5.33301 -18.5 10 -27.5 14s-18.5 6 -28.5 6
c-8.66699 0 -17 -1.66699 -25 -5s-19.333 -12.333 -34 -27l-37 36c11.333 11.333 21.5 20.333 30.5 27s17.333 11.834 25 15.501s14.667 6 21 7s12.5 1.5 18.5 1.5c14.667 0 27 -2 37 -6s21.333 -10 34 -18c10.667 -6 20.167 -10.833 28.5 -14.5s17.5 -5.5 27.5 -5.5
c4 0 7.83301 0.333008 11.5 1s7.83398 2 12.501 4s9.83398 5.16699 15.501 9.5s12.167 10.166 19.5 17.499l37 -36v0z" />
    <glyph glyph-name="hungarumlaut" unicode="&#x2dd;" horiz-adv-x="500" 
d="M196 594h-66l89 153h85zM358 594h-65l89 153h85z" />
    <glyph glyph-name="uni037E" unicode="&#x37e;" horiz-adv-x="297" 
d="M117 -144v232h88v-153zM115 301v94h94v-94h-94z" />
    <glyph glyph-name="tonos" unicode="&#x384;" horiz-adv-x="255" 
d="M89 575v137h76v-99z" />
    <glyph glyph-name="dieresistonos" unicode="&#x385;" horiz-adv-x="488" 
d="M206 575v137h76v-99zM326 589v90h72v-90h-72zM90 589v90h71v-90h-71z" />
    <glyph glyph-name="Alphatonos" unicode="&#x386;" horiz-adv-x="611" 
d="M518 0l-57 161h-311l-57 -161h-81l262 712h64l261 -712h-81zM307 603l-134 -376h266zM3 575v137h76v-99z" />
    <glyph glyph-name="anoteleia" unicode="&#x387;" horiz-adv-x="270" 
d="M88 223v94h94v-94h-94z" />
    <glyph glyph-name="Epsilontonos" unicode="&#x388;" horiz-adv-x="600" 
d="M103 0v712h442v-68h-366v-251h312v-68h-312v-257h366v-68h-442zM-57 575v137h76v-99z" />
    <glyph glyph-name="Etatonos" unicode="&#x389;" horiz-adv-x="696" 
d="M517 0v325h-338v-325h-76v712h76v-319h338v319h76v-712h-76zM-57 575v137h76v-99z" />
    <glyph glyph-name="Iotatonos" unicode="&#x38a;" horiz-adv-x="282" 
d="M103 0v712h76v-712h-76zM-57 575v137h76v-99z" />
    <glyph glyph-name="Omicrontonos" unicode="&#x38c;" horiz-adv-x="650" 
d="M574 356c0 -40.667 -0.666992 -75.667 -2 -105s-4.33301 -55 -9 -77s-11.834 -41.667 -21.501 -59s-22.834 -34.333 -39.501 -51c-22 -22 -47.667 -39.167 -77 -51.5s-62.666 -18.5 -99.999 -18.5s-70.833 6.16699 -100.5 18.5s-55.5 29.5 -77.5 51.5
c-16.667 16.667 -29.834 33.667 -39.501 51s-16.834 37 -21.501 59s-7.5 47.667 -8.5 77s-1.5 64.333 -1.5 105s0.5 75.667 1.5 105s3.83301 55 8.5 77s11.834 41.667 21.501 59s22.834 34.333 39.501 51c22 22 47.833 39.167 77.5 51.5s63.167 18.5 100.5 18.5
s70.666 -6.16699 99.999 -18.5s55 -29.5 77 -51.5c16.667 -16.667 29.834 -33.667 39.501 -51s16.834 -37 21.501 -59s7.66699 -47.667 9 -77s2 -64.333 2 -105zM498 356c0 36.667 -0.5 67.834 -1.5 93.501s-3.16699 47.667 -6.5 66s-8.33301 34.166 -15 47.499
s-15.667 25.666 -27 36.999c-33.333 33.333 -74.333 50 -123 50s-89.667 -16.667 -123 -50c-11.333 -11.333 -20.333 -23.666 -27 -36.999s-11.667 -29.166 -15 -47.499s-5.5 -40.333 -6.5 -66s-1.5 -56.834 -1.5 -93.501s0.5 -67.834 1.5 -93.501s3.16699 -47.667 6.5 -66
s8.33301 -34.166 15 -47.499s15.667 -25.666 27 -36.999c33.333 -33.333 74.333 -50 123 -50s89.667 16.667 123 50c11.333 11.333 20.333 23.666 27 36.999s11.667 29.166 15 47.499s5.5 40.333 6.5 66s1.5 56.834 1.5 93.501zM-37 575v137h76v-99z" />
    <glyph glyph-name="Upsilontonos" unicode="&#x38e;" horiz-adv-x="514" 
d="M296 294v-294h-76v294l-212 418h82l168 -341l166 341h82zM-107 575v137h76v-99z" />
    <glyph glyph-name="Omegatonos" unicode="&#x38f;" horiz-adv-x="650" 
d="M574 356c0 -52 -1.33301 -95.667 -4 -131s-10.667 -65.666 -24 -90.999c-6 -12.667 -13.333 -24.167 -22 -34.5s-19.667 -21.166 -33 -32.499h83v-67h-195v63c20 9.33301 37.5 19.833 52.5 31.5s28.167 26.834 39.5 45.501s18.666 45 21.999 79s5 79 5 135
c0 36.667 -0.5 68 -1.5 94s-3.16699 48.333 -6.5 67s-8.33301 34.5 -15 47.5s-15.667 25.167 -27 36.5c-33.333 34 -74.333 51 -123 51c-48 0 -89 -17 -123 -51c-11.333 -11.333 -20.333 -23.5 -27 -36.5s-11.667 -28.833 -15 -47.5s-5.5 -41 -6.5 -67
s-1.5 -57.333 -1.5 -94c0 -56 1.66699 -101 5 -135s10.666 -60.333 21.999 -79s24.333 -33.834 39 -45.501s32.334 -22.167 53.001 -31.5v-63h-195v67h83c-13.333 11.333 -24.333 22.166 -33 32.499s-16.334 21.833 -23.001 34.5
c-12.667 25.333 -20.334 55.666 -23.001 90.999s-4 79 -4 131c0 40.667 0.5 75.667 1.5 105s3.83301 55 8.5 77s11.834 41.667 21.501 59s22.834 34.333 39.501 51c22 22 47.833 39.167 77.5 51.5s63.167 18.5 100.5 18.5s70.666 -6.16699 99.999 -18.5s55 -29.5 77 -51.5
c16.667 -16.667 29.834 -33.667 39.501 -51s16.834 -37 21.501 -59s7.66699 -47.667 9 -77s2 -64.333 2 -105zM-37 575v137h76v-99z" />
    <glyph glyph-name="iotadieresistonos" unicode="&#x390;" horiz-adv-x="297" 
d="M213 0c-43.333 0 -74.999 12.333 -94.999 37s-30 56 -30 94v361h72v-358c0 -24 4.66699 -42 14 -54s26.666 -18 51.999 -18h39v-62h-52zM89.001 575v137h76v-99zM209.001 589v90h72v-90h-72zM-26.999 589v90h71v-90h-71z" />
    <glyph glyph-name="Alpha" unicode="&#x391;" horiz-adv-x="611" 
d="M518 0l-57 161h-311l-57 -161h-81l262 712h64l261 -712h-81zM307 603l-134 -376h266z" />
    <glyph glyph-name="Beta" unicode="&#x392;" horiz-adv-x="668" 
d="M592 197c0 -32 -5.16602 -60.332 -15.499 -84.999s-24.833 -45.334 -43.5 -62.001s-41 -29.167 -67 -37.5s-54.667 -12.5 -86 -12.5h-277v712h268c30.667 0 59 -4.33301 85 -13s48.167 -21.167 66.5 -37.5s32.666 -36.166 42.999 -59.499s15.5 -50 15.5 -80
c0 -38 -10 -70.667 -30 -98s-45 -46.666 -75 -57.999c34 -12.667 61.833 -33.334 83.5 -62.001s32.5 -64.334 32.5 -107.001zM516.001 199.001c0 40 -12.833 71.667 -38.5 95s-60.5 35 -104.5 35h-194v-261h194c44 0 78.833 11.833 104.5 35.5s38.5 55.5 38.5 95.5z
M505.001 521.001c0 21.333 -3.66699 39.667 -11 55s-17.166 28 -29.499 38s-27 17.5 -44 22.5s-35.5 7.5 -55.5 7.5h-186v-247h186c20 0 38.5 2.5 55.5 7.5s31.667 12.5 44 22.5s22.166 22.833 29.499 38.5s11 34.167 11 55.5z" />
    <glyph glyph-name="Gamma" unicode="&#x393;" horiz-adv-x="549" 
d="M179 644v-644h-76v712h426v-68h-350z" />
    <glyph glyph-name="uni0394" unicode="&#x394;" horiz-adv-x="603" 
d="M8 0l262 712h63l261 -712h-586zM302 603l-194 -537h387z" />
    <glyph glyph-name="Epsilon" unicode="&#x395;" horiz-adv-x="600" 
d="M103 0v712h442v-68h-366v-251h312v-68h-312v-257h366v-68h-442z" />
    <glyph glyph-name="Zeta" unicode="&#x396;" horiz-adv-x="556" 
d="M57 0v72l356 572h-342v68h428v-64l-359 -580h359v-68h-442z" />
    <glyph glyph-name="Eta" unicode="&#x397;" horiz-adv-x="696" 
d="M517 0v325h-338v-325h-76v712h76v-319h338v319h76v-712h-76z" />
    <glyph glyph-name="Theta" unicode="&#x398;" horiz-adv-x="650" 
d="M574 356c0 -40.667 -0.5 -75.502 -1.5 -104.502s-3.83301 -54.5 -8.5 -76.5s-11.834 -41.667 -21.501 -59s-23.167 -34.666 -40.5 -51.999c-22 -22 -47.667 -39.167 -77 -51.5s-62.666 -18.5 -99.999 -18.5s-70.833 6.16699 -100.5 18.5s-55.5 29.5 -77.5 51.5
c-16.667 16.667 -29.834 33.667 -39.501 51s-16.834 37 -21.501 59s-7.5 47.667 -8.5 77s-1.5 64.333 -1.5 105s0.5 75.667 1.5 105s3.83301 55 8.5 77s11.834 41.667 21.501 59s22.834 34.333 39.501 51c22 22 47.833 39.167 77.5 51.5s63.167 18.5 100.5 18.5
s70.666 -6.16699 99.999 -18.5s55 -29.5 77 -51.5c17.333 -17.333 30.833 -34.666 40.5 -51.999s16.834 -37 21.501 -59s7.5 -47.5 8.5 -76.5s1.5 -63.833 1.5 -104.5zM448 111.998c10 10.667 18.333 22 25 34s11.667 26 15 42s5.83301 35 7.5 57s2.5 48.333 2.5 79h-346
c0 -30.667 0.666992 -57 2 -79s3.83301 -41 7.5 -57s8.66699 -30 15 -42s14.833 -23.333 25.5 -34c16 -16.667 34.5 -29.167 55.5 -37.5s43.5 -12.5 67.5 -12.5c48.667 0 89.667 16.667 123 50zM202 599.998c-10 -10.667 -18.333 -22 -25 -34s-11.667 -26 -15 -42
s-5.83301 -34.667 -7.5 -56s-2.5 -47 -2.5 -77h346c0 30 -0.833008 55.667 -2.5 77s-4.16699 40 -7.5 56s-8.33301 30 -15 42s-15 23.333 -25 34c-33.333 33.333 -74.333 50 -123 50c-24 0 -46.5 -4.16699 -67.5 -12.5s-39.5 -20.833 -55.5 -37.5z" />
    <glyph glyph-name="Iota" unicode="&#x399;" horiz-adv-x="282" 
d="M103 0v712h76v-712h-76z" />
    <glyph glyph-name="Kappa" unicode="&#x39a;" horiz-adv-x="650" 
d="M546 0l-217 379l-150 -180v-199h-76v712h76v-409l332 409h93l-224 -275l256 -437h-90z" />
    <glyph glyph-name="Lambda" unicode="&#x39b;" horiz-adv-x="598" 
d="M488 0l-188 604l-190 -604h-80l234 712h70l234 -712h-80z" />
    </font>
</defs>
</svg>
