<?xml version="1.0" encoding="utf-8"?>
<!-- Generator: Adobe Illustrator 15.0.0, SVG Export Plug-In . SVG Version: 6.00 Build 0)  -->
<!DOCTYPE svg PUBLIC "-//W3C//DTD SVG 1.1//EN" "http://www.w3.org/Graphics/SVG/1.1/DTD/svg11.dtd">
<svg version="1.1" id="Layer_1" xmlns="http://www.w3.org/2000/svg" xmlns:xlink="http://www.w3.org/1999/xlink" x="0px" y="0px"
	 width="36px" height="36px" viewBox="0 0 36 36" enable-background="new 0 0 36 36" xml:space="preserve">
<g>
	<defs>
		<rect id="SVGID_1_" y="4.395" width="36" height="28.605"/>
	</defs>
	<clipPath id="SVGID_2_">
		<use xlink:href="#SVGID_1_"  overflow="visible"/>
	</clipPath>
	<path clip-path="url(#SVGID_2_)" fill="#314658" d="M34.948,16.445H10.022c-0.675,0-0.976-0.826-0.525-1.276l7.207-7.208
		c0.451-0.45,0.451-1.126,0-1.576l-1.651-1.652c-0.451-0.451-1.127-0.451-1.577,0L0.337,17.947c-0.45,0.45-0.45,1.126,0,1.576
		l13.139,13.139c0.45,0.45,1.126,0.45,1.577,0l1.576-1.577c0.451-0.449,0.451-1.126,0-1.575l-7.207-7.208
		c-0.451-0.526-0.15-1.352,0.525-1.352h24.926c0.601,0,1.126-0.45,1.126-1.052v-2.252C36,17.045,35.55,16.445,34.948,16.445"/>
</g>
</svg>
