<?xml version="1.0" encoding="utf-8"?>
<!-- Generator: Adobe Illustrator 17.1.0, SVG Export Plug-In . SVG Version: 6.00 Build 0)  -->
<!DOCTYPE svg PUBLIC "-//W3C//DTD SVG 1.1//EN" "http://www.w3.org/Graphics/SVG/1.1/DTD/svg11.dtd">
<svg version="1.1" id="Layer_1" xmlns="http://www.w3.org/2000/svg" xmlns:xlink="http://www.w3.org/1999/xlink" x="0px" y="0px"
	 viewBox="0 0 30 30" enable-background="new 0 0 30 30" xml:space="preserve">
<g>
	<defs>
		<rect id="SVGID_1_" width="30" height="30"/>
	</defs>
	<clipPath id="SVGID_2_">
		<use xlink:href="#SVGID_1_"  overflow="visible"/>
	</clipPath>
	<path clip-path="url(#SVGID_2_)" fill="#A8B8D0" d="M17.1,15.1c-0.2-0.2-0.3-0.4-0.3-0.7v-6c0-0.5-0.4-0.9-0.9-0.9h-1.9
		c-0.5,0-0.9,0.4-0.9,0.9V16c0,0.3,0.1,0.5,0.3,0.7l4.6,4.6c0.4,0.4,0.9,0.4,1.3,0l1.3-1.3c0.4-0.4,0.4-0.9,0-1.3L17.1,15.1z
		 M15,26.3C8.8,26.3,3.8,21.2,3.8,15C3.8,8.8,8.8,3.8,15,3.8c6.2,0,11.3,5.1,11.3,11.3C26.3,21.2,21.2,26.3,15,26.3 M15,0
		C6.8,0,0,6.8,0,15s6.8,15,15,15s15-6.8,15-15S23.3,0,15,0"/>
</g>
</svg>
