<?xml version="1.0" encoding="utf-8"?>
<!-- Generator: Adobe Illustrator 17.1.0, SVG Export Plug-In . SVG Version: 6.00 Build 0)  -->
<!DOCTYPE svg PUBLIC "-//W3C//DTD SVG 1.1//EN" "http://www.w3.org/Graphics/SVG/1.1/DTD/svg11.dtd">
<svg version="1.1" id="Layer_1" xmlns="http://www.w3.org/2000/svg" xmlns:xlink="http://www.w3.org/1999/xlink" x="0px" y="0px"
	 viewBox="0 0 90 90" enable-background="new 0 0 90 90" xml:space="preserve">
<g>
	<defs>
		<rect id="SVGID_1_" width="90" height="90"/>
	</defs>
	<clipPath id="SVGID_2_">
		<use xlink:href="#SVGID_1_"  overflow="visible"/>
	</clipPath>
	<path clip-path="url(#SVGID_2_)" fill="#69CAE3" d="M45,90c24.9,0,45-20.1,45-45S69.9,0,45,0S0,20.1,0,45S20.1,90,45,90"/>
	<path clip-path="url(#SVGID_2_)" fill="#FFFFFF" d="M45,25.9c-11.5,0-20.8,8.5-20.8,19c0,3.4,1,6.5,2.6,9.3
		c0.2,0.3,0.3,0.8,0.2,1.1l-1.9,6c-0.3,1.1,0.7,2.1,1.8,1.7l6.1-2.1c0.4-0.2,0.9-0.1,1.2,0.2c3.2,1.8,6.9,2.9,10.9,2.9
		c11.5,0,20.8-8.5,20.8-19C65.6,34.4,56.3,25.9,45,25.9"/>
</g>
</svg>
