<?xml version="1.0" encoding="utf-8"?>
<!-- Generator: Adobe Illustrator 17.1.0, SVG Export Plug-In . SVG Version: 6.00 Build 0)  -->
<!DOCTYPE svg PUBLIC "-//W3C//DTD SVG 1.1//EN" "http://www.w3.org/Graphics/SVG/1.1/DTD/svg11.dtd">
<svg version="1.1" id="Layer_1" xmlns="http://www.w3.org/2000/svg" xmlns:xlink="http://www.w3.org/1999/xlink" x="0px" y="0px"
	 viewBox="0 0 25 25" enable-background="new 0 0 25 25" xml:space="preserve">
<g>
	<defs>
		<rect id="SVGID_1_" width="25" height="25"/>
	</defs>
	<clipPath id="SVGID_2_">
		<use xlink:href="#SVGID_1_"  overflow="visible"/>
	</clipPath>
	<path clip-path="url(#SVGID_2_)" fill="#FFFFFF" d="M13.3,0.6l2.4,7.6c0.1,0.3,0.4,0.5,0.7,0.5h7.8c0.8,0,1.1,1.1,0.5,1.6l-6.4,4.9
		c-0.3,0.2-0.4,0.6-0.3,0.9l2.5,7.8c0.2,0.8-0.6,1.4-1.2,0.9L13,20c-0.3-0.2-0.6-0.2-0.9,0l-6.4,4.8c-0.6,0.5-1.5-0.2-1.2-0.9
		l2.4-7.8c0.1-0.3,0-0.7-0.3-0.9l-6.4-4.9c-0.6-0.5-0.3-1.6,0.5-1.6h7.8c0.4,0,0.6-0.1,0.7-0.5l2.5-7.7C12-0.2,13-0.2,13.3,0.6"/>
</g>
</svg>
