<?xml version="1.0" encoding="utf-8"?>
<!-- Generator: Adobe Illustrator 17.1.0, SVG Export Plug-In . SVG Version: 6.00 Build 0)  -->
<!DOCTYPE svg PUBLIC "-//W3C//DTD SVG 1.1//EN" "http://www.w3.org/Graphics/SVG/1.1/DTD/svg11.dtd">
<svg version="1.1" id="Layer_1" xmlns="http://www.w3.org/2000/svg" xmlns:xlink="http://www.w3.org/1999/xlink" x="0px" y="0px"
	 viewBox="0 0 90 90" enable-background="new 0 0 90 90" xml:space="preserve">
<g>
	<defs>
		<rect id="SVGID_1_" width="90" height="90"/>
	</defs>
	<clipPath id="SVGID_2_">
		<use xlink:href="#SVGID_1_"  overflow="visible"/>
	</clipPath>
	<path clip-path="url(#SVGID_2_)" fill="#50BF78" d="M45,90c24.9,0,45-20.1,45-45S69.9,0,45,0S0,20.1,0,45S20.1,90,45,90"/>
	<path clip-path="url(#SVGID_2_)" fill="#FFFFFF" d="M38.9,59.2L24.7,44.9c-0.5-0.5-0.5-1.4,0-1.9l1.9-1.9c0.5-0.5,1.4-0.5,1.9,0
		l10.7,10.8c0.3,0.3,1,0.3,1.3,0l21-21.2c0.5-0.5,1.4-0.5,1.9,0l1.9,1.9c0.5,0.5,0.5,1.4,0,1.9L40.8,59.2
		C40.3,59.9,39.5,59.9,38.9,59.2"/>
</g>
</svg>
