<?xml version="1.0" encoding="utf-8"?>
<!-- Generator: Adobe Illustrator 17.1.0, SVG Export Plug-In . SVG Version: 6.00 Build 0)  -->
<!DOCTYPE svg PUBLIC "-//W3C//DTD SVG 1.1//EN" "http://www.w3.org/Graphics/SVG/1.1/DTD/svg11.dtd">
<svg version="1.1" id="Layer_1" xmlns="http://www.w3.org/2000/svg" xmlns:xlink="http://www.w3.org/1999/xlink" x="0px" y="0px"
	 viewBox="0 0 90 90" enable-background="new 0 0 90 90" xml:space="preserve">
<g>
	<defs>
		<rect id="SVGID_1_" width="90" height="90"/>
	</defs>
	<clipPath id="SVGID_2_">
		<use xlink:href="#SVGID_1_"  overflow="visible"/>
	</clipPath>
	<path clip-path="url(#SVGID_2_)" fill="#ED80AD" d="M45,90c24.9,0,45-20.1,45-45S69.9,0,45,0S0,20.1,0,45S20.1,90,45,90"/>
	<path clip-path="url(#SVGID_2_)" fill="#FFFFFF" d="M51.9,34.6c-8.7,0-16.5,7.7-17.2,16.8c-0.1,0.7,0.5,1.4,1.3,1.4h2.6
		c0.7,0,1.2-0.5,1.3-1.1c0.6-6.5,6.1-11.9,12.9-11.9h1.4c0.8,0,1.1,1,0.6,1.5L50,46.1c-0.5,0.5-0.5,1.3,0,1.8l1.8,1.8
		c0.5,0.5,1.3,0.5,1.8,0l11.8-11.7c0.5-0.5,0.5-1.3,0-1.8L53.7,24.6c-0.5-0.5-1.3-0.5-1.8,0l-1.8,1.8c-0.5,0.5-0.6,1.3-0.1,1.8
		l4.8,4.8c0.5,0.5,0.2,1.5-0.6,1.5L51.9,34.6z M64.4,48.5h-2.6c-0.7,0-1.3,0.6-1.3,1.3v9.5c0,0.7-0.6,1.3-1.3,1.3H30.7
		c-0.7,0-1.3-0.6-1.3-1.3V41.1c0-0.7,0.6-1.3,1.3-1.3h3.5c0.7,0,1.3-0.6,1.3-1.3v-2.6c0-0.7-0.6-1.3-1.3-1.3h-6.5
		c-1.9,0-3.5,1.6-3.5,3.5v24.2c0,1.9,1.6,3.5,3.5,3.5h34.6c1.9,0,3.5-1.6,3.5-3.5V49.8C65.7,49.1,65.1,48.5,64.4,48.5"/>
</g>
</svg>
