<?xml version="1.0" encoding="utf-8"?>
<!-- Generator: Adobe Illustrator 17.1.0, SVG Export Plug-In . SVG Version: 6.00 Build 0)  -->
<!DOCTYPE svg PUBLIC "-//W3C//DTD SVG 1.1//EN" "http://www.w3.org/Graphics/SVG/1.1/DTD/svg11.dtd">
<svg version="1.1" id="Layer_1" xmlns="http://www.w3.org/2000/svg" xmlns:xlink="http://www.w3.org/1999/xlink" x="0px" y="0px"
	 viewBox="0 0 30 30" enable-background="new 0 0 30 30" xml:space="preserve">
<g>
	<defs>
		<rect id="SVGID_1_" width="30" height="30"/>
	</defs>
	<clipPath id="SVGID_2_">
		<use xlink:href="#SVGID_1_"  overflow="visible"/>
	</clipPath>
	<path clip-path="url(#SVGID_2_)" fill="#A8B8D0" d="M15,0c4.1,0,7.4,3.7,7.4,8.3c0,4.6-3.3,8.3-7.4,8.3s-7.4-3.7-7.4-8.3
		C7.6,3.7,10.9,0,15,0 M30,25.6V27c0,1.6-1.4,3-3,3H3c-1.6,0-3-1.4-3-3v-1.4C0,22,4.3,19.8,8.3,18l0.4-0.2c0.3-0.1,0.6-0.1,0.9,0.1
		c1.6,1.1,3.4,1.6,5.4,1.6c1.9,0,3.8-0.6,5.4-1.6c0.3-0.2,0.6-0.2,0.9-0.1l0.4,0.2C25.8,19.8,30,21.9,30,25.6"/>
</g>
</svg>
