<?xml version="1.0" encoding="utf-8"?>
<!-- Generator: Adobe Illustrator 16.0.0, SVG Export Plug-In . SVG Version: 6.00 Build 0)  -->
<!DOCTYPE svg PUBLIC "-//W3C//DTD SVG 1.1//EN" "http://www.w3.org/Graphics/SVG/1.1/DTD/svg11.dtd">
<svg version="1.1" id="Layer_1" xmlns="http://www.w3.org/2000/svg" xmlns:xlink="http://www.w3.org/1999/xlink" x="0px" y="0px"
	 width="60px" height="61px" viewBox="0 0 60 61" enable-background="new 0 0 60 61" xml:space="preserve">
<path fill-rule="evenodd" clip-rule="evenodd" fill="#FFFFFF" stroke="#1E69B3" stroke-width="2" stroke-miterlimit="10" d="
	M57.969,30.546c0,15.464-12.537,28-28,28c-12.8,0-28-12.536-28-28s12.535-28,28-28C45.432,2.546,57.969,15.082,57.969,30.546z"/>
<g id="Expanded_1_">
	<g>
		<g>
			<path fill="#1C69B3" d="M39.676,44.843H20.063V21.191h19.613V44.843z M21.217,43.689h17.305V22.346H21.217V43.689z"/>
		</g>
		<g>
			<path fill="#1C69B3" d="M36.215,22.346H23.523V17.73h12.691V22.346z M24.678,21.191h10.383v-2.307H24.678V21.191z"/>
		</g>
		<g>
			<path fill="#1C69B3" d="M25.254,40.805c-0.318,0-0.576-0.258-0.576-0.576V25.807c0-0.319,0.258-0.577,0.576-0.577
				c0.319,0,0.577,0.258,0.577,0.577v14.422C25.831,40.547,25.573,40.805,25.254,40.805z"/>
		</g>
		<g>
			<path fill="#1C69B3" d="M29.869,40.805c-0.318,0-0.577-0.258-0.577-0.576V25.807c0-0.319,0.259-0.577,0.577-0.577
				c0.319,0,0.577,0.258,0.577,0.577v14.422C30.446,40.547,30.188,40.805,29.869,40.805z"/>
		</g>
		<g>
			<path fill="#1C69B3" d="M34.484,40.805c-0.319,0-0.577-0.258-0.577-0.576V25.807c0-0.319,0.258-0.577,0.577-0.577
				c0.318,0,0.576,0.258,0.576,0.577v14.422C35.061,40.547,34.803,40.805,34.484,40.805z"/>
		</g>
		<g>
			<rect x="16.024" y="21.191" fill="#1C69B3" width="27.689" height="1.154"/>
		</g>
	</g>
</g>
</svg>
