<?xml version="1.0" encoding="utf-8"?>
<!-- Generator: Adobe Illustrator 16.0.0, SVG Export Plug-In . SVG Version: 6.00 Build 0)  -->
<!DOCTYPE svg PUBLIC "-//W3C//DTD SVG 1.1//EN" "http://www.w3.org/Graphics/SVG/1.1/DTD/svg11.dtd">
<svg version="1.1" id="Layer_1" xmlns="http://www.w3.org/2000/svg" xmlns:xlink="http://www.w3.org/1999/xlink" x="0px" y="0px"
	 width="59px" height="60px" viewBox="0 0 59 60" enable-background="new 0 0 59 60" xml:space="preserve">
<path fill-rule="evenodd" clip-rule="evenodd" fill="none" stroke="#1E69B3" stroke-width="2" stroke-miterlimit="10" d="
	M57.547,29.8c0,15.464-12.537,28-28,28c-12.8,0-28-12.538-28-28c0-15.464,12.535-28,28-28C45.01,1.8,57.547,14.336,57.547,29.8z"/>
<rect x="14.08" y="15.14" fill="none" width="30.934" height="30.934"/>
<polyline fill="none" stroke="#1C69B3" stroke-width="2" stroke-linecap="round" stroke-linejoin="round" stroke-miterlimit="10" points="
	40.65,22.894 20.569,42.974 15.936,44.218 17.179,39.585 37.261,19.503 "/>
<path fill="#1C69B3" d="M42.384,22.029c-0.003,0.003,0.51-0.511,0.51-0.511c1.176-1.175,1.176-3.082,0.002-4.259
	c-1.179-1.176-3.084-1.175-4.261,0c0,0-0.514,0.515-0.51,0.512L42.384,22.029z"/>
<polygon fill="#1C69B3" points="17.292,39.472 20.683,42.863 16.229,43.925 "/>
</svg>
