<?xml version="1.0" encoding="utf-8"?>
<!-- Generator: Adobe Illustrator 16.0.0, SVG Export Plug-In . SVG Version: 6.00 Build 0)  -->
<!DOCTYPE svg PUBLIC "-//W3C//DTD SVG 1.1//EN" "http://www.w3.org/Graphics/SVG/1.1/DTD/svg11.dtd">
<svg version="1.1" id="Layer_4" xmlns="http://www.w3.org/2000/svg" xmlns:xlink="http://www.w3.org/1999/xlink" x="0px" y="0px"
	 width="35px" height="35px" viewBox="0 0 35 35" enable-background="new 0 0 35 35" xml:space="preserve">
<g id="Accept_Icon" display="none">
	<g display="inline">
		<path fill-rule="evenodd" clip-rule="evenodd" fill="#FFFFFF" d="M18.019,10.037c-4.418,0-8,3.582-8,8.001c0,4.418,3.582,8,8,8
			s8-3.582,8-8C26.019,13.619,22.437,10.037,18.019,10.037z M22.07,15.101l-3.701,6.958c-0.17,0.318-0.498,0.526-0.858,0.544
			c-0.017,0.001-0.033,0.001-0.05,0.001c-0.346,0-0.666-0.172-0.857-0.459l-2.467-3.72c-0.303-0.454-0.195-1.066,0.241-1.393
			c0.179-0.134,0.392-0.204,0.614-0.204c0.307,0,0.594,0.135,0.789,0.369l1.526,1.824l2.975-4.935
			c0.185-0.308,0.522-0.498,0.881-0.498c0.177,0,0.353,0.047,0.507,0.134c0.234,0.133,0.404,0.349,0.48,0.607
			C22.224,14.589,22.197,14.862,22.07,15.101z"/>
	</g>
</g>
<g id="Archive_Icon_2" display="none">
	<g display="inline">
		<path fill-rule="evenodd" clip-rule="evenodd" fill="#FFFFFF" d="M26.738,10.031H15.814c-0.428,0-0.775,0.339-0.775,0.757v1.043
			h1.352v-0.061c0-0.265,0.221-0.479,0.49-0.479h8.852c0.271,0,0.49,0.215,0.49,0.479v6.242c0,0.165-0.137,0.3-0.307,0.3v1.319
			h0.822c0.428,0,0.775-0.339,0.775-0.758v-8.086C27.513,10.37,27.167,10.031,26.738,10.031z M24.162,12.551h-10.93
			c-0.428,0-0.773,0.339-0.773,0.757v1.043h1.289c0-0.264,0.221-0.479,0.49-0.479h8.656c0.379,0,0.686,0.301,0.686,0.671v6.051
			c0,0.165-0.137,0.3-0.307,0.3H23.15v1.261h0.947c0.428,0,0.773-0.339,0.773-0.758v-8.153
			C24.871,12.861,24.554,12.551,24.162,12.551z M23.033,22.873h-0.742v-4.262c0-0.862-0.715-1.56-1.598-1.56H15.96v0.011
			l-0.477-1.019c-0.26-0.556-0.828-0.912-1.453-0.912h-3.908c-0.883,0-1.598,0.698-1.598,1.561v0.356v2.583v5.487
			c0,0.484,0.4,0.876,0.895,0.879l12.133,0.046c0.438,0.002,0.838-0.246,1.02-0.635l0.891-1.882c0.066-0.143,0.055-0.31-0.031-0.442
			C23.343,22.953,23.193,22.873,23.033,22.873z"/>
	</g>
</g>
<g id="Print" display="none">
	<g display="inline">
		<path fill-rule="evenodd" clip-rule="evenodd" fill="#FFFFFF" d="M20.019,22.037h-5v1h5V22.037z M14.019,11.037h8v2h1v-2
			c0-0.552-0.447-1-1-1h-8c-0.553,0-1,0.448-1,1v2h1V11.037z M21.019,20.037h-6v1h6V20.037z M25.019,14.037h-14
			c-0.553,0-1,0.448-1,1v6c0,0.553,0.447,1,1,1h2v3c0,0.553,0.447,1,1,1h8c0.553,0,1-0.447,1-1v-3h2c0.553,0,1-0.447,1-1v-6
			C26.019,14.485,25.572,14.037,25.019,14.037z M22.019,25.037h-8v-6h8V25.037z M24.019,17.037c-0.553,0-1-0.447-1-1
			c0-0.552,0.447-1,1-1s1,0.448,1,1C25.019,16.59,24.572,17.037,24.019,17.037z"/>
	</g>
</g>
<g id="Layer_3">
	<g id="Layer_5">
	</g>
</g>
<g id="Print_2_">
	<g id="PDF">
		<g>
			<path fill-rule="evenodd" clip-rule="evenodd" fill="#FFFFFF" d="M14.48,20.235c0-0.432-0.316-0.688-0.875-0.688
				c-0.229,0-0.383,0.021-0.463,0.042v1.383C13.238,20.992,13.355,21,13.517,21C14.113,21,14.48,20.715,14.48,20.235z
				 M17.941,19.561c-0.25,0-0.412,0.021-0.508,0.042v3.065c0.096,0.021,0.25,0.021,0.391,0.021c1.016,0.006,1.678-0.521,1.678-1.641
				C19.509,20.075,18.906,19.561,17.941,19.561z M24.57,17.76h-0.406v-1.854c0-0.012-0.002-0.023-0.004-0.035
				c0-0.073-0.025-0.146-0.078-0.203l-3.266-3.524c-0.002,0-0.002-0.001-0.004-0.002c-0.02-0.021-0.041-0.037-0.066-0.052
				c-0.006-0.005-0.014-0.009-0.021-0.013c-0.02-0.011-0.043-0.02-0.064-0.026c-0.006-0.001-0.012-0.004-0.018-0.005
				c-0.025-0.006-0.051-0.009-0.076-0.009h-8.029c-0.365,0-0.664,0.281-0.664,0.627v5.096h-0.406c-0.523,0-0.949,0.401-0.949,0.896
				v4.664c0,0.495,0.426,0.896,0.949,0.896h0.406v3.192c0,0.346,0.299,0.628,0.664,0.628H23.5c0.365,0,0.664-0.282,0.664-0.628
				v-3.192h0.406c0.525,0,0.951-0.401,0.951-0.896v-4.664C25.521,18.161,25.095,17.76,24.57,17.76z M12.537,12.664h7.695v3.21
				c0,0.174,0.15,0.314,0.334,0.314H23.5v1.571H12.537V12.664z M20.693,21.014c0,0.896-0.346,1.515-0.824,1.897
				c-0.521,0.41-1.318,0.604-2.289,0.604c-0.58,0-0.992-0.034-1.273-0.069v-4.602c0.412-0.063,0.951-0.098,1.518-0.098
				c0.941,0,1.553,0.16,2.031,0.501C20.369,19.609,20.693,20.187,20.693,21.014z M12.031,23.468L12.031,23.468v-4.623
				c0.346-0.056,0.83-0.098,1.516-0.098c0.691,0,1.186,0.126,1.516,0.376c0.316,0.236,0.529,0.626,0.529,1.084
				c0,0.459-0.16,0.849-0.455,1.112c-0.383,0.341-0.949,0.494-1.613,0.494c-0.146,0-0.279-0.008-0.381-0.021v1.676H12.031z
				 M23.5,27.239H12.537v-3.022H23.5V27.239z M24.462,19.651h-1.906v1.07h1.781v0.862h-1.781v1.883h-1.127v-4.685h3.033V19.651z"/>
		</g>
	</g>
</g>
<g id="Layer_6">
	<g id="edit_3_">
		<g>
			<path fill-rule="evenodd" clip-rule="evenodd" fill="#454545" d="M11,26l1.74-0.228l-1.514-1.514L11,26z M11.495,22.21
				l-0.18,1.368l2.105,2.105l1.369-0.178l9.318-9.317l-3.297-3.296L11.495,22.21z M26.834,12.638l-2.473-2.472
				C24.25,10.055,24.106,10,23.958,10c-0.156,0-0.314,0.061-0.436,0.182l-2.248,2.249l3.295,3.296l2.248-2.249
				C27.055,13.241,27.061,12.865,26.834,12.638z"/>
		</g>
	</g>
</g>
</svg>
