<?xml version="1.0" encoding="utf-8"?>
<!-- Generator: Adobe Illustrator 16.0.0, SVG Export Plug-In . SVG Version: 6.00 Build 0)  -->
<!DOCTYPE svg PUBLIC "-//W3C//DTD SVG 1.1//EN" "http://www.w3.org/Graphics/SVG/1.1/DTD/svg11.dtd">
<svg version="1.1" id="Layer_1" xmlns="http://www.w3.org/2000/svg" xmlns:xlink="http://www.w3.org/1999/xlink" x="0px" y="0px"
	 width="24px" height="24px" viewBox="0 0 50 27" enable-background="new 0 0 50 27" xml:space="preserve">
<g id="Shape_1_7_">
	<g>
		<path fill-rule="evenodd" clip-rule="evenodd" fill="#fff" d="M47.14,6.998h-3.627v-2.57C43.513,2.537,42.186,1,40.231,1H4.054
			C2.099,1,0.509,2.537,0.509,4.428v18.135c0,1.891,1.59,3.428,3.545,3.428h36.178c1.954,0,3.281-1.537,3.281-3.428v-2.57h3.627
			c1.306,0,2.363-1.021,2.363-2.283V9.283C49.503,8.021,48.445,6.998,47.14,6.998z M41.507,22.813c0,0.648-0.536,1.174-1.196,1.174
			H3.692c-0.66,0-1.195-0.525-1.195-1.174V4.178c0-0.647,0.535-1.174,1.195-1.174h36.618c0.66,0,1.196,0.526,1.196,1.174V22.813z
			 M20.507,8.994l-11,9l10-5l5,5l10-9l-9,5L20.507,8.994z"/>
	</g>
</g>
</svg>
