<?xml version="1.0" encoding="utf-8"?>
<!-- Generator: Adobe Illustrator 19.0.0, SVG Export Plug-In . SVG Version: 6.00 Build 0)  -->
<svg version="1.1" id="Layer_1" xmlns="http://www.w3.org/2000/svg" xmlns:xlink="http://www.w3.org/1999/xlink" x="0px" y="0px"
	 viewBox="0 0 96 96" style="enable-background:new 0 0 96 96;" xml:space="preserve" width="22px" height="28px">
<style type="text/css">
	.st0{fill:#1568b6;}
</style>
<g id="XMLID_2_">
	<path id="XMLID_7_" class="st0" d="M71.6,70.6V37.2c0-0.3-0.1-0.5-0.3-0.7s-0.4-0.3-0.7-0.3H37.2c-0.3,0-0.5,0.1-0.7,0.3
		s-0.3,0.4-0.3,0.7v33.4c0,0.3,0.1,0.5,0.3,0.7s0.4,0.3,0.7,0.3h33.4c0.3,0,0.5-0.1,0.7-0.3S71.6,70.9,71.6,70.6z M75.5,37.2v33.4
		c0,1.4-0.5,2.5-1.4,3.5c-1,1-2.1,1.4-3.5,1.4H37.2c-1.4,0-2.5-0.5-3.5-1.4c-1-1-1.4-2.1-1.4-3.5V37.2c0-1.4,0.5-2.5,1.4-3.5
		c1-1,2.1-1.4,3.5-1.4h33.4c1.4,0,2.5,0.5,3.5,1.4C75,34.7,75.5,35.8,75.5,37.2z M63.7,25.4v4.9h-3.9v-4.9c0-0.3-0.1-0.5-0.3-0.7
		s-0.4-0.3-0.7-0.3H25.4c-0.3,0-0.5,0.1-0.7,0.3s-0.3,0.4-0.3,0.7v33.4c0,0.3,0.1,0.5,0.3,0.7s0.4,0.3,0.7,0.3h4.9v3.9h-4.9
		c-1.4,0-2.5-0.5-3.5-1.4c-1-1-1.4-2.1-1.4-3.5V25.4c0-1.4,0.5-2.5,1.4-3.5s2.1-1.4,3.5-1.4h33.4c1.4,0,2.5,0.5,3.5,1.4
		C63.2,22.9,63.7,24.1,63.7,25.4z"/>
</g>
</svg>
