<?xml version="1.0" encoding="utf-8"?>
<!-- Generator: Adobe Illustrator 16.0.0, SVG Export Plug-In . SVG Version: 6.00 Build 0)  -->
<!DOCTYPE svg PUBLIC "-//W3C//DTD SVG 1.1//EN" "http://www.w3.org/Graphics/SVG/1.1/DTD/svg11.dtd">
<svg version="1.1" id="Layer_1" xmlns="http://www.w3.org/2000/svg" xmlns:xlink="http://www.w3.org/1999/xlink" x="0px" y="0px"
	 width="18px" height="18px" viewBox="127.5 134.5 248 233" enable-background="new 127.5 134.5 248 233" xml:space="preserve">
<g>
	<path fill="#ffffff" d="M355.295,269.514L325.36,179h27.68c1.122,0,1.999-0.957,1.862-2.071c-1.032-8.427-8.215-14.929-16.92-14.929h-18.289
		l-0.188-0.562L319.327,162h-17.501c-9.415,0-24.68-17-34.096-17h-35.84c-9.415,0-24.68,17-34.095,17H179.15l-0.187-0.562
		L178.784,162H162.04c-8.706,0-15.888,6.502-16.92,14.929c-0.136,1.114,0.74,2.071,1.862,2.071h26.38l-28.658,90.584l0.121,0.273
		c0.225,9.521,15.766,17.322,34.914,17.322c19.2,0,34.775-7.666,34.918-17.224l0.094-0.472L184.817,179H240v160.947
		c-29,1.033-54.235,6.303-59.104,13.938c-0.784,1.229,0.47,2.115,1.928,2.115H317.2c1.458,0,1.7-0.886,0.916-2.115
		C313.246,346.25,291,340.98,258,339.947V179h55.906l-28.658,90.584l0.121,0.273c0.225,9.521,15.766,17.322,34.914,17.322
		c19.2,0,34.774-7.902,34.918-17.457L355.295,269.514z M156.553,269l22.648-71.214L202.875,269H156.553z M297.096,269l22.647-71.214
		L343.417,269H297.096z"/>
</g>
</svg>
