<?xml version="1.0" encoding="utf-8"?>
<!-- Generator: Adobe Illustrator 16.0.0, SVG Export Plug-In . SVG Version: 6.00 Build 0)  -->
<!DOCTYPE svg PUBLIC "-//W3C//DTD SVG 1.1//EN" "http://www.w3.org/Graphics/SVG/1.1/DTD/svg11.dtd">
<svg version="1.1" id="shape_1_" xmlns="http://www.w3.org/2000/svg" xmlns:xlink="http://www.w3.org/1999/xlink" x="0px" y="0px"
	 width="18px" height="18px" viewBox="0 0 27 21" enable-background="new 0 0 27 21" xml:space="preserve">
<g id="shape">
	<g>
		<path fill-rule="evenodd" clip-rule="evenodd" fill="#1668B4" d="M12.85,2.538c-0.108,0-0.217,0-0.325,0
			c-0.6,0-1.357,1.625-1.94,1.625c-2.475,0-4.66,0-6.022,0V0.1H3.1v4.063v1.462v4.063v1.463v4.225v1.463V20.9h1.462v-4.063
			c0.36,0,0.785,0,1.307,0c0.585,0,1.345,1.625,1.947,1.625c0.107,0,0.213,0,0.32,0c0.599,0,1.362-1.625,1.958-1.625
			c4.792,0,13.806,0,13.806,0v-1.463c0,0-9.019,0-13.813,0c-0.593,0-1.354-1.625-1.95-1.625c-0.108,0-0.217,0-0.325,0
			c-0.6,0-1.357,1.625-1.94,1.625c-0.524,0-0.95,0-1.31,0V11.15c3.193,0,10.762,0,13.982,0c0.585,0,1.345,1.625,1.946,1.625
			c0.106,0,0.214,0,0.32,0c0.599,0,1.362-1.625,1.958-1.625c0.458,0,0.816,0,1.131,0V9.688c-0.315,0-0.677,0-1.138,0
			c-0.594,0-1.354-1.625-1.95-1.625c-0.108,0-0.217,0-0.325,0c-0.6,0-1.357,1.625-1.939,1.625c-3.222,0-10.792,0-13.985,0V5.625
			c1.362,0,3.546,0,6.02,0c0.585,0,1.345,1.625,1.947,1.625c0.107,0,0.213,0,0.32,0c0.598,0,1.362-1.625,1.958-1.625
			c4.792,0,9.093,0,9.093,0V4.163c0,0-4.306,0-9.101,0C14.206,4.163,13.446,2.538,12.85,2.538z"/>
	</g>
</g>
</svg>
