<?xml version="1.0" encoding="utf-8"?>
<!-- Generator: Adobe Illustrator 16.0.0, SVG Export Plug-In . SVG Version: 6.00 Build 0)  -->
<!DOCTYPE svg PUBLIC "-//W3C//DTD SVG 1.1//EN" "http://www.w3.org/Graphics/SVG/1.1/DTD/svg11.dtd">
<svg version="1.1" xmlns="http://www.w3.org/2000/svg" xmlns:xlink="http://www.w3.org/1999/xlink" x="0px" y="0px" width="98px"
	 height="100px" viewBox="0 0 98 100" enable-background="new 0 0 98 100" xml:space="preserve">
<g id="Shape_2_1_" enable-background="new    ">
	<g id="Shape_2">
		<g>
			<path fill-rule="evenodd" clip-rule="evenodd" fill="#007DBB" d="M55.999,69.997v15.998c0,0,0.005,5-3.999,5h-7c0,0-4-0.839-4-5
				V69.997h-5v15.998c0,0,1.445,9.999,8.999,9.999h7c0,0,8.998-1.512,8.998-9.999V69.997H55.999z"/>
		</g>
	</g>
</g>
<g id="Shape_1_1_" enable-background="new    ">
	
		<circle fill-rule="evenodd" clip-rule="evenodd" fill="none" stroke="#007DBB" stroke-width="4.5" stroke-miterlimit="10" cx="48.5" cy="48.602" r="25"/>
</g>
<g id="Rays_1_" enable-background="new    ">
	<g id="Rays">
		<g>
			<path fill-rule="evenodd" clip-rule="evenodd" fill="#007DBB" d="M18.003,49.5c0-1.381-1.119-2.5-2.5-2.5H5.505
				c-1.381,0-2.5,1.119-2.5,2.5s1.119,2.5,2.5,2.5h9.999C16.885,52,18.003,50.881,18.003,49.5z M9.51,29.908l8.823,4.705
				c1.218,0.649,2.732,0.188,3.382-1.029c0.649-1.219,0.188-2.733-1.029-3.382l-8.823-4.705c-1.218-0.649-2.732-0.188-3.382,1.029
				C7.831,27.744,8.292,29.258,9.51,29.908z M29.489,9.192c-0.69-1.195-2.22-1.605-3.415-0.915s-1.605,2.22-0.915,3.415l5,8.659
				c0.69,1.196,2.219,1.605,3.415,0.915c1.195-0.69,1.605-2.22,0.915-3.415L29.489,9.192z M48.82,3.27
				c-1.38,0.001-2.499,1.12-2.499,2.5v9.999c0,1.379,1.12,2.5,2.5,2.499c1.38,0,2.499-1.119,2.499-2.5V5.769
				C51.321,4.388,50.201,3.27,48.82,3.27z M72.56,9.276c-1.195-0.69-2.725-0.281-3.414,0.915l-4.999,8.659
				c-0.69,1.196-0.28,2.724,0.915,3.415c1.196,0.69,2.725,0.281,3.415-0.915l4.998-8.659C74.165,11.495,73.756,9.966,72.56,9.276z
				 M79.729,34.434l8.659-5c1.195-0.69,1.605-2.219,0.915-3.415c-0.69-1.196-2.22-1.605-3.414-0.915l-8.659,5
				c-1.195,0.69-1.605,2.218-0.915,3.415C77.005,34.715,78.533,35.124,79.729,34.434z M91.807,47.267h-9.999
				c-1.381,0-2.5,1.12-2.5,2.5c0.001,1.38,1.12,2.499,2.501,2.499h9.999c1.379,0,2.499-1.12,2.498-2.501
				C94.306,48.386,93.187,47.267,91.807,47.267z M85.359,69.491l-8.292-5.589c-1.145-0.771-2.697-0.47-3.469,0.676
				c-0.771,1.145-0.47,2.698,0.676,3.47l8.291,5.589c1.144,0.771,2.697,0.469,3.47-0.676C86.807,71.816,86.504,70.262,85.359,69.491
				z M19.661,63.595l-8.081,5.89c-1.116,0.813-1.361,2.377-0.548,3.492c0.813,1.116,2.376,1.361,3.493,0.548l8.08-5.889
				c1.116-0.813,1.361-2.377,0.548-3.493C22.34,63.027,20.776,62.782,19.661,63.595z"/>
		</g>
	</g>
</g>
</svg>
