<?xml version="1.0" encoding="utf-8"?>
<!-- Generator: Adobe Illustrator 16.0.0, SVG Export Plug-In . SVG Version: 6.00 Build 0)  -->
<!DOCTYPE svg PUBLIC "-//W3C//DTD SVG 1.1//EN" "http://www.w3.org/Graphics/SVG/1.1/DTD/svg11.dtd">
<svg version="1.1" id="Layer_1" xmlns="http://www.w3.org/2000/svg" xmlns:xlink="http://www.w3.org/1999/xlink" x="0px" y="0px"
	 width="80px" height="90px" viewBox="0 0 80 90" enable-background="new 0 0 80 90" xml:space="preserve">
<g id="Forma_1">
	<g>
		<path fill-rule="evenodd" clip-rule="evenodd" fill="#047DBB" d="M46.234,52.143c0.832,0,1.506-0.684,1.506-1.525
			s-0.674-1.523-1.506-1.523H12.108c-0.831,0-1.505,0.682-1.505,1.523s0.674,1.525,1.505,1.525H46.234z M12.756,62.893
			c-0.831,0-1.506,0.682-1.506,1.523s0.675,1.525,1.506,1.525h34.127c0.83,0,1.506-0.684,1.506-1.525s-0.676-1.523-1.506-1.523
			H12.756z M41.174,1H5.785C3.148,1,1,3.176,1,5.847v69.344c0,2.674,2.148,4.848,4.785,4.848h48.11c2.641,0,4.785-2.174,4.785-4.848
			V18.579L41.174,1z M41.654,5.661l12.449,12.402H41.654V5.661z M54.66,75.189c0,0.428-0.344,0.779-0.768,0.779H5.785
			c-0.423,0-0.766-0.352-0.766-0.779V5.847c0-0.428,0.343-0.775,0.766-0.775h33.145v13.731c0,1.123,0.904,2.032,2.012,2.032H54.66
			V75.189z M10.603,37.131c0,0.842,0.674,1.525,1.505,1.525h34.126c0.832,0,1.506-0.684,1.506-1.525s-0.674-1.525-1.506-1.525
			H12.108C11.277,35.605,10.603,36.289,10.603,37.131z"/>
	</g>
</g>
<circle fill-rule="evenodd" clip-rule="evenodd" fill="#047DBB" cx="57.5" cy="67.5" r="20.5"/>
<path fill="#FFFFFF" d="M54.458,59.95l10.192,6.116l-10.192,6.114V59.95 M52.222,56v20.133l16.777-10.066L52.222,56L52.222,56z"/>
</svg>
