<?xml version="1.0" encoding="utf-8"?>
<!-- Generator: Adobe Illustrator 16.0.0, SVG Export Plug-In . SVG Version: 6.00 Build 0)  -->
<!DOCTYPE svg PUBLIC "-//W3C//DTD SVG 1.1//EN" "http://www.w3.org/Graphics/SVG/1.1/DTD/svg11.dtd">
<svg version="1.1" id="Close_1_" xmlns="http://www.w3.org/2000/svg" xmlns:xlink="http://www.w3.org/1999/xlink" x="0px" y="0px"
	 width="58px" height="58px" viewBox="0 0 58 58" enable-background="new 0 0 58 58" xml:space="preserve">
<g id="Close">
	<g>
		<path fill-rule="evenodd" clip-rule="evenodd" fill="#1568B6" d="M38.013,19.992c-0.371-0.371-0.973-0.371-1.343,0l-7.668,7.668
			l-7.668-7.668c-0.371-0.371-0.972-0.371-1.343,0s-0.371,0.972,0,1.343l7.668,7.667l-7.667,7.667c-0.37,0.371-0.37,0.972,0,1.343
			c0.185,0.187,0.429,0.279,0.672,0.279c0.242,0,0.486-0.093,0.67-0.279l7.668-7.667l7.668,7.667
			c0.184,0.187,0.428,0.279,0.671,0.279c0.242,0,0.486-0.093,0.67-0.279c0.371-0.371,0.371-0.972,0-1.343l-7.666-7.667l7.668-7.667
			C38.384,20.964,38.384,20.363,38.013,19.992z M29.003,0.996c-15.444,0-28.007,12.564-28.007,28.008
			c0,15.441,12.563,28.005,28.007,28.005c15.442,0,28.006-12.562,28.006-28.005C57.009,13.56,44.446,0.996,29.003,0.996z
			 M29.003,55.11c-14.396,0-26.107-11.712-26.107-26.106c0-14.396,11.712-26.108,26.107-26.108
			c14.395,0,26.106,11.712,26.106,26.108C55.109,43.398,43.397,55.11,29.003,55.11z"/>
	</g>
</g>
</svg>
