<?xml version="1.0" encoding="utf-8"?>
<!-- Generator: Adobe Illustrator 16.0.0, SVG Export Plug-In . SVG Version: 6.00 Build 0)  -->
<!DOCTYPE svg PUBLIC "-//W3C//DTD SVG 1.1//EN" "http://www.w3.org/Graphics/SVG/1.1/DTD/svg11.dtd">
<svg version="1.1" id="Doc_download_1_" xmlns="http://www.w3.org/2000/svg" xmlns:xlink="http://www.w3.org/1999/xlink" x="0px"
	 y="0px" width="62px" height="87px" viewBox="0 0 62 87" enable-background="new 0 0 62 87" xml:space="preserve">
<g id="Doc_download">
	<g>
		<path fill-rule="evenodd" clip-rule="evenodd" fill="#129A7F" d="M42.053,1h-1.579H7.315C3.842,1,1,3.833,1,7.296v72.408
			C1,83.167,3.842,86,7.315,86h47.369C58.158,86,61,83.167,61,79.704V24.611v-1.574L42.053,1z M42.053,5.723l14.842,17.314H45.211
			c-1.579,0-3.158-1.574-3.158-3.148V5.723z M57.842,79.704c0,1.573-1.263,3.147-3.157,3.147H7.315
			c-1.579,0-3.158-1.259-3.158-3.147V7.296c0-1.573,1.263-3.147,3.158-3.147h31.579v15.74c0,3.463,2.843,6.297,6.316,6.297h12.631
			V79.704z"/>
	</g>
</g>
</svg>
