<?xml version="1.0" encoding="utf-8"?>
<!-- Generator: Adobe Illustrator 16.0.0, SVG Export Plug-In . SVG Version: 6.00 Build 0)  -->
<!DOCTYPE svg PUBLIC "-//W3C//DTD SVG 1.1//EN" "http://www.w3.org/Graphics/SVG/1.1/DTD/svg11.dtd">
<svg version="1.1" xmlns="http://www.w3.org/2000/svg" xmlns:xlink="http://www.w3.org/1999/xlink" x="0px" y="0px" width="28px"
	 height="30px" viewBox="0 0 74 66" enable-background="new 0 0 74 66" xml:space="preserve">
<g id="Details">
	
		<rect x="-15.513" y="-15.837" fill="none" stroke="#999999" stroke-width="0.6442" stroke-miterlimit="10" width="110.61" height="110.016"/>
</g>
<g id="Icons">
	<path fill="#702f8a" d="M48.111,13.907c-1.364,0-2.837,1.082-2.837,3.731c0,2.93,2.257,4.798,3.528,5.38c0.69,0.397,1.768,0.787,2.839,0.787
		c2.847,0,5.104-0.787,5.104-3.142C56.746,17.638,52.329,13.907,48.111,13.907 M37.543,19.979c-2.058,0-13.441,15.197-20.776,15.197
		c-1.767,0-3.24-3.334-3.24-5.873c0-1.376,0.88-2.355,4.028-3.047C34.4,22.437,30.676,9.785,45.071,9.785
		c7.941,0,16.774,5.396,16.774,17.553c0,12.938-18.414,29.012-21.165,29.012c-2.254,0-4.711-3.231-4.711-5.388
		c0-0.684,0.298-1.575,2.261-2.354c9.397-3.731,14.782-12.35,14.782-16.766c0-0.986-0.484-1.949-1.766-1.949
		c-1.656,0-8.799,16.264-16.743,16.264c-5.497,0-11.092-4.989-11.092-7.352c0-3.923,15.89-11.172,15.89-16.67
		C39.302,20.075,38.327,19.979,37.543,19.979"/>
</g>
</svg>
