<?xml version="1.0" encoding="utf-8"?>
<!-- Generator: Adobe Illustrator 16.0.0, SVG Export Plug-In . SVG Version: 6.00 Build 0)  -->
<!DOCTYPE svg PUBLIC "-//W3C//DTD SVG 1.1//EN" "http://www.w3.org/Graphics/SVG/1.1/DTD/svg11.dtd">
<svg version="1.1" id="Forma_1_1_" xmlns="http://www.w3.org/2000/svg" xmlns:xlink="http://www.w3.org/1999/xlink" x="0px" y="0px"
	 width="20px" height="20px" viewBox="0 0 20 20" enable-background="new 0 0 20 20" xml:space="preserve">
<g id="Forma_1">
	<g>
		<path fill-rule="evenodd" clip-rule="evenodd" fill="#434440" d="M17.082,7.68l-9.348,9.688c-1.149,1.192-3.021,1.192-4.169,0.001
			c-1.15-1.192-1.15-3.131,0-4.323l1.206-1.251l8.141-8.438l0.98-1.016c0.775-0.805,2.037-0.805,2.813,0
			c0.775,0.804,0.775,2.112,0,2.916L14.118,7.94l-6.533,6.771l-0.15,0.156c-0.388,0.402-1.02,0.402-1.407,0
			c-0.389-0.401-0.389-1.056,0-1.458l6.684-6.928c0.139-0.144,0.139-0.376,0-0.521c-0.14-0.144-0.363-0.144-0.503,0l-6.684,6.928
			c-0.665,0.689-0.665,1.812,0,2.5c0.665,0.689,1.747,0.688,2.412,0l0.151-0.156l6.532-6.771l2.588-2.684
			c1.053-1.091,1.054-2.867,0-3.959c-1.053-1.091-2.767-1.091-3.819,0l-0.979,1.017l-8.141,8.438l-1.205,1.25
			c-1.427,1.479-1.427,3.886,0,5.365c1.426,1.479,3.749,1.479,5.175,0L17.584,8.2c0.14-0.144,0.14-0.376,0-0.521
			C17.445,7.535,17.222,7.535,17.082,7.68z"/>
	</g>
</g>
</svg>
