<?xml version="1.0" encoding="utf-8"?>
<!-- Generator: Adobe Illustrator 16.0.0, SVG Export Plug-In . SVG Version: 6.00 Build 0)  -->
<!DOCTYPE svg PUBLIC "-//W3C//DTD SVG 1.1//EN" "http://www.w3.org/Graphics/SVG/1.1/DTD/svg11.dtd">
<svg version="1.1" id="Forma_1_1_" xmlns="http://www.w3.org/2000/svg" xmlns:xlink="http://www.w3.org/1999/xlink" x="0px" y="0px"
	 width="182px" height="117px" viewBox="0 0 182 117" enable-background="new 0 0 182 117" xml:space="preserve">
<g id="Forma_1">
	<g>
		<path fill-rule="evenodd" clip-rule="evenodd" fill="#53803A" d="M121.327,88.229c0.742,0,1.485-0.283,2.052-0.843
			c1.135-1.132,1.135-2.971,0-4.096L93.06,53.04c0,0,0,0-0.006-0.006l-2.05-2.042l-2.05,2.042c0,0,0,0-0.005,0.006L58.626,83.291
			c-1.131,1.125-1.131,2.964,0,4.096c1.135,1.126,2.975,1.126,4.105,0l25.369-25.306v51.024c0,1.601,1.302,2.896,2.903,2.896
			c1.603,0,2.9-1.296,2.9-2.896V62.081l25.369,25.306C119.841,87.952,120.584,88.229,121.327,88.229z M147.994,34.405
			c-7.15-20.062-26.021-33.418-47.512-33.418c-20.249,0-38.465,12.151-46.344,30.572c-3.709-1.715-7.746-2.603-11.846-2.603
			c-15.619,0-28.335,12.661-28.363,28.242C5.807,63.394,0.999,73.022,0.999,83.269c0,18.047,14.76,32.733,33.387,32.739
			c0.21,0,0.417,0.005,0.604,0.005c0.199,0,0.372,0,0.511-0.011h30.6c1.603,0,2.903-1.296,2.903-2.896
			c0-1.596-1.301-2.896-2.903-2.896H35.35c-0.283,0.017-0.581,0.006-0.865,0l-0.592-0.006c-14.936,0-27.088-12.084-27.088-26.94
			c0-8.883,4.39-17.21,11.741-22.263l1.335-1.323l-0.145-2.421c0-12.413,10.121-22.506,22.557-22.506
			c4.171,0,8.265,1.171,11.84,3.378l3.073,1.9l1.196-3.411c6.258-17.85,23.166-29.832,42.092-29.832
			c19.528,0,36.624,12.47,42.527,31.042l0.544,1.697l1.764,0.289c17.3,2.789,29.866,17.504,29.866,34.991
			c0,19.523-15.956,35.41-35.576,35.41h-23.713c-1.605,0-2.903,1.301-2.903,2.896c0,1.601,1.298,2.896,2.903,2.896h23.713
			c22.823,0,41.382-18.483,41.382-41.203C181.001,55.049,167.223,38.337,147.994,34.405z"/>
	</g>
</g>
</svg>
