<?xml version="1.0" standalone="no"?>
<!DOCTYPE svg PUBLIC "-//W3C//DTD SVG 20010904//EN"
 "http://www.w3.org/TR/2001/REC-SVG-20010904/DTD/svg10.dtd">
<svg version="1.0" xmlns="http://www.w3.org/2000/svg"
 width="24" height="24" viewBox="0 0 384.000000 384.000000"
 preserveAspectRatio="xMidYMid meet">
<metadata>
Created by potrace 1.10, written by Peter Selinger 2001-2011
</metadata>
<g transform="translate(0.000000,384.000000) scale(0.100000,-0.100000)"
fill="#1568b6" stroke="none">
<path d="M3717 3763 c-3 -2 -29 -6 -58 -8 -183 -12 -289 -26 -459 -61 -127
-27 -349 -91 -420 -122 -19 -8 -50 -21 -67 -28 -143 -60 -275 -128 -328 -168
-18 -14 -36 -26 -40 -26 -16 0 -209 -155 -281 -226 -98 -96 -283 -297 -386
-418 -168 -198 -295 -347 -318 -373 l-28 -33 -336 0 -335 0 -34 -30 c-19 -16
-60 -62 -93 -101 -32 -40 -90 -108 -127 -153 -196 -233 -190 -224 -182 -270 8
-40 45 -76 78 -76 11 0 45 -7 76 -16 118 -33 157 -43 181 -48 14 -3 43 -10 65
-15 22 -6 53 -13 68 -16 21 -4 27 -10 23 -21 -3 -9 -9 -41 -12 -72 -6 -57 -19
-92 -54 -147 -11 -16 -24 -39 -30 -50 -6 -11 -19 -33 -30 -50 -11 -16 -24 -40
-29 -52 -5 -11 -15 -24 -20 -28 -18 -11 -13 -123 7 -158 41 -75 141 -196 226
-276 21 -20 46 -43 55 -52 24 -23 132 -102 168 -121 35 -20 147 -25 158 -7 4
5 17 15 28 20 12 5 36 18 52 29 17 11 39 24 50 30 11 5 29 16 40 22 71 46 99
58 132 58 21 0 54 4 72 10 19 5 37 8 39 5 3 -3 9 -24 13 -47 4 -24 13 -63 19
-88 21 -79 38 -144 54 -201 9 -31 16 -65 16 -76 0 -49 70 -93 119 -75 19 7 84
58 231 182 42 36 109 92 149 124 39 33 85 74 101 93 l30 34 0 335 0 335 24 22
c14 13 46 41 72 62 519 436 744 647 881 827 40 53 73 99 73 102 0 3 13 24 29
48 42 64 100 170 133 248 8 19 22 51 31 70 30 68 47 116 76 210 51 171 61 206
61 227 0 11 6 43 14 69 26 88 48 248 61 439 2 28 4 55 5 60 5 26 -2 43 -19 48
-11 3 -22 3 -24 0z m-127 -195 c1 -38 -31 -229 -46 -284 -8 -28 -14 -59 -14
-69 0 -17 -15 -75 -45 -175 -7 -25 -16 -60 -20 -77 -4 -18 -11 -35 -16 -38 -5
-4 -9 -16 -9 -29 0 -12 -7 -31 -15 -42 -8 -10 -15 -27 -15 -37 0 -11 -6 -31
-14 -45 -8 -15 -32 -65 -55 -112 -124 -255 -221 -379 -487 -630 -32 -30 -95
-86 -139 -124 -44 -38 -82 -72 -85 -75 -3 -4 -41 -37 -85 -75 -44 -37 -93 -80
-110 -94 -26 -23 -331 -277 -440 -367 -60 -50 -141 -115 -204 -163 -30 -23
-58 -46 -61 -50 -14 -20 -275 -222 -286 -222 -7 0 -35 13 -61 28 -169 101
-351 274 -457 434 -76 116 -76 117 -20 190 61 81 167 211 176 218 4 3 27 31
50 61 47 62 111 142 163 204 18 22 75 91 126 154 151 183 348 415 401 471 12
13 52 58 88 100 233 270 402 423 602 545 9 5 65 34 125 64 59 29 116 57 125
62 33 17 178 66 273 94 33 9 76 22 95 28 19 6 55 14 80 18 25 5 68 13 95 19
97 20 210 38 248 39 32 1 37 -2 37 -21z m-2410 -1443 c0 -12 -26 -48 -95 -130
-42 -51 -108 -133 -160 -199 -76 -99 -74 -97 -130 -81 -28 7 -78 21 -112 29
-35 9 -89 23 -120 31 -32 8 -67 16 -78 18 -27 4 -23 36 9 73 13 16 57 67 96
113 39 46 79 95 88 109 9 14 28 30 44 36 39 17 458 17 458 1z m-334 -972 c113
-136 257 -275 370 -358 15 -11 12 -15 -27 -42 -81 -55 -106 -65 -131 -51 -97
55 -301 259 -356 356 -14 25 -4 50 51 131 27 39 31 42 42 27 7 -9 30 -37 51
-63z m1290 -195 c-1 -235 -4 -252 -49 -281 -13 -8 -62 -48 -108 -87 -46 -39
-97 -83 -113 -96 -37 -32 -69 -36 -73 -9 -2 11 -10 46 -18 78 -8 31 -22 85
-31 120 -8 34 -22 84 -29 112 -16 56 -18 54 81 130 105 82 225 180 278 227 62
55 63 53 62 -194z"/>
<path d="M2500 2975 c-14 -8 -35 -14 -46 -15 -12 0 -27 -7 -34 -15 -7 -8 -18
-15 -25 -15 -21 0 -113 -100 -134 -145 -54 -115 -62 -180 -34 -279 38 -140
138 -240 279 -279 99 -28 165 -20 279 34 45 21 131 99 146 132 5 12 13 29 18
37 49 85 49 255 0 340 -5 8 -13 25 -18 37 -13 28 -96 111 -124 124 -12 5 -29
13 -37 18 -65 37 -224 53 -270 26z m148 -157 c128 -31 199 -144 170 -269 -17
-75 -92 -149 -167 -166 -158 -37 -305 110 -268 268 17 74 93 152 163 167 27 5
50 10 52 11 2 0 24 -4 50 -11z"/>
<path d="M425 865 c-16 -13 -67 -43 -113 -67 -46 -23 -94 -49 -108 -56 -42
-22 -110 -97 -131 -143 -60 -132 -73 -207 -73 -435 l0 -165 187 4 c253 6 323
21 458 100 30 17 95 82 95 94 0 6 6 15 13 21 7 6 37 59 66 116 29 58 57 108
62 111 5 4 9 16 9 28 -1 27 -79 87 -114 87 -25 0 -25 0 -118 -180 -21 -41 -46
-84 -56 -95 -68 -80 -178 -116 -400 -131 l-52 -3 5 67 c9 115 22 205 37 251
17 52 101 151 128 151 10 0 22 4 25 10 3 5 27 20 53 32 87 43 160 88 166 105
6 14 -9 42 -58 106 -18 23 -45 21 -81 -8z"/>
</g>
</svg>
