<?xml version="1.0" encoding="utf-8"?>
<!-- Generator: Adobe Illustrator 16.0.0, SVG Export Plug-In . SVG Version: 6.00 Build 0)  -->
<!DOCTYPE svg PUBLIC "-//W3C//DTD SVG 1.1//EN" "http://www.w3.org/Graphics/SVG/1.1/DTD/svg11.dtd">
<svg version="1.1" xmlns="http://www.w3.org/2000/svg" xmlns:xlink="http://www.w3.org/1999/xlink" x="0px" y="0px" width="15px"
	 height="19px" viewBox="0 0 15 19" enable-background="new 0 0 15 19" xml:space="preserve">
<g id="Bulb_1_" enable-background="new    ">
</g>
<g id="Bulb_copy_1_" enable-background="new    ">
	<g id="Bulb_copy">
		<g>
			<path fill-rule="evenodd" clip-rule="evenodd" fill="#A6ADB3" d="M8.587,16.936H6.388c-0.305,0-0.55,0.238-0.55,0.532
				S6.083,18,6.388,18h2.199c0.305,0,0.55-0.238,0.55-0.532S8.892,16.936,8.587,16.936z M10.787,13.743h-6.6
				c-0.304,0-0.55,0.238-0.55,0.532s0.246,0.532,0.55,0.532h6.6c0.304,0,0.55-0.238,0.55-0.532S11.091,13.743,10.787,13.743z
				 M9.688,15.34h-4.4c-0.304,0-0.55,0.237-0.55,0.532c0,0.294,0.246,0.531,0.55,0.531h4.4c0.304,0,0.55-0.237,0.55-0.531
				C10.237,15.577,9.991,15.34,9.688,15.34z M11.989,2.745c-2.523-2.361-6.479-2.361-9.004,0C0.461,5.104,0.327,8.928,2.68,11.45
				c0.108,0.116,0.258,0.176,0.408,0.176c0.131,0,0.263-0.046,0.368-0.138c0.226-0.196,0.244-0.533,0.04-0.751
				C1.543,8.644,1.654,5.469,3.75,3.51c2.096-1.96,5.38-1.96,7.475,0c2.096,1.959,2.207,5.134,0.254,7.228
				c-0.204,0.218-0.186,0.555,0.04,0.751s0.573,0.179,0.776-0.038C14.647,8.928,14.514,5.104,11.989,2.745z M10.787,12.147h-6.6
				c-0.304,0-0.55,0.237-0.55,0.532c0,0.294,0.246,0.531,0.55,0.531h6.6c0.304,0,0.55-0.237,0.55-0.531
				C11.337,12.385,11.091,12.147,10.787,12.147z"/>
		</g>
	</g>
</g>
</svg>
