<?xml version="1.0" encoding="utf-8"?>
<!-- Generator: Adobe Illustrator 16.0.0, SVG Export Plug-In . SVG Version: 6.00 Build 0)  -->
<!DOCTYPE svg PUBLIC "-//W3C//DTD SVG 1.1//EN" "http://www.w3.org/Graphics/SVG/1.1/DTD/svg11.dtd">
<svg version="1.1" xmlns="http://www.w3.org/2000/svg" xmlns:xlink="http://www.w3.org/1999/xlink" x="0px" y="0px" width="15px"
	 height="16px" viewBox="0 0 15 16" enable-background="new 0 0 15 16" xml:space="preserve">
<g id="check_3_" enable-background="new    ">
</g>
<g id="check_2_" enable-background="new    ">
	<g id="check_1_">
		<g>
			<path fill-rule="evenodd" clip-rule="evenodd" fill="#A6ADB3" d="M5.49,6.645C5.183,6.342,4.707,6.361,4.423,6.688
				C4.14,7.017,4.159,7.527,4.465,7.83l2.725,3.328l0.066,0.082l0.068,0.084l0.028,0.019l0.057,0.061l0.147,0.072l0.034,0.017
				l0.231,0.043l0.01-0.002c0.205,0.001,0.409-0.08,0.559-0.254l0.061-0.105l0.004-0.005l5.423-8.919
				c0.228-0.373,0.129-0.874-0.219-1.118C13.53,1.043,13.388,1,13.246,1c-0.245,0-0.486,0.129-0.631,0.365L7.756,9.414L5.49,6.645z
				 M13.001,14.002H2.068L2.005,2.089H10.3l0.39-0.935H2.067c-0.595,0-1.078,0.517-1.078,1.153v11.538
				C0.989,14.482,1.473,15,2.067,15h10.777c0.595,0,1.077-0.518,1.077-1.154V6.228L13.001,7.91V14.002z"/>
		</g>
	</g>
</g>
</svg>
