<?xml version="1.0" encoding="utf-8"?>
<!-- Generator: Adobe Illustrator 16.0.0, SVG Export Plug-In . SVG Version: 6.00 Build 0)  -->
<!DOCTYPE svg PUBLIC "-//W3C//DTD SVG 1.1//EN" "http://www.w3.org/Graphics/SVG/1.1/DTD/svg11.dtd">
<svg version="1.1" id="Layer_1" xmlns="http://www.w3.org/2000/svg" xmlns:xlink="http://www.w3.org/1999/xlink" x="0px" y="0px"
	 width="25px" height="35px" viewBox="0 0 25 35" enable-background="new 0 0 25 35" xml:space="preserve">
<g>
	<path fill="none" stroke="#A6ADB4" stroke-width="0.5" stroke-miterlimit="10" d="M18.637,22.504v-4.211
		c0-9.397-3.977-15.078-5.639-17.038c-0.182-0.214-0.443-0.339-0.725-0.339c-0.276,0-0.541,0.12-0.724,0.328
		c-1.688,1.96-5.743,7.641-5.743,17.049v4.215l-0.782,0.521c-1.495,1.012-2.397,2.705-2.397,4.514v5.029
		c0,0.297,0.167,0.572,0.427,0.713c0.267,0.143,0.585,0.127,0.829-0.041l2.527-1.684c0.709-0.469,1.543-0.725,2.398-0.725h1.854
		v2.439c0,0.449,0.366,0.809,0.814,0.809h1.484c0.449,0,0.814-0.359,0.814-0.809v-2.439h1.854c0.854,0,1.688,0.25,2.397,0.725
		l2.527,1.684c0.245,0.168,0.568,0.184,0.829,0.041c0.266-0.141,0.427-0.416,0.427-0.713v-5.029c0-1.809-0.901-3.498-2.396-4.514
		L18.637,22.504z M12.221,15.906c-1.542,0-2.798-1.251-2.798-2.794c0-1.547,1.256-2.799,2.798-2.799
		c1.543,0,2.795,1.251,2.795,2.799C15.016,14.654,13.764,15.906,12.221,15.906L12.221,15.906z M12.221,15.906"/>
</g>
</svg>
