<?xml version="1.0" encoding="utf-8"?>
<!-- Generator: Adobe Illustrator 16.0.0, SVG Export Plug-In . SVG Version: 6.00 Build 0)  -->
<!DOCTYPE svg PUBLIC "-//W3C//DTD SVG 1.1//EN" "http://www.w3.org/Graphics/SVG/1.1/DTD/svg11.dtd">
<svg version="1.1" id="lock_xA0_Image_1_" xmlns="http://www.w3.org/2000/svg" xmlns:xlink="http://www.w3.org/1999/xlink" x="0px"
	 y="0px" width="16px" height="19px" viewBox="0 0 16 19" enable-background="new 0 0 16 19" xml:space="preserve">
<g>
	<path fill="#12CB9F" d="M12.431,7.612v-2.35c0-2.599-2.104-4.704-4.702-4.704c-2.599,0-4.705,2.105-4.705,4.704v2.35
		c-0.865,0-1.568,0.703-1.568,1.568v7.843c0,0.865,0.703,1.566,1.568,1.566h9.407c0.867,0,1.569-0.701,1.569-1.566V9.18
		C14,8.315,13.298,7.612,12.431,7.612L12.431,7.612z M4.591,5.262c0-1.732,1.405-3.137,3.137-3.137c1.732,0,3.136,1.405,3.136,3.137
		v2.35H4.591V5.262z M12.431,17.022H3.024V9.182h9.407V17.022z M6.943,13.668v1.002c0,0.432,0.353,0.782,0.785,0.782
		s0.783-0.351,0.783-0.782v-1.002c0.467-0.271,0.784-0.772,0.784-1.351c0-0.867-0.702-1.568-1.567-1.568
		c-0.867,0-1.567,0.701-1.567,1.568C6.161,12.896,6.477,13.396,6.943,13.668L6.943,13.668z M6.943,13.668"/>
</g>
</svg>
