<?xml version="1.0" encoding="utf-8"?>
<!-- Generator: Adobe Illustrator 16.0.0, SVG Export Plug-In . SVG Version: 6.00 Build 0)  -->
<!DOCTYPE svg PUBLIC "-//W3C//DTD SVG 1.1//EN" "http://www.w3.org/Graphics/SVG/1.1/DTD/svg11.dtd">
<svg version="1.1" id="Layer_1" xmlns="http://www.w3.org/2000/svg" xmlns:xlink="http://www.w3.org/1999/xlink" x="0px" y="0px"
	 width="25px" height="35px" viewBox="0 0 25 35" enable-background="new 0 0 25 35" xml:space="preserve">
<g>
	<path fill="none" stroke="#40BC99" stroke-width="0.5" stroke-miterlimit="10" d="M19.57,22.504v-4.211
		c0-9.397-3.977-15.078-5.639-17.038c-0.183-0.214-0.443-0.339-0.726-0.339c-0.276,0-0.541,0.12-0.723,0.328
		c-1.689,1.96-5.744,7.641-5.744,17.049v4.215l-0.782,0.521c-1.496,1.012-2.397,2.705-2.397,4.514v5.029
		c0,0.297,0.167,0.572,0.427,0.713c0.267,0.143,0.584,0.127,0.829-0.041l2.528-1.684c0.709-0.469,1.542-0.725,2.397-0.725h1.854
		v2.439c0,0.449,0.366,0.809,0.814,0.809h1.485c0.448,0,0.813-0.359,0.813-0.809v-2.439h1.854c0.855,0,1.689,0.25,2.398,0.725
		l2.527,1.684c0.244,0.168,0.568,0.184,0.828,0.041c0.266-0.141,0.428-0.416,0.428-0.713v-5.029c0-1.809-0.902-3.498-2.396-4.514
		L19.57,22.504z M13.154,15.906c-1.542,0-2.798-1.251-2.798-2.794c0-1.547,1.256-2.799,2.798-2.799c1.543,0,2.794,1.251,2.794,2.799
		C15.948,14.654,14.697,15.906,13.154,15.906L13.154,15.906z M13.154,15.906"/>
</g>
</svg>
