<?xml version="1.0" encoding="utf-8"?>
<!-- Generator: Adobe Illustrator 16.0.0, SVG Export Plug-In . SVG Version: 6.00 Build 0)  -->
<!DOCTYPE svg PUBLIC "-//W3C//DTD SVG 1.1//EN" "http://www.w3.org/Graphics/SVG/1.1/DTD/svg11.dtd">
<svg version="1.1" id="Layer_1" xmlns="http://www.w3.org/2000/svg" xmlns:xlink="http://www.w3.org/1999/xlink" x="0px" y="0px"
	 width="59px" height="60px" viewBox="0 0 59 60" enable-background="new 0 0 59 60" xml:space="preserve">
<g id="Postpone_Gate">
	<g>
		<path fill="#8E8E8D" d="M30.153,2.564c-15.185,0.006-27.5,12.32-27.5,27.503s12.315,27.491,27.5,27.497
			c15.187-0.006,27.503-12.314,27.503-27.497S45.345,2.567,30.153,2.564z M30.153,52.064c-12.149-0.027-21.976-9.854-22-21.997
			c0.021-12.149,9.854-21.981,22-22.003c12.149,0.021,21.979,9.854,22,22.003C52.132,42.211,42.302,52.037,30.153,52.064z
			 M31.656,13.564h-5v19h14v-5h-9V13.564z"/>
	</g>
</g>
</svg>
