<?xml version="1.0" encoding="utf-8"?>
<!-- Generator: Adobe Illustrator 16.0.0, SVG Export Plug-In . SVG Version: 6.00 Build 0)  -->
<!DOCTYPE svg PUBLIC "-//W3C//DTD SVG 1.1//EN" "http://www.w3.org/Graphics/SVG/1.1/DTD/svg11.dtd">
<svg version="1.1" id="Shape_1_1_" xmlns="http://www.w3.org/2000/svg" xmlns:xlink="http://www.w3.org/1999/xlink" x="0px" y="0px"
	 width="38px" height="38px" viewBox="0 0 38 38" enable-background="new 0 0 38 38" xml:space="preserve">
<g id="Shape_1">
	<g>
		<path fill-rule="evenodd" clip-rule="evenodd" fill="#1797C0" d="M37.001,33.639l-9.826-8.946c1.766-2.571,2.816-5.71,2.816-9.03
			C29.991,7.472,23.995,1,15.895,1C7.793,1,1,7.472,1,15.662c0,8.189,6.701,15.34,14.689,15.34c3.09,0,5.924-1.078,8.244-2.864
			l9.742,8.863L37.001,33.639z M15.676,26.999c-5.789,0-10.669-5.111-10.669-11.173S9.888,5.002,15.676,5.002
			s10.336,4.763,10.336,10.824S21.464,26.999,15.676,26.999z"/>
	</g>
</g>
</svg>
