<?xml version="1.0" encoding="utf-8"?>
<!-- Generator: Adobe Illustrator 16.0.0, SVG Export Plug-In . SVG Version: 6.00 Build 0)  -->
<!DOCTYPE svg PUBLIC "-//W3C//DTD SVG 1.1//EN" "http://www.w3.org/Graphics/SVG/1.1/DTD/svg11.dtd">
<svg version="1.1" id="Layer_1" xmlns="http://www.w3.org/2000/svg" xmlns:xlink="http://www.w3.org/1999/xlink" x="0px" y="0px"
	 width="52px" height="60px" viewBox="0 0 52 60" enable-background="new 0 0 52 60" xml:space="preserve">
<g id="Stop">
	<g>
		<path fill="#E31E26" d="M43.333,12.389c-4.723-4.723-11-7.324-17.678-7.324c-6.676,0-12.955,2.602-17.677,7.324
			c-4.723,4.723-7.323,11-7.323,17.676c0,6.677,2.6,12.955,7.323,17.677c4.722,4.722,11.001,7.323,17.677,7.323
			c6.678,0,12.955-2.602,17.678-7.323c4.723-4.724,7.322-11,7.322-17.677C50.656,23.389,48.056,17.109,43.333,12.389z
			 M25.656,49.707c-5.247,0-10.181-2.043-13.889-5.754c-3.709-3.709-5.754-8.644-5.754-13.889c0-4.342,1.418-8.454,4.001-11.854
			l27.496,27.494C34.112,48.291,30,49.707,25.656,49.707z M41.3,41.918L13.805,14.426c3.397-2.586,7.513-4.002,11.854-4.002
			c5.244-0.002,10.177,2.041,13.886,5.752c3.713,3.709,5.756,8.644,5.756,13.889C45.3,34.407,43.882,38.52,41.3,41.918z"/>
	</g>
</g>
</svg>
