<?xml version="1.0" encoding="utf-8"?>
<!-- Generator: Adobe Illustrator 16.0.0, SVG Export Plug-In . SVG Version: 6.00 Build 0)  -->
<!DOCTYPE svg PUBLIC "-//W3C//DTD SVG 1.1//EN" "http://www.w3.org/Graphics/SVG/1.1/DTD/svg11.dtd">
<svg version="1.1" xmlns="http://www.w3.org/2000/svg" xmlns:xlink="http://www.w3.org/1999/xlink" x="0px" y="0px" width="325px"
	 height="75px" viewBox="0 0 325 75" enable-background="new 0 0 325 75" xml:space="preserve">
<g id="Shape_29_1_" enable-background="new    ">
	<g id="Shape_29">
		<g>
			<path fill-rule="evenodd" clip-rule="evenodd" fill="#BAC11A" d="M115.504,19.045c-3.967-0.86-9.639,0.686-12.609,3.438L4.064,75
				h147.84l-8.09-42.858c-0.756-3.989-4.609-7.953-8.576-8.813L115.504,19.045z"/>
		</g>
	</g>
</g>
<g id="Shape_30_1_" enable-background="new    ">
	<g id="Shape_30">
		<g>
			<path fill-rule="evenodd" clip-rule="evenodd" fill="#71A841" d="M244.049,16.362L201.381,3.554
				c-3.914-1.171-10.008-0.437-13.539,1.638l-33.358,19.582c-3.531,2.074-5.81,7.075-5.057,11.11L156.673,75h84.178l8.978-49.155
				C250.563,21.8,247.963,17.534,244.049,16.362z"/>
		</g>
	</g>
</g>
<g id="Shape_31_1_" enable-background="new    ">
	<g id="Shape_31">
		<g>
			<path fill-rule="evenodd" clip-rule="evenodd" fill="#E1E00A" d="M324.172,75c-2.935-8.832-8.497-21.042-9.793-23.532
				l-5.813-11.157c-1.926-3.701-36.93-16.883-40.618-18.647l-4.501-2.157c-3.688-1.765-7.113,0.157-7.621,4.27L246.561,75H324.172z"
				/>
		</g>
	</g>
</g>
</svg>
