<?xml version="1.0" encoding="utf-8"?>
<!-- Generator: Adobe Illustrator 16.0.0, SVG Export Plug-In . SVG Version: 6.00 Build 0)  -->
<!DOCTYPE svg PUBLIC "-//W3C//DTD SVG 1.1//EN" "http://www.w3.org/Graphics/SVG/1.1/DTD/svg11.dtd">
<svg version="1.1" xmlns="http://www.w3.org/2000/svg" xmlns:xlink="http://www.w3.org/1999/xlink" x="0px" y="0px" width="16px"
	 height="19px" viewBox="0 0 16 19" enable-background="new 0 0 16 19" xml:space="preserve">
<g id="S_xA0_Image_3_">
</g>
<g id="S_xA0_Image_1_">
</g>
<g id="check_3_" enable-background="new    ">
</g>
<g id="check_2_" enable-background="new    ">
	<g id="check_1_">
		<g>
			<path fill-rule="evenodd" clip-rule="evenodd" fill="#13CCA0" d="M6.49,8.645C6.184,8.342,5.707,8.361,5.423,8.688
				C5.14,9.017,5.159,9.527,5.465,9.83l2.724,3.329l0.066,0.081l0.068,0.084l0.027,0.019l0.059,0.061l0.146,0.072l0.033,0.017
				l0.232,0.043l0.01-0.002c0.205,0.001,0.408-0.08,0.559-0.254l0.061-0.105l0.004-0.005l5.423-8.919
				c0.228-0.373,0.13-0.874-0.22-1.118C14.531,3.043,14.387,3,14.246,3c-0.245,0-0.486,0.129-0.631,0.365l-4.859,8.049L6.49,8.645z
				 M14,16.002H3.068L3.005,4.089H11.3l0.39-0.935H3.067c-0.595,0-1.078,0.517-1.078,1.153v11.538C1.989,16.482,2.473,17,3.067,17
				h10.776c0.596,0,1.078-0.518,1.078-1.154V8.228L14,9.91V16.002z"/>
		</g>
	</g>
</g>
<g id="Bulb_3_" enable-background="new    ">
</g>
<g id="Gate_2_3_" enable-background="new    ">
</g>
<g id="Gate_2_2_" enable-background="new    ">
</g>
<g id="Bulb_2_" enable-background="new    ">
</g>
</svg>
