<?xml version="1.0" encoding="utf-8"?>
<!-- Generator: Adobe Illustrator 16.0.0, SVG Export Plug-In . SVG Version: 6.00 Build 0)  -->
<!DOCTYPE svg PUBLIC "-//W3C//DTD SVG 1.1//EN" "http://www.w3.org/Graphics/SVG/1.1/DTD/svg11.dtd">
<svg version="1.1" id="Layer_1" xmlns="http://www.w3.org/2000/svg" xmlns:xlink="http://www.w3.org/1999/xlink" x="0px" y="0px"
	 width="9px" height="9px" viewBox="0 0 9 9" enable-background="new 0 0 9 9" xml:space="preserve">
<path fill="#ABABAB" d="M7.822,2.342L5.664,4.5l2.158,2.159c0.32,0.321,0.32,0.842,0,1.163c-0.16,0.161-0.371,0.24-0.582,0.24
	c-0.209,0-0.42-0.079-0.58-0.24L4.5,5.662l-2.159,2.16C2.18,7.983,1.97,8.063,1.76,8.063c-0.21,0-0.421-0.079-0.581-0.24
	c-0.322-0.321-0.322-0.842,0-1.163L3.337,4.5L1.178,2.342c-0.321-0.321-0.321-0.842,0-1.163s0.841-0.321,1.162,0L4.5,3.338
	l2.16-2.159c0.32-0.321,0.84-0.321,1.162,0C8.143,1.5,8.143,2.021,7.822,2.342L7.822,2.342z"/>
</svg>
