<?xml version="1.0" encoding="utf-8"?>
<!-- Generator: Adobe Illustrator 15.0.0, SVG Export Plug-In . SVG Version: 6.00 Build 0)  -->
<!DOCTYPE svg PUBLIC "-//W3C//DTD SVG 1.1//EN" "http://www.w3.org/Graphics/SVG/1.1/DTD/svg11.dtd">
<svg version="1.1" id="Layer_1" xmlns="http://www.w3.org/2000/svg" xmlns:xlink="http://www.w3.org/1999/xlink" x="0px" y="0px"
	 width="120px" height="120px" viewBox="0 0 120 120" enable-background="new 0 0 120 120" xml:space="preserve">
<rect x="31" y="18.54" fill="#F8FAF6" width="58" height="78.96"/>
<g>
	<defs>
		<rect id="SVGID_1_" width="120" height="120"/>
	</defs>
	<clipPath id="SVGID_2_">
		<use xlink:href="#SVGID_1_"  overflow="visible"/>
	</clipPath>
	<path clip-path="url(#SVGID_2_)" fill="#2E91CF" d="M66.914,94.584H52.853c-3.365,0-6.094-2.726-6.094-6.092
		c0-2.58,1.601-4.784,3.866-5.674l-0.004-21.59c-2.262-0.897-3.862-3.095-3.862-5.665c0-3.366,2.742-6.094,6.126-6.094h10.367
		c3.382,0,6.125,2.728,6.125,6.094l-0.088,27.313c2.188,0.926,3.719,3.092,3.719,5.615C73.008,91.858,70.279,94.584,66.914,94.584
		 M60,21.46c5.179,0,9.376,4.199,9.376,9.375c0,5.18-4.197,9.375-9.376,9.375c-5.176,0-9.375-4.195-9.375-9.375
		C50.625,25.661,54.824,21.46,60,21.46 M60,0C26.863,0,0,26.866,0,60c0,33.139,26.863,60,60,60s60-26.861,60-60
		C120,26.866,93.137,0,60,0"/>
</g>
</svg>
