<?xml version="1.0" encoding="utf-8"?>
<!-- Generator: Adobe Illustrator 15.0.0, SVG Export Plug-In . SVG Version: 6.00 Build 0)  -->
<!DOCTYPE svg PUBLIC "-//W3C//DTD SVG 1.1//EN" "http://www.w3.org/Graphics/SVG/1.1/DTD/svg11.dtd">
<svg version="1.1" id="Layer_1" xmlns="http://www.w3.org/2000/svg" xmlns:xlink="http://www.w3.org/1999/xlink" x="0px" y="0px"
	 width="64px" height="64px" viewBox="0 0 64 64" enable-background="new 0 0 64 64" xml:space="preserve">
<g>
	<defs>
		<rect id="SVGID_1_" x="0.473" y="5.229" width="63" height="53.543"/>
	</defs>
	<clipPath id="SVGID_2_">
		<use xlink:href="#SVGID_1_"  overflow="visible"/>
	</clipPath>
	<path clip-path="url(#SVGID_2_)" fill="#2E91CF" d="M1.102,15.33c-0.419,0.431-0.629,0.947-0.629,1.549v39.732
		c0,0.601,0.21,1.112,0.629,1.531c0.419,0.42,0.941,0.629,1.566,0.629h58.608c0.626,0,1.148-0.209,1.567-0.629
		c0.418-0.419,0.629-0.931,0.629-1.531V13.942c0-0.603-0.151-1.264-0.452-1.985c-0.303-0.721-0.666-1.294-1.098-1.726l-3.484-3.454
		c-0.432-0.516-1.001-0.902-1.711-1.161c-0.712-0.258-1.367-0.388-1.971-0.388H39.719c-0.624,0-1.292,0.151-2,0.454
		c-0.712,0.3-1.283,0.665-1.713,1.095l-5.646,6.359c-0.432,0.432-1.008,0.797-1.727,1.097c-0.721,0.302-1.383,0.452-1.985,0.452
		H2.668C2.043,14.684,1.521,14.9,1.102,15.33"/>
</g>
</svg>
