<?xml version="1.0" encoding="utf-8"?>
<!-- Generator: Adobe Illustrator 15.0.0, SVG Export Plug-In . SVG Version: 6.00 Build 0)  -->
<!DOCTYPE svg PUBLIC "-//W3C//DTD SVG 1.1//EN" "http://www.w3.org/Graphics/SVG/1.1/DTD/svg11.dtd">
<svg version="1.1" id="Layer_1" xmlns="http://www.w3.org/2000/svg" xmlns:xlink="http://www.w3.org/1999/xlink" x="0px" y="0px"
	 width="120px" height="120px" viewBox="0 0 120 120" enable-background="new 0 0 120 120" xml:space="preserve">
<g>
	<defs>
		<rect id="SVGID_1_" width="120" height="120"/>
	</defs>
	<clipPath id="SVGID_2_">
		<use xlink:href="#SVGID_1_"  overflow="visible"/>
	</clipPath>
	<path clip-path="url(#SVGID_2_)" fill-rule="evenodd" clip-rule="evenodd" fill="#8FC972" d="M120,108.001
		c0,6.627-5.373,11.999-12,11.999H12c-6.628,0-12-5.372-12-11.999v-96c0-6.628,5.372-12,12-12h96c6.627,0,12,5.372,12,12V108.001z"
		/>
	<path clip-path="url(#SVGID_2_)" fill="#F8FAF6" d="M47.849,71.256h24.218c0.682-4.1,1.818-7.141,5.98-12.227
		c4.086-5.161,5.963-9.563,5.963-15.483c0-12.828-10.656-23.228-24.053-23.228c-13.396,0-23.969,10.4-23.969,23.228
		c0,5.92,1.717,10.322,5.881,15.483C46.032,64.115,47.167,67.156,47.849,71.256"/>
	<path clip-path="url(#SVGID_2_)" fill-rule="evenodd" clip-rule="evenodd" fill="#C9F2A0" d="M47.897,83.927h24.207
		c1.453,0,2.631,0.928,2.631,2.381s-1.178,2.631-2.631,2.631H47.897c-1.453,0-2.632-1.178-2.632-2.631S46.444,83.927,47.897,83.927"
		/>
	<path clip-path="url(#SVGID_2_)" fill-rule="evenodd" clip-rule="evenodd" fill="#C9F2A0" d="M47.897,74.923h24.207
		c1.453,0,2.631,1.095,2.631,2.548s-1.178,2.413-2.631,2.413H47.897c-1.453,0-2.632-0.96-2.632-2.413S46.444,74.923,47.897,74.923"
		/>
	<path clip-path="url(#SVGID_2_)" fill="#5D8838" d="M60.001,99.964c6.348,0,8.424-3.68,11.577-11.025H48.423
		C51.642,96.35,53.719,99.964,60.001,99.964"/>
</g>
</svg>
