<?xml version="1.0" encoding="utf-8"?>
<!-- Generator: Adobe Illustrator 15.0.0, SVG Export Plug-In . SVG Version: 6.00 Build 0)  -->
<!DOCTYPE svg PUBLIC "-//W3C//DTD SVG 1.1//EN" "http://www.w3.org/Graphics/SVG/1.1/DTD/svg11.dtd">
<svg version="1.1" id="Layer_1" xmlns="http://www.w3.org/2000/svg" xmlns:xlink="http://www.w3.org/1999/xlink" x="0px" y="0px"
	 width="64px" height="64px" viewBox="0 0 64 64" enable-background="new 0 0 64 64" xml:space="preserve">
<g>
	<g>
		<defs>
			<rect id="SVGID_1_" x="0.488" y="1" width="63" height="61.576"/>
		</defs>
		<clipPath id="SVGID_2_">
			<use xlink:href="#SVGID_1_"  overflow="visible"/>
		</clipPath>
		<path clip-path="url(#SVGID_2_)" fill="#314658" d="M38.587,52.26c-0.088-0.246-0.176-0.449-0.263-0.611
			c-0.125-0.192-0.258-0.36-0.399-0.502l-1.112-0.582h-9.646l-1.113,0.582c-0.16,0.142-0.292,0.31-0.399,0.502
			c-0.088,0.162-0.172,0.365-0.25,0.611c-0.08,0.248-0.119,0.529-0.119,0.848c0,0.336,0.008,0.547,0.025,0.638
			c0,0.069,0.009,0.141,0.027,0.213c0.034,0.104,0.062,0.215,0.078,0.33c0.02,0.112,0.028,0.226,0.028,0.332
			c0,0.104-0.008,0.205-0.028,0.305c-0.017,0.097-0.044,0.189-0.078,0.279c-0.018,0.032-0.027,0.088-0.027,0.157
			c-0.017,0.068-0.025,0.255-0.025,0.558c0,0.299,0.034,0.556,0.105,0.769c0.07,0.211,0.15,0.389,0.238,0.528
			c0.105,0.179,0.229,0.31,0.372,0.396c0.158,0.091,0.313,0.179,0.463,0.267c0.15,0.09,0.278,0.136,0.384,0.136
			c0.088,0,0.194,0.047,0.318,0.145c0.123,0.096,0.229,0.217,0.319,0.357l1.06,1.696c0.088,0.142,0.228,0.271,0.424,0.384
			c0.194,0.114,0.379,0.206,0.555,0.278h4.956c0.162-0.072,0.336-0.164,0.53-0.278c0.194-0.113,0.347-0.242,0.451-0.384l0.955-1.696
			c0.104-0.142,0.228-0.263,0.369-0.357c0.142-0.098,0.258-0.145,0.346-0.145c0.07,0,0.188-0.046,0.358-0.136
			c0.166-0.088,0.328-0.176,0.488-0.267c0.142-0.088,0.266-0.219,0.371-0.396c0.088-0.141,0.172-0.317,0.252-0.528
			c0.08-0.213,0.119-0.47,0.119-0.769c0-0.229-0.018-0.416-0.054-0.558c-0.019-0.069-0.026-0.125-0.026-0.157
			c-0.07-0.144-0.104-0.336-0.104-0.584s0.034-0.47,0.104-0.662c0-0.071,0.008-0.144,0.026-0.213
			c0.036-0.181,0.054-0.392,0.054-0.638C38.721,52.789,38.677,52.508,38.587,52.26 M38.721,43.992c0-0.707,0.049-1.326,0.146-1.857
			c0.097-0.529,0.292-1.098,0.583-1.709c0.293-0.609,0.702-1.32,1.231-2.133s1.221-1.848,2.066-3.1
			c0.902-1.326,1.691-2.555,2.373-3.685c0.681-1.132,1.246-2.206,1.695-3.221c0.453-1.018,0.785-2.011,1.007-2.982
			c0.223-0.973,0.333-1.98,0.333-3.022c0-1.466-0.196-2.879-0.584-4.239c-0.391-1.361-0.94-2.634-1.656-3.816
			c-0.717-1.185-1.568-2.258-2.559-3.221c-0.988-0.962-2.086-1.789-3.287-2.479c-1.2-0.688-2.481-1.223-3.842-1.603
			c-1.36-0.38-2.772-0.569-4.241-0.569c-1.483,0-2.92,0.189-4.307,0.569c-1.387,0.38-2.677,0.915-3.87,1.603
			c-1.192,0.69-2.278,1.517-3.259,2.479c-0.981,0.963-1.825,2.036-2.532,3.221c-0.706,1.182-1.249,2.455-1.629,3.816
			c-0.379,1.36-0.571,2.773-0.571,4.239c0,1.131,0.103,2.169,0.306,3.114c0.202,0.946,0.521,1.905,0.954,2.876
			c0.433,0.972,0.99,2.011,1.669,3.115c0.68,1.104,1.498,2.38,2.452,3.829c0.849,1.271,1.537,2.324,2.067,3.152
			c0.53,0.832,0.937,1.555,1.219,2.174c0.283,0.619,0.473,1.192,0.569,1.724c0.097,0.53,0.147,1.149,0.147,1.854v1.433
			c0,0.514,0.181,0.954,0.543,1.323c0.361,0.371,0.791,0.603,1.285,0.688h9.859c0.512-0.088,0.944-0.317,1.299-0.688
			c0.354-0.369,0.529-0.812,0.529-1.323v-1.562H38.721z"/>
	</g>
</g>
</svg>
