<svg id="Layer_1" data-name="Layer 1" xmlns="http://www.w3.org/2000/svg" xmlns:xlink="http://www.w3.org/1999/xlink" viewBox="0 0 100 100"><defs><style>.cls-1{fill:none;}.cls-2{clip-path:url(#clip-path);}.cls-3{fill:#54698d;}.cls-4{fill:#fff;}</style><clipPath id="clip-path"><rect class="cls-1" x="3" y="3" width="94" height="94"/></clipPath></defs><title>TEM_icon</title><g class="cls-2"><path class="cls-3" d="M50,97A47,47,0,1,0,3,50,47,47,0,0,0,50,97"/><path class="cls-4" d="M56.53,61.88a1.21,1.21,0,0,1-1.3,1.18H44.78a1.2,1.2,0,0,1-1.3-1.18V59.27a1.42,1.42,0,0,1,1.3-1.44,1.2,1.2,0,0,0,1.31-1.18V51.44A1.42,1.42,0,0,0,44.78,50a1.2,1.2,0,0,1-1.3-1.18V46.21a1.42,1.42,0,0,1,1.3-1.44h7.83a1.43,1.43,0,0,1,1.31,1.44V56.66a1.21,1.21,0,0,0,1.31,1.18,1.43,1.43,0,0,1,1.3,1.44v2.61ZM50,34.46a3.92,3.92,0,1,1-3.92,3.92A3.85,3.85,0,0,1,50,34.46m0-15.8A31.33,31.33,0,1,0,81.33,50,31.26,31.26,0,0,0,50,18.67"/></g></svg>