<?xml version="1.0" encoding="utf-8"?>
<!-- Generator: Adobe Illustrator 15.0.0, SVG Export Plug-In . SVG Version: 6.00 Build 0)  -->
<!DOCTYPE svg PUBLIC "-//W3C//DTD SVG 1.1//EN" "http://www.w3.org/Graphics/SVG/1.1/DTD/svg11.dtd">
<svg version="1.1" id="Layer_1" xmlns="http://www.w3.org/2000/svg" xmlns:xlink="http://www.w3.org/1999/xlink" x="0px" y="0px"
	 width="64px" height="64px" viewBox="0 0 64 64" enable-background="new 0 0 64 64" xml:space="preserve">
<g>
	<defs>
		<rect id="SVGID_1_" x="0.5" y="0.782" width="63" height="62.436"/>
	</defs>
	<clipPath id="SVGID_2_">
		<use xlink:href="#SVGID_1_"  overflow="visible"/>
	</clipPath>
	<path clip-path="url(#SVGID_2_)" fill="#2E91CF" d="M61.3,12.204l-8.002,7.854c-0.812,0.814-1.64,1.454-2.482,1.917
		c-0.843,0.466-1.712,0.7-2.603,0.7c-0.754,0-1.528-0.182-2.321-0.55c-0.795-0.366-1.618-0.966-2.47-1.8
		c-0.834-0.832-1.437-1.655-1.813-2.468c-0.377-0.814-0.564-1.606-0.564-2.379c0-0.438,0.113-0.899,0.34-1.385
		c0.229-0.485,0.503-0.957,0.819-1.413c0.315-0.457,0.652-0.883,1.012-1.279c0.357-0.397,0.692-0.742,1.011-1.042l7.615-7.583
		L51.126,2.06c-0.396-0.415-0.912-0.731-1.548-0.95c-0.632-0.218-1.268-0.328-1.901-0.328c-0.218,0-0.429,0.016-0.627,0.044
		c-0.198,0.029-0.396,0.074-0.592,0.134L34.855,4.767c-0.398,0.14-0.818,0.323-1.264,0.551c-0.447,0.23-0.897,0.486-1.354,0.773
		c-0.455,0.289-0.889,0.585-1.294,0.893c-0.405,0.307-0.749,0.6-1.025,0.878L1.332,36.508C0.776,37.062,0.5,37.728,0.5,38.5
		c0,0.754,0.276,1.407,0.832,1.962l21.924,21.922c0.612,0.556,1.298,0.834,2.051,0.834c0.715,0,1.35-0.278,1.904-0.834
		l28.674-28.613c0.278-0.259,0.565-0.586,0.864-0.982c0.298-0.396,0.595-0.827,0.891-1.293c0.298-0.467,0.556-0.928,0.775-1.383
		c0.218-0.458,0.396-0.865,0.533-1.22l3.929-11.542c0.156-0.495,0.237-1.01,0.237-1.547c0-0.516-0.085-1.027-0.255-1.532
		c-0.166-0.504-0.44-0.938-0.814-1.293L61.3,12.204z M49.996,16.993L62.994,4.024c0.161-0.138,0.283-0.312,0.372-0.521
		c0.09-0.208,0.134-0.419,0.134-0.638c0-0.477-0.168-0.883-0.506-1.219c-0.337-0.317-0.723-0.477-1.16-0.477
		c-0.495,0-0.91,0.16-1.248,0.477l-12.97,12.969c-0.299,0.357-0.444,0.753-0.444,1.189c0,0.417,0.146,0.813,0.444,1.19
		c0.338,0.297,0.742,0.446,1.22,0.446C49.312,17.439,49.7,17.291,49.996,16.993"/>
</g>
</svg>
