<?xml version="1.0" encoding="utf-8"?>
<!-- Generator: Adobe Illustrator 16.0.0, SVG Export Plug-In . SVG Version: 6.00 Build 0)  -->
<!DOCTYPE svg PUBLIC "-//W3C//DTD SVG 1.1//EN" "http://www.w3.org/Graphics/SVG/1.1/DTD/svg11.dtd">
<svg version="1.1" xmlns="http://www.w3.org/2000/svg" xmlns:xlink="http://www.w3.org/1999/xlink" x="0px" y="0px" width="16px"
	 height="19px" viewBox="0 0 16 19" enable-background="new 0 0 16 19" xml:space="preserve">
<g id="S_xA0_Image_3_">
</g>
<g id="S_xA0_Image_1_">
</g>
<g id="check_3_" enable-background="new    ">
</g>
<g id="check_2_" enable-background="new    ">
</g>
<g id="Bulb_3_" enable-background="new    ">
	<g id="Bulb">
		<g>
			<path fill-rule="evenodd" clip-rule="evenodd" fill="#A6ADB3" d="M11.787,13.743h-6.6c-0.304,0-0.55,0.238-0.55,0.532
				s0.246,0.532,0.55,0.532h6.6c0.304,0,0.55-0.238,0.55-0.532S12.091,13.743,11.787,13.743z M9.587,16.936h-2.2
				c-0.304,0-0.55,0.238-0.55,0.532S7.083,18,7.387,18h2.2c0.304,0,0.55-0.238,0.55-0.532S9.891,16.936,9.587,16.936z M10.687,15.34
				H6.288c-0.304,0-0.55,0.237-0.55,0.532c0,0.294,0.246,0.531,0.55,0.531h4.399c0.304,0,0.55-0.237,0.55-0.531
				C11.237,15.577,10.991,15.34,10.687,15.34z M11.787,12.147h-6.6c-0.304,0-0.55,0.237-0.55,0.532c0,0.294,0.246,0.531,0.55,0.531
				h6.6c0.304,0,0.55-0.237,0.55-0.531C12.337,12.385,12.091,12.147,11.787,12.147z M12.989,2.745c-2.523-2.361-6.478-2.361-9.003,0
				C1.461,5.104,1.327,8.928,3.68,11.45c0.108,0.116,0.258,0.176,0.408,0.176c0.131,0,0.263-0.046,0.368-0.138
				c0.226-0.196,0.244-0.533,0.04-0.751C2.543,8.644,2.655,5.469,4.75,3.51c2.096-1.96,5.379-1.96,7.474,0
				c2.096,1.959,2.208,5.134,0.255,7.228c-0.204,0.218-0.186,0.555,0.04,0.751s0.574,0.179,0.776-0.038
				C15.647,8.928,15.513,5.104,12.989,2.745z"/>
		</g>
	</g>
</g>
<g id="Gate_2_3_" enable-background="new    ">
</g>
<g id="Gate_2_2_" enable-background="new    ">
</g>
<g id="Bulb_2_" enable-background="new    ">
</g>
</svg>
