<?xml version="1.0" encoding="utf-8"?>
<!-- Generator: Adobe Illustrator 16.0.0, SVG Export Plug-In . SVG Version: 6.00 Build 0)  -->
<!DOCTYPE svg PUBLIC "-//W3C//DTD SVG 1.1//EN" "http://www.w3.org/Graphics/SVG/1.1/DTD/svg11.dtd">
<svg version="1.1" id="Layer_1" xmlns="http://www.w3.org/2000/svg" xmlns:xlink="http://www.w3.org/1999/xlink" x="0px" y="0px"
	 width="43px" height="60px" viewBox="0 0 43 60" enable-background="new 0 0 43 60" xml:space="preserve">
<g id="Expanded_3_">
	<g>
		<g>
			<path fill="#496E0F" d="M35.667,49.248H7.912v-33.47h27.755V49.248z M9.546,47.614h24.487V17.412H9.546V47.614z"/>
		</g>
		<g>
			<path fill="#496E0F" d="M30.77,17.412H12.81v-6.531h17.96V17.412z M14.443,15.778h14.692v-3.264H14.443V15.778z"/>
		</g>
		<g>
			<path fill="#496E0F" d="M15.259,43.532c-0.451,0-0.815-0.364-0.815-0.815V22.31c0-0.451,0.364-0.815,0.815-0.815
				c0.452,0,0.816,0.364,0.816,0.815v20.407C16.075,43.168,15.711,43.532,15.259,43.532z"/>
		</g>
		<g>
			<path fill="#496E0F" d="M21.79,43.532c-0.451,0-0.817-0.364-0.817-0.815V22.31c0-0.451,0.366-0.815,0.817-0.815
				s0.816,0.364,0.816,0.815v20.407C22.606,43.168,22.241,43.532,21.79,43.532z"/>
		</g>
		<g>
			<path fill="#496E0F" d="M28.32,43.532c-0.452,0-0.816-0.364-0.816-0.815V22.31c0-0.451,0.364-0.815,0.816-0.815
				c0.45,0,0.815,0.364,0.815,0.815v20.407C29.136,43.168,28.771,43.532,28.32,43.532z"/>
		</g>
		<g>
			<rect x="2.198" y="15.778" fill="#496E0F" width="39.183" height="1.634"/>
		</g>
	</g>
</g>
</svg>
