<?xml version="1.0" encoding="utf-8"?>
<!-- Generator: Adobe Illustrator 16.0.0, SVG Export Plug-In . SVG Version: 6.00 Build 0)  -->
<!DOCTYPE svg PUBLIC "-//W3C//DTD SVG 1.1//EN" "http://www.w3.org/Graphics/SVG/1.1/DTD/svg11.dtd">
<svg version="1.1" id="Layer_1" xmlns="http://www.w3.org/2000/svg" xmlns:xlink="http://www.w3.org/1999/xlink" x="0px" y="0px"
	 width="16px" height="18px" viewBox="0 0 29 26" enable-background="new 0 0 29 26" xml:space="preserve">
<g id="download">
	<g>
		<path fill-rule="evenodd" clip-rule="evenodd" fill="#1E69B3" d="M26.845,15.643c-0.496,0-0.899,0.414-0.899,0.924v6.459h-23.4
			v-6.459c0-0.51-0.403-0.924-0.9-0.924s-0.9,0.414-0.9,0.924v7.383c0,0.51,0.403,0.924,0.9,0.924h25.2c0.497,0,0.9-0.414,0.9-0.924
			v-7.383C27.746,16.057,27.342,15.643,26.845,15.643z M13.601,19.066c0.179,0.184,0.41,0.273,0.645,0.273s0.466-0.09,0.645-0.271
			l5.395-6.455c0.354-0.363,0.354-0.953,0-1.318c-0.354-0.363-0.929-0.363-1.285,0l-3.854,4.613V1.799c0-0.51-0.403-0.924-0.9-0.924
			s-0.9,0.414-0.9,0.924v14.109L9.49,11.295c-0.354-0.363-0.929-0.363-1.285,0c-0.354,0.365-0.354,0.955,0,1.318L13.601,19.066z"/>
	</g>
</g>
</svg>
