<?xml version="1.0" encoding="utf-8"?>
<!-- Generator: Adobe Illustrator 16.0.4, SVG Export Plug-In . SVG Version: 6.00 Build 0)  -->
<!DOCTYPE svg PUBLIC "-//W3C//DTD SVG 1.1//EN" "http://www.w3.org/Graphics/SVG/1.1/DTD/svg11.dtd">
<svg version="1.1" id="Layer_1" xmlns="http://www.w3.org/2000/svg" xmlns:xlink="http://www.w3.org/1999/xlink" x="0px" y="0px"
	 width="50px" height="50px" viewBox="0 0 235.5 235.5" enable-background="new 0 0 235.5 235.5" xml:space="preserve">
<g transform="translate(0.000000,384.000000) scale(0.100000,-0.100000)">
	<path fill="#46741D" stroke-width="10" stroke="#46741D" d="M676.494,3500.644c-12.295-5.459-5.464-14.57,12.295-17.759c10.02-1.821,19.131-5.01,20.952-7.285
		c1.367-2.28,6.372-4.097,11.841-4.097c5.005,0,15.479-2.734,23.223-6.377c8.198-3.643,18.672-7.29,23.682-8.652
		c15.942-4.102,40.073-13.208,68.311-26.416c15.024-6.831,30.513-13.662,34.16-15.024c3.638-1.367,10.015-4.556,13.652-6.836
		c3.643-2.271,10.024-5.464,13.667-6.826c3.647-1.821,13.208-6.831,20.488-11.841c7.744-5.01,17.769-10.933,22.773-13.667
		c51.006-25.952,158.94-117.944,204.937-174.868c10.015-12.3,21.396-25.508,25.498-29.6c14.116-14.575,42.812-56.016,47.808-68.765
		c1.382-3.647,4.556-10.938,7.3-15.947c7.271-13.208,17.295-52.822,17.295-68.76c0-25.962-14.106-48.726-55.098-90.171
		c-22.319-22.314-40.078-40.986-39.624-41.895c0.918-0.913,53.74-53.74,117.495-117.954
		c102.012-102.466,132.07-127.964,132.07-112.026c0,5.005,112.935,118.862,118.403,118.862c2.734,0,4.551-1.821,4.551-4.102
		c0-2.275,18.223-23.218,40.083-46.914c26.411-28.677,42.798-50.532,48.267-65.112c7.739-20.039,7.739-22.773,0.903-44.18
		c-4.087-12.749-7.28-31.416-7.28-42.349c0-18.672,1.362-20.498,74.224-91.987c61.03-60.122,76.973-73.32,91.084-76.05
		c36.899-6.836,43.271-2.734,129.346,83.33c43.711,44.17,82.881,84.707,86.963,90.62c3.652,5.469,9.57,10.024,12.764,10.024
		c4.541,0,6.377,5.923,6.377,18.228c0,14.57-1.836,18.208-8.203,18.208c-15.938,0-62.383-35.068-114.761-86.074
		c-28.682-28.232-61.479-57.842-71.948-65.122l-20.039-13.662l-18.672,8.193c-22.31,10.02-89.258,74.692-101.094,97.456
		c-5.469,10.479-8.657,28.696-9.57,56.021c-1.821,46.445-15.938,81.514-47.358,117.949c-27.778,32.324-71.045,63.301-91.533,66.035
		c-24.141,3.643-41.445-4.561-86.074-40.537c-21.406-16.851-42.812-30.967-47.817-30.967c-16.855,0-35.977,16.396-97.007,81.064
		c-54.644,58.286-60.112,65.576-57.378,76.968c1.826,7.28,6.826,16.841,10.928,21.851c4.565,5.015,15.493,22.773,24.595,39.17
		c39.619,72.861,20.952,148.008-64.209,253.652c-51.919,64.673-81.06,94.727-135.703,138.447
		c-66.035,53.276-75.146,61.929-75.146,69.678c0,4.551,4.556,6.826,15.938,6.826c23.687,0,107.017-8.652,127.51-13.657
		c10.015-2.28,36.89-7.749,59.209-11.841c47.808-8.657,98.359-24.595,129.331-40.078c28.691-14.57,87.891-69.224,224.512-206.299
		c125.688-126.147,124.78-125.234,111.572-172.598c-10.469-35.977-3.638-54.648,35.059-96.543
		c46.46-50.552,106.113-81.973,145.283-76.504c30.508,4.092,50.088-3.193,86.064-32.344c40.986-33.237,55.557-42.349,67.402-42.349
		c7.744,0,9.111,2.734,9.111,20.493c0,13.208-1.836,20.498-5.469,20.498c-3.184,0-13.672,9.102-24.141,20.029
		c-10.02,10.938-28.223,30.977-40.977,44.18c-25.049,26.865-15.942,25.054-97.915,21.865c-45.542-1.826-48.271-0.464-98.359,49.18
		c-18.218,18.218-35.532,33.237-38.267,33.237c-10.015,0-3.638,19.585,11.392,35.068c14.575,15.029,15.938,18.672,15.938,43.267
		c0,19.58-1.812,27.324-6.831,29.146c-3.638,1.821-6.826,4.556-6.826,6.382c0,3.633-37.349,40.981-241.362,243.179
		c-81.069,79.692-112.49,107.476-123.418,107.476c-3.647,0-10.474,3.188-15.02,6.826c-5.02,3.647-13.672,6.831-19.131,6.831
		c-5.464,0-15.938,3.188-22.773,6.836c-7.29,3.643-17.759,6.831-22.773,6.831c-5.459,0-15.928,3.188-22.764,6.831
		c-7.29,3.638-19.126,6.831-26.875,6.831c-7.28,0-26.865,2.734-43.267,6.372c-50.088,11.387-86.978,17.305-134.336,21.406
		c-25.044,2.28-62.847,5.918-84.253,8.198c-21.406,2.275-59.199,4.551-84.248,4.551c-25.044,0.459-65.122,3.193-88.799,6.831
		C727.954,3499.736,683.325,3503.378,676.494,3500.644z"/>
	<path fill="#46741D" stroke-width="10" stroke="#46741D" d="M1963.145,2744.58c0,0,87.969-69.062-10.273-144.121l32.891-22.461l40.762,44.189c0,0,31.045,91.113-27.09,147.998
		c-58.125,56.875-41.406-21.885-41.406-21.885"/>
	<path fill="#46741D" stroke-width="10" stroke="#46741D" d="M1036.26,2774.277c-9.561-10.469-170.771-172.593-358.853-360.679c-187.627-187.622-345.195-346.553-349.297-353.389
		c-10.928-15.938-10.474-45.073,0.913-61.934c4.556-7.28,43.721-47.817,86.528-89.722c62.842-61.475,80.146-76.494,90.625-76.494
		c6.826,0,14.57-2.285,17.759-5.469c4.097-4.092,7.744-4.092,15.483-0.459c5.923,2.734,16.396,6.377,23.682,8.203
		c9.106,1.826,108.389,98.364,360.22,349.746c190.811,190.82,352.485,351.567,359.321,357.036
		c11.836,10.469,16.387,28.696,7.28,28.696c-2.734,0-52.822,48.271-111.572,107.017c-58.75,58.74-107.017,108.838-107.017,111.572
		C1071.333,2799.331,1052.197,2791.582,1036.26,2774.277z M1070.415,2709.155c20.039-10.474,136.626-131.157,139.805-144.81
		c2.285-8.657,0.464-15.938-5.913-25.059c-10.474-14.57-629.365-632.549-649.858-649.395c-21.406-16.846-27.324-17.305-46.45-3.643
		c-25.957,19.121-107.021,105.19-117.041,123.867c-5.918,11.387-7.739,20.493-5.464,29.6c2.275,9.565,97.91,107.939,334.263,344.736
		c182.622,182.163,332.9,331.089,334.722,331.089C1056.753,2715.542,1063.589,2712.807,1070.415,2709.155z"/>
</g>
</svg>
