<?xml version="1.0" encoding="utf-8"?>
<!-- Generator: Adobe Illustrator 16.0.0, SVG Export Plug-In . SVG Version: 6.00 Build 0)  -->
<!DOCTYPE svg PUBLIC "-//W3C//DTD SVG 1.1//EN" "http://www.w3.org/Graphics/SVG/1.1/DTD/svg11.dtd">
<svg version="1.1" id="tick_1_" xmlns="http://www.w3.org/2000/svg" xmlns:xlink="http://www.w3.org/1999/xlink" x="0px" y="0px"
	 width="62px" height="87px" viewBox="0 0 62 87" enable-background="new 0 0 62 87" xml:space="preserve">
<g id="tick">
	<g>
		<path fill-rule="evenodd" clip-rule="evenodd" fill="#70C4E8" d="M42.053,1h-1.579H7.315C3.842,1,1,3.833,1,7.296v72.408
			C1,83.167,3.842,86,7.315,86h47.369C58.158,86,61,83.167,61,79.704V24.611v-1.574L42.053,1z M42.053,5.722l14.842,17.315H45.211
			c-1.579,0-3.158-1.574-3.158-3.148V5.722z M57.842,79.704c0,1.573-1.263,3.147-3.157,3.147H7.315
			c-1.578,0-3.158-1.259-3.158-3.147V7.296c0-1.574,1.263-3.147,3.158-3.147h31.579v15.74c0,3.463,2.842,6.297,6.316,6.297h12.631
			V79.704z M25.829,60.293l-7.694-7.52c-0.946-0.924-2.478-0.924-3.424,0c-0.945,0.925-0.945,2.423,0,3.347l9.407,9.193
			c0.473,0.462,1.092,0.692,1.711,0.692s1.24-0.23,1.713-0.693c0.001-0.001,0.002-0.004,0.005-0.006l20.74-20.273
			c0.945-0.924,0.945-2.423,0-3.347s-2.479-0.924-3.423,0L25.829,60.293z"/>
	</g>
</g>
</svg>
