<?xml version="1.0" encoding="utf-8"?>
<!-- Generator: Adobe Illustrator 16.0.0, SVG Export Plug-In . SVG Version: 6.00 Build 0)  -->
<!DOCTYPE svg PUBLIC "-//W3C//DTD SVG 1.1//EN" "http://www.w3.org/Graphics/SVG/1.1/DTD/svg11.dtd">
<svg version="1.1" xmlns="http://www.w3.org/2000/svg" xmlns:xlink="http://www.w3.org/1999/xlink" x="0px" y="0px" width="12px"
	 height="17px" viewBox="0 0 12 17" enable-background="new 0 0 12 17" xml:space="preserve">
<g id="Gate_3_1_" enable-background="new    ">
</g>
<g id="Gate_2_1_" enable-background="new    ">
	<g id="Gate_2">
		<g>
			<path fill-rule="evenodd" clip-rule="evenodd" fill="#A6ADB3" d="M8.766,10.014H3.25c-0.134,0-0.243,0.218-0.243,0.486
				s0.109,0.486,0.243,0.486h5.516c0.135,0,0.244-0.218,0.244-0.486S8.9,10.014,8.766,10.014z M8.766,12.008H3.25
				c-0.134,0-0.243,0.218-0.243,0.486S3.116,12.98,3.25,12.98h5.516c0.135,0,0.244-0.218,0.244-0.486S8.9,12.008,8.766,12.008z
				 M8.766,8.018H3.25c-0.134,0-0.243,0.218-0.243,0.486S3.116,8.99,3.25,8.99h5.516C8.9,8.99,9.01,8.772,9.01,8.504
				S8.9,8.018,8.766,8.018z M11,3L9,1L1.828,1.001c-0.457,0-0.83,0.413-0.83,0.92V15.08c0,0.507,0.373,0.92,0.83,0.92h8.343
				c0.458,0,0.83-0.413,0.83-0.92L11,3z M8.835,2.377L9.87,3.624H8.835V2.377z M9.991,14.871c0,0.075-0.059,0.137-0.132,0.137H2.133
				c-0.069,0-0.126-0.063-0.126-0.143V2.135c0-0.078,0.057-0.143,0.126-0.143l5.88,0.001L8,4c0,0.775,0.808,1,1,1l0.991-0.01V14.871
				z M8.766,6.025H3.25c-0.134,0-0.243,0.218-0.243,0.486S3.116,6.999,3.25,6.999h5.516C8.9,6.999,9.01,6.78,9.01,6.512
				S8.9,6.025,8.766,6.025z"/>
		</g>
	</g>
</g>
</svg>
