<?xml version="1.0" encoding="utf-8"?>
<!-- Generator: Adobe Illustrator 16.0.0, SVG Export Plug-In . SVG Version: 6.00 Build 0)  -->
<!DOCTYPE svg PUBLIC "-//W3C//DTD SVG 1.1//EN" "http://www.w3.org/Graphics/SVG/1.1/DTD/svg11.dtd">
<svg version="1.1" id="Layer_1" xmlns="http://www.w3.org/2000/svg" xmlns:xlink="http://www.w3.org/1999/xlink" x="0px" y="0px"
	 width="48px" height="60px" viewBox="0 0 48 60" enable-background="new 0 0 48 60" xml:space="preserve">
<g id="Propose">
	<g>
		<path fill="#496E0F" d="M28.499,30.064c0-0.391-0.152-0.736-0.455-1.037L6.813,8.016c-0.304-0.301-0.653-0.45-1.048-0.45
			s-0.744,0.149-1.047,0.45L2.44,10.27c-0.304,0.301-0.455,0.646-0.455,1.038c0,0.39,0.152,0.735,0.455,1.036l17.904,17.721
			L2.439,47.783c-0.304,0.301-0.455,0.646-0.455,1.037c0,0.393,0.151,0.737,0.455,1.037l2.278,2.255
			c0.303,0.302,0.652,0.451,1.047,0.451s0.744-0.149,1.048-0.451l21.231-21.011C28.347,30.801,28.499,30.455,28.499,30.064z
			 M45.538,29.027L24.307,8.016c-0.303-0.301-0.652-0.45-1.048-0.45c-0.394,0-0.744,0.149-1.047,0.45l-2.277,2.254
			c-0.304,0.301-0.455,0.646-0.455,1.038c0,0.39,0.152,0.735,0.455,1.036l17.904,17.721L19.935,47.783
			c-0.304,0.301-0.455,0.646-0.455,1.037c0,0.393,0.152,0.737,0.455,1.037l2.277,2.255c0.304,0.302,0.653,0.451,1.047,0.451
			c0.396,0,0.745-0.149,1.048-0.451l21.23-21.011c0.304-0.301,0.455-0.646,0.455-1.037S45.843,29.328,45.538,29.027z"/>
	</g>
</g>
</svg>
