<?xml version="1.0" encoding="utf-8"?>
<!-- Generator: Adobe Illustrator 16.0.0, SVG Export Plug-In . SVG Version: 6.00 Build 0)  -->
<!DOCTYPE svg PUBLIC "-//W3C//DTD SVG 1.1//EN" "http://www.w3.org/Graphics/SVG/1.1/DTD/svg11.dtd">
<svg version="1.1" xmlns="http://www.w3.org/2000/svg" xmlns:xlink="http://www.w3.org/1999/xlink" x="0px" y="0px" width="13px"
	 height="19px" viewBox="0 0 13 19" enable-background="new 0 0 13 19" xml:space="preserve">
<g id="S_xA0_Image_3_">
</g>
<g id="S_xA0_Image_1_">
</g>
<g id="check_3_" enable-background="new    ">
</g>
<g id="check_2_" enable-background="new    ">
</g>
<g id="Bulb_3_" enable-background="new    ">
</g>
<g id="Gate_2_3_" enable-background="new    ">
</g>
<g id="Gate_2_2_" enable-background="new    ">
	<g id="Gate_2_1_">
		<g>
			<path fill-rule="evenodd" clip-rule="evenodd" fill="#00B487" d="M9.766,13.008H4.25c-0.134,0-0.243,0.218-0.243,0.486
				S4.116,13.98,4.25,13.98h5.516c0.134,0,0.243-0.218,0.243-0.486S9.9,13.008,9.766,13.008z M12,4l-2-2L2.828,2.001
				c-0.458,0-0.83,0.413-0.83,0.92V16.08c0,0.507,0.373,0.92,0.83,0.92h8.343c0.458,0,0.83-0.413,0.83-0.92L12,4z M9.835,3.377
				l1.035,1.247H9.835V3.377z M10.992,15.871c0,0.075-0.06,0.137-0.132,0.137H3.133c-0.069,0-0.125-0.063-0.125-0.143V3.135
				c0-0.078,0.056-0.143,0.125-0.143l5.88,0.001L9,5c0,0.775,0.808,1,1,1l0.992-0.01V15.871z M9.766,7.025H4.25
				c-0.134,0-0.243,0.218-0.243,0.486S4.116,7.999,4.25,7.999h5.516c0.134,0,0.243-0.219,0.243-0.487S9.9,7.025,9.766,7.025z
				 M9.766,9.018H4.25c-0.134,0-0.243,0.218-0.243,0.486S4.116,9.99,4.25,9.99h5.516c0.134,0,0.243-0.218,0.243-0.486
				S9.9,9.018,9.766,9.018z M9.766,11.014H4.25c-0.134,0-0.243,0.218-0.243,0.486s0.109,0.486,0.243,0.486h5.516
				c0.134,0,0.243-0.218,0.243-0.486S9.9,11.014,9.766,11.014z"/>
		</g>
	</g>
</g>
<g id="Bulb_2_" enable-background="new    ">
</g>
</svg>
