<?xml version="1.0" encoding="utf-8"?>
<!-- Generator: Adobe Illustrator 16.0.0, SVG Export Plug-In . SVG Version: 6.00 Build 0)  -->
<!DOCTYPE svg PUBLIC "-//W3C//DTD SVG 1.1//EN" "http://www.w3.org/Graphics/SVG/1.1/DTD/svg11.dtd">
<svg version="1.1" xmlns="http://www.w3.org/2000/svg" xmlns:xlink="http://www.w3.org/1999/xlink" x="0px" y="0px" width="14px"
	 height="14px" viewBox="0 0 14 14" enable-background="new 0 0 14 14" xml:space="preserve">
<g id="Circle_1_1_" enable-background="new    ">
	<g id="Circle_1">
		<g>
			<circle fill-rule="evenodd" clip-rule="evenodd" fill="#DA291C" cx="7" cy="7" r="6"/>
		</g>
	</g>
</g>
<g id="close_1_" enable-background="new    ">
	<g id="close">
		<g>
			<path fill-rule="evenodd" clip-rule="evenodd" fill="#FFFFFF" d="M8.421,6.988L9.692,5.72c0.396-0.396,0.396-1.037,0-1.433
				c-0.396-0.396-1.038-0.396-1.435,0L6.987,5.556l-1.271-1.27c-0.396-0.396-1.039-0.396-1.435,0s-0.396,1.037,0,1.433l1.271,1.27
				l-1.271,1.27c-0.396,0.396-0.396,1.037,0,1.433s1.038,0.396,1.435,0l1.271-1.27l1.271,1.269c0.396,0.396,1.038,0.396,1.435,0
				c0.396-0.396,0.396-1.036,0-1.432L8.421,6.988z"/>
		</g>
	</g>
</g>
</svg>
