<?xml version="1.0" encoding="UTF-8" standalone="no"?>
<svg width="120px" height="120px" viewBox="0 0 120 120" version="1.1" xmlns="http://www.w3.org/2000/svg" xmlns:xlink="http://www.w3.org/1999/xlink">
	<g stroke="none" stroke-width="1" fill="none" fill-rule="evenodd">
		<path d="M120,108 C120,114.6 114.6,120 108,120 L12,120 C5.4,120 0,114.6 0,108 L0,12 C0,5.4 5.4,0 12,0 L108,0 C114.6,0 120,5.4 120,12 L120,108 L120,108 Z" id="Shape" fill="#2A739E"/>
		<path d="M77.7383308,20 L61.1640113,20 L44.7300055,63.2000173 L56.0543288,63.2000173 L40,99.623291 L72.7458388,54.5871812 L60.907727,54.5871812 L77.7383308,20 Z" id="Path-1" fill="#FFFFFF"/>
        <path  d="M23.7 19.6L13.2 2.5c-.6-.9-1.8-.9-2.4 0L.3 19.6c-.7 1.1 0 2.6 1.1 2.6h21.2c1.1 0 1.8-1.5 1.1-2.6zM12 18.5c-.8 0-1.4-.6-1.4-1.4s.6-1.4 1.4-1.4 1.4.6 1.4 1.4-.6 1.4-1.4 1.4zm1.4-4.2c0 .3-.2.5-.5.5h-1.8c-.3 0-.5-.2-.5-.5v-6c0-.3.2-.5.5-.5h1.8c.3 0 .5.2.5.5v6z" id="Path-1" fill="#FFFFFF"/>
	</g>
</svg>